<svg width="193" height="209" viewBox="0 0 193 209" fill="none" xmlns="http://www.w3.org/2000/svg">
<path fill-rule="evenodd" clip-rule="evenodd" d="M91.6416 79.3961C92.6025 79.3695 93.9251 79.3328 94.1236 79.6099C94.8319 80.5978 95.0567 81.7573 94.9569 82.9644C94.8674 84.0385 93.9159 85.8016 92.8613 86.0579C96.3091 89.9004 97.2682 80.9297 96.5734 79.1471C96.0317 77.7581 94.4607 76.9383 92.9686 77.0014C92.3725 77.0266 91.8174 77.1535 91.3958 77.4028C90.7696 77.7737 90.4385 78.4152 90.706 79.3975C90.8603 79.4178 91.2152 79.408 91.6413 79.3961H91.6416ZM187.074 54.5253L187.117 54.3321C187.593 52.1098 188.481 43.4369 184.031 44.9181C183.03 45.2513 181.898 46.3007 180.839 47.2824C180.211 47.8644 179.609 48.4227 179.075 48.7939C178.501 49.1931 177.921 49.5837 177.34 49.9743L177.34 49.9744C176.237 50.7172 175.133 51.46 174.071 52.2623L173.938 52.3623C171.809 53.9706 170.492 54.9651 167.862 55.8491C165.062 56.7905 162.258 57.7221 159.443 58.616C148.196 62.1872 136.689 65.1914 124.88 66.0641C115.431 66.762 105.99 66.5424 96.5374 66.3225C94.0841 66.2654 91.6301 66.2083 89.1751 66.1673C60.1091 65.6814 30.5759 64.1755 4.75705 49.4219C5.23201 49.693 5.33932 52.9338 5.40679 54.9717C5.4304 55.6846 5.44913 56.2503 5.47702 56.4902C5.76082 58.9149 6.09896 61.3422 6.67935 63.7166C7.75345 68.1172 9.70664 72.2327 13.1069 75.3167C14.5419 76.6188 16.0209 77.8234 17.5198 78.9879C17.5944 79.2663 17.6999 79.3616 17.8441 79.2347C17.86 79.2471 17.8765 79.2596 17.8928 79.2719L17.8936 79.2724L17.9052 79.2811C17.914 79.2915 17.9227 79.3021 17.9314 79.3126L17.9574 79.3447L17.9574 79.3448C17.9846 79.3786 18.0119 79.4123 18.0412 79.4443C18.1648 79.5797 18.2991 79.6467 18.4333 79.6836C25.7556 85.2037 33.7812 89.3079 42.3182 93.1312L42.3231 93.1334C45.0507 94.3549 47.7813 95.5778 50.5938 96.5903C54.3425 97.9396 58.2152 98.9034 62.1063 99.742L62.1317 99.7475C62.8839 99.9091 71.2528 101.707 71.2507 102.135C71.2614 99.2005 71.6595 96.2843 72.3998 93.367C74.5849 84.7523 79.2986 80.2159 87.0869 79.5297C86.9711 76.4525 89.3577 74.2915 92.2621 73.7582C94.0281 73.4338 96.0317 73.6479 97.3122 74.9039C98.4165 75.9865 98.7674 77.6127 98.9109 79.1514C98.9562 79.6375 99.0207 80.1445 99.0866 80.6627C99.439 83.4333 99.8319 86.5221 97.5434 88.4334C96.4409 89.3536 94.9729 89.8199 93.5404 89.7082C93.1533 89.6777 89.2284 88.2597 89.7587 87.6863C88.761 88.766 88.1298 90.2234 87.6556 91.8277C87.5712 92.1132 87.4614 92.3935 87.3518 92.6732C87.1815 93.1081 87.0116 93.5418 86.9381 93.9925C86.4639 96.9081 86.3797 99.7413 86.5815 102.531C86.7201 102.532 86.8587 102.534 86.9972 102.536C87.2868 102.539 87.5762 102.542 87.8659 102.542C89.5265 102.538 91.1868 102.788 92.8601 103.039C94.7669 103.326 96.6905 103.615 98.6506 103.535C100.576 103.456 102.501 103.495 104.43 103.535H104.431H104.431H104.432H104.432H104.432H104.433H104.433H104.434H104.434H104.435H104.435H104.435C105.97 103.566 107.507 103.597 109.047 103.569C113.233 103.491 117.4 103.013 121.556 102.537H121.556H121.556H121.556H121.556H121.556H121.556H121.557H121.557H121.557H121.557H121.557H121.557C125.701 102.062 129.833 101.588 133.964 101.514C142.601 101.357 151.622 99.6183 159.824 96.9815C164.361 95.5226 168.89 93.9914 173.218 91.9816C173.775 91.723 174.339 91.4766 174.901 91.2312C178.251 89.7682 181.528 88.3372 182.71 84.5324C183.287 82.6771 183.41 80.7206 183.532 78.7779L183.538 78.6834C183.548 78.5146 183.559 78.3458 183.57 78.1773C184.094 70.2012 185.412 62.2872 187.074 54.5253ZM98.7912 125.184C97.5219 127.162 96.2505 129.144 95.1299 131.202C104.736 125.254 110.204 116.485 110.969 107.921C109.315 107.959 107.662 107.98 106.009 107.993C105.558 114.638 102.182 119.9 98.7912 125.184ZM115.557 165.212C117.714 158.759 113.561 152.458 107.352 152.764C101.974 153.03 93.2861 161.852 92.9025 167.442C92.8782 167.797 92.9083 168.197 92.9387 168.602C93.0462 170.035 93.1582 171.527 90.8889 171.276C88.6256 171.026 88.6725 168.883 89.1073 166.996C89.2788 166.251 89.3928 165.489 89.4777 164.729C89.9281 160.721 87.8787 158.13 83.8884 157.638C80.5699 157.228 78.5865 158.894 77.6122 162.843C76.515 167.291 77.0705 171.661 79.461 175.411C82.5018 180.18 86.4573 184.129 90.4164 188.081L90.4167 188.081C92.5206 190.182 94.6255 192.283 96.5947 194.509C105.218 186.088 112.257 175.083 115.557 165.212ZM92.2248 155.527C94.7069 155.183 95.5664 153.064 95.3871 151.04C95.0795 147.581 93.9404 144.275 91.9509 140.866C87.8989 144.216 86.8298 147.901 88.5361 152.412C89.1875 154.134 90.0393 155.829 92.2248 155.527ZM87.2734 107.704C88.4203 113.626 90.668 119.452 93.1376 125.551C96.7492 122.31 98.3039 119.385 99.7921 116.465C101.21 113.681 102.118 110.855 102.607 107.998C97.7896 107.991 92.9835 107.902 88.2108 107.748C88.0397 107.743 87.8687 107.734 87.6977 107.725C87.5562 107.717 87.4148 107.709 87.2734 107.704ZM79.9542 124.824L79.9543 124.825L79.9543 124.825L79.9543 124.825L79.9544 124.825L79.9544 124.825L79.9545 124.825L79.9545 124.825L79.9546 124.826L79.9546 124.826L79.9547 124.826L79.9547 124.826L79.9548 124.826C80.572 126.454 81.189 128.08 81.774 129.713C82.6399 132.131 84.4141 133.866 87.2599 135.238C88.6984 130.306 88.854 126.207 87.2954 121.557C85.891 117.365 84.5143 113.12 83.6888 108.777C83.6632 108.473 83.6396 108.169 83.616 107.866L83.5897 107.528L83.5823 107.528C83.481 106.22 83.3752 104.912 83.2661 103.605C83.1674 102.439 83.0679 101.272 82.9376 100.109C82.9756 99.0481 83.0644 97.9804 83.2129 96.9038C83.4228 95.3841 83.6685 93.8693 83.9141 92.3546L83.9142 92.3541L83.9143 92.3537L83.9143 92.3532L83.9144 92.3527L83.9145 92.3522L83.9145 92.3517L83.9146 92.3512L83.9147 92.3508L83.9147 92.3503L83.9148 92.3498L83.9149 92.3493L83.915 92.3488C84.0351 91.6077 84.1553 90.8666 84.2713 90.1249C84.4322 89.0984 85.0214 88.2232 85.6205 87.3335C86.4238 86.1404 87.2448 84.9211 87.0734 83.2757C83.6473 83.3711 81.4781 84.9062 79.45 87.0079C75.6842 90.9107 74.6655 95.6815 74.5032 100.586C74.3636 101.248 74.284 101.918 74.2308 102.591C74.1835 103.183 74.1658 103.778 74.1778 104.373L74.1782 104.399L74.1784 104.427L74.1784 104.492C74.1782 104.54 74.1781 104.589 74.1796 104.638C74.2016 105.273 74.2613 105.909 74.3459 106.543C74.5799 108.304 75.026 110.045 75.6221 111.708C76.6751 116.178 78.3159 120.504 79.9542 124.824ZM139.88 59.3844C150.619 57.2579 161.067 54.1338 170.725 48.2496C167.207 43.0688 162.31 41.1934 157.473 39.387C143.508 34.1719 129.233 30.8319 114.117 31.4773C108.369 31.7228 102.617 31.7331 96.8642 31.7435C83.1003 31.7683 69.3378 31.7931 55.6439 35.0392C52.5428 35.7745 49.5956 36.9675 46.6579 38.1567C42.1276 39.9906 37.6197 41.8153 32.6041 41.9384C31.9601 44.0545 30.1097 45.2654 28.2514 46.4814C25.894 48.024 23.5239 49.575 23.5882 52.9927C47.3793 63.7804 117.322 63.851 139.88 59.3844ZM46.3624 9.52102C32.971 11.9525 20.7293 17.496 10.5495 26.7256C4.41109 32.2921 3.85024 39.6455 8.5267 44.4181C8.66121 44.5554 8.7902 44.6807 8.91933 44.8062L8.91955 44.8064C8.97549 44.8608 9.03145 44.9152 9.0879 44.9706L9.10478 44.832C9.13952 44.5448 9.17434 44.257 9.23921 43.95C10.9772 45.1738 11.922 46.512 12.6142 47.8212C14.4651 48.8928 16.1871 49.0715 18.19 48.3435C17.2257 46.7248 17.2381 44.422 18.0345 41.2476C19.9486 42.9657 21.0486 44.655 21.7636 46.3539C22.804 45.6206 23.9278 44.738 25.188 43.6674L25.6189 43.2873C26.1344 43.0975 26.6423 42.8741 27.1502 42.6508L27.1502 42.6508C28.8348 41.9099 30.519 41.1692 32.4776 41.6561C33.0914 39.9337 32.6522 38.2194 32.2091 36.4903C31.772 34.7842 31.3311 33.0636 31.8944 31.3063C32.2649 31.4146 32.617 31.4834 32.9358 31.5456C33.5362 31.6629 34.0187 31.7572 34.2841 32.0485C38.578 36.7569 38.6473 36.8055 40.2993 31.4691C40.3342 31.3561 40.3705 31.2345 40.4082 31.1081C40.7252 30.045 41.1432 28.6431 41.7318 29.1273C47.3328 33.7361 51.5092 32.8524 54.7581 26.4554C55.0508 25.8779 55.5407 26.1509 56.1114 26.469C56.2642 26.5542 56.4229 26.6427 56.5852 26.7189C60.418 28.519 64.2781 27.8465 68.1621 27.1699C71.4271 26.601 74.709 26.0293 78.0058 26.921C80.6346 27.6318 81.851 25.7765 82.9815 24.0521C83.6202 23.078 84.2315 22.1457 85.0545 21.7413C86.7337 20.9165 87.281 22.268 87.9189 23.8433C88.6006 25.5269 89.3859 27.4661 91.7669 27.277C91.9299 27.2641 92.0921 27.2517 92.2535 27.2394C94.772 27.0475 97.0958 26.8704 98.8406 24.8189C98.9968 24.6352 99.154 24.4255 99.3145 24.2115C100.092 23.1751 100.943 22.0398 102.106 23.2916C106.884 28.4312 111.057 27.0313 115.348 22.7636C116.279 21.8378 117.278 22.4753 118.029 23.398C121.11 27.1866 125.208 27.7706 128.644 24.8671C131.898 22.1177 133.338 24.1581 134.768 26.1851C135.961 27.8759 137.148 29.5574 139.375 28.4422C139.578 28.3406 139.78 28.2422 139.979 28.1448L139.98 28.1443L139.981 28.1438C141.073 27.6114 142.11 27.1054 143.015 26.2288C144.034 25.2419 145.982 23.8586 146.42 25.8334C147.294 29.7617 149.616 30.9879 153.104 32.1262C155.804 33.0081 156.822 31.2481 157.79 29.5735C158.622 28.1334 159.418 26.7565 161.217 27.1774C162.548 28.2199 162.285 29.3314 162.048 30.3284C162.034 30.3891 162.02 30.4494 162.006 30.5092C161.468 32.8294 161.302 34.9311 163.844 36.2413C166.217 37.4648 167.002 36.1319 167.823 34.7394C168.097 34.2733 168.376 33.8006 168.719 33.4148C170.195 31.7567 171.933 31.3471 172.512 34.2634C173.306 38.2703 175.86 38.0104 178.389 37.753C179.597 37.63 180.799 37.5076 181.801 37.8516C182.932 38.2399 184.845 35.0102 183.835 33.4882C182.728 31.8199 181.878 30.0003 181.028 28.1793L181.028 28.1791C179.049 23.9389 177.065 19.691 171.815 17.3272C165.941 14.6821 159.892 13.2414 153.809 11.7926C151.982 11.3576 150.153 10.9218 148.324 10.4526C114.382 1.74106 80.3692 3.34705 46.3624 9.52102ZM101.352 0.0680484C122.846 -0.620234 143.525 4.01867 164.019 9.18876C176.218 12.2664 185.473 20.4672 191.678 31.7833C193.273 34.6939 193.123 37.4846 192.768 40.3856C192.397 43.4123 192.033 46.4404 191.669 49.4687V49.4689V49.469V49.4692V49.4693V49.4695V49.4697V49.4698V49.47V49.4701V49.4703V49.4705V49.4706L191.669 49.4713L191.669 49.472L191.669 49.4727L191.669 49.4734L191.669 49.4741L191.669 49.4747L191.669 49.4754L191.668 49.4761L191.668 49.4768L191.668 49.4775L191.668 49.4782L191.668 49.4789C190.266 61.1569 188.863 72.8368 187.011 84.4438C186.247 89.2288 182.619 92.7177 177.847 94.8723C157.987 103.838 136.299 107.045 114.552 107.805C114.441 112.59 113.194 117.211 110.566 120.95C110.038 121.702 109.518 122.46 108.999 123.218L108.999 123.218L108.999 123.218L108.999 123.218L108.999 123.218L108.999 123.218L108.999 123.219L108.999 123.219L108.999 123.219L108.999 123.219L108.999 123.219L108.998 123.219L108.998 123.219C106.355 127.079 103.723 130.922 99.9115 133.903C99.6561 134.102 99.376 134.301 99.0877 134.505C97.5601 135.589 95.8003 136.837 96.2491 139.275C96.374 139.954 96.4797 140.638 96.5854 141.323C97.0241 144.166 97.4634 147.013 99.281 149.454C100.322 150.853 101.48 150.445 102.638 150.038C102.892 149.948 103.146 149.859 103.399 149.788C116.22 146.221 122.596 158.885 117.911 168.655C117.428 169.664 116.952 170.675 116.477 171.686C114.023 176.909 111.577 182.114 108.039 186.78C106.663 188.594 105.457 190.537 104.25 192.479C103.043 194.423 101.835 196.367 100.458 198.183C97.639 201.898 96.7208 201.873 94.1812 198.495C91.2943 194.653 88.0545 191.135 84.8144 187.617C83.3879 186.068 81.9614 184.519 80.5649 182.942C75.5841 177.318 72.2282 170.76 73.5481 162.715C74.2276 158.573 76.4781 155.755 80.057 153.806C80.521 153.553 81.1048 153.418 81.6906 153.282C83.1463 152.944 84.6142 152.604 84.2862 150.454C84.0654 149.008 84.3628 147.618 84.6632 146.215C85.1619 143.885 85.669 141.516 83.8259 138.782C77.2606 129.039 72.9031 118.172 71.5224 106.359C48.1281 103.259 25.6306 94.8698 8.45886 77.9209C4.13097 73.6494 2.86921 68.4755 1.61855 63.347L1.6185 63.3469C1.51717 62.9314 1.41592 62.5161 1.31311 62.1017C-1.0411 52.6098 0.218053 42.8954 1.61644 33.3013C2.24797 28.9656 4.94779 25.9355 8.09159 23.2285C16.6613 15.8482 26.2021 10.2267 37.2553 7.40192C58.2862 2.02793 79.7536 0.759877 101.352 0.0680484ZM131.659 144.212C131.225 144.434 130.855 145.653 131.056 146.129C131.259 146.608 132.405 147.16 132.809 146.957C136.872 144.916 140.897 142.793 144.922 140.67L144.922 140.67L144.922 140.67L144.923 140.67L144.923 140.67L144.923 140.67L144.923 140.669L144.923 140.669L144.923 140.669L144.923 140.669L144.924 140.669L144.924 140.669L144.924 140.669L144.924 140.669L144.924 140.669L144.924 140.669L144.924 140.669L144.927 140.667C145.951 140.127 146.975 139.587 148 139.048C142.361 138.629 137.749 141.037 133.157 143.434C132.658 143.695 132.159 143.955 131.659 144.212ZM156 165C150.595 168.355 144.955 168.688 139.141 167.025L139.096 166.589L139.042 166.055L139 165.642C144.667 165.428 150.333 165.214 156 165ZM49 201C43.2558 207.22 38.4252 209.387 32 208.945C32.1277 207.391 32.7297 206.987 33.4547 206.719C37.1852 205.343 40.9176 203.971 44.97 202.481L45.0454 202.454L47.5066 201.549L49 201ZM35.1029 147.426C33.8922 147.035 32.6236 146.208 33.1044 144.918C33.6212 143.533 34.7431 144.008 35.808 144.459C35.9233 144.508 36.038 144.556 36.1511 144.602C39.2551 145.861 42.3762 147.083 45.4972 148.305L45.4974 148.305L45.4976 148.305L45.4978 148.305L45.498 148.305L45.4981 148.305L45.4983 148.305L45.4985 148.305L45.4987 148.306L45.4989 148.306L45.4991 148.306L45.4992 148.306L45.4994 148.306L45.4996 148.306L45.4998 148.306L45.5 148.306L45.5005 148.306C46.6673 148.763 47.8341 149.22 49 149.679C44.5298 150.617 40.7259 149.326 36.9345 148.038L36.9339 148.038L36.9333 148.038L36.9327 148.037L36.9321 148.037L36.9315 148.037L36.9309 148.037L36.9303 148.037L36.9297 148.036L36.9292 148.036L36.9286 148.036L36.928 148.036L36.9274 148.036L36.9268 148.036L36.9262 148.035L36.9256 148.035L36.925 148.035C36.3182 147.829 35.7117 147.623 35.1029 147.426ZM138.805 196.44C137.926 195.897 136.79 195.692 136.204 196.803C135.676 197.803 136.243 198.941 137.115 199.346C140.252 200.802 143.432 202.17 146.612 203.538L146.623 203.543C147.749 204.027 148.875 204.512 150 205C148.245 201.323 145.114 199.742 141.991 198.165L141.991 198.165C140.909 197.619 139.828 197.073 138.805 196.44ZM38.4633 173.171C40.4001 172.939 42.5878 172.677 46 174.346C44.2715 174.657 42.6891 175.215 41.2022 175.739C37.4659 177.056 34.3328 178.161 31 174.609C32.4093 172.711 34.0856 172.938 35.6852 173.154C36.3271 173.241 36.9567 173.326 37.5517 173.272C37.8517 173.244 38.1542 173.208 38.463 173.171L38.4633 173.171ZM106.157 174.989L106.159 174.988C108.813 172.32 111.529 169.59 111.987 164.495C112.117 163.571 111.249 161.789 110.164 160.058C109.543 159.066 108.635 158.747 107.583 159.205C106.706 159.587 106.701 160.559 107.089 161.137C109.965 165.415 107.58 168.639 104.86 171.822C104.669 172.045 104.476 172.266 104.283 172.488C103.978 172.838 103.672 173.188 103.376 173.545C102.803 174.237 102.917 174.965 103.5 175.539C104.103 176.131 105.005 176.155 105.552 175.599L105.635 175.516C105.721 175.428 105.808 175.34 105.895 175.253L106.157 174.989ZM117.996 84C117.951 84.1956 117.907 84.3912 117.862 84.5868C116.873 88.926 115.884 93.2656 120.101 97C120.193 96.4507 120.297 95.8999 120.401 95.3492C121.148 91.3859 121.895 87.4231 117.996 84ZM133.112 95C135.412 89.259 132.881 85.5837 129.656 82C126.415 87.1533 128.123 91.0207 133.112 95ZM144.934 80C143.694 84.0907 143.232 87.2126 146.497 91C148.763 86.3962 148.64 83.3607 144.934 80ZM158.426 84.9406C156.506 82.4755 156.404 79.9537 158.862 77C162.454 79.7273 162.988 82.0006 160.329 84.4644C159.908 84.8549 158.569 85.1253 158.426 84.9406ZM29.2144 79.5375L29.2147 79.537C31.3269 76.0355 33.4392 72.5338 30.6925 68C30.5806 68.1711 30.4681 68.3422 30.3556 68.5132C27.8719 72.2903 25.3884 76.0671 28.347 81C28.6273 80.5108 28.9207 80.0244 29.2142 79.5379L29.2142 79.5378L29.2142 79.5378L29.2143 79.5377L29.2143 79.5376L29.2144 79.5376L29.2144 79.5375ZM39.3982 88C43.7962 83.8426 43.3477 79.5239 42.2922 75C37.3865 78.2459 37.0789 82.3941 39.3982 88ZM52.9844 92C56.2965 88.1862 56.9984 85.234 54.5002 81C52.2664 84.5978 51.0056 87.475 52.9844 92ZM66.6366 95.7496C66.1422 96.058 64.7891 96.0674 64.6911 95.855C63.3808 93.016 63.8411 90.4743 66.8726 88C69.7416 91.4272 69.7533 93.8042 66.6366 95.7496ZM96.8158 96.8791C96.9232 97.0867 98.2821 97.0264 98.7649 96.702C101.814 94.6541 101.703 92.2947 98.68 89C95.7389 91.5695 95.3822 94.1099 96.8158 96.8791ZM106.928 98C110.264 94.2217 110.996 91.2734 108.566 87C106.303 90.5757 105.017 93.4416 106.928 98ZM17.2146 72.5373L17.2148 72.537C19.327 69.0351 21.439 65.5335 18.6927 61C18.5813 61.1702 18.4694 61.3402 18.3576 61.5103C15.8726 65.288 13.3878 69.0655 16.3471 74C16.6276 73.5106 16.9211 73.024 17.2146 72.5373ZM169.215 82.537C168.921 83.0237 168.628 83.5105 168.347 84C165.388 79.067 167.872 75.2896 170.356 71.5124C170.468 71.3417 170.581 71.1709 170.693 71C173.439 75.5336 171.327 79.0353 169.215 82.537Z" fill="#C32018"/>
</svg>
