<svg width="71" height="70" viewBox="0 0 71 70" fill="none" xmlns="http://www.w3.org/2000/svg">
<path fill-rule="evenodd" clip-rule="evenodd" d="M25.474 42.9223C23.332 37.8928 30.2847 25.2203 35.7307 23.6504C39.6629 22.5162 41.6629 23.9585 41.1561 27.9752C41.0391 28.902 40.8742 29.799 40.6622 30.6657C39.1782 36.7329 35.3908 41.3184 29.6339 44.2908C28.6767 44.7853 25.8717 43.8537 25.474 42.9223ZM6.92393 29.4002C7.43202 29.4711 7.93311 29.5411 8.4163 29.6297C8.54946 30.9953 8.64333 32.2964 8.73364 33.548C8.92993 36.2685 9.10939 38.7557 9.63872 41.1663C10.3451 44.3865 9.90831 46.1764 6.41114 46.979C5.70116 47.1422 5.14476 47.9769 4.58858 48.8113C4.33425 49.1928 4.07996 49.5743 3.81105 49.8914C4.20491 50.0091 4.59662 50.1431 4.98834 50.2771C5.85789 50.5747 6.72752 50.8722 7.62088 50.9906C8.34853 51.0869 9.16815 51.0455 9.97561 51.0048C11.38 50.9339 12.7476 50.8649 13.5304 51.5252C15.9101 53.5326 17.9842 55.9026 20.1767 58.4079C21.074 59.4333 21.9912 60.4813 22.9573 61.5364C22.8757 61.6382 22.7668 61.7487 22.6487 61.8686C22.3569 62.1647 22.0087 62.518 21.8761 62.9388C21.7576 63.315 21.612 63.7504 21.459 64.2078C20.8571 66.0074 20.1411 68.1482 20.5112 68.366C22.7955 69.7091 23.4523 68.337 24.1343 66.9122C24.4427 66.268 24.7563 65.613 25.2277 65.1934C26.4345 64.1197 28.3544 63.5212 30.0133 63.379C30.9348 63.2997 31.8759 63.5674 32.8254 63.8375C33.5044 64.0307 34.1878 64.225 34.8713 64.2946C35.7939 64.3889 36.7546 64.3843 37.7142 64.3798C41.1737 64.3634 44.618 64.347 46.203 68.9584C46.2405 69.0691 46.6494 69.0524 47.0433 69.0363C47.2225 69.029 47.3986 69.0218 47.5352 69.0268C47.812 68.2343 48.0165 67.3741 48.2193 66.5215C48.6596 64.6705 49.0913 62.8552 50.2344 61.8449C53.0817 59.3277 56.2857 57.2136 59.6198 55.0137C60.9945 54.1067 62.3912 53.1851 63.7942 52.2146C64.8593 53.1851 66.0858 54.3021 67.4354 55.531C68.345 56.3594 69.3106 57.2387 70.3202 58.1583C71.2281 53.86 68.0466 49.186 61.5315 44.5021C61.4037 44.7188 61.2721 44.9305 61.1417 45.1403C60.8575 45.5975 60.5786 46.0462 60.3551 46.5203C55.384 57.0518 45.987 61.9482 34.1538 60.1556C23.0303 58.4712 14.8218 49.9382 13.1278 39.0822C10.7611 23.9154 21.8141 11.4794 37.8001 10.2122C51.1297 9.15585 59.3689 20.0604 54.767 32.3467C54.2076 33.8398 52.6771 34.9691 51.1467 36.0982C50.4402 36.6195 49.7337 37.1407 49.1229 37.6977C48.79 37.0678 48.4401 36.4444 48.0903 35.821C47.2451 34.3153 46.4002 32.8099 45.7965 31.2129C45.5026 30.4382 45.6101 29.5151 45.718 28.5886C45.7702 28.1402 45.8226 27.691 45.8295 27.2574C45.9242 21.0788 41.3525 17.5492 35.264 19.0938C26.305 21.3664 17.8617 37.6662 21.7117 45.9872C22.5006 47.692 25.4524 49.4289 27.3315 49.3501C29.9405 49.2405 32.7924 47.853 34.9668 46.2398C36.861 44.8345 38.4709 43.0459 40.0793 41.2591C40.7753 40.4859 41.471 39.713 42.1893 38.9716C48.0378 44.6079 52.7716 43.9784 57.0928 37.1255C62.4372 28.6528 60.3924 16.8102 52.7639 10.5061C51.8676 9.76576 51.4552 8.40517 51.0548 7.08461C50.9227 6.64894 50.792 6.21763 50.6456 5.81438C50.404 5.14912 50.2951 4.43579 50.1863 3.72287C50.1375 3.40299 50.0887 3.0832 50.0279 2.76786C49.6925 2.89733 49.3492 3.01389 49.0058 3.13046C48.229 3.3942 47.452 3.65801 46.7655 4.07165C46.2538 4.37956 45.773 4.82638 45.2997 5.26614C44.5444 5.96797 43.8085 6.6518 42.9974 6.72425C39.3475 7.05073 35.6741 7.12043 31.8726 7.19256C30.4371 7.2198 28.9834 7.24739 27.5057 7.28928C27.4524 7.11487 27.4068 6.90478 27.357 6.67557C27.2304 6.09287 27.0769 5.38656 26.7022 4.82868C26.0518 3.85788 25.2727 2.97344 24.4932 2.08856C24.164 1.7148 23.8347 1.34097 23.515 0.960515C23.4428 1.48329 23.316 2.02297 23.1893 2.56256C22.9086 3.75726 22.628 4.95152 22.9409 5.96086C23.7899 8.68989 23.7387 10.3797 21.0832 12.232C18.1293 14.2916 15.1343 16.8292 13.3254 19.8563C11.0224 23.71 9.11209 26.4022 4.16385 24.1139C3.73185 23.9138 2.91123 24.5549 2.09052 25.1961C1.71003 25.4934 1.32953 25.7907 0.987712 26.0041C1.21783 26.2806 1.43175 26.5975 1.64569 26.9145C2.12009 27.6174 2.59462 28.3205 3.24623 28.5825C4.40878 29.049 5.68709 29.2275 6.92393 29.4002Z" fill="#C32018"/>
</svg>
