<svg width="63" height="73" viewBox="0 0 63 73" fill="none" xmlns="http://www.w3.org/2000/svg">
<path fill-rule="evenodd" clip-rule="evenodd" d="M22.754 40.701C22.176 35.265 32.53 25.179 38.197 25.27C42.289 25.335 43.78 27.299 42.121 30.992C39.058 37.809 33.617 41.901 26.332 43.226C25.272 43.419 22.862 41.708 22.754 40.701ZM8.96792 22.3462C9.43307 22.5626 9.89181 22.776 10.328 23.002C10.0561 24.3469 9.76544 25.6186 9.48585 26.842C8.87819 29.5009 8.32262 31.9319 8.124 34.392C7.858 37.678 6.917 39.262 3.338 39.007C2.61131 38.9555 1.83518 39.5911 1.05937 40.2264C0.704594 40.5169 0.349885 40.8073 0 41.032C0.342254 41.2597 0.67766 41.5024 1.01308 41.7451C1.75765 42.2838 2.50227 42.8226 3.322 43.197C3.9897 43.5018 4.78561 43.7019 5.5697 43.899C6.93344 44.2418 8.26143 44.5757 8.817 45.436C10.5058 48.0515 11.7963 50.9243 13.1606 53.9612C13.7189 55.2041 14.2896 56.4745 14.905 57.766C14.7972 57.8395 14.6608 57.9133 14.5127 57.9934C14.1471 58.1912 13.7108 58.4273 13.461 58.791C13.2377 59.1161 12.9711 59.4898 12.6911 59.8825C11.5894 61.4275 10.2788 63.2655 10.569 63.582C12.3608 65.5343 13.3901 64.4141 14.4589 63.251C14.9421 62.7251 15.4334 62.1904 16.007 61.927C17.475 61.253 19.486 61.242 21.114 61.591C22.0183 61.7846 22.8401 62.3157 23.6692 62.8517C24.262 63.2349 24.8587 63.6206 25.492 63.887C26.3467 64.2468 27.2668 64.5234 28.1858 64.7996C31.4989 65.7953 34.7975 66.7868 34.965 71.66C34.9684 71.7768 35.3644 71.8804 35.7458 71.9802C35.9193 72.0257 36.0898 72.0703 36.219 72.115C36.7154 71.438 37.1625 70.6752 37.6057 69.9192C38.5679 68.2777 39.5115 66.6679 40.9 66.036C44.3589 64.4613 48.041 63.3763 51.8726 62.2473C53.4523 61.7819 55.0575 61.3089 56.683 60.791C57.4177 62.0305 58.2641 63.4573 59.1954 65.0271C59.8231 66.0853 60.4894 67.2084 61.186 68.383C63.311 64.538 61.635 59.138 56.774 52.754C56.5884 52.9239 56.4008 53.0878 56.2147 53.2503C55.8092 53.6045 55.4113 53.952 55.059 54.34C47.226 62.958 36.808 64.893 26.016 59.719C15.871 54.856 10.516 44.296 12.07 33.419C14.241 18.223 28.447 9.562 44.105 13.024C57.161 15.911 61.852 28.748 53.859 39.152C52.8875 40.4163 51.0937 41.0487 49.3001 41.6811C48.472 41.973 47.644 42.2649 46.897 42.619C46.7629 41.9193 46.6106 41.2208 46.4582 40.5224C46.0902 38.8354 45.7223 37.1487 45.612 35.445C45.5574 34.6182 45.9301 33.7668 46.3042 32.9124C46.4852 32.4988 46.6666 32.0846 46.8 31.672C48.697 25.791 45.357 21.079 39.083 20.776C29.851 20.33 17.011 33.449 18.26 42.532C18.516 44.393 20.831 46.917 22.651 47.391C25.178 48.049 28.311 47.556 30.862 46.649C33.0843 45.8589 35.1468 44.6192 37.2073 43.3807C38.099 42.8447 38.9903 42.309 39.894 41.81C43.839 48.91 48.55 49.692 54.686 44.402C62.274 37.862 63.781 25.939 58.329 17.68C57.6884 16.71 57.6917 15.2883 57.6949 13.9084C57.696 13.4531 57.6971 13.0024 57.675 12.574C57.6384 11.8672 57.7429 11.1532 57.8473 10.4396C57.8941 10.1194 57.9409 9.79932 57.975 9.48C57.6164 9.50575 57.254 9.51684 56.8916 9.52793C56.0716 9.55303 55.2514 9.57813 54.474 9.773C53.8946 9.91784 53.3041 10.2045 52.723 10.4867C51.7955 10.9371 50.8918 11.3758 50.095 11.208C46.5091 10.4531 42.9758 9.44573 39.3193 8.40326C37.9386 8.00961 36.5403 7.61096 35.115 7.219C35.115 7.03663 35.1328 6.82238 35.1522 6.58862C35.2015 5.99436 35.2612 5.27405 35.066 4.631C34.7278 3.51245 34.2414 2.43888 33.7547 1.36476C33.5491 0.911082 33.3435 0.457304 33.149 0C32.9272 0.478834 32.6481 0.957861 32.3691 1.43681C31.7514 2.49723 31.1339 3.55728 31.138 4.614C31.152 7.472 30.609 9.073 27.528 10.068C24.101 11.174 20.495 12.725 17.88 15.091C14.551 18.103 11.937 20.119 7.874 16.484C7.5194 16.1663 6.54718 16.5395 5.57486 16.9127C5.12409 17.0857 4.67329 17.2588 4.284 17.363C4.42324 17.6946 4.53515 18.0603 4.64706 18.4259C4.89523 19.2368 5.14347 20.0479 5.69 20.489C6.66534 21.2751 7.83561 21.8195 8.96792 22.3462Z" fill="#C32018"/>
</svg>
