<?xml version="1.0" encoding="UTF-8"?>
<svg width="41px" height="26px" viewBox="0 0 41 26" version="1.1" xmlns="http://www.w3.org/2000/svg" xmlns:xlink="http://www.w3.org/1999/xlink">
    <!-- Generator: Sketch 61.2 (89653) - https://sketch.com -->
    <title>cross</title>
    <desc>Created with Sketch.</desc>
    <g id="Page-1" stroke="none" stroke-width="1" fill="none" fill-rule="evenodd">
        <g id="desktop_ru" transform="translate(-1000.000000, -189.000000)" fill="#FFFFFF">
            <g id="screen-1" transform="translate(47.000000, -4.000000)">
                <g id="btn" transform="translate(763.000000, 162.000000)">
                    <path d="M230.7628,31.5318 L230.8978,31.7448 C230.1298,32.3428 229.3588,32.9328 228.5788,33.5108 L228.5788,33.5108 L226.2328,35.2288 L223.8628,36.9118 C223.0758,37.4768 222.2708,38.0138 221.4758,38.5668 C219.8868,39.6758 218.2688,40.7358 216.6608,41.8148 C215.8608,42.3578 215.0408,42.8718 214.2318,43.4018 L214.2318,43.4018 L212.971473,44.2188836 C213.179078,44.3517353 213.386231,44.4853135 213.5928,44.6198 C214.4088,45.1378 215.2058,45.6878 216.0138,46.2218 C216.8208,46.7538 217.6118,47.3158 218.4078,47.8648 C219.2068,48.4118 219.9918,48.9798 220.7848,49.5368 C222.3638,50.6588 223.9458,51.7778 225.5378,52.8798 C227.1398,53.9678 228.7418,55.0538 230.3788,56.0858 L230.8978,56.4128 L229.9708,56.7318 C228.3348,55.6998 226.6638,54.7218 224.9918,53.7448 C223.3128,52.7828 221.6208,51.8378 219.9278,50.8958 C219.0828,50.4208 218.2328,49.9568 217.3948,49.4718 L215.713689,48.5100963 C215.434467,48.3483556 215.156467,48.1848 214.8808,48.0178 C214.0508,47.5198 213.2108,47.0368 212.3918,46.5248 C211.88013,46.2119754 211.371914,45.8941624 210.865488,45.573738 L210.161059,46.015837 L210.161059,46.015837 L209.3378,46.5248 C209.0648,46.6954667 208.789467,46.8629111 208.512948,47.028763 L206.8488,48.0178 C206.0218,48.5188 205.1738,48.9888 204.3348,49.4718 C203.4968,49.9568 202.6468,50.4208 201.8018,50.8958 C200.1088,51.8378 198.4168,52.7828 196.7378,53.7448 C195.0658,54.7218 193.3948,55.6998 191.7588,56.7318 L191.7588,56.7318 L190.8318,56.4128 L191.3508,56.0858 C192.9878,55.0538 194.5898,53.9678 196.1918,52.8798 C197.7838,51.7778 199.3658,50.6588 200.9448,49.5368 C201.7378,48.9798 202.5228,48.4118 203.3218,47.8648 C204.1178,47.3158 204.9088,46.7538 205.7158,46.2218 C206.5238,45.6878 207.3208,45.1378 208.1368,44.6198 C208.343623,44.4851481 208.551032,44.3514067 208.758893,44.2183934 L207.4978,43.4018 C206.6888,42.8718 205.8688,42.3578 205.0688,41.8148 C203.4608,40.7358 201.8428,39.6758 200.2538,38.5668 C199.4588,38.0138 198.6538,37.4768 197.8668,36.9118 L195.4968,35.2288 L193.1508,33.5108 C192.3708,32.9328 191.5998,32.3428 190.8318,31.7448 L190.9668,31.5318 C191.8368,31.9668 192.7008,32.4078 193.5588,32.8628 L196.1208,34.2398 L198.6608,35.6538 C199.5098,36.1208 200.3418,36.6158 201.1828,37.0948 C202.8668,38.0508 204.5218,39.0548 206.1878,40.0398 C207.0228,40.5288 207.8398,41.0468 208.6668,41.5488 L210.8648,42.8978 L213.0628,41.5488 C213.614133,41.2141333 214.161022,40.8723556 214.711763,40.5368 L215.5418,40.0398 C217.2078,39.0548 218.8628,38.0508 220.5468,37.0948 C221.3878,36.6158 222.2198,36.1208 223.0688,35.6538 L223.0688,35.6538 L225.6088,34.2398 L228.1708,32.8628 C229.0288,32.4078 229.8928,31.9668 230.7628,31.5318 L230.7628,31.5318 Z" id="cross"></path>
                </g>
            </g>
        </g>
    </g>
</svg>