<svg width="271" height="196" viewBox="0 0 271 196" fill="none" xmlns="http://www.w3.org/2000/svg">
<path fill-rule="evenodd" clip-rule="evenodd" d="M93.4497 61.9848C96.0487 62.9712 98.2578 57.2011 94.6842 57.0587C92.2347 56.9612 91.2942 61.1668 93.4497 61.9848M98.4394 56.7286C100.435 59.8874 97.4074 64.6449 93.9595 64.4338C87.7713 62.1619 91.4547 52.1629 98.4394 56.7286" fill="#E20613"/>
<path fill-rule="evenodd" clip-rule="evenodd" d="M181.425 132.286C184.725 133.809 186.773 132.645 188.635 131.085C188.595 129.954 188.216 128.981 188.376 127.755C184.811 124.758 181.808 128.548 181.425 132.286M190.078 126.315C190.355 127.983 190.592 129.67 191.258 131.157C189.122 135.528 182.482 137.24 179.32 132.402C180.236 126.53 185.494 123.017 190.078 126.315" fill="#E20613"/>
<path fill-rule="evenodd" clip-rule="evenodd" d="M180.734 140.382C178.643 140.374 176.417 141.735 176.3 144.763C180.51 149.804 183.629 143.847 180.734 140.382M180.309 138.43C181.047 140.38 183.053 139.414 184.784 140.958C186.091 142.119 186.133 144.71 185.943 145.574C184.908 150.316 179.969 150.929 176.649 148.485C172.458 145.402 174.262 136.999 180.309 138.43" fill="#E20613"/>
<path fill-rule="evenodd" clip-rule="evenodd" d="M104.465 55.2715C106.836 56.5508 104.876 62.1118 101.984 59.6115C101.745 57.5718 103.139 56.3332 104.465 55.2715M103.519 62.5623C105.834 61.5175 107.718 60.0778 108.268 57.9536C108.297 57.6662 108.319 57.4196 108.333 57.2343C108.339 57.1195 108.374 57.0275 108.416 56.9395C108.455 56.2555 108.368 55.5107 108.127 54.6923C108.103 54.6849 108.078 54.6881 108.052 54.6798C106.269 54.0448 104.618 53.7487 102.802 53.7885C98.5535 55.497 99.8448 61.7231 103.519 62.5623" fill="#E20613"/>
<path fill-rule="evenodd" clip-rule="evenodd" d="M244.724 146.099C241.697 153.762 237.583 161.456 234.531 169.335C231.066 171.161 227.115 174.373 223.792 174.987C226.241 169.305 233.689 158.027 233.73 151.658C233.749 149.017 231.512 147.027 230.388 144.938C231.485 144.736 232.669 144.656 233.872 144.563C233.965 144.308 234.16 144.089 234.501 144.015C236.671 143.54 239.668 142.872 242.007 141.552C242.146 141.421 242.291 141.303 242.451 141.217C242.546 141.167 242.64 141.142 242.735 141.103C243.895 140.32 244.829 139.343 245.298 138.09C245.405 137.8 245.608 137.641 245.835 137.572C245.915 137.258 245.974 136.937 245.997 136.604C246.134 134.627 245.252 132.972 244.583 131.215C243.252 129.364 241.518 127.696 240.021 126.425C240.371 130.508 245.43 132.393 244.545 137.053C240.131 140.186 235.405 142.648 229.181 141.891C225.257 126.311 197.242 115.19 182.323 121.938C180.556 118.726 173.157 114.261 173.967 109.917C174.534 106.851 177.992 105.243 180.988 104.938C181.674 103.873 181.083 103.398 180.241 103.182C177.114 104.062 174.575 105.768 172.536 108.093C171.85 109.834 172 111.815 173.592 114.126C182.182 126.593 202.861 142.922 222.511 143.519C224.057 146.087 228.121 148.343 227.62 151.754C227.507 152.505 226.567 153.374 226.083 154.381C222.777 161.273 219.565 170.6 215.008 175.267C212.448 174.233 210.464 175.936 208.758 174.151C208.077 173.906 207.846 174.625 207.363 174.802C201.591 172.594 196.852 171.078 191.542 168.175C191.546 168.046 191.606 167.895 191.677 167.734C189.385 166.887 187.588 165.219 185.841 163.395C185.53 163.21 185.213 163.023 184.905 162.837C180.212 160.191 175.521 157.588 171.366 153.956C167.437 150.523 163.891 146.913 161.436 142.445C161.104 142.13 160.779 141.813 160.443 141.499C158.977 138.363 158.269 134.872 157.801 131.267C158.183 130.112 158.965 129.818 159.664 129.337C161.409 122.516 165.14 116.293 168.041 109.498C168.752 109.254 169.395 108.869 170.015 108.428C173.662 103.432 178.985 100.42 186.417 100.767C193.169 99.6804 200.964 99.7481 208.713 101.122C215.809 102.38 225.024 107.179 231.224 111.634C234.626 114.079 237.172 117.742 239.746 120.82C242.199 123.754 245.823 128.075 246.525 130.82C246.615 131.176 246.65 131.618 246.671 132.105C247.331 134.026 247.919 135.677 247.487 137.728C247.523 137.997 247.541 138.238 247.517 138.425C247.244 140.855 245.641 143.788 244.724 146.099M217.168 140.706C205.654 138.707 190.896 132.647 185.53 124.266C198.161 118.481 222.806 127.04 227.417 140.381C224.422 136.104 219.634 135.244 217.168 140.706M227.944 162.499C226.312 166.525 224.472 170.459 222.456 174.313C221.128 176.85 219.873 180.533 217.681 182.459C216.97 183.083 216.19 183.472 215.38 183.673C215.612 183.628 215.842 183.564 216.073 183.478C215.966 185.384 213.362 185.854 211.865 186.292C208.905 183.78 206.936 180.805 204.783 177.92C204.87 177.519 205.609 177.517 206.07 177.771C206.274 177.258 206.914 176.901 207.4 177.332C209.515 179.195 212.392 183.34 215.701 179.817C217.869 177.511 219.121 174.681 220.61 171.932C220.79 171.598 221.067 171.507 221.34 171.551C222.685 168.758 224.199 165.533 225.333 162.799C226.038 161.102 226.285 159.23 226.941 157.59C227.724 155.633 229.385 154.091 229.757 152.241C229.849 151.777 229.863 151.341 229.826 150.92C229.589 150.705 229.441 150.39 229.524 150.007C229.624 149.558 228.719 148.244 228.468 147.817C228.321 147.569 228.159 147.328 228.007 147.084C227.365 146.242 226.684 145.424 226.182 144.567C226.188 144.52 226.203 144.49 226.219 144.463C225.556 143.564 224.878 142.674 224.134 141.841C223.847 141.519 223.561 141.194 223.25 140.897L223.247 140.896C221.899 140.577 220.454 140.769 218.794 141.009C219.472 138.615 221.032 138.236 222.48 138.807C222.539 138.782 222.586 138.748 222.659 138.734C224.589 138.378 226.959 142.433 227.835 143.651C229.033 145.32 231.582 148.187 231.216 150.467C231.284 150.705 231.329 150.919 231.338 151.078C231.52 154.291 229.822 158.677 227.944 162.499M148.513 121.801C148.379 119.923 150.589 116.926 152.443 116.569C155.202 116.038 158.081 118.572 160.457 119.196C161.093 125.779 148.916 127.499 148.513 121.801M156.258 128.864C155.985 128.996 155.705 129.104 155.423 129.2C154.801 129.587 154.091 129.781 153.364 129.941C153.277 129.828 153.255 129.686 153.215 129.551C151.975 129.546 150.739 129.216 149.671 128.551C147.6 127.683 145.962 124.719 146.071 122.941C146.858 124.207 149.435 125.97 151.528 127.458C152.801 127.927 154.215 127.886 155.503 127.249C155.929 127.039 156.296 127.197 156.521 127.482C156.643 127.476 156.751 127.45 156.874 127.453C156.817 127.584 156.753 127.694 156.692 127.811C156.807 128.192 156.716 128.636 156.258 128.864M140.867 121.337C138.994 121.391 139.083 117.671 139.708 116.57C141.004 115.202 143.915 117.413 143.869 118.663C142.976 119.785 141.729 120.152 140.867 121.337M111.153 113.128C107.947 111.79 103.479 111.499 102.418 108.502C112.017 109.817 123.355 112.449 133.434 116.312C128.931 121.167 117.485 115.775 111.153 113.128M98.8624 106.339C96.3122 105.619 95.9131 103.892 96.1485 101.873C97.6206 102.26 99.8718 100.961 101.538 102.965C101.058 104.974 99.8888 105.503 98.8624 106.339M96.3351 98.1751C92.3065 99.4468 89.9276 98.1194 87.6687 94.152C86.3385 91.8101 88.084 86.2691 91.6228 88.0573C92.6798 87.8947 93.3554 86.913 94.2522 86.4063C98.6753 88.8708 98.865 93.5227 96.3351 98.1751M85.5076 94.5243C86.8956 96.1427 87.9561 97.912 88.8062 99.7805C86.4822 98.6002 85.4687 96.808 85.5076 94.5243M89.3566 81.8707C88.7732 82.0657 88.1933 82.2705 87.6139 82.3997C87.5515 82.4141 87.5004 82.4055 87.4482 82.4037C86.8301 82.9175 86.2987 83.5658 85.7916 84.2529C85.742 84.4049 85.6564 84.5224 85.5401 84.6029C84.1258 86.5747 82.8149 88.6741 80.1675 88.5237C80.1921 88.4955 80.223 88.4653 80.2493 88.4363C79.6132 88.572 78.9755 88.0298 79.2097 87.2962C79.4898 86.405 79.8559 85.5794 80.2863 84.7971C80.1941 84.8622 80.1046 84.9353 80.0081 84.9888C80.5331 81.9932 82.7758 78.2866 83.5016 73.8021C85.1478 63.6278 81.5264 53.9913 76.1992 45.3588C69.6936 34.8183 62.8615 23.7789 48.6546 20.8473C54.9633 18.3862 62.8487 19.3156 69.8339 18.3098C74.0025 16.8732 78.3738 19.2645 81.7368 21.7003C83.1273 22.708 84.3959 23.8228 85.5911 25.0024C88.0118 27.1053 90.0179 29.5903 91.8411 32.1859C92.9054 33.505 93.9736 34.8255 95.0919 36.1143C99.6759 41.4039 101.643 48.3847 102.74 55.2333C102.905 56.2551 102.941 57.1896 102.863 58.0545C102.884 58.1451 102.906 58.2344 102.896 58.3425C102.2 66.149 100.532 74.1802 95.94 80.7415C95.2484 81.7316 93.9395 83.6688 92.4326 82.8831C91.331 82.3093 90.3104 81.9878 89.3566 81.8707M78.4029 83.8258C71.7784 79.6127 69.9308 72.0094 72.2384 64.2222C72.4437 61.0302 73.2478 57.8446 74.1012 54.8056C74.1036 54.795 74.1093 54.7914 74.1129 54.7813C74.1428 52.8715 74.2213 50.9381 73.5925 49.3359C78.9545 58.1082 84.6561 69.6222 78.4029 83.8258M65.0968 36.1019C67.4342 37.8415 68.2044 40.3139 70.0895 42.2648C68.5097 42.5186 66.778 42.4485 65.0924 42.4752C64.9055 40.4394 64.6882 38.4168 65.0968 36.1019M51.5262 72.5945C51.3843 71.7254 52.2141 71.6144 51.9221 70.7107C50.0365 66.9806 48.5357 62.3659 49.6998 57.7323C49.8858 56.9897 50.6754 56.3068 50.7934 55.5238C51.1836 52.9063 49.8294 50.2813 50.5652 48.197C56.2148 46.7978 62.6616 45.3731 68.8081 46.1069C68.9028 46.0742 69.0038 46.0438 69.1205 46.0448C71.2221 46.0438 71.5543 47.2293 71.4231 48.7192C71.5351 50.1176 71.4188 51.5628 71.2547 52.9979C71.7627 54.7633 72.1302 56.5461 71.7993 58.2434C71.5781 59.369 71.1605 60.3831 70.7029 61.3541C70.6924 62.8379 70.6921 64.3211 70.6429 65.8094C70.5138 69.5565 69.949 73.4851 70.5916 77.2101C70.7481 78.1216 71.0425 78.9833 71.2957 79.8486C72.9401 82.0804 75.1241 84.0572 76.9615 86.1978C68.0045 91.9778 54.1517 80.0607 51.5262 72.5945M44.7765 52.1748C45.8091 52.7222 46.5338 52.6058 47.4242 52.8499C47.0246 54.2892 47.1422 54.3463 46.9123 55.8489C45.1561 55.1125 44.5893 53.8187 44.7765 52.1748M46.2041 37.9183C46.3095 33.338 46.8564 28.5526 47.9795 23.4982C51.0577 25.3831 54.0923 27.0935 57.4558 29.2652C53.2861 31.2501 48.6593 32.2512 46.2041 37.9183M62.4259 33.1019C63.1459 36.022 62.2598 39.6922 62.6754 42.7544C61.5422 40.0283 61.2198 36.9215 62.4259 33.1019M59.6547 43.104C54.727 42.5123 49.3443 46.8137 45.108 43.3141C48.2405 37.1747 53.639 32.2374 59.7328 30.9628C59.4887 35.1124 58.8241 39.4563 59.6547 43.104M45.326 49.261C44.2119 48.6354 43.0026 47.8437 42.5216 46.5926C42.1545 45.6402 42.0019 44.62 41.7812 43.6223C41.6244 43.2608 41.4582 42.9017 41.2692 42.5542C41.1224 42.4479 41.0231 42.2931 40.9953 42.0872C40.9205 41.9671 40.847 41.8475 40.7644 41.7331C41.0823 40.4284 41.4004 39.0994 41.7136 37.7644C42.561 33.0869 43.4176 28.3685 44.0132 23.6965C44.3896 20.7368 44.6904 19.0514 46.1596 17.7485C48.4491 14.8663 55.2069 15.1795 58.9767 14.7525C64.0943 14.1715 69.0543 12.8629 73.1742 14.7054C72.7718 15.6622 71.2291 14.1746 70.5946 14.6354C66.1607 15.7339 59.0403 16.1661 53.7468 17.1947C52.1075 17.514 50.1267 18.1949 49.3314 18.1955C49.2329 18.1954 49.1093 18.1547 48.9759 18.0976C46.5236 19.3014 46.1537 20.9845 45.7862 23.8374C45.5281 25.8527 45.0474 27.7341 44.6903 29.7349C44.23 32.3096 43.8643 34.8988 43.4758 37.484C43.4328 37.8728 43.3887 38.2526 43.3452 38.6154C43.1967 39.8432 43.1991 41.1502 43.291 42.4312C43.3069 42.4699 43.3347 42.4957 43.3467 42.5372C43.6338 43.5563 43.6951 44.7018 44.0749 45.686C44.4783 46.7346 45.4152 47.2785 46.3571 47.8086C46.7934 48.0531 46.8275 48.4614 46.6614 48.8039C46.8685 49.0508 47.0524 49.3063 47.1708 49.5695C46.8343 49.4742 46.5318 49.3641 46.243 49.2475C45.98 49.3976 45.6532 49.4444 45.326 49.261M36.3399 55.4777C32.9075 52.6207 30.7426 49.1719 28.2586 45.8742C26.8965 35.7682 35.3035 24.9379 42.913 23.1032C42.5261 30.9278 38.6269 40.3935 40.528 47.1517C38.8578 49.3404 37.45 52.0905 36.3399 55.4777M247.979 146.705C249.383 143.605 249.192 141.106 249.588 138.309C247.904 122.148 234.791 107.949 215.359 100.355C208.568 97.7 199.452 96.9298 191.007 97.2859C183.719 97.5942 174.01 98.3859 169.441 102.474C165.949 105.595 164.585 111.765 161.925 115.963C156.348 111.78 148.928 112.101 145.31 116.291C142.897 113.535 138.109 114.29 135.527 115.336C134.943 114.215 133.783 114.644 133.251 113.639C124.212 111.353 113.397 108.495 103.606 106.036C102.839 104.666 103.581 103.69 103.885 102.082C102.208 100.782 100.553 98.6156 98.7969 99.3612C102.129 93.4473 100.38 88.3667 97.1331 84.8483C99.2148 81.9448 101.681 77.3336 102.952 73.639C109.689 54.0056 102.362 40.341 92.0115 27.3564C87.5929 23.546 83.1356 19.7515 76.0316 17.193C76.5694 13.9191 73.5574 12.0526 70.9223 12.1467C63.0216 12.4321 49.3569 12.2072 44.2887 16.9389C44.8991 18.07 44.2288 19.798 43.8206 21.4057C38.4695 21.8203 33.1593 25.7265 29.9646 30.8487C26.8303 35.8755 26.9166 42.0232 26.2359 47.4544C28.3072 52.2196 31.5826 56.4256 36.4755 59.8741C37.0711 58.8734 38.2775 59.1824 38.8482 58.1283C37.446 55.5959 39.7047 52.2767 41.1532 49.407C41.8117 53.4179 42.4707 57.4276 46.9797 59.6403C47.2726 73.8529 54.1995 88.6009 70.94 92.4074C75.2451 92.2195 79.7847 90.152 83.5583 90.338C81.3612 96.8607 87.2039 103.826 94.3352 102.082C93.6403 105.128 96.4695 109.093 99.9312 108.175C99.313 112.113 109.997 115.02 114.402 116.919C122.868 120.571 132.085 121.647 136.641 118.64C136.038 122.736 141.333 124.311 144.187 122.545C143.347 127.85 150.676 133.889 155.733 131.384C155.587 132.385 155.319 133.345 155.009 134.267C155.176 134.423 155.282 134.651 155.254 134.95C154.919 138.59 156.881 141.83 157.838 145.27C165.7 159.294 183.812 168.531 203.341 177.105C202.606 177.429 203.045 178.145 203.038 178.734C206.292 182.182 208.15 186.649 212.733 188.898C215.961 187.952 218.819 185.481 221.384 183.199C221.416 183.154 221.45 183.113 221.481 183.066C221.474 182.906 221.49 182.739 221.581 182.572C222.112 181.579 222.836 179.442 223.926 178.931C225.228 178.325 226.981 178.357 228.358 177.778C230.781 176.76 233.081 175.464 235.154 173.868C236.74 171.744 238.02 169.322 239.358 166.729C241.273 163.028 243.21 159.35 244.913 155.556C245.805 152.446 246.743 149.434 247.979 146.705" fill="#E20613"/>
<path d="M44.5689 10.0009C44.4945 11.2944 44.4643 12.4782 44.4784 13.5523C44.5258 17.1496 45.1174 19.8476 46.2534 21.6463C46.7768 22.475 47.7386 23.2188 48.5357 23.8504C49.4686 24.5896 50.4897 24.7411 51.5346 25.4492C52.4625 26.0781 57.0011 29.035 58.6438 29.9469C59.3868 30.3594 59.7325 30.9627 59.7325 30.9627L58.0363 35.7871C53.4409 35.6286 49.5133 35.1513 46.2534 34.3553C42.1828 33.3613 39.0351 31.539 36.8104 28.8883C34.5858 26.2376 33.2604 22.4746 32.8344 17.5993C32.6395 15.3685 32.6081 12.8354 32.7402 10L44.5689 10.0009Z" fill="white"/>
</svg>
