<svg width="28" height="26" viewBox="0 0 28 26" fill="none" xmlns="http://www.w3.org/2000/svg">
<path d="M12.5689 0.000945891C12.4945 1.29444 12.4643 2.47823 12.4784 3.55231C12.5258 7.14964 13.1174 9.84764 14.2534 11.6463C14.7768 12.475 15.7386 13.2188 16.5357 13.8504C17.4686 14.5896 18.4897 14.7411 19.5346 15.4492C20.4625 16.0781 25.0011 19.035 26.6438 19.9469C27.3868 20.3594 27.7325 20.9627 27.7325 20.9627L26.0363 25.7871C21.4409 25.6286 17.5133 25.1513 14.2534 24.3553C10.1828 23.3613 7.0351 21.539 4.81043 18.8883C2.58576 16.2376 1.26043 12.4746 0.834429 7.59931C0.639502 5.36847 0.608097 2.83537 0.740214 0L12.5689 0.000945891Z" fill="white"/>
</svg>
