<svg width="151" height="152" viewBox="0 0 151 152" fill="none" xmlns="http://www.w3.org/2000/svg">
<g opacity="0.3">
<path fill-rule="evenodd" clip-rule="evenodd" d="M86.4024 134.42C86.4024 134.42 86.1057 134.476 85.5307 134.584C84.953 134.682 84.1083 134.873 82.9853 135.04C80.7306 135.366 77.4015 135.725 73.1379 135.641C68.8829 135.546 63.6761 134.949 57.9618 133.207C55.1115 132.332 52.123 131.22 49.1121 129.739C46.1094 128.247 43.0655 126.435 40.0988 124.249C37.1396 122.053 34.2551 119.492 31.5673 116.561C28.8786 113.631 26.417 110.307 24.2867 106.656C23.7553 105.745 23.2777 104.792 22.7658 103.853C22.2984 102.889 21.8392 101.915 21.3848 100.933C20.9811 99.9279 20.5515 98.9253 20.1792 97.8963C19.9997 97.3796 19.8199 96.861 19.6408 96.3402C19.4569 95.8212 19.2765 95.2996 19.1326 94.7655C17.8452 90.5338 17.0015 86.0715 16.6684 81.5161C16.4835 79.2234 16.4847 76.9212 16.556 74.6016C16.6312 73.4439 16.7015 72.2821 16.8084 71.1209C16.9557 69.9637 17.0358 68.794 17.2539 67.6406C18.0045 63.012 19.1892 58.386 21.0126 53.9611L21.7 52.3026C21.9261 51.7479 22.2027 51.2147 22.4518 50.6692C22.7164 50.1311 22.9482 49.5744 23.2382 49.048L24.0831 47.4531C24.3514 46.9133 24.6661 46.3998 24.9712 45.8789L25.8926 44.3203L26.8837 42.8001L27.3803 42.0403L27.9116 41.3048C30.6978 37.3418 33.9524 33.6628 37.6545 30.4775C44.9762 24.0017 54.0246 19.4635 63.4728 17.365L65.2458 16.9854L65.7179 16.8869L66.1555 16.8178L67.033 16.6804L68.7863 16.4078L70.5954 16.2157C73.0061 15.9511 75.3824 15.9007 77.7635 15.9114C82.5168 16.0156 87.1994 16.6866 91.6764 17.8438C96.1646 18.9786 100.414 20.6969 104.348 22.7813C104.839 23.0431 105.328 23.3051 105.817 23.5653C106.293 23.8488 106.768 24.1318 107.241 24.4129C108.196 24.9613 109.106 25.5706 110.007 26.1803C111.811 27.4007 113.502 28.7313 115.126 30.0929C121.599 35.5914 126.432 42.1823 129.718 48.7789C131.371 52.0801 132.594 55.4102 133.526 58.6304C133.643 59.0321 133.759 59.432 133.876 59.8297C133.973 60.2321 134.069 60.6313 134.165 61.0278C134.346 61.8245 134.562 62.6008 134.686 63.3851C134.829 64.1652 134.969 64.9335 135.108 65.6909C135.203 66.454 135.297 67.2051 135.388 67.9444C135.467 68.6779 135.59 69.3822 135.629 70.1085C135.67 70.8333 135.711 71.5452 135.751 72.2448C135.867 73.6438 135.815 74.9832 135.807 76.2701C135.829 77.5579 135.702 78.7877 135.618 79.9632C135.569 80.5496 135.54 81.1252 135.469 81.6811C135.386 82.2359 135.305 82.7783 135.226 83.3049C134.968 85.4219 134.487 87.2645 134.156 88.8805C133.713 90.4716 133.345 91.825 132.999 92.9066C132.227 95.0411 131.814 96.181 131.814 96.181L131.578 96.0948C131.578 96.0948 131.911 94.9384 132.538 92.7705C132.811 91.6775 133.114 90.3202 133.464 88.7283C133.706 87.1148 134.085 85.2782 134.228 83.1854C134.277 82.6639 134.328 82.129 134.38 81.5807C134.42 81.0314 134.42 80.4658 134.448 79.8891C134.486 78.735 134.565 77.528 134.493 76.2683C134.452 75.0113 134.453 73.6972 134.287 72.3597C134.224 71.6895 134.16 71.0073 134.094 70.3122C134.032 69.6195 133.878 68.8982 133.772 68.1736C133.655 67.4581 133.535 66.7297 133.414 65.9915C133.251 65.2618 133.086 64.5212 132.919 63.7688C132.77 63.0131 132.526 62.2692 132.328 61.5051C132.224 61.1233 132.12 60.7396 132.015 60.3529C131.893 59.9713 131.768 59.5881 131.644 59.2017C130.659 56.1119 129.382 52.9374 127.713 49.8016C124.417 43.5206 119.654 37.3142 113.427 32.1025C111.859 30.8172 110.228 29.5613 108.493 28.4131C108.061 28.1259 107.626 27.838 107.19 27.5483C106.758 27.2518 106.296 27.0023 105.849 26.7257C105.397 26.456 104.944 26.1855 104.489 25.9134C104.024 25.6635 103.555 25.413 103.087 25.1626C99.3296 23.1646 95.2712 21.5306 91.0017 20.3693C86.734 19.2067 82.2586 18.5022 77.7006 18.3422C75.426 18.3016 73.111 18.3199 70.8359 18.5413L69.1259 18.6966L67.3735 18.9457L66.495 19.0711L66.0543 19.1346L65.6555 19.211L63.9394 19.539C59.3619 20.4375 54.8707 21.9524 50.596 23.9755C48.4415 24.9555 46.3734 26.1264 44.3434 27.3637L42.8529 28.3434L42.107 28.8354L41.3864 29.3615L39.9413 30.4145L38.5461 31.5317C34.836 34.5336 31.5313 38.0377 28.6737 41.8549C25.8137 45.6755 23.5157 49.8845 21.7263 54.2486C18.1747 62.9982 16.964 72.5099 18.0206 81.3813C18.5197 85.8363 19.5005 90.1373 20.8979 94.1922C21.0551 94.7037 21.2485 95.2017 21.4447 95.6982C21.6368 96.1944 21.8287 96.6896 22.0202 97.1828C22.415 98.1662 22.8755 99.1136 23.2857 100.075C23.7436 101.014 24.2053 101.945 24.674 102.863C25.1863 103.759 25.664 104.666 26.193 105.535C30.376 112.523 35.7145 118.25 41.3835 122.534C44.2105 124.687 47.1092 126.506 49.9866 128.007C52.8779 129.483 55.7264 130.677 58.4735 131.606C61.2146 132.558 63.8672 133.171 66.3297 133.678C67.5692 133.889 68.7563 134.125 69.9047 134.241C70.4782 134.314 71.038 134.385 71.5845 134.455C72.1336 134.5 72.6691 134.542 73.1892 134.584C77.3671 134.903 80.6782 134.717 82.9152 134.539C84.0399 134.456 84.9023 134.326 85.4835 134.27C86.0649 134.204 86.3646 134.17 86.3646 134.17L86.4024 134.42Z" fill="#C32018"/>
<path fill-rule="evenodd" clip-rule="evenodd" d="M24.4818 91.2932C24.4818 91.2932 24.3999 91.0304 24.2432 90.5219C24.0942 90.011 23.8343 89.2679 23.5676 88.268C23.0394 86.2632 22.372 83.29 22.0084 79.4254C21.657 75.5668 21.6632 70.7932 22.6576 65.4453C23.1608 62.7763 23.8607 59.956 24.8961 57.0805C25.9426 54.2101 27.2733 51.2704 28.9529 48.3626C30.6421 45.4632 32.6702 42.5914 35.0523 39.8613C37.4343 37.1302 40.1982 34.5673 43.2897 32.2726C44.0641 31.7004 44.8787 31.1719 45.6783 30.6156C46.5036 30.0964 47.3401 29.5824 48.1846 29.074C49.0549 28.6078 49.9194 28.1203 50.8145 27.6801C51.2653 27.4666 51.7181 27.2527 52.1716 27.0377C52.6228 26.8211 53.0776 26.6069 53.5477 26.4224C57.252 24.8391 61.2075 23.6319 65.2982 22.8812C69.4076 22.1149 73.6451 21.8389 77.9141 22.0356C82.1769 22.2547 86.4787 22.8619 90.6646 24.0674L92.2343 24.5217C92.759 24.6698 93.2689 24.8663 93.7874 25.0368C94.8291 25.37 95.841 25.7876 96.8609 26.1876C97.3756 26.3771 97.8725 26.6093 98.3749 26.8325L99.8778 27.5067L101.352 28.25L102.09 28.6225L102.811 29.0286C106.679 31.145 110.338 33.7147 113.599 36.7394C120.206 42.7026 125.238 50.4323 128.096 58.7747L128.62 60.3415L128.758 60.7609L128.864 61.1504L129.078 61.9282L129.501 63.4874L129.858 65.1069C130.342 67.2648 130.628 69.4117 130.86 71.5692C131.246 75.8847 131.112 80.1944 130.517 84.3671C129.945 88.546 128.816 92.5702 127.324 96.3435C127.136 96.8153 126.948 97.2852 126.761 97.7538C126.552 98.213 126.345 98.672 126.137 99.129C125.736 100.05 125.275 100.935 124.814 101.814C123.89 103.569 122.853 105.235 121.782 106.842C117.449 113.258 111.96 118.294 106.315 121.928C103.489 123.753 100.594 125.193 97.7709 126.356C97.4179 126.503 97.0678 126.648 96.7196 126.793C96.3644 126.92 96.0123 127.048 95.6628 127.174C94.9603 127.417 94.2781 127.688 93.5796 127.879C92.8878 128.085 92.2058 128.288 91.5332 128.488C90.852 128.65 90.1824 128.808 89.5218 128.966C88.8647 129.11 88.2415 129.29 87.5881 129.397C86.9353 129.507 86.2941 129.614 85.6648 129.719C84.4081 129.963 83.1914 130.048 82.0256 130.168C80.8623 130.315 79.7365 130.322 78.664 130.361C78.1285 130.376 77.6045 130.405 77.0942 130.396C76.5839 130.375 76.0859 130.356 75.6012 130.337C73.6611 130.31 71.9446 130.054 70.4507 129.915C68.9676 129.669 67.707 129.471 66.6954 129.263C64.6877 128.772 63.6181 128.511 63.6181 128.511L63.6765 128.266C63.6765 128.266 64.7555 128.448 66.7796 128.79C67.7953 128.924 69.0526 129.057 70.5256 129.211C72.0082 129.263 73.7055 129.416 75.6107 129.331C76.0862 129.321 76.5741 129.312 77.0741 129.303C77.5741 129.282 78.0858 129.224 78.609 129.191C79.6553 129.107 80.752 129.056 81.8817 128.863C83.0121 128.697 84.1988 128.563 85.3882 128.277C85.9866 128.152 86.5957 128.024 87.2154 127.894C87.8347 127.766 88.4714 127.553 89.115 127.385C89.7494 127.205 90.3936 127.024 91.0484 126.838C91.6898 126.617 92.3417 126.393 93.0031 126.164C93.6696 125.953 94.316 125.658 94.9854 125.4C95.3197 125.268 95.6558 125.136 95.9936 125.001C96.3246 124.852 96.6586 124.701 96.9944 124.55C99.6823 123.347 102.417 121.872 105.076 120.049C110.409 116.44 115.525 111.516 119.598 105.376C120.599 103.831 121.567 102.236 122.427 100.555C122.858 99.7153 123.304 98.8771 123.685 98.0007C123.882 97.5658 124.081 97.1317 124.281 96.6933C124.459 96.2486 124.638 95.8017 124.818 95.3536C126.244 91.7646 127.31 87.9413 127.933 83.975C128.557 80.0104 128.746 75.903 128.438 71.7749C128.247 69.7198 127.999 67.6312 127.574 65.6021L127.263 64.0779L126.864 62.5165L126.663 61.7366L126.561 61.3443L126.453 60.9938L125.987 59.4786C124.723 55.4367 122.91 51.5343 120.66 47.8755C119.563 46.0288 118.302 44.2772 116.984 42.5661L115.952 41.3163L115.435 40.6916L114.888 40.0924L113.795 38.892L112.647 37.7419C109.57 34.6878 106.079 32.05 102.348 29.8464C98.6112 27.6428 94.5804 25.9865 90.458 24.8075C82.1977 22.4764 73.481 22.3481 65.5821 24.209C61.61 25.1145 57.8288 26.4403 54.3129 28.1132C53.8659 28.3078 53.4364 28.5328 53.0095 28.7604C52.581 28.9852 52.1533 29.2089 51.7277 29.4322C50.8808 29.8872 50.0726 30.4003 49.2482 30.8675C48.4474 31.3763 47.654 31.8869 46.8728 32.4034C46.1173 32.9559 45.3464 33.4788 44.6163 34.0431C38.7348 38.5225 34.0986 43.9084 30.8 49.4514C29.1367 52.2152 27.7829 55.0128 26.7146 57.759C25.6703 60.5152 24.8732 63.2045 24.3061 65.776C23.7173 68.3453 23.4254 70.8013 23.209 73.0754C23.1409 74.2156 23.0445 75.31 23.0529 76.3594C23.044 76.885 23.0337 77.3965 23.0254 77.8966C23.0386 78.3979 23.0524 78.8849 23.0651 79.3599C23.1848 83.1659 23.6776 86.1395 24.0563 88.1432C24.2416 89.1534 24.4429 89.9211 24.5497 90.4404C24.6657 90.9602 24.7251 91.2279 24.7251 91.2279L24.4818 91.2932Z" fill="#C32018"/>
<path fill-rule="evenodd" clip-rule="evenodd" d="M93.7343 34.6782C93.7343 34.6782 93.9468 34.7663 94.3582 34.9357C94.7678 35.1121 95.3854 35.3405 96.1725 35.6991C97.7491 36.4304 100.021 37.5896 102.71 39.4239C105.386 41.2601 108.461 43.8228 111.372 47.337C112.821 49.0951 114.265 51.0603 115.558 53.2745C116.843 55.4932 118.021 57.9321 118.989 60.5798C119.946 63.2303 120.701 66.0829 121.174 69.0893C121.648 72.0939 121.803 75.2559 121.606 78.4829C121.554 79.2889 121.453 80.0977 121.379 80.9127C121.265 81.7235 121.141 82.5378 121.012 83.3557C120.841 84.1666 120.683 84.9842 120.48 85.7968C120.254 86.6035 120.075 87.4266 119.806 88.2294C118.813 91.4609 117.443 94.6493 115.71 97.6715C113.974 100.72 111.856 103.577 109.427 106.206C106.982 108.816 104.278 111.248 101.251 113.285C100.496 113.796 99.7415 114.309 98.9484 114.767C98.1748 115.257 97.364 115.681 96.5567 116.122C95.7532 116.565 94.915 116.945 94.0891 117.352L92.8187 117.9C92.3979 118.089 91.9712 118.264 91.5354 118.419C88.098 119.773 84.4799 120.749 80.7825 121.225C73.3998 122.267 65.6984 121.408 58.7917 118.729L57.501 118.22L57.1532 118.08L56.8463 117.94L56.2319 117.658L55.006 117.094L53.766 116.449C52.1129 115.597 50.579 114.625 49.0633 113.611C46.0742 111.534 43.3699 109.124 41.0025 106.49C38.6165 103.869 36.6365 100.969 35.0127 97.9711C34.8117 97.5952 34.6102 97.2202 34.4104 96.8462C34.2259 96.4637 34.0441 96.0828 33.8617 95.7027C33.485 94.9471 33.1627 94.1733 32.8475 93.4012C32.2185 91.8568 31.7086 90.2899 31.2537 88.7318C29.4684 82.476 29.2053 76.2238 29.9275 70.6328C30.2857 67.8305 30.93 65.1945 31.7114 62.7531C31.809 62.448 31.9047 62.1442 32.0012 61.8431C32.1113 61.5464 32.2213 61.2519 32.3294 60.9587C32.5542 60.3772 32.7492 59.7935 33.005 59.2426C33.2488 58.6882 33.4886 58.1408 33.724 57.6012C33.9901 57.0782 34.2509 56.5625 34.5086 56.0542C34.7714 55.557 34.9928 55.0636 35.2782 54.5852C35.5626 54.1086 35.8412 53.6401 36.1157 53.1785C36.6402 52.2401 37.2444 51.4157 37.7985 50.604C38.334 49.7804 38.9393 49.056 39.4948 48.3479C39.776 47.9987 40.0399 47.6476 40.3235 47.3264C40.6139 47.0114 40.8968 46.7036 41.1718 46.4051C42.24 45.1789 43.3338 44.2204 44.2328 43.3434C45.1933 42.5297 46.0027 41.8318 46.6843 41.2993C48.0856 40.2862 48.833 39.7455 48.833 39.7455L48.9835 39.949C48.9835 39.949 48.2908 40.5467 46.9924 41.6677C46.3646 42.2509 45.6076 42.9882 44.7245 43.8536C43.8993 44.779 42.8952 45.7881 41.9363 47.059C41.6875 47.3679 41.434 47.6869 41.173 48.0131C40.9205 48.3465 40.6857 48.7052 40.4275 49.0584C39.9217 49.7744 39.3702 50.5057 38.8913 51.3331C38.3944 52.1478 37.8472 52.9796 37.3967 53.8938C37.1591 54.3433 36.9166 54.8014 36.6696 55.2673C36.4213 55.7313 36.2164 56.2562 35.981 56.76C35.0236 58.7441 34.2854 60.9668 33.5953 63.32C32.9303 65.6819 32.416 68.2187 32.1629 70.8911C31.6235 76.2274 32.0403 82.1214 33.7805 88.0013C34.2312 89.4647 34.7334 90.9347 35.3459 92.3819C35.6516 93.1045 35.9454 93.8376 36.3014 94.5489C36.4721 94.9073 36.644 95.2675 36.8168 95.6282C37.004 95.98 37.1925 96.3336 37.3823 96.6868C38.9069 99.5162 40.7738 102.241 42.9637 104.764C45.1537 107.284 47.6675 109.606 50.4626 111.623C51.8732 112.604 53.3391 113.567 54.8561 114.381L55.9918 115L57.204 115.584L57.812 115.875L58.1177 116.022L58.3948 116.138L59.6112 116.653C62.8688 118.003 66.3227 118.949 69.8596 119.496C71.6267 119.794 73.4194 119.933 75.2182 120.015C76.1171 120.012 77.0204 120.07 77.9212 120.013L79.2745 119.963L80.6252 119.852C84.2279 119.536 87.7896 118.731 91.2061 117.537C94.6238 116.34 97.8494 114.655 100.817 112.65C106.744 108.619 111.494 103.096 114.509 97.0349C116.047 94.0028 117.217 90.8732 118.019 87.7288C118.24 86.9477 118.371 86.1496 118.552 85.3706C118.711 84.5849 118.812 83.7944 118.954 83.0171C119.057 82.2325 119.153 81.4534 119.241 80.6787C119.292 79.8995 119.368 79.1285 119.397 78.3596C119.679 72.2109 118.734 66.3699 116.969 61.2959C116.1 58.7522 115.047 56.388 113.87 54.2319C112.673 52.087 111.394 50.1313 110.06 48.3868C108.74 46.6302 107.334 45.1211 106.002 43.7576C105.313 43.0989 104.669 42.4473 103.996 41.8868C103.667 41.5978 103.347 41.3147 103.032 41.0382C102.707 40.7767 102.39 40.522 102.08 40.2736C99.5952 38.2929 97.4336 36.9988 95.9526 36.1541C95.2117 35.7252 94.6139 35.4367 94.2236 35.2228C93.831 35.0147 93.627 34.9061 93.627 34.9061L93.7343 34.6782Z" fill="#C32018"/>
</g>
<path d="M78 63V87.34L86 79.354V85L76 95L66 85V79.326L74 87.34V63H78Z" fill="#C10C1A"/>
</svg>
