<svg xmlns="http://www.w3.org/2000/svg" width="235" height="201" fill="none" xmlns:v="https://vecta.io/nano"><style><![CDATA[.B{fill-rule:evenodd}.C{fill:#f41b1b}]]></style><path d="M109.689 135.459c-.535-.094-1.045.263-1.139.795l-1.197 6.744c-.094.534.263 1.044.795 1.139l.002.001c.534.094 1.045-.264 1.139-.797l1.196-6.743c.095-.535-.263-1.045-.796-1.139zm-1.687 9.501c-.533-.094-1.043.262-1.139.796l-.326 1.837a.97.97 0 0 0 .159.734c.15.216.376.362.636.407l.001.001a.99.99 0 0 0 1.139-.797l.327-1.838c.095-.533-.261-1.044-.797-1.14zm-1.307 7.354a.99.99 0 0 0-1.139.797l-1.692 9.505c-.094.534.262 1.045.797 1.139h.001c.533.094 1.045-.262 1.139-.795l1.69-9.504c.097-.532-.259-1.044-.796-1.142zm-2.724 15.297c-.531-.093-1.042.263-1.138.796l-1.169 6.55c-.094.533.262 1.045.795 1.141h.002c.533.094 1.045-.263 1.139-.796l1.167-6.549c.047-.258-.008-.519-.16-.735a.98.98 0 0 0-.636-.407zm-1.642 9.204c-.531-.093-1.041.262-1.138.796l-.585 3.281c-.047.26.01.521.159.736s.377.36.636.405l.001.001c.532.093 1.042-.261 1.139-.794l.586-3.285c.094-.534-.263-1.045-.798-1.14zm13.636-38.652c.262.004.51-.098.698-.281a.97.97 0 0 0 .295-.693l.124-12.067c0-.267-.103-.516-.289-.704a.97.97 0 0 0-.687-.285.97.97 0 0 0-.991.973l-.123 12.064a.98.98 0 0 0 .812.977c.052.009.102.015.151.015zm.625 8.513a.98.98 0 0 0 .302-.69l.065-2.992c.007-.266-.09-.517-.274-.706a.97.97 0 0 0-.686-.299c-.542-.014-.993.419-1.005.961l-.065 2.991a.99.99 0 0 0 .811.992.89.89 0 0 0 .149.014c.263.007.512-.089.703-.271zm-.019 16.84c.184-.186.286-.434.284-.694l-.027-10.836c-.002-.539-.443-.979-.986-.98-.262.001-.51.104-.694.29a.98.98 0 0 0-.286.696l.027 10.837c.004.475.345.88.811.962.066.011.125.017.175.016a.98.98 0 0 0 .696-.291zm.045 4.8c-.188-.185-.436-.287-.7-.284-.542.004-.979.449-.975.989l.027 4.336a.98.98 0 0 0 .812.96.92.92 0 0 0 .173.015c.262-.001.51-.103.694-.29a.99.99 0 0 0 .287-.699l-.028-4.335a.98.98 0 0 0-.29-.692zm4.74-43.285a.97.97 0 0 0-.4-.635.98.98 0 0 0-.741-.164c-.533.097-.889.607-.795 1.138l2.993 16.887c.071.406.391.726.798.798.114.02.231.021.342.001a.99.99 0 0 0 .634-.405.98.98 0 0 0 .163-.735l-2.994-16.885zm4.057 22.571a.99.99 0 0 0-1.154-.775.99.99 0 0 0-.777 1.154l1.112 5.688c.079.403.39.709.795.78.115.021.234.02.358-.002.259-.051.482-.199.628-.418a.97.97 0 0 0 .149-.736l-1.111-5.691zm3.518 19.607l-1.326-7.782c-.094-.533-.603-.894-1.138-.801s-.89.603-.8 1.135l1.326 7.782a.99.99 0 0 0 .8.8c.114.02.229.019.335 0 .535-.092.896-.601.803-1.134zm.986 5.581c-.046-.259-.191-.484-.407-.634a.97.97 0 0 0-.73-.162c-.259.045-.485.188-.636.403s-.21.477-.164.735l1.429 8.106c.071.404.393.724.799.795.113.02.226.022.34.003a.98.98 0 0 0 .634-.405.97.97 0 0 0 .162-.736l-1.427-8.105zm-5.515-50.278c-.508.186-.772.749-.589 1.259l5.476 15.157c.12.331.408.574.754.635.17.03.345.016.508-.044.509-.186.774-.75.589-1.257l-5.477-15.158a.99.99 0 0 0-1.261-.592zm8.532 20.701c-.187-.51-.753-.772-1.259-.587a.98.98 0 0 0-.558.508c-.11.237-.123.504-.032.752l4.018 11.069c.118.33.407.574.755.635.168.03.343.014.506-.044.508-.185.772-.75.589-1.259l-4.019-11.074zm7.846 21.553l-2.025-5.528c-.088-.247-.267-.443-.504-.554a.99.99 0 0 0-.757-.034.98.98 0 0 0-.555.51c-.11.24-.121.507-.03.751l2.024 5.531a.99.99 0 0 0 .752.631c.166.029.34.014.51-.045a.99.99 0 0 0 .585-1.262zm1.096 2.996c-.186-.508-.75-.771-1.264-.584-.506.188-.767.752-.582 1.259l.937 2.561a.99.99 0 0 0 .753.631c.166.029.339.014.501-.043l.009-.002a.99.99 0 0 0 .583-1.262l-.937-2.56zm2.117-19.242a.98.98 0 0 0 .676.469c.231.041.469-.001.669-.122.466-.274.623-.877.349-1.343l-7.085-12.051a.98.98 0 0 0-.605-.456c-.254-.065-.518-.027-.742.106a.98.98 0 0 0-.349 1.345l7.087 12.052zm4.372 3.681c-.257-.475-.854-.655-1.332-.399s-.656.854-.4 1.33l4.509 8.384a.97.97 0 0 0 1.328.401.98.98 0 0 0 .478-.582c.076-.253.048-.517-.076-.748l-4.507-8.386zm6.734 13.034c-.132-.227-.344-.39-.599-.457s-.519-.032-.747.101a.98.98 0 0 0-.455.603.97.97 0 0 0 .102.742l3.196 5.487c.146.251.393.422.678.472a.96.96 0 0 0 .662-.119c.469-.27.629-.872.358-1.345l-3.195-5.484zm-14.881-35.754a.98.98 0 0 0 .836-.244c.399-.367.426-.99.061-1.387l-3.992-4.359c-.366-.399-.989-.427-1.39-.061s-.426.99-.06 1.39l3.989 4.353a.98.98 0 0 0 .556.308zm1.64.326a.98.98 0 0 0-.391.646c-.04.259.024.518.179.729l1.476 2.013a.98.98 0 0 0 .623.389 1 1 0 0 0 .752-.175.98.98 0 0 0 .21-1.375l-1.473-2.011c-.153-.213-.38-.356-.641-.394a.98.98 0 0 0-.735.178zm12.127 15.959c.289.051.582-.029.802-.215a.98.98 0 0 0 .348-.669c.023-.262-.058-.516-.227-.715l-6.788-8.092c-.349-.413-.97-.467-1.384-.12-.201.168-.325.406-.348.668a.98.98 0 0 0 .225.716l6.791 8.093a.99.99 0 0 0 .581.334zm5.591 6.665c.287.05.581-.029.803-.216.201-.169.325-.406.347-.666s-.057-.518-.225-.718l-3.57-4.254a.97.97 0 0 0-.668-.348c-.263-.024-.516.056-.716.224a.98.98 0 0 0-.349.669.97.97 0 0 0 .227.717l3.568 4.254a.99.99 0 0 0 .583.338zm4.11 2.217c-.348-.416-.969-.471-1.382-.126s-.475.965-.128 1.384l1.918 2.307c.148.18.356.3.584.34.285.05.575-.026.801-.212.417-.348.472-.969.126-1.383l-1.919-2.31zm-19.639-30.335l8.563 7.198a.99.99 0 0 0 .459.215c.345.061.699-.068.924-.336a.97.97 0 0 0 .228-.716.96.96 0 0 0-.347-.668l-8.561-7.195a.97.97 0 0 0-1.384.116.98.98 0 0 0-.229.718.97.97 0 0 0 .347.668zm15.937 13.224a.98.98 0 0 0 1.152-1.052c-.023-.262-.147-.5-.348-.668l-4.625-3.887c-.203-.171-.46-.251-.723-.227s-.498.148-.659.345a.97.97 0 0 0-.23.716.98.98 0 0 0 .346.671l4.622 3.884c.131.113.292.188.465.218zm10.29 6.211l-5.49-4.579a.97.97 0 0 0-.719-.224c-.262.024-.499.149-.663.347a.97.97 0 0 0-.228.718c.024.264.149.501.351.668l5.49 4.581a.98.98 0 0 0 1.383-.125c.347-.416.293-1.036-.124-1.386zm4.42 3.688l-1.896-1.582c-.415-.347-1.036-.29-1.385.126s-.289 1.037.126 1.383l1.897 1.583c.133.11.291.183.458.212a.98.98 0 0 0 1.15-1.055c-.023-.263-.149-.5-.35-.667zm-9.24-18.511c.407.072.819-.121 1.026-.483.129-.228.161-.493.093-.745a.98.98 0 0 0-.462-.592l-4.846-2.762c-.228-.131-.494-.165-.748-.095a.97.97 0 0 0-.689 1.205.98.98 0 0 0 .462.596l4.847 2.761c.098.057.205.095.317.115zm11.62 4.567l-6.413-3.738a.98.98 0 0 0-.745-.101.97.97 0 0 0-.698 1.204.97.97 0 0 0 .455.596l6.407 3.734c.102.061.213.1.328.121.403.071.812-.119 1.022-.473.132-.227.168-.492.1-.748a.97.97 0 0 0-.456-.595zm11.221 6.514l-6.683-3.874c-.228-.131-.493-.166-.747-.099s-.465.231-.597.457-.166.492-.099.746a.97.97 0 0 0 .457.596l6.685 3.877a1 1 0 0 0 .32.115c.406.071.815-.119 1.021-.475.271-.468.112-1.071-.357-1.343zm-5.33-16.474c.189-.507-.069-1.075-.576-1.266l-18.005-6.743a.98.98 0 0 0-.753.026.97.97 0 0 0-.49 1.302c.109.239.304.422.55.513l18.012 6.746c.058.02.113.035.17.045.467.083.925-.179 1.092-.623zm6.655 3.597c.461.082.916-.176 1.088-.612.095-.246.088-.512-.019-.754a.97.97 0 0 0-.545-.519l-3.111-1.204c-.245-.094-.513-.086-.753.02s-.423.3-.517.543a.98.98 0 0 0 .017.753.97.97 0 0 0 .546.519l3.114 1.204a.95.95 0 0 0 .18.05z" class="B C"/><mask id="A" maskUnits="userSpaceOnUse" x="14" y="80" width="29" height="8" mask-type="alpha"><path d="M14.831 80.475l27.678 4.88-.351 1.988-27.678-4.88.351-1.988z" fill="#fff" class="B"/></mask><g mask="url(#A)" class="B C"><path d="M41.202 87.122c.534.093 1.044-.267 1.136-.801s-.265-1.043-.8-1.137l-5.28-.922-20.475-3.565c-.259-.045-.52.015-.734.167a.97.97 0 0 0-.399.634c-.093.532.265 1.041.798 1.135l.006.001 21.59 3.76 4.158.727z"/></g><path d="M195.516 112.374l-16.479-2.919c-.009.001-.016-.003-.024-.003-.532-.072-1.022.28-1.116.8-.094.534.263 1.046.796 1.14l16.479 2.918h.001c.533.094 1.044-.263 1.138-.797s-.262-1.045-.795-1.139z" class="B C"/><mask id="B" maskUnits="userSpaceOnUse" x="199" y="113" width="22" height="6" mask-type="alpha"><path d="M199.868 113.155l20.277 3.576-.343 1.948-20.277-3.576.343-1.948z" fill="#fff" class="B"/></mask><g mask="url(#B)" class="B C"><path d="M219.812 116.979a.97.97 0 0 0-.634-.407l-18.342-3.246a.99.99 0 0 0-1.138.793c-.046.258.011.52.161.737s.375.36.634.406l18.341 3.246h.001c.534.094 1.043-.264 1.137-.791.047-.259-.009-.522-.16-.738z"/></g><path d="M44.604 99.929a.97.97 0 0 0 .279-.696.97.97 0 0 0-.293-.692.98.98 0 0 0-.699-.282l-10.869.145a.98.98 0 0 0-.693.299c-.183.189-.28.438-.276.699.006.47.348.872.812.954.064.011.127.015.191.014l10.855-.145a.97.97 0 0 0 .693-.296zm5.025.226a.82.82 0 0 0 .178.014l4.345-.032a.54.54 0 0 0 .534-.54l-.005-.892a.54.54 0 0 0-.542-.533l-4.347.033a.97.97 0 0 0-.693.293c-.184.187-.284.435-.282.696a.98.98 0 0 0 .812.962zm13.205-2.027l-3.103.013a.98.98 0 0 0-.981.987c.002.477.345.881.812.964.053.009.109.015.165.014l3.115-.011c.261-.001.509-.105.693-.291s.287-.434.286-.699c-.005-.548-.438-.978-.987-.977zm-16.752 12.589c-1.541.392-3.079.642-4.246.817-.536.077-.908.578-.829 1.12.064.416.386.746.802.82a.96.96 0 0 0 .316.003l4.446-.855c.525-.136.84-.673.707-1.197a.99.99 0 0 0-.453-.604c-.226-.133-.492-.17-.743-.104zm15.607-1.833c-.101-.533-.616-.886-1.144-.786l-8.747 1.606a.99.99 0 0 0-.786 1.145c.073.402.394.719.796.79a.95.95 0 0 0 .348-.001l8.745-1.606c.531-.098.883-.61.787-1.148zm16.357-3.036a.98.98 0 0 0-.414-.632c-.217-.147-.477-.201-.735-.152l-10.646 1.995c-.532.102-.882.616-.783 1.147a.99.99 0 0 0 .795.788c.12.021.241.02.356-.003l10.638-1.996a.98.98 0 0 0 .789-1.147zm-32.465 18.121l-7.879 2.86c-.508.185-.773.75-.587 1.262a.99.99 0 0 0 .753.631 1 1 0 0 0 .506-.045l7.875-2.859a.97.97 0 0 0 .591-1.261.99.99 0 0 0-1.259-.588zm5.416-.008a.96.96 0 0 0 .511-.047l3.141-1.164c.507-.189.767-.755.578-1.265a.98.98 0 0 0-1.263-.579l-3.143 1.165a.99.99 0 0 0-.577 1.265.99.99 0 0 0 .753.625zm5.429-3.661a.97.97 0 0 0-.029.751c.119.326.408.566.752.627a.99.99 0 0 0 .512-.045l7.754-2.876a.99.99 0 0 0 .578-1.265c-.19-.508-.755-.768-1.264-.58l-7.753 2.877c-.246.092-.441.273-.55.511zm11.087-2.452a.95.95 0 0 0 .505-.045l4.357-1.584c.245-.09.444-.27.554-.509a.98.98 0 0 0 .031-.752c-.09-.247-.271-.444-.51-.555a.97.97 0 0 0-.749-.03l-4.356 1.583a.99.99 0 0 0-.587 1.26.99.99 0 0 0 .755.632zm-17.959 18.718l-1.546.899a.99.99 0 0 0-.352 1.343.98.98 0 0 0 .679.475c.226.039.461-.002.666-.12l1.542-.899c.467-.272.627-.875.355-1.345a.98.98 0 0 0-1.344-.353zm9.665-4.483a.98.98 0 0 0-.6-.457.97.97 0 0 0-.744.101l-5.906 3.432c-.469.272-.629.875-.358 1.342.145.252.393.425.68.475a.99.99 0 0 0 .664-.117l5.907-3.433c.467-.271.627-.874.356-1.343zm15.272-9.644a.98.98 0 0 0-.746.099l-10.491 6.069c-.468.271-.63.873-.358 1.346.146.25.395.423.679.473.227.04.462-.001.663-.117l10.49-6.069c.469-.271.631-.872.36-1.344-.132-.227-.344-.39-.598-.457zm-18.665 26.507a.97.97 0 0 0-.714.228l-3.304 2.77a.99.99 0 0 0 .46 1.722.97.97 0 0 0 .803-.215l3.304-2.772a.97.97 0 0 0 .348-.667.97.97 0 0 0-.228-.719.98.98 0 0 0-.669-.347zm14.347-10.218c.024-.262-.057-.518-.227-.72-.347-.415-.968-.468-1.383-.121l-8.733 7.326c-.415.347-.47.969-.12 1.385.148.178.356.297.581.336.288.051.582-.028.803-.216l8.731-7.325a.98.98 0 0 0 .349-.665zm2.801-3.258c.149.176.354.295.581.335a.99.99 0 0 0 .806-.216l5.211-4.386a.98.98 0 0 0 .348-.668.97.97 0 0 0-.227-.718c-.17-.201-.406-.324-.668-.346a.98.98 0 0 0-.717.226l-5.213 4.388c-.201.168-.324.406-.347.668a.97.97 0 0 0 .227.717zm9.207-6.457l2.849-2.385a.99.99 0 0 0 .122-1.387.99.99 0 0 0-1.384-.12l-2.849 2.386a.97.97 0 0 0-.348.669.97.97 0 0 0 .227.719.99.99 0 0 0 .58.333c.289.051.582-.027.803-.215zm5.462-4.57l8.769-7.319c.416-.348.472-.969.125-1.384s-.968-.473-1.385-.127l-8.772 7.321c-.414.349-.469.97-.121 1.385a.99.99 0 0 0 .583.338c.284.05.575-.027.801-.214zM69.83 154.38a.98.98 0 0 0-1.385.122l-2.381 2.836c-.348.415-.293 1.036.122 1.384a.97.97 0 0 0 .462.216c.345.061.698-.068.923-.336l2.381-2.837a.97.97 0 0 0 .226-.718c-.023-.262-.147-.498-.348-.667zm4.544-5.417c-.203-.169-.458-.249-.72-.225a.97.97 0 0 0-.666.347l-2.477 2.952c-.346.416-.29 1.037.125 1.385a.99.99 0 0 0 .458.214c.346.061.698-.067.925-.336l2.476-2.952c.348-.414.293-1.036-.122-1.385zm3.897-3.115l7.607-9.061c.17-.2.25-.456.228-.718a.98.98 0 0 0-.348-.668c-.415-.347-1.037-.293-1.385.121l-7.606 9.061a.98.98 0 1 0 1.504 1.265zm1.754 15.805c-.468-.271-1.069-.11-1.344.358l-5.028 8.709c-.132.228-.166.494-.099.748s.23.462.455.592c.096.059.207.1.325.121a.98.98 0 0 0 1.02-.477l5.032-8.712c.268-.471.105-1.072-.362-1.339zm7.992-13.904c-.228-.13-.493-.165-.747-.095s-.465.231-.595.459l-5.037 8.778c-.27.469-.107 1.071.363 1.341a.99.99 0 0 0 .318.116c.409.072.819-.121 1.025-.479l5.035-8.776a.97.97 0 0 0 .098-.747.98.98 0 0 0-.46-.597zm4.322-7.43c-.225-.134-.49-.173-.744-.108a.97.97 0 0 0-.605.452l-1.569 2.653c-.276.466-.122 1.071.345 1.348a1 1 0 0 0 .328.122.99.99 0 0 0 1.019-.468l1.57-2.653c.276-.468.121-1.072-.344-1.346zm1.913-1.306l7.849-13.263a.99.99 0 0 0-.344-1.348c-.227-.134-.491-.172-.746-.106a.97.97 0 0 0-.601.451l-7.851 13.264c-.274.465-.119 1.069.343 1.344a.96.96 0 0 0 .333.124.99.99 0 0 0 1.016-.466zm-4.531 32.508c-.247-.091-.515-.079-.752.031a.98.98 0 0 0-.509.554l-1.774 4.88c-.187.507.076 1.073.584 1.26.006.003.013.005.019.007a1.05 1.05 0 0 0 .148.037c.475.083.934-.184 1.093-.631l1.777-4.879c.09-.247.078-.514-.033-.752a.97.97 0 0 0-.553-.507zm5.955-16.32c-.248-.093-.514-.083-.753.028a.98.98 0 0 0-.51.556l-3.956 10.836a.98.98 0 0 0 .58 1.257 1.06 1.06 0 0 0 .174.047.98.98 0 0 0 1.093-.631l3.954-10.833a.97.97 0 0 0-.032-.754c-.112-.238-.308-.419-.55-.506zm5.765-15.817a.96.96 0 0 0-.751.032c-.239.11-.421.307-.511.554l-3.736 10.25a.98.98 0 0 0 .031.752c.111.239.309.419.55.507a1 1 0 0 0 .172.047c.469.082.93-.183 1.094-.632l3.738-10.253c.183-.508-.081-1.073-.587-1.257z" class="B C"/><path d="M134.115 131.626l-6.757-10.775c-3.169.141-6.373.072-9.636-.243l-4.311-.568-2.003 11.35c-.094.534-.605.892-1.138.798s-.893-.606-.799-1.139l2.004-11.355-1.629-.335-5.686 15.431c-.165.446-.625.71-1.093.628-.061-.011-.12-.026-.173-.047-.505-.187-.766-.752-.579-1.261l5.601-15.198-1.556-.402-2.621 4.472a.99.99 0 0 1-1.017.466.98.98 0 0 1-.323-.119c-.474-.282-.628-.887-.35-1.352l2.354-4.023-2.152-.677-12.171 14.506a.99.99 0 0 1-1.385.121.98.98 0 0 1-.348-.668.97.97 0 0 1 .226-.716l11.692-13.934-7.084-2.953-13.344 7.659a.99.99 0 0 1-.657.113.98.98 0 0 1-.682-.481c-.13-.23-.164-.494-.094-.748a.97.97 0 0 1 .462-.595l12.188-6.989-3.741-2.142a.98.98 0 0 1-.556.517l-8.65 3.18a.97.97 0 0 1-.51.046c-.345-.061-.634-.302-.753-.631-.09-.243-.08-.51.031-.749s.306-.421.553-.511l8.138-2.993-4.215-3.083c-.061.001-.124.011-.184 0-.392-.069-.7-.373-.785-.76l-6.525-5.387-4.812.001c-.067-.002-.119-.007-.171-.016a.98.98 0 0 1-.813-.971c0-.26.102-.507.288-.694a.97.97 0 0 1 .696-.286l2.426-.001-3.773-2.949c-2.075-1.543-4.193-2.717-6.651-3.556-.777-.265-2.782-.674-3.433-1.577l-10.429-1.858c-.261-.047-.485-.191-.634-.406a.97.97 0 0 1-.16-.736c.096-.531.606-.887 1.138-.793l10.975 1.956c1.187-.45 3.024-.483 3.814-.739 1.668-.536 3.163-1.416 4.533-2.471 3.032-2.333 5.657-5.128 8.701-7.467.034-.026.071-.05.105-.078l1.711-1.271c2.973-2.182 6.066-4.217 9.298-6.017a52.54 52.54 0 0 1 2.273-1.184l1.834-.859c1.585-.704 3.195-1.324 4.824-1.86l1.928-.593c1.611-.46 3.238-.841 4.879-1.143l1.777-.297c1.644-.247 3.299-.417 4.959-.512l1.629-.069 4.519.054 1.77.121a58.05 58.05 0 0 1 4.155.502l1.937.337a60.35 60.35 0 0 1 4.332.984l1.896.538c1.208.364 2.406.768 3.595 1.206l1.855.72c1.499.608 2.983 1.269 4.441 1.995l1.788.928a36.41 36.41 0 0 1 4.106 2.587l1.597 1.226c1.343 1.076 2.624 2.235 3.85 3.455l1.412 1.456c1.305 1.392 2.547 2.843 3.728 4.328l1.261 1.627c.975 1.287 1.912 2.588 2.808 3.887.294.427.571.861.856 1.291l1.16 1.791c1.149 1.835 2.226 3.706 3.254 5.611l.928 1.734s3.749 6.264 7.258 8.063c.3.154.55.319.758.49l1.625.286c.291.052.486.329.436.619l-.075.439-.078.443c-.051.293-.33.487-.623.436l-.003-.001-1.1-.195c-.321.208-.789.358-1.403.421-2.48.257-4.871-.169-7.36.402-2.232.511-4.49 1.234-6.743 2.021l.421.154c.507.185.77.751.586 1.258-.166.451-.625.715-1.093.633-.06-.011-.119-.027-.174-.047l-2.637-.964c-2.318.843-4.62 1.69-6.875 2.385l-.469.141 8.49 4.882a.99.99 0 0 1 .365 1.34c-.212.36-.622.551-1.026.48-.116-.02-.224-.061-.325-.119l-10.126-5.822a98.87 98.87 0 0 1-5.085 1.272l1.918 1.566c.421.341.485.961.145 1.383a.99.99 0 0 1-.937.349c-.16-.028-.312-.097-.442-.2l-3.115-2.543-.054-.045a84.34 84.34 0 0 1-3.885.648l.858 1.132c.159.21.226.468.19.728a.97.97 0 0 1-.382.649.98.98 0 0 1-.763.185.97.97 0 0 1-.614-.379l-1.538-2.031c-.848.095-1.698.179-2.55.245l6.185 9.862c.14.223.184.487.125.743s-.215.474-.437.613c-.204.129-.449.176-.69.134-.274-.048-.516-.21-.664-.445z" class="C"/></svg>