<svg xmlns="http://www.w3.org/2000/svg" width="235" height="202" fill="none" xmlns:v="https://vecta.io/nano"><style><![CDATA[.B{fill-rule:evenodd}.C{fill:#f41b1b}]]></style><path d="M128.298 30.95h.002c.533.094 1.043-.264 1.137-.8l.959-5.516c.095-.534-.263-1.044-.801-1.139-.531-.093-1.041.265-1.135.799l-.96 5.519c-.093.532.266 1.042.798 1.136m-1.649 8.873l.005.001a.99.99 0 0 0 1.137-.787l1.09-5.811c.1-.531-.252-1.047-.784-1.147l-.011-.002a.99.99 0 0 0-1.137.787l-1.09 5.809c-.049.258.005.52.153.737a.98.98 0 0 0 .637.413m-2.388 13.72l.003.001a.97.97 0 0 0 1.136-.801l1.379-7.965c.091-.531-.266-1.042-.8-1.136a.98.98 0 0 0-.737.166c-.214.152-.357.379-.4.635l-1.378 7.966c-.092.532.266 1.041.797 1.135m-14.572 82.916c-.535-.094-1.045.263-1.139.795l-1.197 6.744c-.094.534.263 1.044.795 1.139l.002.001c.534.094 1.045-.264 1.139-.797l1.196-6.743c.095-.535-.263-1.045-.796-1.139m-1.687 9.501c-.533-.094-1.043.262-1.139.796l-.326 1.837a.97.97 0 0 0 .159.734c.15.216.376.362.636.407l.001.001a.99.99 0 0 0 1.139-.797l.327-1.838c.095-.533-.261-1.044-.797-1.14m-1.307 7.354a.99.99 0 0 0-1.139.797l-1.692 9.505c-.094.534.262 1.045.797 1.139h.001c.533.094 1.045-.262 1.139-.795l1.69-9.504c.097-.532-.259-1.044-.796-1.142m-2.724 15.297c-.531-.093-1.042.263-1.138.796l-1.169 6.55c-.094.533.262 1.045.795 1.141h.002c.533.094 1.045-.263 1.139-.796l1.167-6.549c.047-.258-.008-.519-.16-.735a.98.98 0 0 0-.636-.407m-1.642 9.204c-.531-.093-1.041.262-1.138.796l-.585 3.281c-.047.26.01.521.159.736s.377.36.636.405l.001.001c.532.093 1.042-.261 1.139-.794l.586-3.285c.094-.534-.263-1.045-.798-1.14" class="B C"/><mask id="A" maskUnits="userSpaceOnUse" x="114" y="16" width="4" height="6" mask-type="alpha"><path d="M115.177 16.31l2.516.444-.871 4.94-2.516-.444.871-4.94z" fill="#fff" class="B"/></mask><g mask="url(#A)" class="B C"><path d="M115.853 21.523c.066.012.129.017.187.015a.99.99 0 0 0 .969-.999l-.052-3.103c-.004-.265-.109-.511-.299-.694a.98.98 0 0 0-.699-.274c-.543.01-.976.458-.968.999l.05 3.105c.009.471.349.871.812.953"/></g><g class="B C"><path d="M115.363 22.976c-.182.188-.282.437-.277.697l.019 1.553c.007.472.348.874.812.956.063.011.125.016.185.014.54-.008.975-.453.969-.995l-.021-1.55c-.004-.539-.448-.976-.994-.973-.264.004-.51.109-.693.299m.059 4.651c-.184.187-.285.435-.283.696l.056 9.629c.004.474.346.878.812.961a.99.99 0 0 0 .178.015c.263-.001.509-.106.694-.294s.285-.435.281-.695l-.055-9.627a.97.97 0 0 0-.987-.978.98.98 0 0 0-.696.292m-.209 13.336l.03 5.375c.004.475.346.878.814.961.06.011.119.016.176.016.539-.004.978-.447.976-.989l-.03-5.374c-.001-.263-.107-.509-.295-.695a.97.97 0 0 0-.695-.283c-.541.005-.98.448-.976.99m.752 98.199c.262.004.51-.098.698-.281a.97.97 0 0 0 .295-.693l.124-12.067c0-.267-.103-.516-.289-.704a.97.97 0 0 0-.687-.285.97.97 0 0 0-.991.973l-.123 12.064a.98.98 0 0 0 .812.977c.052.009.102.015.151.015m.635 8.514a.98.98 0 0 0 .302-.69l.065-2.992c.007-.266-.09-.517-.274-.706a.97.97 0 0 0-.686-.299c-.542-.014-.993.419-1.005.961l-.065 2.991a.99.99 0 0 0 .811.992.89.89 0 0 0 .149.014c.263.007.512-.089.703-.271m-.019 16.84c.184-.186.286-.434.284-.694l-.027-10.836c-.002-.539-.443-.979-.986-.98-.262.001-.51.104-.694.29a.98.98 0 0 0-.286.696l.027 10.837c.004.475.345.88.811.962.066.011.125.017.175.016a.98.98 0 0 0 .696-.291"/><path d="M116.616 169.316c-.188-.185-.436-.287-.7-.284-.542.004-.979.449-.975.989l.027 4.336a.98.98 0 0 0 .812.96.92.92 0 0 0 .173.015c.262-.001.51-.103.694-.29a.99.99 0 0 0 .287-.699l-.028-4.335a.98.98 0 0 0-.29-.692M102.632 29.334a.99.99 0 0 0 .796.788c.119.021.237.02.353-.002.531-.099.883-.614.785-1.146l-.381-2.043c-.047-.257-.192-.483-.409-.632a.98.98 0 0 0-.737-.156c-.532.099-.886.611-.788 1.146l.381 2.044z"/><path d="M103.215 32.453l1.444 7.738a.99.99 0 0 0 .796.789 1.02 1.02 0 0 0 .344 0c.54-.103.892-.616.792-1.149l-1.444-7.735c-.046-.258-.191-.482-.405-.631s-.481-.207-.74-.159c-.533.099-.886.613-.787 1.147m4.299 23.674l.003.03.863 5.504c.071.406.391.727.797.799a.99.99 0 0 0 .343 0c.258-.046.485-.19.634-.405a.97.97 0 0 0 .162-.734l-.857-5.48-.007-.049c-.475-3.235-.965-6.579-1.782-9.988a.97.97 0 0 0-.441-.61.98.98 0 0 0-.746-.118c-.525.127-.85.658-.725 1.184.802 3.35 1.286 6.663 1.756 9.868m13.842 69.903a.97.97 0 0 0-.4-.635.98.98 0 0 0-.741-.164c-.533.097-.889.607-.795 1.138l2.993 16.887c.071.406.391.726.798.798.114.02.231.021.342.001a.99.99 0 0 0 .634-.405.98.98 0 0 0 .163-.735l-2.994-16.885zm4.057 22.571a.99.99 0 0 0-1.154-.775.99.99 0 0 0-.777 1.154l1.112 5.688c.079.403.39.709.795.78.115.021.234.02.358-.002.259-.051.482-.199.628-.418a.97.97 0 0 0 .149-.736l-1.111-5.691zm3.518 19.607l-1.326-7.782c-.094-.533-.603-.894-1.138-.801s-.89.603-.8 1.135l1.326 7.782a.99.99 0 0 0 .8.8c.114.02.229.019.335 0 .535-.092.896-.601.803-1.134m.986 5.581c-.046-.259-.191-.484-.407-.634a.97.97 0 0 0-.73-.162c-.259.045-.485.188-.636.403s-.21.477-.164.735l1.429 8.106c.071.404.393.724.799.795.113.02.226.022.34.003a.98.98 0 0 0 .634-.405.97.97 0 0 0 .162-.736l-1.427-8.105zM90.008 31.917c.121.329.408.57.753.63a.98.98 0 0 0 .506-.044c.245-.09.443-.27.555-.507a.97.97 0 0 0 .033-.752l-3.323-9.13c-.09-.248-.273-.446-.512-.556a.97.97 0 0 0-.745-.032c-.247.089-.445.269-.556.506a.98.98 0 0 0-.035.754l3.324 9.13zm5.996 16.476a.99.99 0 0 0 1.261.585c.508-.187.771-.751.587-1.259l-3.998-10.985c-.187-.508-.751-.771-1.26-.586a.99.99 0 0 0-.588 1.26l3.999 10.985z"/><path d="M98.662 52.823c-.508.186-.772.751-.586 1.26l3.156 8.666a.99.99 0 0 0 1.261.584c.244-.089.44-.268.553-.504s.123-.506.033-.755l-3.156-8.667c-.189-.508-.755-.771-1.261-.585m25.74 70.69c-.508.186-.772.749-.589 1.259l5.476 15.157c.12.331.408.574.754.635.17.03.345.016.508-.044.509-.186.774-.75.589-1.257l-5.477-15.158a.99.99 0 0 0-1.261-.592m8.532 20.701c-.187-.51-.753-.772-1.259-.587a.98.98 0 0 0-.558.508c-.11.237-.123.504-.032.752l4.018 11.069c.118.33.407.574.755.635.168.03.343.014.506-.044.508-.185.772-.75.589-1.259l-4.019-11.074zm7.846 21.553l-2.025-5.528c-.088-.247-.267-.443-.504-.554a.99.99 0 0 0-.757-.034.98.98 0 0 0-.555.51c-.11.24-.121.507-.03.751l2.024 5.531a.99.99 0 0 0 .752.631c.166.029.34.014.51-.045a.99.99 0 0 0 .585-1.262m1.096 2.996c-.186-.508-.75-.771-1.264-.584-.506.188-.767.752-.582 1.259l.937 2.561a.99.99 0 0 0 .753.631c.166.029.339.014.501-.043l.009-.002a.99.99 0 0 0 .583-1.262l-.937-2.56zM78.033 36.664a.98.98 0 0 0 1.339.365.97.97 0 0 0 .368-1.341l-1.129-1.985c-.131-.228-.344-.393-.598-.462s-.518-.035-.742.095-.393.34-.463.594a.97.97 0 0 0 .094.747l1.131 1.988zm4.392 7.713a.98.98 0 0 0 1.341.367.97.97 0 0 0 .461-.594c.071-.254.037-.519-.094-.747l-2.744-4.821c-.269-.471-.871-.635-1.342-.367a.98.98 0 0 0-.462.596c-.068.253-.035.519.096.745l2.744 4.821zm2.638 1.242c-.254-.069-.519-.035-.745.094a.97.97 0 0 0-.368 1.34l3.048 5.354a.98.98 0 0 0 .686.484c.226.04.46-.001.655-.114a.97.97 0 0 0 .462-.594c.07-.255.037-.52-.093-.748l-3.049-5.355c-.13-.229-.342-.393-.596-.462"/><path d="M91.27 56.416a.98.98 0 0 0-.747.098.99.99 0 0 0-.359 1.344l1.29 2.226c.145.254.393.428.681.478a.98.98 0 0 0 .661-.116c.227-.132.392-.344.46-.597a.98.98 0 0 0-.1-.748l-1.291-2.23c-.132-.226-.343-.388-.595-.455m52.723 93.104a.98.98 0 0 0 .676.469c.231.041.469-.001.669-.122.466-.274.623-.877.349-1.343l-7.085-12.051a.98.98 0 0 0-.605-.456c-.254-.065-.518-.027-.742.106a.98.98 0 0 0-.349 1.345l7.087 12.052zm4.372 3.681c-.257-.475-.854-.655-1.332-.399s-.656.854-.4 1.33l4.509 8.384a.97.97 0 0 0 1.328.401.98.98 0 0 0 .478-.582c.076-.253.048-.517-.076-.748l-4.507-8.386zm6.734 13.034c-.132-.227-.344-.39-.599-.457s-.519-.032-.747.101a.98.98 0 0 0-.455.603.97.97 0 0 0 .102.742l3.196 5.487c.146.251.393.422.678.472a.96.96 0 0 0 .662-.119c.469-.27.629-.872.358-1.345l-3.195-5.484zM64.385 40.207a.98.98 0 0 0 1.387.065c.195-.176.308-.418.321-.68s-.078-.514-.255-.709l-2.448-2.691a.98.98 0 0 0-1.389-.066c-.195.176-.308.418-.321.681a.98.98 0 0 0 .255.708l2.45 2.692zm6.258 7.785c.15.175.354.294.58.334a.98.98 0 0 0 .805-.218.97.97 0 0 0 .346-.67.98.98 0 0 0-.229-.717l-2.59-3.056c-.35-.412-.97-.462-1.386-.113a.98.98 0 0 0-.113 1.384l2.588 3.056zm3.586 4.233a.98.98 0 0 0 1.385.113c.412-.35.465-.971.115-1.385l-1.396-1.649a.99.99 0 0 0-1.383-.112.98.98 0 0 0-.116 1.385l1.394 1.647zm1.93 2.276l3.037 3.586a.98.98 0 0 0 1.388.115.97.97 0 0 0 .343-.671c.021-.261-.061-.517-.23-.714L77.66 53.23c-.169-.2-.407-.323-.669-.344a.98.98 0 0 0-.717.23c-.414.349-.465.97-.114 1.385"/><path d="M140.218 130.481a.98.98 0 0 0 .836-.244c.399-.367.426-.99.061-1.387l-3.992-4.359c-.366-.399-.989-.427-1.39-.061s-.426.99-.06 1.39l3.989 4.353a.98.98 0 0 0 .556.308m1.64.326a.98.98 0 0 0-.391.646c-.04.259.024.518.179.729l1.476 2.013a.98.98 0 0 0 .623.389 1 1 0 0 0 .752-.175.98.98 0 0 0 .21-1.375l-1.473-2.011c-.153-.213-.38-.356-.641-.394a.98.98 0 0 0-.735.178m12.127 15.959c.289.051.582-.029.802-.215a.98.98 0 0 0 .348-.669c.023-.262-.058-.516-.227-.715l-6.788-8.092c-.349-.413-.97-.467-1.384-.12-.201.168-.325.406-.348.668a.98.98 0 0 0 .225.716l6.791 8.093a.99.99 0 0 0 .581.334m5.591 6.665c.287.05.581-.029.803-.216.201-.169.325-.406.347-.666s-.057-.518-.225-.718l-3.57-4.254a.97.97 0 0 0-.668-.348c-.263-.024-.516.056-.716.224a.98.98 0 0 0-.349.669.97.97 0 0 0 .227.717l3.568 4.254a.99.99 0 0 0 .583.338m4.11 2.217c-.348-.416-.969-.471-1.382-.126s-.475.965-.128 1.384l1.918 2.307c.148.18.356.3.584.34.285.05.575-.026.801-.212.417-.348.472-.969.126-1.383l-1.919-2.31zM51.815 47.834l4.626 3.86a.98.98 0 0 0 .461.216c.344.061.697-.068.921-.334a.98.98 0 0 0 .229-.717c-.021-.261-.145-.498-.345-.668l-4.642-3.874c-.203-.168-.458-.245-.721-.22a.97.97 0 0 0-.882 1.071.97.97 0 0 0 .353.665m9.241 7.781l3.382 2.835a1 1 0 0 0 .459.214c.347.061.701-.068.925-.336a.98.98 0 0 0 .227-.718.99.99 0 0 0-.349-.668l-3.383-2.832a.98.98 0 0 0-.718-.227.97.97 0 0 0-.666.349.98.98 0 0 0-.226.72.97.97 0 0 0 .349.665m5.729 4.798l4.501 3.771a.99.99 0 0 0 .459.213.98.98 0 0 0 .922-.334.97.97 0 0 0 .228-.717c-.022-.264-.146-.502-.349-.67l-4.497-3.769a.98.98 0 0 0-.721-.227.97.97 0 0 0-.663.347c-.17.202-.251.456-.228.718a.97.97 0 0 0 .348.668m7.649 4.219a.98.98 0 0 0-.668.347.97.97 0 0 0-.226.717.97.97 0 0 0 .348.668l6.632 5.556c.133.111.291.184.46.214a.98.98 0 0 0 .924-.336c.168-.202.249-.457.224-.719s-.145-.498-.348-.666l-6.63-5.554c-.2-.169-.456-.25-.718-.227m69.615 60.68l8.563 7.198a.99.99 0 0 0 .459.215c.345.061.699-.068.924-.336a.97.97 0 0 0 .228-.716.96.96 0 0 0-.347-.668l-8.561-7.195a.97.97 0 0 0-1.384.116.98.98 0 0 0-.229.718.97.97 0 0 0 .347.668m15.937 13.224a.98.98 0 0 0 1.152-1.052c-.023-.262-.147-.5-.348-.668l-4.625-3.887c-.203-.171-.46-.251-.723-.227s-.498.148-.659.345a.97.97 0 0 0-.23.716.98.98 0 0 0 .346.671l4.622 3.884c.131.113.292.188.465.218m10.29 6.211l-5.49-4.579a.97.97 0 0 0-.719-.224c-.262.024-.499.149-.663.347a.97.97 0 0 0-.228.718c.024.264.149.501.351.668l5.49 4.581a.98.98 0 0 0 1.383-.125c.347-.416.293-1.036-.124-1.386m4.42 3.688l-1.896-1.582c-.415-.347-1.036-.29-1.385.126s-.289 1.037.126 1.383l1.897 1.583c.133.11.291.183.458.212a.98.98 0 0 0 1.15-1.055c-.023-.263-.149-.5-.35-.667M59.178 68.662c.406.072.816-.119 1.023-.477.132-.228.166-.493.098-.746a.98.98 0 0 0-.458-.597l-5.897-3.406c-.468-.271-1.071-.111-1.343.36-.131.227-.166.492-.098.746a.98.98 0 0 0 .458.596l5.895 3.406a.99.99 0 0 0 .322.118m11.254 6.6a.99.99 0 0 0 1.015-.466.98.98 0 0 0 .108-.746c-.066-.253-.225-.467-.45-.601L64.74 69.67a.98.98 0 0 0-1.349.344c-.276.466-.121 1.071.345 1.347l6.363 3.775a.95.95 0 0 0 .333.125m95.022 54.664c.407.072.819-.121 1.026-.483.129-.228.161-.493.093-.745a.98.98 0 0 0-.462-.592l-4.846-2.762c-.228-.131-.494-.165-.748-.095a.97.97 0 0 0-.689 1.205.98.98 0 0 0 .462.596l4.847 2.761c.098.057.205.095.317.115m11.62 4.567l-6.413-3.738a.98.98 0 0 0-.745-.101.97.97 0 0 0-.698 1.204.97.97 0 0 0 .455.596l6.407 3.734c.102.061.213.1.328.121.403.071.812-.119 1.022-.473.132-.227.168-.492.1-.748a.97.97 0 0 0-.456-.595m11.221 6.514l-6.683-3.874c-.228-.131-.493-.166-.747-.099s-.465.231-.597.457-.166.492-.099.746a.97.97 0 0 0 .457.596l6.685 3.877a1 1 0 0 0 .32.115c.406.071.815-.119 1.021-.475.271-.468.112-1.071-.357-1.343M37.734 72.955l3.249 1.093a.93.93 0 0 0 .154.041.98.98 0 0 0 1.056-1.395.97.97 0 0 0-.559-.502l-3.29-1.106c-.515-.168-1.07.114-1.239.629s.115 1.071.63 1.239m6.088 2.131l2.702 1.068a.96.96 0 0 0 .206.061c.452.08.906-.17 1.079-.595.206-.502-.034-1.077-.535-1.282l-2.754-1.092a.99.99 0 0 0-1.264.571c-.194.505.062 1.074.568 1.269m8.744 1.179c-.51-.18-1.072.086-1.253.592a.97.97 0 0 0 .035.753.98.98 0 0 0 .556.505l3.237 1.166c.051.019.105.034.166.044a.98.98 0 0 0 1.095-.634.97.97 0 0 0-.593-1.258l-3.242-1.168zm5.478 4.063l7.336 2.647a.98.98 0 0 0 .164.043c.47.083.93-.183 1.096-.637.18-.51-.086-1.073-.593-1.255l-7.341-2.649c-.509-.18-1.072.087-1.253.593a.99.99 0 0 0 .59 1.259m124.919 44.204c.189-.507-.069-1.075-.576-1.266l-18.005-6.743a.98.98 0 0 0-.753.026.97.97 0 0 0-.49 1.302c.109.239.304.422.55.513l18.012 6.746c.058.02.113.035.17.045.467.083.925-.179 1.092-.623m6.655 3.597c.461.082.916-.176 1.088-.612.095-.246.088-.512-.019-.754a.97.97 0 0 0-.545-.519l-3.111-1.204c-.245-.094-.513-.086-.753.02s-.423.3-.517.543a.98.98 0 0 0 .017.753.97.97 0 0 0 .546.519l3.114 1.204a.95.95 0 0 0 .18.05"/></g><mask id="B" maskUnits="userSpaceOnUse" x="14" y="81" width="29" height="8" mask-type="alpha"><path d="M14.831 81.475l27.678 4.88-.351 1.988-27.678-4.88.351-1.988z" fill="#fff" class="B"/></mask><g mask="url(#B)" class="B C"><path d="M41.202 88.122c.534.093 1.044-.267 1.136-.801s-.265-1.043-.8-1.137l-5.28-.922-20.475-3.565c-.259-.045-.52.015-.734.167a.97.97 0 0 0-.399.634c-.093.532.265 1.041.798 1.135l.006.001 21.59 3.76 4.158.727"/></g><path d="M195.516 113.374l-16.479-2.919c-.009.001-.016-.003-.024-.003-.532-.072-1.022.28-1.116.8-.094.534.263 1.046.796 1.14l16.479 2.918h.001c.533.094 1.044-.263 1.138-.797s-.262-1.045-.795-1.139" class="B C"/><mask id="C" maskUnits="userSpaceOnUse" x="199" y="114" width="22" height="6" mask-type="alpha"><path d="M199.868 114.155l20.277 3.576-.343 1.948-20.277-3.576.343-1.948z" fill="#fff" class="B"/></mask><g mask="url(#C)" class="B C"><path d="M219.812 117.979a.97.97 0 0 0-.634-.407l-18.342-3.246a.99.99 0 0 0-1.138.793c-.046.258.011.52.161.737s.375.36.634.406l18.341 3.246h.001c.534.094 1.043-.264 1.137-.791.047-.259-.009-.522-.16-.738"/></g><g class="B C"><path d="M44.604 100.929a.97.97 0 0 0 .279-.696.97.97 0 0 0-.293-.692.98.98 0 0 0-.699-.282l-10.869.145a.98.98 0 0 0-.693.299c-.183.189-.28.438-.276.699.006.47.348.872.812.954.064.011.127.015.191.014l10.855-.145a.97.97 0 0 0 .693-.296m5.025.226a.82.82 0 0 0 .178.014l4.345-.032a.54.54 0 0 0 .534-.54l-.005-.892a.54.54 0 0 0-.542-.533l-4.347.033a.97.97 0 0 0-.693.293c-.184.187-.284.435-.282.695.004.475.344.879.812.962m13.205-2.027l-3.103.013a.98.98 0 0 0-.981.987c.002.477.345.881.812.964.053.009.109.015.165.014l3.115-.011c.261-.001.509-.105.693-.291s.287-.434.286-.699c-.005-.548-.438-.978-.987-.977m108.732.275l-2.801-.052c-.541-.011-.989.422-1 .962a.99.99 0 0 0 .811.989 1 1 0 0 0 .134.014l2.821.053a.99.99 0 0 0 1.001-.966.98.98 0 0 0-.966-1m5.203 1.951a.85.85 0 0 0 .171.015l10.217-.001a.97.97 0 0 0 .98-.981c.001-.265-.102-.514-.29-.7a.97.97 0 0 0-.691-.283h-10.218a.99.99 0 0 0-.697.29.97.97 0 0 0-.284.691c-.003.478.338.887.812.97M46.082 111.717c-1.541.392-3.079.642-4.246.817-.536.077-.908.578-.829 1.12.064.416.386.746.802.82a.96.96 0 0 0 .316.003l4.446-.855c.525-.136.84-.673.707-1.197a.99.99 0 0 0-.453-.604c-.226-.133-.492-.17-.743-.104m15.607-1.833c-.101-.533-.616-.886-1.144-.786l-8.747 1.606a.99.99 0 0 0-.786 1.145c.073.402.394.719.796.79a.95.95 0 0 0 .348-.001l8.745-1.606c.531-.098.883-.61.787-1.148m16.358-3.036a.98.98 0 0 0-.414-.632c-.217-.147-.477-.201-.735-.152l-10.646 1.995c-.532.102-.882.616-.783 1.147a.99.99 0 0 0 .795.788c.12.021.241.02.356-.003l10.638-1.996a.98.98 0 0 0 .789-1.147m97.013-15.892l6.793-1.221a.97.97 0 0 0 .635-.407.98.98 0 0 0 .16-.735c-.046-.259-.191-.484-.407-.634a.97.97 0 0 0-.732-.158l-6.799 1.221c-.259.046-.484.19-.634.405a.98.98 0 0 0-.162.735c.071.404.391.724.796.795a1.03 1.03 0 0 0 .35-.001m9.59-1.784c.112.02.228.019.344-.001l2.593-.466a.99.99 0 0 0 .794-1.145.99.99 0 0 0-1.144-.79l-2.591.465c-.258.047-.482.191-.633.406a.97.97 0 0 0-.16.736.99.99 0 0 0 .797.793m8.423-1.604c.099.017.201.019.305.005l1.671-.233a.97.97 0 0 0 .839-1.107.98.98 0 0 0-.38-.65.97.97 0 0 0-.729-.189l-1.674.233c-.533.075-.909.571-.836 1.109a.98.98 0 0 0 .804.832M45.581 124.969l-7.879 2.86c-.508.185-.773.75-.587 1.262a.99.99 0 0 0 .753.631 1 1 0 0 0 .506-.045l7.875-2.859a.97.97 0 0 0 .591-1.261.99.99 0 0 0-1.259-.588m5.416-.008a.96.96 0 0 0 .511-.047l3.141-1.164c.507-.189.767-.755.578-1.265a.98.98 0 0 0-1.263-.579l-3.143 1.165a.99.99 0 0 0-.577 1.265.99.99 0 0 0 .753.625m5.429-3.661a.97.97 0 0 0-.029.751c.119.326.408.566.752.627a.99.99 0 0 0 .512-.045l7.754-2.876a.99.99 0 0 0 .578-1.265c-.19-.508-.755-.768-1.264-.58l-7.753 2.877c-.246.092-.441.273-.55.511m11.087-2.452a.95.95 0 0 0 .505-.045l4.357-1.584c.245-.09.444-.27.554-.509a.98.98 0 0 0 .031-.752c-.09-.247-.271-.444-.51-.555a.97.97 0 0 0-.749-.03l-4.356 1.583a.99.99 0 0 0-.587 1.26.99.99 0 0 0 .755.632M176.042 77.8c-.105.24-.111.507-.017.752a.99.99 0 0 0 1.272.561l7.715-2.988a.98.98 0 0 0 .041-1.814.98.98 0 0 0-.753-.018l-7.713 2.987a.98.98 0 0 0-.545.52m14.043-3.54a.98.98 0 0 0 .495-.04l1.394-.486c.249-.086.449-.263.563-.499a.97.97 0 0 0 .046-.754c-.178-.511-.741-.782-1.252-.605l-1.398.487c-.25.087-.45.265-.564.502a.98.98 0 0 0-.041.75c.117.335.408.583.757.644M49.554 137.566l-1.546.899a.99.99 0 0 0-.352 1.343.98.98 0 0 0 .679.475c.226.039.461-.002.666-.12l1.542-.899c.467-.272.627-.875.355-1.345a.98.98 0 0 0-1.344-.353m9.665-4.483a.98.98 0 0 0-.6-.457.97.97 0 0 0-.744.101l-5.906 3.432c-.469.272-.629.875-.358 1.342.145.252.393.425.68.475a.99.99 0 0 0 .664-.117l5.907-3.433c.467-.271.627-.874.356-1.343m15.273-9.644a.98.98 0 0 0-.746.099l-10.491 6.069c-.468.271-.63.873-.358 1.346.146.25.395.423.679.473.227.04.462-.001.663-.117l10.49-6.069c.469-.271.631-.872.36-1.344-.132-.227-.344-.39-.598-.457m84.399-46.923a.97.97 0 0 0 .663-.119l5.147-2.985a.97.97 0 0 0 .457-.598.98.98 0 0 0-.099-.748c-.273-.467-.875-.627-1.343-.355l-5.147 2.986a.98.98 0 0 0-.458.598.97.97 0 0 0 .101.749.99.99 0 0 0 .679.473m13.564-9.875l-5.939 3.445c-.467.271-.628.873-.358 1.341.144.253.392.427.681.478a.99.99 0 0 0 .664-.117l5.942-3.447a.99.99 0 0 0 .353-1.344.99.99 0 0 0-1.343-.356m4.55-2.267a.97.97 0 0 0 .122.741.98.98 0 0 0 .664.451c.237.042.481-.006.688-.133l3.662-2.27a.98.98 0 0 0 .439-.613.97.97 0 0 0-.121-.736c-.136-.225-.352-.382-.609-.443s-.523-.018-.745.121l-3.661 2.269a.97.97 0 0 0-.439.611M55.826 149.946a.97.97 0 0 0-.714.228l-3.304 2.77a.99.99 0 0 0 .46 1.722.97.97 0 0 0 .803-.215l3.304-2.772a.97.97 0 0 0 .348-.667.97.97 0 0 0-.228-.719.98.98 0 0 0-.669-.347m14.347-10.218c.024-.262-.057-.518-.227-.72-.347-.415-.968-.468-1.383-.121l-8.733 7.326c-.415.347-.47.969-.12 1.385.148.178.356.297.581.336.288.051.582-.028.803-.216l8.731-7.325a.98.98 0 0 0 .349-.665m2.8-3.258c.149.176.354.295.581.335a.99.99 0 0 0 .806-.216l5.211-4.386a.98.98 0 0 0 .348-.668.97.97 0 0 0-.227-.718c-.17-.201-.406-.324-.668-.346a.98.98 0 0 0-.717.226l-5.213 4.388c-.201.168-.324.406-.347.668a.97.97 0 0 0 .227.717m9.206-6.457l2.849-2.385a.99.99 0 0 0 .122-1.387.99.99 0 0 0-1.384-.12l-2.849 2.386a.97.97 0 0 0-.348.669.97.97 0 0 0 .227.719.99.99 0 0 0 .58.333c.289.051.582-.027.803-.215m5.462-4.57l8.769-7.319c.416-.348.472-.969.125-1.384s-.968-.473-1.385-.127l-8.772 7.321c-.414.349-.469.97-.121 1.385a.99.99 0 0 0 .583.338c.284.05.575-.027.801-.214m72.734-62.384c-.35-.412-.971-.464-1.386-.114l-7.114 6.031a.97.97 0 0 0-.345.669c-.022.261.059.516.228.716a.99.99 0 0 0 .58.334.98.98 0 0 0 .807-.218l7.117-6.033c.411-.349.462-.969.113-1.385m2.7-3.117a.97.97 0 0 0 .225.717c.148.177.355.297.583.337.288.051.58-.028.802-.215l4.519-3.787a.98.98 0 0 0 .348-.668.97.97 0 0 0-.227-.717c-.348-.416-.969-.47-1.385-.121l-4.517 3.788a.98.98 0 0 0-.348.666m7.941-4.926a.99.99 0 0 0 .805-.215l1.664-1.396c.415-.348.469-.97.12-1.386a.99.99 0 0 0-1.384-.12l-1.665 1.396c-.2.168-.323.405-.348.666a.97.97 0 0 0 .228.721c.15.177.355.295.58.335m4.062-3.407a.98.98 0 0 0 .804-.215l4.256-3.568c.415-.348.469-.969.121-1.384s-.968-.47-1.386-.123l-4.252 3.567a.97.97 0 0 0-.35.665c-.024.263.056.519.227.722.147.175.354.295.58.335M69.83 155.38a.98.98 0 0 0-1.385.122l-2.381 2.836c-.348.415-.293 1.036.122 1.384a.97.97 0 0 0 .462.216c.345.061.698-.068.923-.336l2.381-2.837a.97.97 0 0 0 .226-.718c-.023-.262-.147-.498-.348-.667m4.544-5.417c-.203-.169-.458-.249-.72-.225a.97.97 0 0 0-.666.347l-2.477 2.952c-.346.416-.29 1.037.125 1.385a.99.99 0 0 0 .458.214c.346.061.698-.067.925-.336l2.476-2.952c.348-.414.293-1.036-.122-1.385m3.898-3.115l7.607-9.061c.17-.2.25-.456.228-.718a.98.98 0 0 0-.348-.668c-.415-.347-1.037-.293-1.385.121l-7.606 9.061a.98.98 0 1 0 1.504 1.265m74.119-89.862c-.415-.347-1.036-.292-1.384.122l-6.553 7.813c-.35.414-.296 1.035.122 1.386a.98.98 0 0 0 .46.213.99.99 0 0 0 .924-.337l6.551-7.811c.169-.2.25-.455.228-.715a.98.98 0 0 0-.348-.672m.378-1.532a.98.98 0 0 0 .346.667.97.97 0 0 0 .462.216c.347.061.702-.067.926-.335l1.483-1.767a.99.99 0 0 0-.122-1.386.98.98 0 0 0-.721-.225.97.97 0 0 0-.663.347l-1.483 1.767a.98.98 0 0 0-.228.717m5.553-5.541a.97.97 0 0 0 .464.217.98.98 0 0 0 .923-.336l3.637-4.334c.168-.201.249-.457.225-.719s-.148-.498-.348-.665a.97.97 0 0 0-.719-.227c-.261.024-.497.148-.664.348l-3.636 4.334a.98.98 0 0 0-.228.718.97.97 0 0 0 .346.664m5.716-6.807c.131.111.29.185.46.215a.99.99 0 0 0 .926-.336l1.538-1.833a.99.99 0 0 0-.122-1.388.99.99 0 0 0-1.384.125l-1.539 1.834c-.167.201-.249.455-.227.715s.146.5.348.668M80.025 162.653c-.468-.271-1.069-.11-1.344.358l-5.028 8.709c-.132.228-.166.494-.099.748s.23.462.455.592c.096.059.207.1.325.121a.98.98 0 0 0 1.02-.477l5.032-8.712c.268-.471.105-1.072-.362-1.339m7.993-13.904c-.228-.13-.493-.165-.747-.095s-.465.231-.595.459l-5.037 8.778c-.27.469-.107 1.071.363 1.341a.99.99 0 0 0 .318.116c.409.072.819-.121 1.025-.479l5.035-8.776a.97.97 0 0 0 .098-.747.98.98 0 0 0-.46-.597m4.322-7.43c-.225-.134-.49-.173-.744-.108a.97.97 0 0 0-.605.452l-1.569 2.653c-.276.466-.122 1.071.345 1.348a1 1 0 0 0 .328.122.99.99 0 0 0 1.019-.468l1.57-2.653c.276-.468.121-1.072-.344-1.346m1.913-1.306l7.849-13.263a.99.99 0 0 0-.344-1.348c-.227-.134-.491-.172-.746-.106a.97.97 0 0 0-.601.451l-7.851 13.264c-.274.465-.119 1.069.343 1.344a.96.96 0 0 0 .333.124.99.99 0 0 0 1.016-.466m41.504-74.462a.96.96 0 0 0 .33.121.99.99 0 0 0 1.015-.466l3.834-6.443c.275-.466.12-1.07-.345-1.346s-1.068-.12-1.346.343l-3.833 6.44c-.278.466-.123 1.07.345 1.35m5.246-8.844a.97.97 0 0 0 .325.119c.403.071.812-.119 1.018-.471l.783-1.332a.97.97 0 0 0 .104-.745.97.97 0 0 0-.455-.604.99.99 0 0 0-1.345.352l-.783 1.334c-.275.468-.118 1.072.353 1.348m3.735-6.363a.97.97 0 0 0 .337.126.99.99 0 0 0 1.013-.463l4.884-8.166a.99.99 0 0 0-.34-1.345.98.98 0 0 0-.747-.11c-.254.065-.469.224-.604.449L144.399 49a.98.98 0 0 0-.109.743.97.97 0 0 0 .446.602m7.956-13.153c.096.051.196.087.3.106.414.073.829-.126 1.032-.495l4.279-7.768c.261-.473.089-1.072-.386-1.335a.98.98 0 0 0-.75-.083.97.97 0 0 0-.585.47l-4.281 7.77c-.26.475-.087 1.074.391 1.337M89.721 172.521c-.247-.091-.515-.079-.752.031a.98.98 0 0 0-.509.554l-1.774 4.88c-.187.507.076 1.073.584 1.26.006.003.013.005.019.007a1.05 1.05 0 0 0 .148.037c.475.083.934-.184 1.093-.631l1.777-4.879c.09-.247.078-.514-.033-.752a.97.97 0 0 0-.553-.507"/><path d="M95.676 156.201c-.248-.093-.514-.083-.753.028a.98.98 0 0 0-.51.556l-3.956 10.836a.98.98 0 0 0 .58 1.257 1.06 1.06 0 0 0 .174.047.98.98 0 0 0 1.093-.631l3.954-10.833a.97.97 0 0 0-.032-.754c-.112-.238-.308-.419-.55-.506m5.765-15.817a.96.96 0 0 0-.751.032c-.239.11-.421.307-.511.554l-3.736 10.25a.98.98 0 0 0 .031.752c.111.239.309.419.55.507a1 1 0 0 0 .172.047c.469.082.93-.183 1.094-.632l3.738-10.253c.183-.508-.081-1.073-.587-1.257m33.545-91.744a.98.98 0 0 0 1.262-.593l.63-1.759c.089-.246.077-.512-.034-.749s-.311-.419-.558-.509c-.509-.184-1.073.081-1.259.593l-.629 1.761a.98.98 0 0 0 .035.753.97.97 0 0 0 .553.504m1.477-4.11c.063.021.112.034.159.042a.98.98 0 0 0 1.097-.638l1.992-5.579a.98.98 0 0 0-1.343-1.221.97.97 0 0 0-.508.556l-1.994 5.584c-.181.51.087 1.074.597 1.256m2.935-8.226c.061.021.111.034.162.043a.98.98 0 0 0 1.096-.638l.523-1.47c.182-.51-.084-1.074-.595-1.255a.98.98 0 0 0-1.256.595l-.524 1.47c-.18.51.086 1.072.594 1.255m3.371 58.632l-.076.496-.341 1.566-.646 2.146-.812 1.978c-.382.813-.815 1.597-1.285 2.353l-1.186 1.734c-2.036 2.691-4.649 4.921-7.637 6.568a25.15 25.15 0 0 1-1.926.954 25.16 25.16 0 0 1-.893.379 26.22 26.22 0 0 1-1.996.707c-1.234.377-2.506.661-3.806.852-.541.079-1.085.141-1.635.187a29.39 29.39 0 0 1-1.075.064c-.661.028-1.325.035-1.994.011-.112-.003-.223-.012-.335-.018a26.82 26.82 0 0 1-1.965-.163c-.208-.026-.417-.058-.625-.089l-.768-.116c-.393-.069-.781-.149-1.167-.235-.162-.036-.322-.078-.483-.117a26.35 26.35 0 0 1-1.9-.532l-.403-.135a25.52 25.52 0 0 1-1.861-.713c-.273-.117-.543-.241-.812-.367-.612-.286-1.211-.592-1.792-.922-.202-.115-.4-.234-.597-.352a25.52 25.52 0 0 1-1.715-1.131 27 27 0 0 1-1.299-.994c-.369-.303-.73-.612-1.08-.932a24.59 24.59 0 0 1-.863-.832 25.23 25.23 0 0 1-1.428-1.575 23.76 23.76 0 0 1-.974-1.239 23.75 23.75 0 0 1-1.201-1.794c-.298-.489-.573-.991-.832-1.5a24.26 24.26 0 0 1-.905-1.975c-.231-.574-.441-1.155-.626-1.745a23.67 23.67 0 0 1-.547-2.09 22.56 22.56 0 0 1-.393-2.507 22.08 22.08 0 0 1-.106-2.127 22.55 22.55 0 0 1 .152-2.762.85.85 0 0 1 .015-.123c.047-.385.104-.769.172-1.155a21 21 0 0 1 .428-1.911 20.17 20.17 0 0 1 .502-1.574 19.01 19.01 0 0 1 .805-1.893c1.006-2.042 2.36-3.84 4.039-5.344l1.014-.253c-1.77 1.786-3.173 3.973-4.184 6.328A22.77 22.77 0 0 0 94.994 84l-.06.178a23.91 23.91 0 0 0-.74 2.925c-.129.688-.218 1.375-.28 2.057a20.77 20.77 0 0 0-.093 1.544c-.003.133.002.268.003.403a21.74 21.74 0 0 0 .093 2.121 22.99 22.99 0 0 0 .346 2.308c.143.704.322 1.399.532 2.088a23.27 23.27 0 0 0 .539 1.585c.169.439.348.873.545 1.302l.316.673a27.56 27.56 0 0 0 .698 1.375 19.41 19.41 0 0 0 1.109 1.811 13.06 13.06 0 0 0 .895 1.149c.507.578 1.066 1.088 1.678 1.486a5.52 5.52 0 0 0 1.29.639c.054.018.11-.048.059-.089a15.75 15.75 0 0 1-.839-.732c-.516-.485-.998-1.013-1.451-1.569-.271-.331-.53-.672-.779-1.026a19.68 19.68 0 0 1-1.12-1.807 21.84 21.84 0 0 1-.625-1.228c-.302-.644-.573-1.303-.813-1.974a23.83 23.83 0 0 1-.462-1.415 25.18 25.18 0 0 1-.509-2.083c-.142-.704-.252-1.407-.328-2.105a22.65 22.65 0 0 1-.137-2.137 20.41 20.41 0 0 1 .013-1.109c.009-.217.029-.425.045-.639a20.01 20.01 0 0 1 .26-2.114 19.56 19.56 0 0 1 1.173-4.016 21.43 21.43 0 0 1 .331-.752c1.252-2.739 3.071-5.203 5.218-7.547a43.25 43.25 0 0 1 1.634-.262c-1.601 1.37-3.039 3.148-3.92 5.003-.055.117-.119.233-.171.351-.07.163.157.329.272.176.079-.106.165-.205.245-.309a37.31 37.31 0 0 1 2.043-2.434c.08-.087.155-.179.234-.264.234-.25.477-.492.726-.73.668-.642 1.365-1.263 1.961-1.963l.695-.079a46.93 46.93 0 0 1 2.039-.141c.779-.037 1.563-.052 2.348-.051-.698.215-1.385.546-2.026.933a15.31 15.31 0 0 0-1.666 1.168l-.098.077c-.118.096.004.273.135.194.016-.01.035-.018.051-.029a14 14 0 0 1 1.765-.898c.369-.159.737-.32 1.115-.453.43-.152.884-.248 1.336-.348.514-.115 1.026-.236 1.491-.452.062-.03.095-.085.112-.144l.289.012c.896.042 1.797.105 2.701.19l1.967.22.375.05c-.088.172-.027.444.205.472.546.063 1.087.141 1.629.224l1.94.319 2.574.405c.025.002.048.007.074.011.094.013.137-.116.051-.161-.019-.01-.041-.018-.06-.028-.132-.066-.268-.124-.403-.185l.435.095 1.173.281c-.331.112-.371.683.056.758.405.071.565-.422.345-.658l.348.086a60.06 60.06 0 0 1 1.958.544 54.49 54.49 0 0 1 1.919.608c.237.08.47.169.706.253l.262.278c.409.454.86.85 1.306 1.256l.333.301c.019.019.044-.008.031-.028l-.259-.399-.705-1.061c.402.151.797.314 1.196.476l.14.056.961 1.693c1.1 1.973 2.058 3.949 2.536 6.335.026.135.046.265.068.394a25.23 25.23 0 0 1 .306 2.088c.085.851.125 1.709.119 2.567a21.05 21.05 0 0 1-.124 2.133 18.19 18.19 0 0 1-.279 1.764c-.06.287-.117.574-.191.856-.033.129.17.163.203.036.085-.312.156-.621.232-.932a28.82 28.82 0 0 0 .382-1.848 22.9 22.9 0 0 0 .259-2.183 20.23 20.23 0 0 0 .02-2.742 19.23 19.23 0 0 0-.148-1.498c-.028-.205-.066-.413-.1-.619-.056-.323-.11-.645-.183-.972-.211-.936-.495-1.931-.844-2.924-.003-.014-.009-.027-.013-.042-.402-1.135-.9-2.258-1.507-3.29l-.063-.105.108.049a40.94 40.94 0 0 1 1.264.612l.887 1.373c.358.567.693 1.148.958 1.766.021.045.048.087.066.134.011.024.054.018.048-.011-.013-.06-.03-.122-.043-.183-.159-.693-.344-1.398-.589-2.08-.046-.128-.091-.259-.143-.386l.362.199 1.19.682a12.78 12.78 0 0 0 .273.651c.351.756.755 1.497 1.049 2.276a15.93 15.93 0 0 1 .432 1.393l.196.671c.148.501.31.997.539 1.452.033.066.138.069.153-.014.226-1.231-.206-2.609-.602-3.769-.21-.615-.451-1.262-.757-1.87a38.74 38.74 0 0 1 1.13.763 17.05 17.05 0 0 1 .612 1.281 17.16 17.16 0 0 1 .503 1.303c.706 2.091 1.015 4.322.916 6.643-.031.747-.108 1.504-.224 2.268m7.494 17.948c-2.58.827-5.152 1.678-7.746 2.337a46.81 46.81 0 0 1-1.797.424c-.069.015-.14.027-.21.042-1.37.29-2.741.538-4.11.759-.878.14-1.755.266-2.631.378a75.32 75.32 0 0 1-6.889.565l-2.291.047c-.449.002-.897-.014-1.344-.022-.708-.012-1.416-.034-2.122-.068l-1.268-.072a62.33 62.33 0 0 1-2.021-.173l-.711-.07c-.655-.072-1.31-.16-1.965-.253l-.972-.134c-.645-.102-1.29-.223-1.935-.347l-.851-.156c-.646-.132-1.289-.284-1.934-.437l-.792-.187c-.656-.165-1.308-.346-1.959-.533-.454-.13-.905-.27-1.357-.412l-2.012-.659c-.435-.153-.869-.319-1.304-.482a62.04 62.04 0 0 1-2.079-.828l-1.414-.594-.469-.22-2.156-1.02a83 83 0 0 1-2.4-1.239c-.767-.413-1.525-.836-2.276-1.272-1.181-.685-2.348-1.392-3.493-2.133-.793-.514-1.577-1.043-2.353-1.582-1.265-.878-2.509-1.785-3.735-2.727l-1.204-.93-2.322-1.776c-3.093-2.327-6.323-4.541-9.915-6a25.84 25.84 0 0 0-1.724-.623 22.46 22.46 0 0 0-1.118-.334c.516.041 1.03.059 1.544.052a16.93 16.93 0 0 0 1.377-.068 17.92 17.92 0 0 0 3.252-.609c3.357-.946 6.434-2.818 8.818-5.253.088-.09-.045-.2-.144-.15a23.03 23.03 0 0 0-1.323.733l-.949.581c-1.756 1.11-3.464 2.307-5.458 3.031-1.187.433-2.361.597-3.538.661 2.73-.964 5.23-2.614 7.681-4.108l1.177-.704.895-.523 5.561-3.234 1.05-.589a131.76 131.76 0 0 1 3.864-2.091c.031.142.129.269.317.302.412.073.586-.406.397-.668l1.537-.788c.167-.082.336-.153.504-.232-1.116 1.94-1.814 4.207-2.152 6.471-.027.177-.048.353-.07.53a23.48 23.48 0 0 0-.114 1.136c-.075 1.014-.084 2.006-.027 2.948l.06.799c.01.109.169.115.192.007.043-.224.078-.448.116-.673.198-1.165.346-2.334.513-3.495.242-1.679.54-3.346 1.155-4.971.008-.021.017-.039.025-.06.234-.608.5-1.182.798-1.727a14.16 14.16 0 0 1 1.074-1.666c.442-.186.884-.367 1.328-.535.186-.071.373-.133.559-.201-.11.163-.214.329-.321.495-.559.866-1.064 1.762-1.506 2.688a23.89 23.89 0 0 0-.796 1.897 24.01 24.01 0 0 0-1.008 3.459c-.059.276-.126.548-.175.826-.222 1.258-.339 2.511-.362 3.752a24.03 24.03 0 0 0 .06 2.108 24.1 24.1 0 0 0 .355 2.798 24.62 24.62 0 0 0 .489 2.079 24.95 24.95 0 0 0 .661 2.022 25.53 25.53 0 0 0 .832 1.975 26.11 26.11 0 0 0 1.053 1.974 25.87 25.87 0 0 0 1.035 1.616 26.43 26.43 0 0 0 1.12 1.506 26.26 26.26 0 0 0 1.389 1.591 28.57 28.57 0 0 0 .997 1.003 26.35 26.35 0 0 0 1.552 1.372c.345.283.698.556 1.058.823.547.403 1.107.79 1.686 1.154.276.174.559.339.842.504a27.97 27.97 0 0 0 1.772.944c.351.17.704.335 1.063.49a27.9 27.9 0 0 0 1.853.723l.644.222c.621.201 1.255.378 1.898.538l.745.179c.386.084.774.165 1.167.234.255.045.511.078.767.116l.886.12a27.9 27.9 0 0 0 1.967.157l.596.025a26.89 26.89 0 0 0 1.99-.026c.351-.018.701-.04 1.048-.07a27.62 27.62 0 0 0 2.007-.241 29.08 29.08 0 0 0 .987-.18c.649-.129 1.292-.282 1.926-.455.465-.129.925-.269 1.379-.419a28.18 28.18 0 0 0 1.972-.736c.38-.161.755-.329 1.127-.506a27.37 27.37 0 0 0 1.879-.994 25.95 25.95 0 0 0 5.289-4.033c.507-.501.989-1.026 1.451-1.568a24.08 24.08 0 0 0 1.297-1.668 24.43 24.43 0 0 0 1.167-1.791c.503-.855.954-1.744 1.352-2.663a23.94 23.94 0 0 0 .755-1.977c.26-.782.481-1.582.662-2.4a23.95 23.95 0 0 0 .21-1.021c.061-.345.1-.687.145-1.031.027-.198.063-.396.084-.596a24.03 24.03 0 0 0 .126-3.125 24.31 24.31 0 0 0-.09-1.55 24.22 24.22 0 0 0-.638-3.748c.44.37.873.753 1.302 1.147.14.711.261 1.425.341 2.15.075.666.118 1.341.113 2.036l-.001.023a21.25 21.25 0 0 1-.342 3.512l-.055.304a28.24 28.24 0 0 1-.394 1.764 38.73 38.73 0 0 1-.746 2.524l-.076.236c-.062.182.175.303.273.13.067-.121.127-.249.193-.372a17.31 17.31 0 0 0 1.109-2.644 22.1 22.1 0 0 0 .292-.984 19.2 19.2 0 0 0 .26-1.101c.254-1.218.402-2.474.425-3.726a19.06 19.06 0 0 0-.073-2.073 15.7 15.7 0 0 0-.066-.577l.441.435c.022.023.047.045.069.069.424.439.829.895 1.244 1.341l.025.185c.043.28.094.558.116.845.08 1.065.033 2.111-.083 3.152-.075.681-.182 1.363-.303 2.044l-.131.745c-.016.078.096.114.129.042.13-.27.244-.555.356-.846a13.4 13.4 0 0 0 .593-2.092 14.61 14.61 0 0 0 .279-3.015l2.279 2.59.699.806c-.005.01-.014.015-.016.027-.054.356-.091.713-.133 1.069-.028.222-.053.445-.101.664-.039.18.223.215.275.048.083-.271.155-.541.205-.814a3.51 3.51 0 0 0 .06-.648l.325.387 3.439 4.122.947 1.142.413.503c1.902 2.338 3.763 4.941 6.112 6.921.4.336.814.65 1.244.945-.718-.318-1.411-.686-2.076-1.093-2.578-1.571-4.729-3.774-6.02-6.438-.01-.02-.022-.04-.031-.06-.03-.063-.121-.03-.103.035.002.009.006.016.009.024.722 2.446 2.244 4.487 4.296 6.112.089.069.173.145.266.215 1.01.765 2.411 1.773 3.87 2.434.044.021.09.04.134.06l-.367-.004c-4.237-.026-8.313.982-12.346 2.22l-2.254.709M61.506 89.887c.149-.022.297-.055.447-.081 1.97-.329 3.896-.864 5.632-1.82 1.422-.783 2.766-1.735 4.079-2.744l1.821-1.436c1.413-1.135 2.814-2.279 4.264-3.291l.653-.45 1.801-1.218c1.604-1.062 3.251-2.087 4.94-3.05.613-.349 1.233-.687 1.856-1.019 1.372-.728 2.772-1.408 4.198-2.025.63-.271 1.265-.528 1.904-.774 1.441-.554 2.909-1.04 4.404-1.441a39.75 39.75 0 0 1 1.995-.478 37.59 37.59 0 0 1 2.607-.469l1.546-.195 2.016-.208a66.74 66.74 0 0 1 3.881-.222c.663-.017 1.324-.024 1.986-.022a62.45 62.45 0 0 1 3.682.122c.656.041 1.311.094 1.966.157a58.49 58.49 0 0 1 3.28.407c.648.1 1.293.213 1.937.334a53.95 53.95 0 0 1 8.342 2.279c.024.01.051.018.076.027a63.84 63.84 0 0 1 1.785.683 61.26 61.26 0 0 1 4.115 1.819l1.336.667c3.244 1.686 6.226 3.642 8.996 5.898a52.6 52.6 0 0 1 1.596 1.351c1.296 1.143 2.541 2.364 3.746 3.655a53.5 53.5 0 0 1 1.412 1.568c.519.595 1.03 1.2 1.531 1.827.725.904 1.428 1.823 2.12 2.751.43.573.844 1.158 1.261 1.74a125.39 125.39 0 0 1 3.41 4.997l1.253 1.99.565.895c1.129 1.846 2.258 3.525 3.975 4.944.907.75 1.865 1.365 2.881 1.939l.425.24c.085.046 2.49 1.283 1.395 1.538-1.453.34-4.16-1.122-5.431-1.748-.059-.03-.115-.065-.173-.095-2.162-1.112-3.783-2.774-5.3-4.592-2.784-3.338-5.403-6.797-7.915-10.318-1.14-1.597-2.316-3.201-3.548-4.766l-1.302-1.61-.447-.527c-.213-.611-.479-1.195-.81-1.726-.148-.237-.577-.116-.572.158a49.84 49.84 0 0 0-1.216-1.285c-.245-.248-.498-.491-.748-.734-.047-.102-.118-.161-.198-.194l-.527-.492c-.962-.889-1.966-1.731-3.023-2.513a31.85 31.85 0 0 0-1.666-1.161c-1.014-.655-2.078-1.248-3.187-1.781-.329-.157-.654-.317-.992-.462-.291-.126-.588-.245-.881-.366-1.119-.463-2.253-.893-3.404-1.29a62.52 62.52 0 0 0-1.905-.624c-2.445-.758-4.942-1.371-7.47-1.841l-1.938-.33c-.927-.145-1.856-.272-2.788-.378a65.03 65.03 0 0 0-1.965-.199 68.56 68.56 0 0 0-3.472-.21l-1.701-.039c-.626-.007-1.251-.007-1.875.004-.53.009-1.054.031-1.576.065a33.09 33.09 0 0 0-2.017.206 33.26 33.26 0 0 0-3.783.718c-.597.15-1.191.31-1.777.49-1.307.4-2.587.875-3.843 1.407a46.51 46.51 0 0 0-1.857.83 53.29 53.29 0 0 0-3.424 1.801 59.93 59.93 0 0 0-1.798 1.063 76.65 76.65 0 0 0-2.86 1.844l-1.735 1.205-1.368.974-4.372 3.078c-.682.461-1.37.914-2.068 1.349a52.1 52.1 0 0 1-1.251.75c-2.109 1.228-4.297 2.271-6.575 2.94a20.96 20.96 0 0 1-1.23.321c-1.676.382-3.398.556-5.174.432-2.268-.158-2.039-.926.045-1.24m55.614 29.996a55.94 55.94 0 0 1-1.965-.222l-1.463-.213-.906-.146c-.343-.062-.685-.142-1.028-.209l-1.345-.274-1.932-.441-1.27-.318-1.966-.543-1.882-.564c-.67-.214-1.333-.447-1.997-.68l-1.913-.684c-.657-.249-1.305-.515-1.954-.781-.888-.367-1.765-.752-2.636-1.15a75.77 75.77 0 0 1-2.154-1.023 74.14 74.14 0 0 1-3.171-1.677l-1.493-.85c-.132-.079-.272-.151-.404-.231-1.498-.9-2.937-1.903-4.342-2.966-.7-.53-1.388-1.076-2.073-1.63-1.688-1.367-3.345-2.79-5.008-4.203l-2.341-1.966c-2.725-2.242-5.522-4.352-8.575-6.004 3.976 1.549 7.453 3.687 10.804 6.004l2.775 1.965 5.174 3.705a92.56 92.56 0 0 0 2.352 1.582l1.781 1.125a88.93 88.93 0 0 0 1.976 1.158 79.19 79.19 0 0 0 2.298 1.265 76.07 76.07 0 0 0 2.647 1.332l2.173 1.011 2.053.875 2.085.821 1.453.529 1.999.673 1.487.455 1.951.545.91.225 1.931.444.973.198 1.127.214.809.13 1.098.17a64.67 64.67 0 0 0 1.965.247l.841.089a67.45 67.45 0 0 0 2.022.169l1.422.079 2.118.066 1.54.011c.762-.004 1.526-.023 2.288-.05.875-.031 1.751-.075 2.623-.136l1.897-.154c.926-.086 1.849-.193 2.766-.31a83.3 83.3 0 0 0 2.625-.382c.964-.156 1.922-.326 2.872-.514 3.792-.753 7.417-1.843 11.043-2.868l3.278-.897c3.907-1.019 7.871-1.827 12.102-1.921a25.43 25.43 0 0 0-2.017.385c-2.728.629-5.397 1.429-8.051 2.279l-3.03.987-7.001 2.227c-.88.259-1.765.503-2.653.736-1.563.41-3.143.771-4.745 1.063l-1.024.184-1.557.243-3.351.449-2.281.243-2.358.199c-.747.052-1.495.092-2.243.123-1.973.085-3.949.097-5.915.016a61.19 61.19 0 0 1-2.015-.115l-1.198-.099m10.238 1.968l6.758 10.775c.147.235.39.397.663.445.242.042.487-.005.69-.134a.97.97 0 0 0 .312-1.356l-6.185-9.862c.852-.066 1.702-.15 2.55-.245l1.538 2.031a.97.97 0 0 0 .614.379.98.98 0 0 0 .763-.185.97.97 0 0 0 .383-.649.98.98 0 0 0-.191-.728l-.857-1.132c1.299-.185 2.593-.401 3.884-.648l3.169 2.588c.13.103.282.172.442.2a.99.99 0 0 0 .938-.349.99.99 0 0 0-.145-1.383l-1.919-1.566c1.696-.376 3.391-.801 5.086-1.272l10.125 5.822c.101.058.209.099.325.119.404.071.814-.12 1.026-.48a.99.99 0 0 0-.365-1.34l-8.489-4.882.468-.141c2.255-.695 4.557-1.542 6.875-2.385l2.637.964c.055.02.114.036.174.047.468.082.928-.182 1.093-.633.184-.507-.078-1.073-.586-1.258l-.421-.154c2.253-.787 4.511-1.51 6.743-2.021 2.489-.571 4.88-.145 7.36-.402.614-.063 1.082-.213 1.403-.421l1.101.195.002.001a.54.54 0 0 0 .624-.436l.077-.439.075-.442a.54.54 0 0 0-.436-.62l-1.625-.286c-.208-.171-.458-.336-.757-.49-3.509-1.799-5.512-4.719-7.259-8.063.211-.177.355-.431.361-.726a.99.99 0 0 0-.963-1.001l-.326-.008a100.32 100.32 0 0 0-3.254-5.611l7.364-1.318a.98.98 0 0 0 .634-.405c.15-.216.207-.477.16-.735a.98.98 0 0 0-1.141-.795l-8.177 1.463-.856-1.291a107.26 107.26 0 0 0-2.808-3.888l14.81-5.595c.507-.192.763-.76.573-1.266a.98.98 0 0 0-.517-.55c-.239-.108-.506-.117-.751-.024l-15.376 5.808c-1.181-1.486-2.423-2.936-3.728-4.328l2.175-1.252c.469-.272.631-.874.361-1.341-.13-.227-.341-.39-.594-.459a.98.98 0 0 0-.749.095l-2.605 1.5c-1.226-1.22-2.507-2.379-3.849-3.455l2.813-2.36a.98.98 0 0 0 .347-.67.97.97 0 0 0-.227-.714.97.97 0 0 0-1.383-.122l-3.148 2.641a36.32 36.32 0 0 0-4.106-2.587l2.71-3.231c.17-.202.252-.457.229-.719s-.148-.499-.349-.667a.98.98 0 0 0-.716-.227.97.97 0 0 0-.668.348l-2.994 3.568c-1.458-.725-2.942-1.387-4.441-1.995l.905-1.567c.273-.468.115-1.071-.356-1.346a.99.99 0 0 0-1.342.354l-1.062 1.838a63.15 63.15 0 0 0-3.594-1.206l6.024-16.772a.97.97 0 0 0-.035-.751.99.99 0 0 0-.557-.508.98.98 0 0 0-.755.037c-.237.112-.415.312-.502.556l-6.072 16.899a60.35 60.35 0 0 0-4.332-.984l1.237-7.094c.094-.533-.263-1.044-.797-1.138s-1.045.265-1.14.799l-1.236 7.095c-1.382-.216-2.767-.386-4.155-.502.077-.14.133-.293.133-.464l.018-14.907c.001-.538-.438-.98-.983-.984a.98.98 0 0 0-.983.982l-.019 14.906a.99.99 0 0 0 .063.345 56.61 56.61 0 0 0-4.518-.054c-.205-.29-.554-.467-.929-.416a.97.97 0 0 0-.65.381c-.024.032-.032.07-.051.104a53.92 53.92 0 0 0-4.959.512c-.236-.4-.717-.602-1.169-.437a.97.97 0 0 0-.554.51c-.033.071-.04.149-.054.224a52.38 52.38 0 0 0-4.879 1.143l-2.709-4.682c-.275-.469-.877-.628-1.343-.357a.98.98 0 0 0-.458.598.97.97 0 0 0 .099.745l2.482 4.288a51.27 51.27 0 0 0-4.824 1.86l-6.271-7.753a.99.99 0 0 0-1.381-.145c-.205.165-.332.399-.36.66a.98.98 0 0 0 .214.724l5.964 7.373a52.37 52.37 0 0 0-2.273 1.184c-3.232 1.8-6.325 3.835-9.298 6.017l-3.614-2.143a.97.97 0 0 0-1.348.343c-.276.465-.123 1.069.343 1.346l2.909 1.725c-.034.027-.071.052-.105.078-3.043 2.339-5.668 5.134-8.701 7.467-1.37 1.055-2.864 1.935-4.533 2.471-.79.256-2.627.289-3.814.739l-10.975-1.956c-.532-.094-1.042.262-1.138.793a.97.97 0 0 0 .16.736c.149.215.373.359.634.406l10.429 1.858c.651.903 2.657 1.312 3.433 1.577 2.459.839 4.577 2.013 6.652 3.556 1.276.948 2.529 1.939 3.773 2.949l-2.426.001a.97.97 0 0 0-.696.287c-.186.186-.288.434-.288.693a.98.98 0 0 0 .813.971 1.17 1.17 0 0 0 .16.016l4.823-.001 6.525 5.387c.085.387.393.691.785.76.06.011.123.001.184 0 1.377 1.072 2.778 2.107 4.215 3.083l-8.138 2.993a.97.97 0 0 0-.553.511c-.111.239-.122.506-.031.749a.98.98 0 0 0 .753.631.97.97 0 0 0 .51-.046l8.65-3.18a.98.98 0 0 0 .554-.51 51.68 51.68 0 0 0 3.743 2.135l-12.188 6.989a.97.97 0 0 0-.462.595c-.07.254-.037.518.094.748a.98.98 0 0 0 .682.481.99.99 0 0 0 .657-.113l13.344-7.659a80.77 80.77 0 0 0 7.084 2.953L88.573 131.52c-.168.2-.249.455-.226.716a.98.98 0 0 0 .348.668.99.99 0 0 0 1.385-.121l12.171-14.506 2.152.677-2.354 4.023c-.278.465-.124 1.07.341 1.347.113.065.22.105.333.124a.99.99 0 0 0 1.016-.466l2.621-4.472 1.556.402-5.601 15.198c-.187.509.074 1.074.579 1.261.053.021.112.036.173.047.468.082.928-.182 1.093-.628l5.686-15.431 1.629.335-2.004 11.355c-.094.533.265 1.044.799 1.139s1.044-.264 1.138-.798l2.003-11.35c1.432.235 2.869.428 4.311.568a68.38 68.38 0 0 0 9.636.243m39.971-13.484a.03.03 0 0 0 .023-.047c-.527-.654-1.389-1.06-2.024-1.622-.795-.706-1.332-1.528-1.963-2.353-.191-.253-.622-.05-.504.247.593 1.481 2.64 3.783 4.468 3.775m-22.201-25.922l1.433 1.444 3.226 3.439 1.337 1.596.905 1.119c2.28 3.018 4.124 6.332 6.592 9.228.058.069.185.017.149-.068-1.457-3.373-3.727-6.619-5.98-9.628l-.757-.995c-.417-.542-.847-1.079-1.288-1.614-1.029-1.248-2.132-2.457-3.337-3.565a24.07 24.07 0 0 0-1.594-1.352 21.06 21.06 0 0 0-1.053-.77c-.263-.178-.689.108-.44.357l.807.808"/><path d="M64.965 90.343c.967-.082 1.913-.408 2.831-.785 1.617-.662 3.471-1.34 4.749-2.511.155-.141-.055-.427-.25-.337-2.979 1.371-5.661 3.254-9.11 3.316l-.12.009c-.055 0-.071.086-.018.103.648.212 1.289.259 1.919.205m9.344-4.598l1.501-1.107 4.56-3.404 1.736-1.257 4.497-2.975.168-.105 1.659-.936a39.17 39.17 0 0 1 3.902-1.805l1.942-.725 4.179-1.257 1.991-.483.091-.023c.317-.071.181-.541-.13-.519l-.258.03c-.705.059-1.403.162-2.102.293-1.479.278-2.938.7-4.361 1.23l-1.904.772c-1.367.604-2.683 1.285-3.945 1.995l-.967.55-.836.513-4.53 3.088-1.669 1.295-4.263 3.638-1.28 1.173c-.011.01.006.029.019.02m50.741 14.183c-1.513-.105-2.652-1.416-2.548-2.929a2.75 2.75 0 0 1 2.931-2.548c.578.04 1.1.259 1.52.595.197.159.364.347.51.552.32.448.506.989.51 1.572 0 .071.011.139.006.209-.115 1.519-1.42 2.654-2.929 2.548m-8.712 1.776a1.58 1.58 0 0 1-2.224-.155 1.58 1.58 0 0 1 .155-2.225 1.58 1.58 0 0 1 2.224.154 1.58 1.58 0 0 1-.155 2.225m11.776.693c.44-.362.853-.755 1.248-1.164a14.5 14.5 0 0 0 1.614-1.983l.242-.401c.428-.691.812-1.413 1.118-2.18a14 14 0 0 0 .796-2.78c.147-.831.199-1.658.197-2.475-.002-.733-.054-1.456-.167-2.167a13.9 13.9 0 0 0-.358-1.599c-.19-.675-.427-1.333-.712-1.973-.26-.582-.552-1.149-.885-1.695a6.1 6.1 0 0 1 .055 2.397v.002c-.521 2.957-3.085 5.036-5.986 5.052a6.36 6.36 0 0 1-.489-.012l-.614-.077a6.1 6.1 0 0 1-1.492-.472l-.123-.056c-1.269-.618-2.266-1.648-2.854-2.892-.121-.258-.224-.524-.31-.797a6.08 6.08 0 0 1-.184-2.871c.175-.993.585-1.883 1.156-2.634a6.1 6.1 0 0 1 1.269-1.244c.339-.246.701-.46 1.083-.634.71-.322 1.487-.508 2.292-.537.423-.016.855.011 1.288.087l.397.091.209.048-.171-.118a15.64 15.64 0 0 0-1.439-.877 16 16 0 0 0-1.786-.836c-.742-.287-1.519-.508-2.318-.689l-.758-.171-1.18-.15a16.41 16.41 0 0 0-2.078-.089c-.666.018-1.318.085-1.966.182a15.97 15.97 0 0 0-2.25.495 15.59 15.59 0 0 0-1.87.71 15.32 15.32 0 0 0-1.883 1.007c-.58.364-1.133.763-1.655 1.2l-.497.444-.86.859c-.476.515-.926 1.055-1.324 1.636-.348.511-.656 1.051-.937 1.609a13.88 13.88 0 0 0-.825 2.018 13.56 13.56 0 0 0-.352 1.323l-.122.529c-.106.6-.158 1.197-.187 1.791a14.06 14.06 0 0 0 .037 1.78 14.11 14.11 0 0 0 .329 2.129l.026.137c.206.822.497 1.619.842 2.389.23.513.481 1.015.767 1.498 2.222 3.749 6.112 6.583 10.886 7.424 3.366.594 6.65.095 9.482-1.212l.168-.081c1.126-.534 2.181-1.19 3.131-1.97m9.958.456l-2.743 3.204-1.473 1.49-.584.51-.894.688-1.781 1.249-1.12.69-1.79 1.029c-.012.007-.003.02-.006.029-.011.038.014.082.06.068l.014-.006a19.17 19.17 0 0 0 2.091-.81l1.341-.665 1.73-1.049c.693-.465 1.357-.97 1.982-1.512l.735-.675c.87-.844 1.635-1.758 2.249-2.727l.505-.876.174-.333c.137-.283-.276-.546-.49-.304m-38.678-.709l-.454-.933-.496-1.092-.34-.883-.388-1.105-.703-2.117-.315-.891c-.129-.335-.673-.23-.626.143l.104.603c.118.681.274 1.377.489 2.08l.44 1.278a19.67 19.67 0 0 0 .894 1.975l.601 1.074a15.96 15.96 0 0 0 1.235 1.788l.744.851c.005.006.009.012.015.018.035.035.09-.008.081-.052l-.394-.891-.888-1.846m-3.106-10.773l.142-.779.384-2.043.273-1.187c.111-.428.25-.846.395-1.261l.7-1.988.202-.622c.08-.275-.36-.486-.519-.243-.084.128-.153.27-.233.404-.335.58-.616 1.206-.84 1.867-.292.859-.498 1.764-.602 2.676a13.41 13.41 0 0 0-.071 2.222l.085.951c.006.047.074.052.084.004m42.821 9.837c-.594-.105-.757.819-.162.923s.758-.818.162-.923m-5.606 4.123c-.001.055.056.107.109.063.007-.005.013-.012.019-.017l.89-.802c.544-.531 1.044-1.111 1.509-1.723a17.33 17.33 0 0 0 1.134-1.676 18.26 18.26 0 0 0 .987-1.98l.614-1.602c.225-.684.416-1.381.567-2.088a19.69 19.69 0 0 0 .365-2.36c.065-.697.083-1.396.07-2.091l-.071-1.345a17.52 17.52 0 0 0-.249-1.737c-.131-.672-.291-1.333-.504-1.972l-.467-1.229c-.156-.359-.655-.161-.561.209l.317 1.419.314 2.08.037.316a22.97 22.97 0 0 1 .108 2.622c-.01.721-.059 1.435-.14 2.14l-.352 2.136c-.156.707-.357 1.401-.586 2.091l-.524 1.426-.886 1.9-.906 1.604-1.198 1.783-.584.79c-.011.013-.012.028-.012.043m13.913-7.522l-.117.007c-.659.034.043 1.038.301.431l.046-.109c.071-.165-.05-.338-.23-.329zm-45.836-3.912c-.284-1.186-.501-2.377-.467-3.66l.071-1.01a13.42 13.42 0 0 1 .427-2.214 15.48 15.48 0 0 1 .495-1.46l.669-1.479c.216-.431-.42-.707-.661-.315a11.02 11.02 0 0 0-.602 1.135 13.14 13.14 0 0 0-.6 1.527c-.223.691-.399 1.408-.516 2.142-.273 1.738-.221 3.544.262 5.166a7.94 7.94 0 0 0 1.117 2.327l.42.547c.026.032.072.008.063-.034l-.092-.374-.586-2.299m2.469-11.963a.42.42 0 0 0-.566-.1l-.059.033c-.382.211-.188.802.192.869s.763-.423.477-.75l-.044-.052m-4.043 3.925l.071-.144.792-1.532 1.07-1.748.593-.833.882-1.079a18.12 18.12 0 0 1 1.43-1.453l.713-.62c.213-.175.046-.589-.24-.458a6.43 6.43 0 0 0-.827.466c-.571.373-1.068.822-1.502 1.328-.532.62-.976 1.32-1.363 2.061l-.077.154-.877 1.963-.663 1.692-.066.17c-.017.044.045.074.064.032m-.711 5.558c.114-.702.14-1.414.218-2.121l.184-1.324.032-.552c-.001-.159-.254-.202-.309-.055-.037.092-.064.194-.094.293-.346 1.134-.351 2.651-.126 3.755.01.051.087.062.096.004m-2.808 1.057c-.643-.113-.822.889-.177 1.002s.823-.889.177-1.002m39.117 6.273c.075.004.134 0 .205-.024.135-.044.151-.165.108-.265-.004-.196-.265-.314-.421-.203-.179.124-.139.479.108.492m-1.501-7.766a15.3 15.3 0 0 1 .108 2.316l-.061.823v.022c-.089.778-.264 1.549-.478 2.307-.201.719-.437 1.428-.729 2.116l-.314.671-.393.815c-.036.07.069.138.116.076l.618-.896.441-.744a14.33 14.33 0 0 0 .956-2.153c.186-.53.34-1.072.459-1.623a12.51 12.51 0 0 0 .277-2.005c.04-.75.004-1.496-.111-2.225-.108-.673-.281-1.33-.539-1.956l-.299-.652c-.115-.22-.5-.188-.463.106l.125.904.287 2.098"/><path d="M133.35 86.46c.556.098.71-.766.153-.865s-.709.766-.153.865m-.829 19.765c-.376-.043-.47.489-.102.578l.095.023c.375.09.488-.547.104-.59l-.097-.011m-1.384-4.821l-.092.01c-.227.025-.282.336-.077.437l.082.042c.387.191.519-.537.087-.489m-28.219-2.929l.057-.062c.427-.473-.735-.678-.495-.087.012.025.022.052.032.078a.24.24 0 0 0 .406.072m-.811 7.022c-.016-.006-.024-.018-.042-.021-.263-.047-.419.245-.292.457l.035.06c.053.088.182.108.276.066.015-.006.032-.001.044-.009l.054-.045c.179-.145.144-.431-.075-.508m.987 2.612l-.066.024-.058.021c-.599.213.018 1.102.426.608l.085-.101c.076-.093.089-.199.066-.296-.045-.185-.237-.333-.453-.256m23.637 3.592c-.046-.029-.096-.052-.159-.063-.573-.101-.729.787-.157.888.41.072.601-.363.468-.651l-.152-.174zm-2.748.892c-.419-.074-.534.576-.115.65s.533-.576.115-.65"/><path d="M128.21 109.618l.958-.436c.488-.245.953-.534 1.282-.918.126-.148-.033-.374-.215-.307-.571.21-1.096.569-1.63.905l-.769.44-.058.033c-.643.307-1.318.568-1.996.808l-.319.113-.309.111c-.06.02-.038.121.027.111l.414-.072.408-.076c.706-.151 1.38-.361 2.069-.653l.138-.059m2.777-1.944c.308.438.958-.144.542-.493-.321-.269-.785.147-.542.493m3.142-6.128c.322.057.412-.445.089-.502a.26.26 0 0 0-.089.502m-3.669 4.866c.067.012.123 0 .175-.019.275-.105.306-.586-.057-.65-.315-.056-.46.288-.347.505.041.08.114.143.229.164"/><path d="M128.218 104.304c-.466-.103-.227.771.139.385l.05-.052c.106-.112.021-.286-.114-.316l-.075-.017m-27.728-8.401l-.203-.435-.395-.931a4.93 4.93 0 0 1-.156-.521c-.136-.572-.209-1.168-.475-1.697-.025-.052-.119-.061-.127.012-.139 1.275.3 2.703.99 3.763.127.196.468.026.366-.191m.441 1.291c-.435-.077-.554.597-.119.674s.551-.597.119-.674m1.339 5.241c-.376-.066-.48.518-.103.584s.479-.517.103-.584m-1.732-1.694c.378.066.482-.518.103-.584s-.479.517-.103.584m-1.677-3.154c.262.226.584-.227.264-.409-.241-.137-.472.23-.264.409m-.811-3.769c.322.057.411-.444.088-.501-.048-.008-.089-.001-.126.011-.162.057-.212.285-.101.411a.23.23 0 0 0 .138.079m-.077-3.98a.28.28 0 0 0 .319-.171c.074-.167.021-.396-.211-.437-.043-.008-.081-.004-.116.003-.292.058-.34.544.009.606m43.141-.318l-.022 1.401c-.039 1.481-.14 2.921-.334 4.349l-.348 2.052-.442 1.848-.371 1.233c-.037.114.099.19.153.078l.574-1.316c.255-.633.472-1.284.668-1.939l.518-2.08c.224-1.177.327-2.371.317-3.564-.006-.713-.042-1.425-.144-2.132-.057-.4-.568-.339-.569.071m-52.126-7.693c.136-.401-.451-.698-.607-.289-.235.618-.405 1.231-.531 1.847-.144.708-.227 1.417-.254 2.134-.026.679-.003 1.368.05 2.07l.034.442c.009.114.177.095.174-.016l.004-.529A14.43 14.43 0 0 1 88 85.762c.099-.685.244-1.365.419-2.037l.569-1.895m-2.704 4.55c-.013-.528.066-1.057.089-1.582.009-.214.012-.426-.006-.638-.019-.229-.337-.279-.436-.077-.055.11-.098.239-.139.369-.364 1.14-.216 2.9.414 3.836.019.029.033.064.054.091.037.051.135.04.142-.031.004-.051.001-.103.004-.154.024-.603-.105-1.21-.121-1.814m.278-3.987c.498.088.636-.687.137-.775s-.637.687-.137.775m-2.422.693c-.028-.222-.296-.242-.403-.071-.588.939-.238 2.41-.068 3.419.016.099.161.088.157-.014-.033-.612.059-1.247.135-1.855.061-.489.24-.991.179-1.48m66.571 9.781c-.427-.075-.544.586-.117.662s.543-.587.117-.662m-.478 1.373c-.155.342-.209.715-.31 1.075-.043.154-.098.302-.151.452l-.326.795c-.109.231.23.385.355.169l.557-1.061c.194-.44.333-.901.322-1.351-.006-.236-.355-.285-.447-.079m-45.923-13.502c-.097.162.019.324.171.374.079.026.167.023.241-.026l.055-.043.835-.647 1.568-1.315c.401-.322.813-.633 1.265-.901l.416-.225a18.1 18.1 0 0 1 2.06-.996 16.43 16.43 0 0 1 1.887-.616l.844-.214c.129-.026.12-.225-.02-.211l-.877.123a18.23 18.23 0 0 0-1.922.419c-.752.207-1.504.47-2.228.791-.611.272-1.198.587-1.748.946a9 9 0 0 0-1.698 1.419 7.03 7.03 0 0 0-.849 1.123m-5.464 1.478c.085.015.155-.002.216-.03.297-.133.323-.66-.082-.731a.35.35 0 0 0-.395.202c-.1.209-.036.507.261.559m28.649-4.258l1.483 1.369c.521.5 1.023 1.018 1.478 1.586l.267.37 1.132 1.712.963 1.438c.048.061.162.029.149-.055-.097-.66-.315-1.323-.619-1.97-.289-.613-.656-1.211-1.078-1.776a12.56 12.56 0 0 0-1.891-2.008 11.02 11.02 0 0 0-1.613-1.146l-.323-.182c-.241-.127-.44.215-.25.388l.302.274m-12.356-2.012c.025.005.046-.002.07-.002.463.006.574-.726.074-.815-.026-.005-.049.003-.073.002-.461-.005-.571.726-.071.814M82.375 84.41c-.513-.091-.655.708-.141.799s.655-.708.141-.799"/></g></svg>