<?xml version="1.0" encoding="UTF-8"?>
<svg width="54px" height="122px" viewBox="0 0 54 122" version="1.1" xmlns="http://www.w3.org/2000/svg" xmlns:xlink="http://www.w3.org/1999/xlink">
    <!-- Generator: Sketch 61.2 (89653) - https://sketch.com -->
    <title>Combined Shape</title>
    <desc>Created with Sketch.</desc>
    <g id="Page-1" stroke="none" stroke-width="1" fill="none" fill-rule="evenodd">
        <g id="desktop_ru" transform="translate(-1230.000000, -374.000000)" fill="#C32018" fill-rule="nonzero" stroke="#C32018">
            <g id="screen-1" transform="translate(47.000000, -4.000000)">
                <g id="btn" transform="translate(1036.000000, 284.000000)">
                    <g transform="translate(101.000000, 55.000000)" id="111">
                        <g transform="translate(46.000000, 40.000000)">
                            <path d="M39.8363668,34.0565837 C41.5743785,34.2459096 43.3237497,34.4929798 45.0125367,34.9312693 C48.4080965,35.8135279 51.7762041,36.8065422 55.1338988,37.8241689 C57.5175117,38.5464472 59.8897651,39.3179502 62.2222601,40.1907425 C65.2653002,41.3268913 68.1680116,42.8082619 70.8735067,44.6058223 C73.2590129,46.1876401 75.8319517,47.29141 78.6453345,47.8111096 C80.3494427,48.1195858 82.085035,48.217191 83.8129846,48.1017248 C84.854277,48.0354608 85.8851565,47.8309888 87.000286,47.6785815 L87.000286,48.2626518 L87.000286,48.2626518 C86.9879798,52.8528581 86.967154,57.4449575 86.9681006,62.0332705 C86.9681006,67.5076286 86.9889264,72.9810401 87.000286,78.4544516 C87.000286,79.1265585 86.9936596,79.0801737 86.3177662,79.1596905 C84.5125438,79.3717355 82.7025883,79.5686345 80.9144053,79.8857553 C79.5756411,80.1213425 78.2571425,80.4603036 76.970747,80.8995955 C75.9834124,81.2394354 75.077488,81.8074131 74.1308586,82.2769413 C72.2309733,83.2235708 70.1985599,83.7375906 68.1178683,84.0641777 C66.3192724,84.3481666 64.5206764,84.5914503 62.7145074,84.8101217 C61.0976643,85.0051274 59.4741948,85.1442819 57.8526185,85.3033157 C55.9480001,85.4926416 54.0443283,85.6819675 52.1387632,85.8533074 C51.2157995,85.9366108 50.2890492,85.9782625 49.3641922,86.0530462 C47.5031187,86.2035603 45.640152,86.337035 43.7838116,86.5263609 C42.2445921,86.6872879 40.7659569,86.4913356 39.2788021,86.0909114 C38.3028271,85.828695 37.2766808,85.6175967 36.2742002,85.6175967 C34.210548,85.6175967 32.3826065,84.9360234 30.6701538,83.9136636 C29.3675917,83.1393207 28.1596925,82.2097306 26.9073018,81.3492445 C26.27306,80.9156882 25.9275403,80.2634605 25.7552537,79.5676878 C25.4163604,78.2045414 25.1815963,76.815836 24.8843546,75.4422767 C24.8474361,75.2747233 24.7272141,75.0636249 24.5842731,74.9907344 C23.4483177,74.4227568 22.305736,73.8746583 21.1593677,73.3284531 C21.0604352,73.2785498 20.9467927,73.2661096 20.839407,73.2934278 C20.243977,73.5310318 19.8994039,73.1930851 19.6466539,72.7472226 C18.7748081,71.2127363 18.0790355,69.6072527 17.7884202,67.8493618 C17.7373023,67.539814 17.6473725,67.2349993 17.6208668,66.9245049 C17.5896281,66.556266 17.3813696,66.5221873 17.0983274,66.5865582 C14.6925993,67.1542319 12.165352,66.8871868 9.93139579,65.8292546 C8.72538987,65.2716898 7.49003844,64.7046588 6.56044831,63.689872 C5.90254084,62.9723269 5.53714188,62.1497059 5.56554076,61.1462787 C5.58068683,60.6029134 5.42827949,60.0567082 5.42354634,59.510503 C5.40840027,57.80657 5.93945939,56.2559909 7.09340069,55.0149597 C7.65380533,54.4119568 8.43193474,53.9840803 9.16746582,53.5770296 C10.002393,53.1160211 10.901691,52.7705013 11.7688036,52.3662905 C11.9362083,52.2765564 12.097773,52.1763293 12.2525312,52.066209 L12.1824806,51.9327342 C11.8303345,51.8891893 11.4800816,51.8257651 11.1260422,51.8039926 C9.90205028,51.726369 8.6780584,51.6610516 7.45311989,51.5957342 C5.58636661,51.5010712 3.71961333,51.3922088 1.85191342,51.3117453 C0.0769831966,51.2350683 -1.69794703,51.1555515 -3.47382388,51.1309391 C-7.27264787,51.0769812 -11.0714719,51.0817144 -14.8693492,51.013557 C-16.7531418,50.9794784 -18.6369344,50.8696694 -20.5159939,50.7295682 C-21.5162658,50.6506745 -22.5084551,50.4904806 -23.4827306,50.2505737 C-24.0440819,50.1123658 -24.5457955,49.7403404 -25.0815877,49.4932701 C-25.3116187,49.386301 -25.5624755,49.2499864 -25.803866,49.250933 C-27.3960968,49.2603993 -28.9741281,49.1401774 -30.5228138,48.7596323 C-31.2233196,48.5873458 -31.909626,48.3525816 -32.4473115,47.8281489 C-33.2822387,47.0140476 -33.1260448,46.2065727 -32.2788115,45.4615753 C-31.1598955,44.4751874 -29.7664569,43.9990328 -28.3976307,43.4963726 C-27.7349901,43.2540354 -27.0392175,43.1177208 -26.3803634,42.8715971 C-25.9013689,42.6936308 -25.4545598,42.4257346 -24.9982844,42.1890773 C-23.6578571,41.4933046 -22.1972078,41.1733439 -20.7308788,40.9452062 C-18.5006198,40.5987398 -16.2580546,40.3232706 -14.0098097,40.0932397 C-12.1856547,39.9039138 -10.3501402,39.821557 -8.51935886,39.7003885 C-6.95300266,39.5981525 -5.38601537,39.5034895 -3.818397,39.4163996 C-1.55973913,39.2848181 0.698918747,39.1513434 2.95757662,39.0377478 C5.04678782,38.9307787 7.13694565,38.8408489 9.22710348,38.753759 C11.6012501,38.6546785 13.9753968,38.5600155 16.3495435,38.4697702 C18.0313885,38.4066615 19.7129179,38.3451306 21.3941318,38.2851774 C23.3432419,38.2189134 25.2932985,38.1602223 27.241462,38.0958515 C27.7431756,38.07755 28.2445736,38.0459957 28.7456562,38.0011886 C28.9003393,37.985482 29.0504881,37.9398264 29.1877321,37.8667672 C30.8272943,37.0081743 32.4441374,36.1031965 34.1102053,35.287202 C35.9088012,34.4049433 37.8181528,33.8388589 39.8363668,34.0565837 Z M36.9396807,35.2502834 C34.5882531,35.8826319 32.411952,36.940017 30.3871116,38.2482589 C28.2562487,39.6256047 26.1159195,40.9717118 23.8903937,42.1957037 C22.4467838,42.9889792 21.1035166,43.9687407 19.7252241,44.8765583 C19.5794432,44.9712212 19.4819403,45.1435078 19.2850414,45.3669124 C20.864966,45.4293899 22.2886967,45.5183731 23.4738767,46.461216 C23.2377049,46.3965191 23.0061955,46.3158703 22.780944,46.2198255 C21.618483,45.7768029 20.4020642,45.8288675 19.1837521,45.8241344 C18.7899542,45.8241344 18.5078586,45.9689687 18.4264485,46.3230081 C18.2730945,47.0055279 18.0553697,47.7117135 18.0989147,48.3923401 C18.1746451,49.5642673 18.4870328,50.7182086 18.5921086,51.8891893 C18.6810918,52.8878834 18.6489064,53.9017235 18.6110412,54.9060973 C18.5788558,55.7249318 18.4586339,56.5409264 18.3772238,57.3578676 L18.5135384,57.4525306 C18.649853,57.3692272 18.8268728,57.3152693 18.9158559,57.195994 C19.2945077,56.6904939 19.8094741,56.5541792 20.3755585,56.6914405 C21.651615,57.001935 22.6559889,57.7279997 23.4265453,58.7920112 C23.5628599,58.9813371 23.8913403,59.1062922 23.9093263,59.2842586 C24.0039892,60.223315 24.1516634,61.1775175 24.053214,62.1090008 C23.8875538,63.6690462 23.5543402,65.2120522 23.2845508,66.760738 C23.205034,67.2170134 23.2996969,67.3041033 23.7493459,67.1734684 C24.8133574,66.8639206 25.4040542,66.0024878 25.8129981,65.1136027 C26.5447427,63.5232652 27.1316529,61.8628772 27.7270829,60.2138487 C28.3717375,58.4285055 28.8971169,56.6166568 29.0902293,54.7054119 C29.1669063,53.9481083 29.1290411,53.2797879 28.7655354,52.6228271 C28.5004791,52.1495124 28.22501,51.6818774 27.8965295,51.10822 C28.0640829,51.2369616 28.1653723,51.2833464 28.2202768,51.3619167 C28.579996,51.8749898 28.9567545,52.3795433 29.2719821,52.9191221 C29.4433221,53.2135239 29.5730103,53.2428694 29.8049345,53.0260913 C30.2659431,52.5963215 30.7373645,52.1741247 31.1908,51.7405685 C31.8534406,51.0968604 32.1658284,50.3206243 31.95473,49.3948207 C31.8506008,48.9357054 31.6963002,48.4879497 31.5703984,48.0335675 C31.5041344,47.7950169 31.4501765,47.5526798 31.3905388,47.3112893 C31.8581738,48.1821883 32.3636739,49.0369947 32.3466346,50.0470484 C32.3390616,50.4512591 32.5075616,50.5951468 32.8729606,50.5695878 C33.8300029,50.5023771 34.7889386,50.4503125 35.7421944,50.3499698 C36.5430429,50.2647731 37.1072341,49.7914584 37.5938016,49.1628965 C38.5025659,47.9852894 39.2191644,46.7328987 39.3980774,45.2239713 C39.4785409,46.8767863 38.7278637,48.2351996 37.856018,49.5784668 C40.0503051,48.7567924 41.6680948,47.2241993 43.1703957,45.5297326 C43.1617236,45.6225562 43.1247091,45.7104657 43.0643732,45.7815361 C42.3771203,46.5388396 41.713533,47.3217022 40.9893615,48.0439804 C40.3683726,48.6640227 40.1440214,49.3948207 40.2064989,50.2288012 C40.2528838,50.8422171 40.6249091,51.1025402 41.2241256,51.1621779 C42.1603421,51.2568408 43.1117047,51.3325712 44.0166825,51.5673353 C45.6202728,51.9847989 46.1939302,53.3583582 44.868649,54.5918164 C44.5685674,54.8758052 44.664177,55.1844064 44.92734,55.3992913 C45.1567348,55.5841635 45.4245224,55.71547 45.7111492,55.7836228 C46.2015032,55.8962718 46.70795,55.9398167 47.1916777,56.0098673 C46.6435792,56.2843898 45.85977,56.2228589 45.6136464,57.1458226 C46.3709499,57.0085614 46.9853124,56.848581 47.6138744,56.7927298 C48.6087819,56.7046933 49.6122092,56.6128702 50.5626251,57.0909181 C50.7908163,57.1895612 51.0403181,57.2286476 51.2877433,57.2045137 C51.7837771,57.170435 52.2779177,57.0956513 52.7692184,57.0151878 C53.9496653,56.8258619 55.1168594,56.7870501 56.2868934,57.1098507 C57.1757785,57.356921 57.8015006,58.340469 57.3698375,59.0286686 C56.899656,59.7870385 56.3575782,60.4983967 55.7511012,61.1529051 C55.2001628,61.740762 54.7912189,62.3560711 54.6766767,63.1550264 C54.6302919,63.4768804 54.7173818,63.707858 55.0960336,63.6463271 C55.5693483,63.5687035 56.0511827,63.5024394 56.5055648,63.3547652 C57.596082,63.0007258 58.7026918,62.6694055 59.7439842,62.1989306 C60.4397568,61.8846497 61.0503328,61.3668434 61.6694285,60.900155 C62.1427432,60.5423291 62.5677798,60.1239189 63.0126957,59.730121 C63.3629486,59.4205732 63.7160414,59.1138653 64.0539881,58.7948511 L64.7849043,58.0982502 L64.7849043,58.0982502 L65.509286,57.3968864 L65.2607653,57.7524543 C64.8477106,58.3492253 64.4460504,58.9578292 63.9451257,59.4697979 C62.4182124,61.0336298 60.7341586,62.4043492 58.7291974,63.3434056 C58.5332451,63.4380686 58.3003743,63.6160349 58.2435765,63.8034676 C58.1060149,64.2606527 58.0230806,64.7325203 57.9965062,65.2092123 C57.9870399,65.3720326 58.1612197,65.6304624 58.3183602,65.7052461 C59.6436415,66.3394879 60.9111783,67.1100442 62.3652011,67.4801764 C63.0117491,67.6448899 63.6261116,67.9771568 64.2205949,68.2952243 C65.1094799,68.7619126 65.8592104,69.3743819 66.3154858,70.2954523 L66.3154858,70.2973456 C63.3175104,68.2895445 59.8481134,67.7982439 56.4014356,67.1450695 C56.8425649,68.1863619 57.8658714,68.9029604 57.9283489,70.1894298 C57.6964247,70.0729944 57.5288713,69.9925309 57.3603712,69.905441 C55.9517866,69.1585504 54.5621346,69.5788538 53.7186877,70.9268542 C53.2378,71.6945707 52.762592,72.5455906 52.0706058,73.0832761 C50.7226055,74.1311949 49.2505967,75.027653 47.7804812,75.9051785 C46.4835988,76.6776281 45.0930002,77.2938839 43.7951712,78.0663335 C43.0747862,78.49421 42.4310781,79.0678675 41.8148224,79.6434182 C41.6150836,79.8327441 41.5544993,80.2274886 41.5308335,80.5341965 C41.4910751,81.1968371 41.5185273,81.8661041 41.5185273,82.5325313 C41.2440048,82.2920874 41.1398756,81.9522474 40.9174176,81.8320255 C40.4251703,81.5660226 39.8884314,81.3104326 39.3431729,81.2309158 C37.7935405,81.0027781 36.269467,81.1211068 34.8249105,81.8187727 C34.4102868,82.0194581 33.9615844,82.1472531 33.5280281,82.3091267 L33.4882697,82.2002643 C33.5952388,82.1377868 33.7031546,82.0772025 33.8091771,82.0109384 C35.3389303,81.0737753 36.8819363,80.157438 38.3955968,79.1947158 C41.0934907,77.4794233 43.764879,75.722479 46.4665595,74.0128662 C47.8940767,73.1088351 49.3159141,72.2057506 50.4831083,70.9647194 C50.6023836,70.837871 50.6724341,70.6665311 50.8068555,70.4544861 C50.731017,70.4465444 50.6545564,70.4465444 50.5787178,70.4544861 C50.5069757,70.4851454 50.4376715,70.5212215 50.371406,70.5624019 C49.0972427,71.382183 47.7028576,71.7210763 46.1929836,71.6718516 C44.4833708,71.6150538 43.5566206,70.5453625 43.7866515,68.8527891 C43.7984369,68.6636466 43.7984369,68.4739539 43.7866515,68.2848114 C43.6771489,68.2930068 43.5685327,68.3104234 43.4619576,68.336876 C40.4327434,69.4169802 37.4167819,70.5141237 34.3856744,71.5781353 C32.0380334,72.4035961 29.673353,73.177939 27.3266586,74.0043465 C26.8680707,74.1629006 26.4421103,74.4034655 26.0695347,74.7143186 C25.8437155,74.9432304 25.7245145,75.2565196 25.7410543,75.5776447 C25.8512982,76.4855733 26.0076945,77.3873006 26.2096358,78.2793251 C26.4349337,79.3281906 26.842931,80.2530476 27.7554817,80.9516601 C29.060882,81.9419507 30.4526644,82.812884 31.9140249,83.5539444 C33.3169298,84.2752761 34.7842054,84.6122762 36.3631834,84.676647 C37.4205684,84.7192453 38.4675406,85.0089139 39.5211392,85.1745741 C40.5113136,85.3298213 41.5043279,85.5873045 42.4954489,85.5817171 C43.82641,85.5740517 45.1535844,85.3345544 46.4854921,85.2351584 C48.7943213,85.0628718 51.1107236,84.9833549 53.4129264,84.753324 C58.0160699,84.2932621 62.6147958,83.788393 67.209104,83.2387168 C69.3106214,82.9925932 71.3695405,82.5164386 73.3091842,81.6360732 C73.5714006,81.5167979 73.8676956,81.2810871 73.9661451,81.0292837 C74.3230244,80.1091599 74.6780104,79.1767299 74.8928953,78.2168476 C75.1617381,77.020308 75.1835105,75.7972627 74.5483222,74.6736136 C73.7493669,73.2612424 73.5714006,71.7333825 73.6518641,70.150618 C73.6699845,70.0270926 73.6991309,69.9054381 73.738954,69.7871123 C73.8133408,69.9192547 73.8600432,70.0651593 73.8762153,70.2159355 C74.0750075,71.1370059 74.2151086,72.0779556 74.4990975,72.9725204 C74.6959964,73.5925627 75.121033,74.1368747 75.3936623,74.7379844 C76.0563029,76.2043134 75.9057888,77.7217604 75.596241,79.2373141 C75.501578,79.6718171 75.376623,80.0978003 75.2658673,80.5275701 L75.3605303,80.6515786 C77.0086121,79.6803367 78.8157278,79.2316344 80.6616552,78.9476455 C82.5075826,78.6636567 84.3412039,78.4298392 86.1994375,78.1714094 L86.1994375,48.683902 C84.1092797,49.207388 82.0276415,49.1240847 79.9516831,48.9375986 C77.8757247,48.7511126 75.9133619,48.1130844 73.9311198,47.3775533 C73.9311198,47.5668792 73.9150271,47.6189438 73.9311198,47.6615421 C74.5634683,48.9764105 74.7641537,50.3793153 74.6827436,51.8134589 C74.6283564,52.7971338 74.5053105,53.7758071 74.3145047,54.7423304 C74.0040103,56.3033224 73.205055,57.6816149 72.4496447,59.0494945 C71.7870041,60.256447 71.6061978,61.5485962 71.340195,62.8464252 C71.3799534,62.0522031 71.340195,61.2371551 71.5077484,60.4618656 C71.6573158,59.7708261 72.0416474,59.1318512 72.3095435,58.4644775 C72.8150437,57.2026204 73.5695073,56.033533 73.6007461,54.5993894 C73.6263051,53.3905436 73.8563361,52.1798045 73.8071113,50.9766385 C73.7190748,48.7927643 72.9788106,46.9563032 70.9729027,45.7048591 C67.4533344,43.5086787 63.8144908,41.5756614 59.8642061,40.2977116 C56.2386153,39.1248377 52.5855723,38.0362139 48.9315826,36.9523232 C46.2450482,36.1562078 43.5471543,35.3828115 40.7460777,35.0874631 C39.4728611,34.9530418 38.1901782,34.9132833 36.9396807,35.2502834 Z M26.9574731,74.7171585 C26.9574731,75.4536362 26.9025686,76.2317656 26.9735658,77.002322 C27.044563,77.7728784 27.2433552,78.5415415 27.3862963,79.3102046 C26.4784786,78.2225274 26.2096358,75.1819536 26.9574731,74.7171585 Z M38.3880237,71.9104022 C38.6388806,73.3956638 39.1140885,74.6849731 39.9357629,75.8445942 C38.8263132,75.2046727 38.0368242,73.2394699 38.3880237,71.9104022 Z M47.4368547,57.7989969 C47.1112141,57.7923705 46.8631972,57.8936599 46.6047674,57.9362582 C45.9421268,58.051747 45.26718,58.0877189 44.6234719,58.2571656 C43.1779688,58.6358174 41.7608645,59.1309046 40.3096815,59.4877839 C37.3590375,60.2138487 34.3941941,60.8793292 31.4350304,61.5703687 C30.3880582,61.8145991 29.3316198,62.0275907 28.298847,62.3210458 C27.9334481,62.4251751 27.4222682,62.3276722 27.241462,62.8502117 C26.8912091,63.861212 26.5930208,64.895878 26.1585179,65.869013 C25.6378717,67.0362071 24.8332366,67.9515978 23.4445312,68.0954855 C23.0971182,68.1305108 22.9314581,68.2554659 22.8292221,68.6057188 C22.474236,69.8230842 22.086118,71.0309834 21.6838004,72.2332028 C21.5891375,72.5124585 21.7121993,72.6118546 21.9119381,72.7065176 C22.9276715,73.1732059 23.9386718,73.653147 24.9657647,74.0876499 C25.0992395,74.1444477 25.3340036,74.0431583 25.4892508,73.9570151 C25.9814982,73.686279 26.4283073,73.3038407 26.9470602,73.1154615 C28.6008218,72.5124585 30.2867689,71.9974921 31.9481036,71.4115285 C36.236335,69.8969213 40.5169934,68.370008 44.8014383,66.8497211 C45.969579,66.4350974 47.1557057,66.0640187 48.3039673,65.60585 C49.1672933,65.2622235 49.9937008,64.8229875 50.8229482,64.3988975 C50.9736516,64.3224098 51.0777051,64.1726152 51.1884229,64.0357856 L51.272286,63.9378864 L51.1788809,63.7977878 C51.0038261,63.8214204 50.8302984,63.855241 50.6591813,63.8990771 C49.4030041,64.2957149 48.1638661,64.7614566 46.8887562,65.0833106 C45.9478066,65.3199679 44.9538456,65.4619624 44.0053229,65.0397656 C43.7724521,64.936583 43.5159155,64.7908021 43.3748677,64.5910633 C42.8222804,63.8229614 42.5975343,62.8667689 42.7500923,61.9329278 C42.8390754,61.3128855 42.9100726,60.7468011 43.2991373,60.1845032 C43.6820236,59.6079606 44.209073,59.1416116 44.8279439,58.8317697 C45.5852475,58.468264 46.4230145,58.2874577 47.2229164,58.0148285 C47.3090597,57.985483 47.3668041,57.872834 47.4368547,57.7989969 Z M18.9972661,58.6329775 C18.9698138,58.7872781 18.9366818,58.9406321 18.9120694,59.0949327 C18.6829851,60.527183 18.1301535,61.919675 18.3403052,63.2544225 C18.3403052,64.011726 18.2664681,64.6260886 18.3563979,65.2111056 C18.550457,66.4805357 18.7767014,67.7499657 19.0890891,68.9976234 C19.3446791,70.01525 19.7327971,71.0006913 20.0896764,71.9899191 C20.1512074,72.1622056 20.3481063,72.2852675 20.4825277,72.431995 C20.6264153,72.2767478 20.8100615,72.143273 20.905671,71.9586803 C21.0591685,71.6659694 21.1813298,71.357869 21.2701234,71.0395031 C21.838101,69.0515812 22.4581433,67.0740723 22.941871,65.0653246 C23.3157896,63.5119057 23.6660425,61.9291412 23.3820537,60.3037785 C23.3445534,60.1527247 23.277645,60.0105444 23.1851547,59.8853683 C22.9106322,59.4697979 22.6398962,59.0504411 22.3379214,58.65475 C22.1893006,58.4654241 22.0009213,58.2439128 21.7850898,58.1662892 C21.257859,57.9797841 20.7165538,57.8357526 20.1663534,57.7355728 C19.6324544,57.6409098 19.0938223,58.0839324 18.9972661,58.6329775 Z M52.1491761,64.7226448 C51.6663951,64.8409734 51.2120129,65.0918302 50.7595241,65.3142882 C50.2862093,65.547159 49.8469733,65.8557602 49.362299,66.0583389 C48.1581863,66.563839 46.9569135,67.0911117 45.7149357,67.4858561 C44.9008344,67.744286 44.6660703,68.2819715 44.5714073,69.006143 C44.4464522,69.9593989 44.8014383,70.4715254 45.7461745,70.6665311 C46.0235369,70.7195423 46.3056325,70.7432081 46.4599331,70.7649806 L46.4599331,70.7697137 C47.6905514,70.7271154 48.7697089,70.5510423 49.6898328,69.9092275 C50.9535831,69.0269689 52.1718952,68.0812861 53.4195528,67.1763083 C53.9714378,66.775884 54.25448,66.2031732 54.4882975,65.6011169 C54.6776234,65.1278022 54.2885587,64.5834902 53.7309939,64.5787571 C53.1998208,64.5618414 52.6685789,64.6101651 52.1491761,64.7226448 Z M36.1804839,62.790574 C36.228762,63.6794591 36.2581075,64.5702374 36.3309979,65.4572292 C36.3830626,66.081058 36.4938182,66.7001537 36.4966581,67.3296623 C35.947613,65.8368276 36.0877142,64.300448 36.1804839,62.790574 Z M14.7024082,52.252695 C12.598051,52.8689508 10.6016094,53.795701 8.66385896,54.8407799 C7.20888949,55.6255357 6.28781903,56.7340388 6.32568421,58.450278 C6.35408309,59.7376941 6.1969426,61.053509 6.69202981,62.2888604 C6.94761976,62.9278353 7.26000748,63.5658636 7.88856943,63.9378889 C8.38176338,64.2294508 8.90808935,64.4661082 9.41926926,64.7273779 C11.0226159,65.5462256 12.8073974,65.9451959 14.6067987,65.886999 L14.6067987,65.8898389 C14.9854504,65.8898389 15.3641022,65.9097181 15.742754,65.8841591 C16.1214058,65.8586001 16.4877514,65.7648838 16.8626166,65.7374315 C17.4845522,65.6929399 17.497805,65.667381 17.5252573,65.0359791 C17.5839483,63.7532962 17.3737965,62.4630403 17.6256,61.1850905 C17.6445326,61.0904276 17.5877348,60.9739921 17.5735354,60.8679696 C17.5241794,60.6029638 17.4947514,60.3346319 17.4854988,60.0652279 C17.4921252,59.8181576 17.5990944,59.5739272 17.6151871,59.3259103 C17.6871309,58.1508276 17.7502395,56.9754293 17.8045129,55.7997155 C17.8319652,55.1664204 17.8329118,54.5312321 17.8329118,53.8969903 C17.8329118,53.3820239 17.8215523,52.8661109 17.7922068,52.3520911 C17.7922068,52.2574281 17.666305,52.091768 17.6028809,52.0936612 C16.6325857,52.1211135 15.6083326,51.9866921 14.7024082,52.252695 Z M52.9348785,57.7071739 C51.3682068,57.9135391 49.7674564,58.0356543 48.2907144,58.7588792 C47.3668041,59.2113681 46.3188853,59.4063738 45.3826688,59.8370902 C44.4199466,60.2791661 43.4704773,60.8528236 43.3597216,62.0673491 C43.248966,63.3310995 43.4534379,64.7112852 45.080694,64.530479 L45.080694,64.5333189 C46.7535427,64.4807848 48.4018385,64.1160664 49.9406896,63.4579478 C50.8816393,63.0556303 51.8273221,62.6883381 52.6177577,61.9433407 C53.4081933,61.1983433 54.4097272,60.6379387 55.3298511,60.0160031 C55.6046372,59.8452392 55.8942073,59.6995038 56.1950704,59.5805536 C56.4790592,59.4584384 56.9154554,58.8099972 56.8936829,58.4928763 C56.8633908,58.069733 56.5557362,57.8775672 56.20359,57.8501149 C55.1140195,57.7649183 54.0007833,57.5661261 52.9348785,57.7071739 Z M35.2187083,50.9463463 C34.3894609,51.0211301 33.556427,51.0542621 32.7290729,51.1451385 C32.4913991,51.1764511 32.269724,51.2821527 32.0957778,51.4471133 C31.3867523,52.1599253 30.7070724,52.9001895 30.020766,53.634774 C29.918173,53.7269073 29.8378914,53.8411791 29.7860019,53.9689342 C29.6468474,54.464968 29.5209457,54.965735 29.4130299,55.4702885 C29.0343781,57.2688845 28.8317994,59.1025057 28.1265605,60.8206382 C28.0091784,61.104627 28.0962683,61.3403377 28.4351617,61.3573771 C28.7180441,61.378165 29.002443,61.3558216 29.2786085,61.291113 C30.2347043,61.0402562 31.1718674,60.7231353 32.1355362,60.4959443 C34.3241435,59.9752981 36.5193772,59.4858906 38.7155575,58.9983765 C39.3294189,58.858498 40.1202115,58.0293424 40.1945484,57.3632574 L40.199286,57.2448864 L40.0526568,57.2764131 C39.9118605,57.3048564 39.7890353,57.3275755 39.6725999,57.3673339 C39.0411981,57.5850587 38.4239957,57.8520082 37.779341,58.0299745 C36.3234249,58.4275589 34.8381633,58.6225646 33.3301826,58.7531994 C32.3721936,58.8365028 31.6470754,58.5155954 31.0781511,57.9012329 C30.1977857,56.9460838 30.2536369,55.7362914 30.5821173,54.5832967 C30.8574982,53.5468731 31.6520844,52.7282628 32.6798482,52.4221417 C34.1196715,51.9923719 35.6143995,51.7528746 37.0864083,51.4281807 C37.2577482,51.3903156 37.4262482,51.3335178 37.5956949,51.2861863 L37.567296,51.0968604 C36.7954254,50.9363573 36.0047528,50.8856854 35.2187083,50.9463463 Z M40.4280102,52.1296332 C38.903196,52.1827199 37.3831444,52.3303622 35.8766158,52.5717091 C34.8135509,52.7392625 33.7287136,52.9948525 32.7527386,53.4340885 C31.6167833,53.9433752 30.9408898,54.92219 31.0355528,56.2465246 C31.0980303,57.1126906 31.4142046,57.7014941 32.345688,57.7895307 C32.8246825,57.832129 33.3093567,57.8737807 33.9066799,57.9267919 L33.9104664,57.9296318 C34.5948795,57.8557947 35.3966747,57.8207694 36.1757507,57.6702553 C36.96484,57.50337 37.7433794,57.2900066 38.5072991,57.0312805 C40.5132069,56.3904123 42.4121455,55.5299262 44.0223622,54.143114 C44.33475,53.8742712 44.5259691,53.4653273 44.7730394,53.1207542 C44.4029073,52.8803103 44.0564409,52.4959788 43.6569633,52.4278214 C42.5920051,52.2479618 41.501488,52.0965011 40.4280102,52.1296332 Z M26.7908663,39.024495 C24.8029445,39.0869726 22.821649,39.144717 20.8375137,39.2318069 C20.6134294,39.2634886 20.4100886,39.3800707 20.269536,39.5574474 C19.4525948,40.6242988 19.0389177,41.8766896 18.6413334,43.1461197 C18.7359963,42.4929453 18.8306593,41.8388244 19.0313447,41.2168888 C19.2320302,40.5949533 19.5226454,40.0061498 19.819887,39.3046973 C19.5699769,39.3046973 19.3872774,39.2980709 19.2045779,39.3046973 C16.4006615,39.4173463 13.596745,39.5195822 10.7937752,39.6511637 C6.21208868,39.8619465 1.63197984,40.0866133 -2.94655127,40.3251639 C-5.55830193,40.4614785 -8.1672127,40.6432314 -10.7780167,40.7984786 C-14.1915625,41.0038972 -17.6032151,41.2613804 -20.9561766,41.9609396 C-22.2769118,42.2432394 -23.5700205,42.6420693 -24.820318,43.1527461 C-26.0575627,43.653513 -26.5772623,44.6673532 -26.4097089,45.8714659 C-26.220383,47.2118932 -24.7057759,49.1420706 -23.2224075,49.3427561 C-21.6945476,49.5500679 -20.165741,49.7867253 -18.6284148,49.8880146 C-16.7266362,50.0129697 -14.8172846,50.0243293 -12.9098263,50.0640877 C-7.37772374,50.1805231 -1.84467459,50.2685597 3.68742793,50.4048743 C5.56080761,50.4512591 7.43324067,50.5942002 9.30378047,50.7163154 C11.8663064,50.8848154 14.4155795,51.1896301 16.9960914,51.1110599 C17.5536561,51.0940205 17.5583893,51.0618351 17.4940185,50.5014305 C17.3804229,49.5188291 17.2611476,48.5324412 17.234642,47.5451067 C17.2071898,46.5132806 17.6047741,45.613036 18.3175861,44.8528926 C19.3314263,43.7708951 20.5431119,42.9463808 21.8068623,42.2023301 C23.4227587,41.2557006 25.0727339,40.3611358 26.7047231,39.4381721 C26.8363045,39.364335 26.9413804,39.2488462 27.1344928,39.0841327 C27.0216597,39.0554229 26.9067749,39.0354842 26.7908663,39.024495 Z M2.82788838,42.4285745 C2.95789216,44.5799477 3.08789594,46.7316365 3.21789972,48.8836408 L3.08915811,48.8912138 C2.55431247,46.7631908 2.54011303,44.6010891 2.67832093,42.4295212 L2.82788838,42.4285745 Z M-11.3810197,42.4815858 L-11.3810197,48.3090367 L-11.5040815,48.3156631 C-11.7467217,46.3787896 -11.7508546,44.4194656 -11.5163877,42.4815858 L-11.3810197,42.4815858 Z M-27.2815546,44.0728699 C-28.7687095,44.537665 -30.2482913,45.0299123 -31.5319208,45.9462496 C-32.4671907,46.6088902 -32.3838873,47.0822049 -31.3160893,47.5498399 C-30.1413222,48.0600731 -28.8832516,48.1490563 -27.6346474,48.2787446 C-27.2399029,48.3203962 -26.8375854,48.285371 -26.3093661,48.285371 C-27.1575461,46.9354774 -27.5911024,45.6083029 -27.0553102,44.1050553 C-27.1925714,44.0842294 -27.244636,44.0605637 -27.2815546,44.0728699 Z M1.67300045,44.3284598 C1.9156011,44.898189 1.93218611,45.5389122 1.7193853,46.1204294 C1.46379534,45.528786 1.41835713,44.9324094 1.67300045,44.3284598 Z" id="Combined-Shape" transform="translate(27.000286, 60.296279) rotate(-90.000000) translate(-27.000286, -60.296279) "></path>
                        </g>
                    </g>
                </g>
            </g>
        </g>
    </g>
</svg>