<svg width="250" height="245" viewBox="0 0 250 245" fill="none" xmlns="http://www.w3.org/2000/svg">
<path opacity="0.173555" fill-rule="evenodd" clip-rule="evenodd" d="M146.413 166.007C137.643 173.032 128.873 180.056 120.652 187.719C119.563 189.347 117.564 190.232 115.724 189.005L115.675 189.348C115.455 189.199 115.233 189.025 115.016 188.811C108.257 182.132 103.75 174.036 99.1779 165.822C99.0795 165.645 98.9811 165.469 98.8826 165.292C95.3557 158.965 91.4431 152.872 87.5302 146.779C85.3911 143.449 83.2518 140.117 81.1754 136.748C75.5785 127.667 70.2477 118.279 66.0327 108.472C62.5841 100.464 59.3047 90.9814 61.11 82.1495C64.648 64.8339 81.0175 56.2514 97.7687 56.8932C106.09 57.213 116.306 59.2581 123.043 64.4422C127.287 67.7064 129.472 71.8541 130.515 76.4717C130.904 76.0687 131.306 75.6699 131.708 75.273L131.71 75.2545C141.841 65.295 155.134 57.3961 169.525 62.0238C186.335 67.43 200.284 85.6445 197.394 103.63C194.31 122.825 179.224 138.409 165.041 150.692C158.965 155.954 152.689 160.981 146.413 166.007ZM129.831 88.6262L129.823 88.6828C127.23 90.7049 123.696 88.3318 123.753 85.0571C123.823 80.9897 123.628 76.2023 120.934 72.8762C118.429 69.785 114.53 68.1182 110.811 66.9598C103.963 64.8289 96.8505 63.5951 89.6836 64.775C82.7349 65.9204 75.8374 68.928 71.7778 74.9462C67.0651 81.9356 67.4901 90.4122 70.1898 98.1176C75.5455 113.422 84.5832 127.416 93.3557 141C93.7342 141.586 94.1122 142.171 94.4895 142.756C98.9072 149.603 103.207 156.481 107.18 163.591L107.185 163.6C110.16 168.923 113.201 174.362 117.119 179.078L117.163 178.764C117.93 179.685 118.727 180.58 119.567 181.439C127.586 172.051 137.044 164.196 146.532 156.315C148.698 154.516 150.865 152.716 153.018 150.895C165.375 140.444 179.213 128.689 186.091 113.7C189.679 105.876 191.534 96.8884 187.723 88.7236C184.271 81.329 178.38 74.2909 170.749 70.8778C154.485 63.6046 140.253 75.9503 130.562 87.9048C130.33 88.1901 130.085 88.4279 129.831 88.6262Z" fill="#C32018"/>
<path fill-rule="evenodd" clip-rule="evenodd" d="M120.758 146.707C121.097 147.107 121.449 147.496 121.82 147.869C125.908 143.154 130.85 139.336 135.676 135.357L137.521 133.825C142.686 129.51 148.227 124.652 151.06 118.551C152.633 115.161 153.441 111.264 151.755 107.719C150.227 104.508 147.625 101.449 144.26 99.9614C137.088 96.7907 130.831 102.132 126.573 107.308C126.505 107.391 126.435 107.464 126.362 107.529L126.252 107.62L126.246 107.664C125.105 108.538 123.546 107.506 123.568 106.086L123.571 105.488C123.561 103.869 123.372 102.086 122.314 100.802C121.208 99.459 119.488 98.7325 117.849 98.2265C114.83 97.2958 111.696 96.7538 108.54 97.2582C105.48 97.7479 102.444 99.0451 100.662 101.65C98.5928 104.676 98.7885 108.352 99.9854 111.695C102.462 118.623 106.703 124.936 110.734 131.074C112.687 134.047 114.588 137.033 116.345 140.12C117.542 142.222 118.763 144.366 120.276 146.278L120.739 146.845L120.758 146.707ZM120.186 153.699C120.085 153.63 119.984 153.55 119.885 153.451C116.738 150.302 114.665 146.467 112.537 142.59C110.054 138.069 107.15 133.809 104.475 129.406C101.927 125.212 99.5002 120.876 97.5836 116.345L97.2495 115.542C95.8144 112.021 94.5851 107.972 95.3573 104.178C96.9871 96.1693 104.469 92.1876 112.118 92.4705C115.917 92.6116 120.581 93.5488 123.653 95.9402C125.588 97.446 126.582 99.3619 127.055 101.496L127.325 101.217V101.217L127.6 100.941L127.605 100.909C132.239 96.2936 138.316 92.6286 144.884 94.7569C152.556 97.2434 158.91 105.657 157.575 113.979C156.15 122.86 149.248 130.082 142.761 135.776C136.099 141.623 128.911 146.848 122.46 152.941C121.991 153.65 121.154 154.056 120.357 153.63L120.208 153.54L120.186 153.699Z" fill="#C32018"/>
<path fill-rule="evenodd" clip-rule="evenodd" d="M141.958 39.0888C159.939 23.8916 177.694 18.7063 194.841 23.7648L195.402 23.934L196.024 24.1303L196.886 24.4156L197.738 24.7119C225.78 34.6931 245.248 64.6458 240.905 91.701C238.637 105.827 232.266 119.73 221.609 133.881C213.722 144.355 203.868 154.6 190.124 166.65L188.479 168.085L186.512 169.787C182.436 173.3 178.424 176.658 172.975 181.114L168.443 184.804L151.248 198.704L147.923 201.409L145.966 203.008C135.334 211.711 128.643 217.462 121.815 223.751L120.228 225.22L118.997 226.368L118.832 226.553L118.677 226.765L118.503 226.991L118.324 227.21L118.134 227.427C116.655 229.061 114.707 229.933 112.762 229.827L112.548 229.809L109.264 229.114L109.225 229.087L108.979 228.9C108.738 228.709 108.508 228.504 108.289 228.286L107.538 227.53L106.903 226.878L106.576 226.539C99.8521 219.518 94.7415 212.154 86.6623 197.823L85.871 196.415L84.7069 194.325L81.9321 189.3L81.5361 188.59L80.3513 186.49L79.5793 185.141C76.7234 180.182 73.5357 174.972 68.2195 166.56L60.6153 154.571L58.9278 151.894L58.4877 151.192C57.3344 149.352 56.3341 147.739 55.2991 146.05L53.9723 143.876L52.7765 141.9C42.9303 125.566 36.0237 112.4 30.5545 99.5312L29.9325 98.0551C22.5401 80.3233 20.4118 68.1689 22.7355 56.768C28.0081 30.8878 51.9558 14.2674 82.052 15.3923C98.7355 16.0181 113.437 20.4229 122.753 27.6508C127.72 31.5029 131.224 36.2845 133.42 42.1864L133.629 42.7645L134.482 45.2289L140.853 40.0349L141.413 39.5523L141.958 39.0888ZM189.495 31.0348L188.968 30.8832C171.687 26.0279 153.591 32.8068 135.338 50.7097L134.801 51.2398C134.801 51.2398 133.629 52.8502 132.652 53.3397C131.675 53.8292 131.419 52.0965 131.419 52.0965L131.292 51.5415L131.153 50.9704C129.484 44.349 126.328 39.1742 121.458 35.1038L121.039 34.7601L120.612 34.422L120.186 34.095L119.756 33.7768C111.236 27.5593 98.045 23.7695 83.2713 23.2211C55.8458 22.2066 34.0145 37.302 29.2154 60.8861C27.0468 71.5386 29.2237 83.1661 36.4702 100.265L36.8066 101.056L37.473 102.599C42.4158 113.933 48.6188 125.682 57.2092 140.008L58.3956 141.978L60.559 145.528L61.0659 146.351L62.1674 148.129L63.7027 150.587L71.9425 163.64L72.703 164.85L74.9402 168.427C78.2347 173.719 80.5728 177.602 82.7239 181.353L83.8627 183.358L84.9464 185.299L87.5705 190.071L87.9512 190.76L89.0718 192.773C96.3206 205.729 100.957 212.613 106.634 218.833L107.215 219.464L107.818 220.105L108.365 220.678L108.455 220.753L110.571 222.116L110.764 222.229L110.95 222.324C112.817 223.228 114.905 222.519 116.306 220.578L116.526 220.254L118.321 218.573L119.775 217.225C126.202 211.293 132.519 205.848 142.752 197.444L147.768 193.343L164.028 180.147L168.253 176.692L169.688 175.512C173.983 171.971 177.404 169.088 180.928 166.039L183.303 163.971L185.062 162.424L185.879 161.698L186.692 160.971C198.278 150.588 206.815 141.557 213.716 132.364C223.591 119.206 229.505 106.297 231.605 93.2165C235.61 68.2545 217.347 40.4696 191.334 31.6209L190.567 31.3664L190.028 31.196L189.495 31.0348Z" fill="#C32018"/>
</svg>
