<svg width="2945" height="108" viewBox="0 0 2945 108" fill="none" xmlns="http://www.w3.org/2000/svg">
<path fill-rule="evenodd" clip-rule="evenodd" d="M1036.37 99.0666C1039.03 99.0666 1041.42 98.3791 1043.52 97.0041C1054.87 89.5275 1062.37 81.5783 1066.02 73.1564C1068.17 68.258 1069.24 63.9503 1069.24 60.2336C1069.24 56.5168 1068.7 53.2619 1067.63 50.4689C1065.05 43.7228 1059.74 38.4806 1051.71 34.7423C1046.38 32.2502 1040.19 31.0041 1033.15 31.0041C1029.58 31.0041 1025.8 31.3263 1021.8 31.9709C1018.11 40.2209 1013.94 44.3459 1009.3 44.3459C1004.66 44.3459 1001.26 42.4982 999.116 38.8029C997.913 36.7834 997.311 34.6134 997.311 32.2931C997.311 25.8048 1000.66 21.8517 1007.37 20.4337C1009.82 19.9611 1012.26 19.7248 1014.71 19.7248C1019.91 19.7248 1028.29 21.7228 1039.85 25.7189C1044.02 27.1798 1047.37 27.9103 1049.9 27.9103C1059.01 27.9103 1066.75 21.0138 1073.11 7.22086L1070.59 4.19156C1064.75 7.32828 1059.76 8.89664 1055.61 8.89664C1051.46 8.89664 1047.39 7.90836 1043.4 5.93179C1035.15 2.23648 1026.85 0.324373 1018.52 0.195467C1013.53 0.152498 1009.62 1.33414 1006.79 3.74039C991.79 16.3732 983.54 33.131 982.036 54.0138C981.993 54.5724 981.971 55.131 981.971 55.6896C981.971 60.3302 983.11 64.5627 985.387 68.3869C990.2 76.7658 996.258 83.34 1003.56 88.1095C1010.87 92.8791 1018.82 96.1662 1027.41 97.9709C1030.63 98.7013 1033.62 99.0666 1036.37 99.0666ZM578.248 100.227C599.732 90.6017 613.933 80.1388 620.851 68.838C622.699 65.7873 623.623 62.6076 623.623 59.299C623.623 50.4904 616.876 40.8654 603.384 30.424C608.541 26.7716 613.568 23.3127 618.466 20.047C607.123 11.883 596.423 5.88883 586.369 2.06461L546.214 25.59C550.511 29.1564 552.617 33.5607 552.531 38.8029L552.144 70.4494L535.773 82.3732C551.714 83.3185 565.873 89.2697 578.248 100.227ZM573.027 41.3166L573.156 17.8556C580.417 19.9611 587.056 23.2482 593.072 27.717L573.027 41.3166ZM566.324 68.838C578.871 75.1115 587.744 80.8478 592.943 86.047C599.818 80.0314 603.255 73.5002 603.255 66.4533C603.255 61.8986 601.966 57.7091 599.388 53.8849C596.81 50.0607 593.007 47.3537 587.98 45.7638C586.132 45.2052 583.952 44.9259 581.438 44.9259C578.924 44.9259 576.099 45.8068 572.962 47.5685L572.833 64.8419L566.324 68.838ZM710.583 99.0021L724.699 79.924C722.98 80.0099 721.304 80.0529 719.671 80.0529C705.191 80.0529 693.89 76.4005 685.769 69.0959L700.593 63.6818C699.734 57.1935 699.24 51.5002 699.111 46.6017H725.408V31.3908H698.788C698.917 26.6642 699.175 22.4533 699.562 18.758C705.964 19.6603 712.517 22.4318 719.22 27.0724L730.177 14.3107C718.618 10.3146 709.81 6.23258 703.751 2.06461L653.736 31.3908C653.736 52.6603 658.645 68.7521 668.463 79.6662C678.282 90.5802 692.322 97.0255 710.583 99.0021ZM673.265 44.2814C673.566 51.0705 676.079 57.5802 680.806 63.8107L685.575 62.1994C684.286 52.7892 683.642 44.6466 683.642 37.7716C683.642 30.8966 683.749 25.3966 683.964 21.2716C681.386 22.5607 679.291 24.0646 677.68 25.7834C676.069 27.5021 674.908 29.1671 674.199 30.7785C673.491 32.3898 673.136 34.6671 673.136 37.6105C673.136 40.5539 673.179 42.7775 673.265 44.2814ZM826.612 99.0021C830.308 96.4669 834.014 93.9425 837.731 91.4289C841.447 88.9152 845.153 86.3693 848.849 83.7912C844.509 82.9318 841.458 80.7834 839.696 77.3459C836.13 70.5138 832.854 63.5421 829.867 56.4308C826.881 49.3195 823.819 42.2189 820.683 35.1291C824.808 32.8947 832.649 28.7267 844.208 22.6252C834.153 17.4689 820.898 10.6154 804.44 2.06461L792.323 18.6935C790.089 11.9045 785.599 6.36148 778.853 2.06461L757.39 19.1447H757.905C762.46 19.1447 766.048 19.7033 768.669 20.8205C772.708 30.8322 774.728 40.0275 774.728 48.4064C774.728 63.0587 768.819 75.8634 757.003 86.8205L787.94 99.0021L803.474 81.0197C800.767 81.7502 798.597 82.1154 796.964 82.1154C795.331 82.1154 794.021 81.9435 793.032 81.5998L775.888 75.799C787.79 56.8927 793.741 41.1662 793.741 28.6193C793.741 27.9318 793.72 27.2443 793.677 26.5568L799.8 18.1779C806.417 22.174 812.583 25.8048 818.298 29.0705C815.247 31.047 812.218 33.0343 809.21 35.0324C806.202 37.0304 803.194 38.9962 800.187 40.9298C809.898 59.7502 818.706 79.1076 826.612 99.0021ZM953.663 79.6662C950.139 86.1115 946.745 92.5568 943.479 99.0021C937.249 96.7248 932.93 93.1691 930.524 88.3351C928.118 83.5011 926.915 76.7443 926.915 68.0646V66.7111L927.108 50.4689C927.108 46.5587 927.806 43.1427 929.203 40.2209C930.599 37.299 932.415 34.3556 934.649 31.3908C930.18 28.0822 925.798 26.4279 921.501 26.4279C916.645 26.4279 911.296 29.1134 905.452 34.4845L905.516 34.6779C908.739 40.6935 910.35 45.6779 910.35 49.631C910.35 50.7052 910.221 51.715 909.964 52.6603C908.804 57.0002 904.721 63.7248 897.718 72.8341C901.757 75.756 907.386 78.0334 914.604 79.6662L903.841 99.0021C891.423 92.7287 881.497 87.6584 874.063 83.7912C883.602 74.8966 888.909 68.6447 889.983 65.0353C890.155 64.3908 890.241 63.6388 890.241 62.7794C890.241 58.6974 888.458 52.7248 884.891 44.8615C881.325 36.9982 878.951 31.5949 877.769 28.6515C876.588 25.7082 875.997 23.4416 875.997 21.8517C875.997 20.2619 876.276 18.8869 876.835 17.7267C877.995 15.0627 880.809 12.6242 885.278 10.4113C889.747 8.1984 896.536 5.41617 905.645 2.06461C906.934 5.07242 907.88 7.32828 908.481 8.83219C902.466 10.8087 899.286 13.3009 898.942 16.3087C898.899 16.6955 898.878 17.1037 898.878 17.5334C898.878 20.3263 899.845 23.7423 901.778 27.7814C905.731 23.5705 909.888 19.091 914.25 14.3429C918.611 9.59488 922.468 5.50211 925.819 2.06461C930.975 4.85758 936.196 7.6398 941.481 10.4113C946.766 13.1828 952.266 15.5568 957.981 17.5334C950.977 22.2599 947.325 30.2736 947.024 41.5744L946.186 65.5509V66.9044C946.186 73.8654 948.679 78.1193 953.663 79.6662ZM1018.65 71.5451C1026.77 75.9709 1034.33 78.1837 1041.33 78.1837C1043.65 78.1837 1045.91 77.9474 1048.1 77.4748C1052.48 76.5724 1055.81 74.8537 1058.09 72.3185C1060.58 69.5685 1061.83 66.6789 1061.83 63.6496C1061.83 60.6203 1060.59 57.6662 1058.12 54.7873C1055.65 51.9084 1051.75 50.0177 1046.42 49.1154C1045.91 49.0294 1044.94 48.9865 1043.52 48.9865C1042.11 48.9865 1039.76 49.6095 1036.5 50.8556C1032.42 52.4025 1029.17 55.797 1026.77 61.0392H1025.61C1017.91 61.0392 1009.41 57.838 1000.08 51.4357C1001.72 58.9552 1007.9 65.6584 1018.65 71.5451Z" fill="white"/>
<path fill-rule="evenodd" clip-rule="evenodd" d="M432.395 91.9062C426.853 96.026 420.436 98.0859 413.145 98.0859C406.4 98.0859 400.621 96.2995 395.809 92.7266C393.475 90.9766 391.607 88.707 390.203 85.918C388.799 83.1289 388.098 80.4766 388.098 77.9609C388.098 75.4453 388.581 72.8112 389.547 70.0586C390.513 67.306 390.996 65.1732 390.996 63.6602C390.996 62.1471 390.376 60.5521 389.137 58.875C389.647 58.5104 390.322 58.3281 391.16 58.3281C393.421 58.3281 395.417 59.4492 397.148 61.6914C398.88 63.9336 399.764 66.2214 399.801 68.5547C402.207 67.2786 404.303 66.6406 406.09 66.6406C407.876 66.6406 409.207 66.8138 410.082 67.1602C410.957 67.5065 411.577 67.9531 411.941 68.5C412.561 69.375 412.871 70.1771 412.871 70.9062V71.3438C410.757 71.599 408.906 72.4831 407.32 73.9961C405.734 75.5091 404.941 77.4323 404.941 79.7656C404.941 82.099 405.689 83.8307 407.184 84.9609C408.678 86.0911 410.565 86.6562 412.844 86.6562C415.122 86.6562 417.283 85.7539 419.324 83.9492C421.366 82.1445 422.387 79.6016 422.387 76.3203C422.387 71.5443 421.202 67.6159 418.832 64.5352C416.462 61.4544 413.309 59.9141 409.371 59.9141C408.314 59.9141 407.129 60.0781 405.816 60.4062C404.504 60.7344 403.757 60.8984 403.574 60.8984L403.137 60.7891C402.772 60.6068 402.444 60.0781 402.152 59.2031C401.314 56.3594 399.819 54.0807 397.668 52.3672C390.668 46.7161 387.168 39.2057 387.168 29.8359C387.168 22.2891 389.638 16.474 394.578 12.3906C399.518 8.30729 406.363 6.26562 415.113 6.26562C418.941 6.26562 422.305 6.99479 425.203 8.45312C428.102 9.91146 430.335 11.3333 431.902 12.7188C435.439 15.8906 437.207 20.0104 437.207 25.0781C437.207 26.7552 436.77 28.9974 435.895 31.8047C435.02 34.612 434.582 36.3073 434.582 36.8906C434.582 39.0781 435.493 41.1745 437.316 43.1797C436.66 42.9609 435.73 42.8516 434.527 42.8516C433.324 42.8516 432.185 42.5417 431.109 41.9219C430.034 41.3021 429.186 40.5365 428.566 39.625C427.363 37.9115 426.47 35.9609 425.887 33.7734C425.632 34.1745 424.702 34.5846 423.098 35.0039C421.493 35.4232 420.135 35.6328 419.023 35.6328C417.911 35.6328 416.936 35.4779 416.098 35.168C415.259 34.8581 414.648 34.5299 414.266 34.1836C413.883 33.8372 413.6 33.3906 413.418 32.8438C413.163 32.224 413.035 31.6771 413.035 31.2031C415.296 31.0938 417.273 30.5104 418.969 29.4531C420.664 28.3958 421.512 26.6914 421.512 24.3398C421.512 21.9883 420.81 20.1562 419.406 18.8438C418.003 17.5312 416.426 16.875 414.676 16.875C408.952 16.875 406.09 20.3021 406.09 27.1562C406.09 32.9531 407.566 37.2734 410.52 40.1172C412.051 41.612 413.618 42.3594 415.223 42.3594C416.827 42.3594 418.504 42.1133 420.254 41.6211C422.004 41.1289 423.016 40.8828 423.289 40.8828C423.562 40.8828 423.863 41.3568 424.191 42.3047C425.322 45.5495 426.725 47.737 428.402 48.8672C432.376 51.4922 435.53 54.8646 437.863 58.9844C440.197 63.1042 441.363 67.4974 441.363 72.1641C441.363 76.8307 440.543 80.7865 438.902 84.0312C437.262 87.276 435.092 89.901 432.395 91.9062ZM51.3555 89.8281C47.6003 93.7656 41.6576 95.7344 33.5273 95.7344C29.7357 95.7344 26.3633 95.3151 23.4102 94.4766C20.457 93.638 18.1055 91.9609 16.3555 89.4453C16.1367 89.8464 15.6081 90.4935 14.7695 91.3867C13.931 92.2799 13.1471 93 12.418 93.5469C10.4128 95.0052 8.57161 95.7344 6.89453 95.7344C4.01432 95.7344 2.04557 95.0417 0.988281 93.6562L0.441406 92.9453C2.77474 90.9036 4.45182 88.2057 5.47266 84.8516C6.49349 81.4974 7.00391 77.6328 7.00391 73.2578C7.00391 68.8828 6.80339 65.4193 6.40234 62.8672C6.0013 60.3151 5.50911 58.4193 4.92578 57.1797C4.34245 55.9401 3.75 54.9557 3.14844 54.2266C2.54688 53.4974 2.04557 52.9596 1.64453 52.6133C1.24349 52.2669 1.04297 51.9206 1.04297 51.5742C1.04297 51.2279 1.24349 50.8724 1.64453 50.5078C2.04557 50.1432 2.54688 49.6055 3.14844 48.8945C3.75 48.1836 4.34245 47.2083 4.92578 45.9688C6.3112 43.0156 7.00391 38.3854 7.00391 32.0781C7.00391 25.7708 6.52083 21.2409 5.55469 18.4883C4.58854 15.7357 2.86589 13.1745 0.386719 10.8047C0.386719 9.49219 1.40755 8.52604 3.44922 7.90625C4.21484 7.6875 5.32682 7.57812 6.78516 7.57812C8.24349 7.57812 9.82031 8.05208 11.5156 9C13.2109 9.94792 14.4414 10.8958 15.207 11.8438L16.3555 13.2109C19.3451 9.45573 25.069 7.57812 33.5273 7.57812C39.2148 7.57812 43.9362 8.5625 47.6914 10.5312C51.7383 12.6823 53.7617 16.0547 53.7617 20.6484C53.7617 23.4922 54.6458 25.8893 56.4141 27.8398C58.1823 29.7904 59.0664 30.8659 59.0664 31.0664C59.0664 31.2669 58.8203 31.5768 58.3281 31.9961C57.8359 32.4154 57.2982 32.9167 56.7148 33.5C55.1107 35.0312 54.3086 37.401 54.3086 40.6094C54.3086 43.8177 53.0326 46.6615 50.4805 49.1406C49.1315 50.4531 47.5638 51.2005 45.7773 51.3828C47.5273 51.5651 49.0951 52.3854 50.4805 53.8438C53.0326 56.5417 54.3086 59.2214 54.3086 61.8828C54.3086 63.8151 55.5117 66.2214 57.918 69.1016C58.6836 70.0495 59.0664 70.6146 59.0664 70.7969C59.0664 70.9792 58.6836 71.5625 57.918 72.5469C55.5117 75.5365 54.3086 78.6536 54.3086 81.8984C54.3086 85.1432 53.3242 87.7865 51.3555 89.8281ZM23.3008 46.3516H28.6602C34.7852 46.3516 38.1758 42.6328 38.832 35.1953C38.9414 33.9557 38.9961 32.4974 38.9961 30.8203L39.0508 27.5938C39.0508 21.1771 36.7357 17.9688 32.1055 17.9688C29.1888 17.9688 27.2839 18.3242 26.3906 19.0352C25.4974 19.7461 24.8594 20.3294 24.4766 20.7852C24.0938 21.2409 23.8294 21.8333 23.6836 22.5625C23.4648 23.6927 23.3555 24.9323 23.3555 26.2812L23.3008 46.3516ZM32.1055 85.6719C29.043 85.6719 26.7643 84.9427 25.2695 83.4844C24.6862 82.9375 24.2487 82.1628 23.957 81.1602C23.6654 80.1576 23.4922 79.3372 23.4375 78.6992C23.3863 78.1019 23.3591 74.7567 23.3558 68.6636L23.3551 65.645C23.3522 59.816 23.3341 56.502 23.3008 55.7031L25.4336 55.6484C30.0638 55.6484 33.4909 56.6875 35.7148 58.7656C37.9388 60.8802 39.0508 65 39.0508 71.125L39.1055 74.5703C39.1055 81.9714 36.7721 85.6719 32.1055 85.6719ZM147.121 95.4609C146.538 95.6432 145.863 95.7344 145.098 95.7344C141.488 95.7344 138.389 94.0026 135.801 90.5391C134.379 92.2526 132.447 93.5469 130.004 94.4219C127.561 95.2969 125.51 95.7344 123.852 95.7344C122.193 95.7344 120.88 95.6159 119.914 95.3789C118.948 95.1419 118.091 94.8411 117.344 94.4766C116.596 94.112 115.895 93.7018 115.238 93.2461C114.582 92.7904 114.017 92.3438 113.543 91.9062C112.595 91.0312 111.848 90.2292 111.301 89.5C109.806 92.0156 107.546 93.875 104.52 95.0781C103.389 95.5156 102.113 95.7344 100.691 95.7344C99.2695 95.7344 98.0846 95.4609 97.1367 94.9141C96.1888 94.3672 95.6419 93.8203 95.4961 93.2734L95.2773 92.4531C97.0273 91.3958 98.2122 90.4206 98.832 89.5273C99.4518 88.6341 99.9167 87.9414 100.227 87.4492C100.536 86.957 100.801 86.2005 101.02 85.1797C101.238 84.1589 101.402 83.3294 101.512 82.6914C101.621 82.0534 101.703 80.9779 101.758 79.4648C101.807 78.1031 101.834 76.9703 101.839 76.0663L101.84 71.1797C101.84 61.8464 100.053 55.6302 96.4805 52.5312C96.0794 52.2031 95.8789 51.875 95.8789 51.5469C95.8789 51.2188 96.0794 50.8724 96.4805 50.5078C96.8815 50.1432 97.3828 49.6146 97.9844 48.9219C98.5859 48.2292 99.1784 47.263 99.7617 46.0234C101.147 43.0703 101.84 38.4492 101.84 32.1602C101.84 25.8711 101.357 21.332 100.391 18.543C99.4245 15.7539 97.7018 13.1745 95.2227 10.8047C95.2227 9.49219 96.2435 8.52604 98.2852 7.90625C99.0508 7.6875 100.163 7.57812 101.621 7.57812C103.079 7.57812 104.656 8.10677 106.352 9.16406C108.047 10.2214 109.277 11.2604 110.043 12.2812L111.191 13.8672C114.618 9.67448 118.483 7.57812 122.785 7.57812C125.082 7.57812 127.461 8.02474 129.922 8.91797C132.383 9.8112 134.324 11.1146 135.746 12.8281C138.371 9.32812 141.47 7.57812 145.043 7.57812C146.246 7.57812 147.212 7.78776 147.941 8.20703C148.671 8.6263 149.145 9.25521 149.363 10.0938C147.54 11.4792 146.255 13.0469 145.508 14.7969C144.76 16.5469 144.387 18.6979 144.387 21.25C144.387 25.7708 145.863 29.1432 148.816 31.3672C148.671 31.9505 148.26 32.4518 147.586 32.8711C146.911 33.2904 145.982 33.5 144.797 33.5C143.612 33.5 142.418 33.2448 141.215 32.7344C140.012 32.224 139.137 31.7135 138.59 31.2031L137.77 30.3828C135.691 32.4609 133.303 33.5 130.605 33.5C129.548 33.5 128.691 33.3177 128.035 32.9531C127.379 32.5885 126.941 32.0599 126.723 31.3672C129.311 29.0339 130.605 26.2995 130.605 23.1641C130.605 19.7005 128.637 17.9688 124.699 17.9688C120.762 17.9688 118.793 19.2266 118.793 21.7422V22.2344L121.145 46.6797C125.155 46.6797 128.318 46.4518 130.633 45.9961C132.948 45.5404 134.98 44.7109 136.73 43.5078C137.095 43.5078 137.432 43.7721 137.742 44.3008C138.052 44.8294 138.207 45.4766 138.207 46.2422C138.207 48.2109 136.931 49.9609 134.379 51.4922C135.072 51.7109 135.746 52.2031 136.402 52.9688C137.605 54.3542 138.207 55.5391 138.207 56.5234C138.207 58.3099 137.842 59.3125 137.113 59.5312L136.73 59.6406C133.449 57.4896 128.254 56.4141 121.145 56.4141L118.738 80.4219C118.738 82.8281 119.467 84.3411 120.926 84.9609C122.092 85.4349 123.523 85.6719 125.219 85.6719C126.914 85.6719 128.245 85.0065 129.211 83.6758C130.177 82.3451 130.66 80.6953 130.66 78.7266C130.66 75.4818 129.366 72.6016 126.777 70.0859C127.142 68.6276 128.217 67.8984 130.004 67.8984C133.103 67.8984 135.436 68.6823 137.004 70.25L137.824 71.0703C139.939 68.9557 142.345 67.8984 145.043 67.8984C146.1 67.8984 146.948 68.0807 147.586 68.4453C148.224 68.8099 148.652 69.3568 148.871 70.0859C145.918 72.4193 144.441 76.1836 144.441 81.3789C144.441 86.5742 146.1 90.5573 149.418 93.3281C149.418 94.276 148.652 94.987 147.121 95.4609ZM237.855 96.5C242.923 96.5 247.025 94.9141 250.16 91.7422C246.624 89.4818 244.363 85.7812 243.379 80.6406C242.941 78.3438 242.486 74.8255 242.012 70.0859C241.538 65.3464 240.936 61.6458 240.207 58.9844C238.858 54.3177 236.033 51.2734 231.73 49.8516C234.1 49.6328 236.069 48.5938 237.637 46.7344C239.204 44.875 240.125 42.5234 240.398 39.6797C240.672 36.8359 241.41 34.5573 242.613 32.8438C243.087 32.1875 243.507 31.6406 243.871 31.2031C244.236 30.7656 244.418 30.4466 244.418 30.2461C244.418 30.0456 243.816 29.2891 242.613 27.9766C242.176 27.4661 241.72 26.6367 241.246 25.4883C240.772 24.3398 240.398 22.599 240.125 20.2656C239.852 17.9323 238.895 15.7448 237.254 13.7031C236.488 12.7552 235.559 11.9167 234.465 11.1875C233.371 10.4583 232.204 9.86589 230.965 9.41016C229.725 8.95443 228.34 8.58984 226.809 8.31641C225.277 8.04297 223.737 7.85156 222.188 7.74219C220.638 7.63281 218.314 7.57812 215.215 7.57812C212.116 7.57812 209.327 8.21615 206.848 9.49219C205.936 9.96615 205.116 10.5495 204.387 11.2422C203.658 11.9349 203.202 12.5365 203.02 13.0469C201.999 11.8073 200.65 10.6406 198.973 9.54688C198.134 9 197.113 8.53516 195.91 8.15234C194.707 7.76953 193.531 7.57812 192.383 7.57812C191.234 7.57812 190.259 7.6875 189.457 7.90625C187.452 8.52604 186.449 9.49219 186.449 10.8047C188.928 13.138 190.651 15.6172 191.617 18.2422C192.583 20.8672 193.066 25.3424 193.066 31.668C193.066 37.9935 192.374 42.6875 190.988 45.75C190.405 47.0625 189.812 48.0833 189.211 48.8125C188.609 49.5417 188.108 50.0977 187.707 50.4805C187.306 50.8633 187.105 51.2279 187.105 51.5742C187.105 51.9206 187.306 52.2669 187.707 52.6133C188.108 52.9596 188.609 53.4974 189.211 54.2266C189.812 54.9557 190.405 55.9401 190.988 57.1797C191.572 58.4193 192.064 60.3151 192.465 62.8672C192.866 65.4193 193.066 68.819 193.066 73.0664C193.066 77.3138 192.565 81.0599 191.562 84.3047C190.56 87.5495 188.855 90.2656 186.449 92.4531L186.668 93.2734C186.814 93.8203 187.361 94.3672 188.309 94.9141C189.257 95.4609 190.633 95.7344 192.438 95.7344C194.242 95.7344 196.038 95.0781 197.824 93.7656C198.48 93.2552 199.164 92.5898 199.875 91.7695C200.586 90.9492 201.033 90.3568 201.215 89.9922C202.053 91.3411 203.202 92.5807 204.66 93.7109C205.353 94.2578 206.21 94.7318 207.23 95.1328C208.251 95.5339 209.281 95.7344 210.32 95.7344C211.359 95.7344 212.28 95.625 213.082 95.4062C215.087 94.7865 216.09 93.8021 216.09 92.4531C213.793 89.9375 212.207 87.2305 211.332 84.332C210.457 81.4336 210.02 77.3047 210.02 71.9453V54.9922H217.348C220.264 54.9922 222.124 57.7448 222.926 63.25C223.254 65.6927 223.518 68.3906 223.719 71.3438C223.919 74.2969 224.247 77.2409 224.703 80.1758C225.159 83.1107 225.815 85.7995 226.672 88.2422C227.529 90.6849 228.905 92.6719 230.801 94.2031C232.697 95.7344 235.048 96.5 237.855 96.5ZM210.02 20.7031V46.4609C214.322 46.4609 217.493 45.9779 219.535 45.0117C221.577 44.0456 222.598 42.487 222.598 40.3359V21.7969C222.598 20.849 222.069 19.974 221.012 19.1719C219.954 18.3698 218.651 17.9688 217.102 17.9688C215.552 17.9688 213.984 18.2604 212.398 18.8438C210.812 19.4271 210.02 20.0469 210.02 20.7031ZM343.93 95.7344C345.297 95.7344 346.363 95.625 347.129 95.4062C349.171 94.75 350.191 93.7656 350.191 92.4531C347.676 90.0104 345.944 87.3854 344.996 84.5781C344.048 81.7708 343.574 77.2865 343.574 71.125C343.574 64.9635 344.267 60.3698 345.652 57.3438C346.236 56.0677 346.828 55.056 347.43 54.3086C348.031 53.5612 348.533 53.0052 348.934 52.6406C349.335 52.276 349.535 51.9206 349.535 51.5742C349.535 51.2279 349.335 50.8724 348.934 50.5078C348.533 50.1432 348.031 49.6146 347.43 48.9219C346.828 48.2292 346.236 47.263 345.652 46.0234C345.069 44.7839 344.577 42.806 344.176 40.0898C343.775 37.3737 343.574 33.7734 343.574 29.2891C343.574 24.8047 344.048 21.2135 344.996 18.5156C345.944 15.8177 347.676 13.2474 350.191 10.8047L349.973 9.98438C349.827 9.47396 349.271 8.94531 348.305 8.39844C347.339 7.85156 345.944 7.57812 344.121 7.57812C342.298 7.57812 340.512 8.23438 338.762 9.54688C338.142 10.0573 337.531 10.6497 336.93 11.3242C336.328 11.9987 335.945 12.4635 335.781 12.7188C335.617 12.974 335.48 13.1745 335.371 13.3203C332.928 9.49219 329.921 7.57812 326.348 7.57812C325.327 7.57812 324.434 7.6875 323.668 7.90625C321.626 8.52604 320.605 9.49219 320.605 10.8047C323.121 13.2474 324.853 15.8177 325.801 18.5156C326.749 21.2135 327.223 25.1146 327.223 30.2188C327.223 41.5208 326.639 48.9401 325.473 52.4766L307.699 24.5859C307.918 21.2318 308.51 18.543 309.477 16.5195C310.443 14.4961 312.038 12.5911 314.262 10.8047L314.043 9.98438C313.897 9.47396 313.35 8.94531 312.402 8.39844C311.454 7.85156 310.078 7.57812 308.273 7.57812C306.469 7.57812 304.673 8.23438 302.887 9.54688C302.23 10.0573 301.547 10.7227 300.836 11.543C300.125 12.3633 299.678 12.9557 299.496 13.3203C297.053 9.49219 294.046 7.57812 290.473 7.57812C289.415 7.57812 288.504 7.6875 287.738 7.90625C285.697 8.5625 284.676 9.52865 284.676 10.8047C287.191 13.2474 288.923 15.8177 289.871 18.5156C290.819 21.2135 291.293 25.7344 291.293 32.0781C291.293 38.4219 290.6 43.0703 289.215 46.0234C288.632 47.263 288.039 48.2292 287.438 48.9219C286.836 49.6146 286.335 50.1432 285.934 50.5078C285.533 50.8724 285.332 51.2279 285.332 51.5742C285.332 51.9206 285.533 52.276 285.934 52.6406C286.335 53.0052 286.836 53.5612 287.438 54.3086C288.039 55.056 288.632 56.0677 289.215 57.3438C289.798 58.6198 290.29 60.5703 290.691 63.1953C291.092 65.8203 291.293 69.3294 291.293 73.7227C291.293 78.1159 290.819 81.7253 289.871 84.5508C288.923 87.3763 287.191 90.0104 284.676 92.4531L284.895 93.2734C285.04 93.8203 285.596 94.3672 286.562 94.9141C287.529 95.4609 288.832 95.7344 290.473 95.7344C293.973 95.7344 296.98 93.638 299.496 89.4453C301.939 93.638 304.947 95.7344 308.52 95.7344C309.54 95.7344 310.434 95.625 311.199 95.4062C313.241 94.7865 314.262 93.8021 314.262 92.4531C311.746 90.0104 310.014 87.3763 309.066 84.5508C308.118 81.7253 307.645 76.4297 307.645 68.6641C307.645 60.8984 307.754 54.7734 307.973 50.2891L327.113 77.4688C326.858 81.0781 326.247 83.9948 325.281 86.2188C324.315 88.4427 322.757 90.5208 320.605 92.4531C320.751 93.2188 321.189 93.9297 321.918 94.5859C322.319 94.9141 322.902 95.1875 323.668 95.4062C324.434 95.625 325.573 95.7344 327.086 95.7344C328.599 95.7344 330.23 95.0052 331.98 93.5469C332.637 93 333.329 92.2708 334.059 91.3594C334.788 90.4479 335.225 89.8099 335.371 89.4453L336.355 91.0312C337.048 92.0521 338.142 93.0911 339.637 94.1484C341.132 95.2057 342.562 95.7344 343.93 95.7344Z" fill="white"/>
<path fill-rule="evenodd" clip-rule="evenodd" d="M1227.77 38.6211C1232.47 38.6211 1236.02 37.7989 1238.45 36.1601C1240.87 34.5212 1242.09 32.1017 1242.09 28.896C1242.09 25.6959 1240.87 23.2957 1238.45 21.6929C1236.02 20.0928 1232.47 19.2928 1227.77 19.2928H1208.88V38.6211H1227.77ZM1250.3 44.3598C1254.99 45.8464 1258.66 48.324 1261.32 51.7982C1261.37 51.8652 1261.42 51.9324 1261.47 52H1190V5H1230.12C1240.13 5 1247.81 6.91567 1253.17 10.7415C1258.53 14.5673 1261.21 19.7606 1261.21 26.3215C1261.21 30.3023 1260.25 33.8568 1258.33 36.9795C1256.42 40.1049 1253.74 42.5631 1250.3 44.3598ZM1318.39 52H1375.93V38.2193H1337.45V20.3138H1381.02V5H1318.39V52ZM1236.61 72.29H1264.03C1262.7 75.876 1260.33 78.8464 1256.93 81.2004C1251.33 85.0677 1243.18 87 1232.47 87H1190V72.7072H1231.06C1233.12 72.7072 1234.97 72.5682 1236.61 72.29ZM1456.92 72.29H1437.83V87H1456.92V72.29ZM1437.83 52H1456.92V20.4638H1472.48C1478.21 20.4638 1482.57 21.6929 1485.56 24.1539C1488.55 26.6149 1490.04 30.1473 1490.04 34.7538C1490.04 39.2855 1488.55 42.7985 1485.56 45.2982C1482.77 47.6347 1478.73 48.8306 1473.54 48.9856V52H1503.88C1504.25 51.5175 1504.61 51.0211 1504.95 50.511C1507.89 46.101 1509.37 40.8468 1509.37 34.7538C1509.37 28.6635 1507.91 23.3926 1505.01 18.9412C1502.1 14.4898 1497.95 11.0543 1492.57 8.63202C1487.19 6.21252 1480.85 5 1473.54 5H1437.83V52ZM1490.39 87L1479.54 72.29H1500.57L1510.9 87H1490.39ZM1622.94 87L1610.67 72.29H1638.54V87H1622.94ZM1710.51 52H1754.64C1751.01 43.4249 1742.5 37.3953 1732.56 37.3953H1716.34C1711.6 37.3953 1707.76 33.5703 1707.76 28.8545C1707.76 24.1388 1711.6 20.3138 1716.34 20.3138H1752.95H1755V5H1716.34C1703.1 5 1692.36 15.6787 1692.36 28.8545C1692.36 40.0289 1700.09 49.4104 1710.51 52ZM1619.77 52H1638.54V5H1619.77V52ZM1578.95 5L1617.49 52H1593.74L1563.23 15.4393V5H1578.95ZM1382.51 87H1318.39V72.8364H1382.51V87ZM1563.23 87H1581.87V72.8364H1563.23V87ZM1693.11 87V72.8364H1753.81H1755C1751.33 81.1678 1742.92 87 1733.11 87H1693.11ZM1293.23 56.2622H1289V68.7442H1291.42V64.9964H1293.23C1294.4 64.9964 1295.4 64.5715 1296.23 63.7199C1297.06 62.8816 1297.48 61.8571 1297.48 60.6384C1297.48 59.4305 1297.06 58.397 1296.23 57.5415C1295.41 56.6874 1294.41 56.2622 1293.23 56.2622ZM1294.51 59.3147C1294.87 59.6837 1295.05 60.1258 1295.05 60.6384C1295.05 61.1484 1294.87 61.5895 1294.51 61.963C1294.16 62.3317 1293.73 62.5199 1293.23 62.5199L1291.42 62.5126V58.7488H1293.23C1293.73 58.7488 1294.16 58.9367 1294.51 59.3147ZM1328.36 56.2622H1324.42L1324.43 68.7442H1326.86V63.2233L1330.32 68.7442H1333.29L1330.48 64.2226C1331.08 63.9792 1331.56 63.5958 1331.92 63.0695C1332.43 62.3247 1332.68 61.5318 1332.68 60.691V60.3663C1332.68 59.7207 1332.58 59.1718 1332.38 58.7163C1332.21 58.3447 1331.92 57.9505 1331.52 57.5326C1330.69 56.6845 1329.64 56.2622 1328.36 56.2622ZM1329.72 61.6827C1329.41 62.029 1329.03 62.2007 1328.59 62.2007H1327.78V62.1917H1326.85V58.7488H1328.21C1328.88 58.7488 1329.38 58.9125 1329.71 59.2432C1330.03 59.5896 1330.19 59.9883 1330.19 60.4432C1330.19 60.9242 1330.03 61.3363 1329.72 61.6827ZM1370.22 58.0273C1369.02 56.785 1367.58 56.1611 1365.9 56.1611C1364.22 56.1611 1362.78 56.785 1361.57 58.0273C1360.38 59.2777 1359.78 60.7714 1359.78 62.5126C1359.78 64.2567 1360.38 65.7478 1361.57 66.9864C1362.77 68.2106 1364.21 68.8227 1365.9 68.8281C1367.58 68.8281 1369.03 68.216 1370.22 66.9864C1371.43 65.7523 1372.03 64.2615 1372.03 62.5126C1372.03 60.765 1371.43 59.2713 1370.22 58.0273ZM1363.3 59.8084C1364.01 59.0652 1364.87 58.6936 1365.9 58.6936C1366.91 58.6936 1367.77 59.0652 1368.49 59.8084C1369.21 60.5561 1369.57 61.452 1369.57 62.4963C1369.57 63.548 1369.21 64.4439 1368.49 65.1807C1367.76 65.9214 1366.9 66.2885 1365.9 66.2885C1364.88 66.2885 1364.01 65.9214 1363.3 65.1807C1362.58 64.4385 1362.22 63.5425 1362.22 62.4963C1362.22 61.4575 1362.58 60.5625 1363.3 59.8084ZM1406.58 58.0988C1405.38 56.8743 1403.91 56.2622 1402.17 56.2622V56.2695H1398.96V68.7442H1402.17C1403.92 68.7442 1405.39 68.1366 1406.58 66.9178C1407.65 65.8084 1408.19 64.338 1408.19 62.5126C1408.19 60.6881 1407.65 59.2171 1406.58 58.0988ZM1404.78 59.7848C1405.44 60.4722 1405.78 61.3761 1405.78 62.4963C1405.78 63.6248 1405.45 64.5316 1404.8 65.2126C1404.14 65.9006 1403.27 66.2442 1402.19 66.2442H1401.38V58.7488H1402.16C1403.24 58.7488 1404.12 59.0949 1404.78 59.7848ZM1441.73 65.5778C1441.25 66.0722 1440.68 66.3201 1440.02 66.3201C1439.35 66.3201 1438.79 66.0722 1438.31 65.5778C1437.82 65.0815 1437.58 64.4946 1437.58 63.8121V56.2622H1435.14V63.82C1435.14 65.2126 1435.62 66.4033 1436.57 67.388C1437.52 68.3688 1438.68 68.86 1440.03 68.86C1441.36 68.86 1442.51 68.3688 1443.47 67.388C1444.42 66.4033 1444.9 65.2126 1444.9 63.82V56.2622H1442.46V63.8121C1442.46 64.4892 1442.22 65.0752 1441.73 65.5778ZM1477.96 68.8281C1479.66 68.8281 1481.1 68.216 1482.3 66.9864L1480.57 65.197C1479.85 65.9395 1478.98 66.3127 1477.97 66.3127C1476.95 66.3127 1476.09 65.9421 1475.38 65.2053C1474.66 64.4631 1474.3 63.5671 1474.3 62.5199C1474.3 61.4811 1474.66 60.5851 1475.38 59.8327C1476.09 59.0895 1476.95 58.7163 1477.97 58.7163C1478.97 58.7163 1479.84 59.0895 1480.56 59.8327L1482.29 58.0426C1481.06 56.8086 1479.61 56.1936 1477.95 56.1936L1477.96 56.1611C1476.28 56.1611 1474.84 56.785 1473.64 58.0273C1472.45 59.2777 1471.85 60.7714 1471.85 62.5126C1471.85 64.2567 1472.45 65.7478 1473.64 66.9864C1474.83 68.2106 1476.27 68.8227 1477.96 68.8281ZM1517.17 58.7488V56.2622H1508.8V58.7488H1511.77V68.7442H1514.2V58.7488H1517.17ZM1546.54 56.2622H1544.11V68.7442H1546.54V56.2622ZM1583.93 58.0273C1582.73 56.785 1581.29 56.1611 1579.61 56.1611C1577.92 56.1611 1576.48 56.785 1575.28 58.0273C1574.09 59.2777 1573.49 60.7714 1573.49 62.5126C1573.49 64.2567 1574.09 65.7478 1575.28 66.9864C1576.47 68.2106 1577.92 68.8227 1579.61 68.8281C1581.29 68.8281 1582.74 68.216 1583.93 66.9864C1585.14 65.7523 1585.74 64.2615 1585.74 62.5126C1585.74 60.765 1585.14 59.2713 1583.93 58.0273ZM1577.01 59.8084C1577.72 59.0652 1578.58 58.6936 1579.61 58.6936C1580.62 58.6936 1581.48 59.0652 1582.2 59.8084C1582.92 60.5561 1583.28 61.452 1583.28 62.4963C1583.28 63.548 1582.92 64.4439 1582.2 65.1807C1581.47 65.9214 1580.61 66.2885 1579.61 66.2885C1578.59 66.2885 1577.72 65.9214 1577.01 65.1807C1576.29 64.4385 1575.93 63.5425 1575.93 62.4963C1575.93 61.4575 1576.29 60.5625 1577.01 59.8084ZM1619.94 56.2325V63.162L1612.67 56V68.7605H1615.09V61.83L1622.37 69V56.2325H1619.94ZM1654.08 65.9115C1653.79 66.1619 1653.47 66.2885 1653.12 66.2885L1653.14 66.2974C1652.79 66.2974 1652.46 66.1727 1652.17 65.9268C1651.87 65.6681 1651.73 65.3715 1651.73 65.0362L1649.31 65.5616C1649.45 66.4901 1649.89 67.2693 1650.63 67.9015C1651.37 68.5254 1652.21 68.8373 1653.15 68.8373C1654.18 68.8373 1655.07 68.4664 1655.83 67.7216C1656.61 66.9682 1657 66.0722 1657 65.0362C1657 64.2098 1656.71 63.4848 1656.14 62.859C1655.62 62.2922 1654.95 61.8862 1654.13 61.6428L1653.97 61.5895L1653.8 61.5426C1653.72 61.5186 1653.65 61.4961 1653.59 61.4755C1653.53 61.4574 1653.48 61.4407 1653.44 61.4259C1653.15 61.3337 1652.91 61.2332 1652.71 61.1248C1652.18 60.8364 1651.92 60.4476 1651.92 59.9638C1651.92 59.6177 1652.04 59.3201 1652.29 59.0652C1652.53 58.8174 1652.81 58.6936 1653.15 58.6936C1653.48 58.6936 1653.77 58.8174 1654.01 59.0652C1654.25 59.3147 1654.37 59.6103 1654.37 59.9567L1656.77 59.4305C1656.65 58.4946 1656.24 57.7179 1655.56 57.0995C1654.87 56.4686 1654.06 56.1537 1653.14 56.1537C1652.12 56.1537 1651.25 56.5228 1650.54 57.2615C1649.81 58.0037 1649.45 58.9026 1649.45 59.9567C1649.45 60.7596 1649.73 61.4865 1650.29 62.1321C1650.79 62.7161 1651.43 63.1464 1652.22 63.4242C1652.31 63.4558 1652.42 63.4902 1652.56 63.5244L1652.74 63.5795L1652.94 63.6328C1653.26 63.7279 1653.51 63.8175 1653.69 63.9052C1654.25 64.1636 1654.53 64.5345 1654.53 65.0209C1654.53 65.3562 1654.38 65.6518 1654.08 65.9115Z" fill="white"/>
<path fill-rule="evenodd" clip-rule="evenodd" d="M2931.24 85.2864C2927.98 86.3744 2925.33 87.9044 2923.29 89.8764C2921.86 88.9924 2920.24 88.0914 2918.44 87.1734C2916.64 86.2554 2914.48 85.4224 2911.97 84.6744C2909.45 83.9264 2906.51 83.2634 2903.14 82.6854C2899.78 82.1074 2895.82 81.7164 2891.26 81.5124C2892.82 79.6764 2894.06 77.7554 2894.98 75.7494C2895.9 73.7434 2896.36 71.6184 2896.36 69.3744C2896.36 68.6264 2896.33 67.9124 2896.26 67.2324C2896.19 66.5524 2896.05 65.8384 2895.85 65.0904C2896.8 65.0904 2898.13 65.4814 2899.83 66.2634C2901.53 67.0454 2903.53 68.0484 2905.85 69.2724C2908.16 70.4964 2910.76 71.9074 2913.65 73.5054C2916.54 75.1034 2919.68 76.7184 2923.08 78.3504C2923.7 76.6504 2924.19 74.3554 2924.56 71.4654C2924.94 68.5754 2925.12 65.6004 2925.12 62.5404C2925.12 59.8884 2924.95 57.4404 2924.61 55.1964C2924.27 52.9524 2923.73 51.3544 2922.98 50.4024C2921.15 50.5384 2919.11 50.7424 2916.86 51.0144C2914.62 51.2864 2912.31 51.6264 2909.93 52.0344C2907.55 52.4424 2905.17 52.8844 2902.79 53.3604C2900.41 53.8364 2898.13 54.3464 2895.95 54.8904C2896.36 52.0344 2896.73 48.9744 2897.07 45.7104C2897.41 42.4464 2897.58 39.0804 2897.58 35.6124C2897.58 31.7364 2897.21 27.9964 2896.46 24.3924C2895.71 20.7884 2894.25 17.5584 2892.08 14.7024C2892.76 14.7704 2893.71 14.9064 2894.93 15.1104C2896.16 15.3144 2897.65 15.4164 2899.42 15.4164C2903.3 15.4164 2906.59 14.7364 2909.31 13.3764C2912.03 12.0164 2914.35 9.70443 2916.25 6.44043C2917.27 7.12043 2918.51 7.83443 2919.97 8.58243C2921.43 9.33043 2923.03 10.0104 2924.77 10.6224C2926.5 11.2344 2928.35 11.7274 2930.33 12.1014C2932.3 12.4754 2934.34 12.6624 2936.45 12.6624C2937.81 12.6624 2939.13 12.5434 2940.42 12.3054C2941.72 12.0674 2942.97 11.7784 2944.2 11.4384C2942.84 15.0424 2941 18.0684 2938.69 20.5164C2936.38 22.9644 2933.83 24.1884 2931.04 24.1884C2930.09 24.1884 2928.85 24.0354 2927.32 23.7294C2925.79 23.4234 2924.19 23.0154 2922.52 22.5054C2920.86 21.9954 2919.21 21.4004 2917.58 20.7204C2915.94 20.0404 2914.55 19.3264 2913.39 18.5784C2912.31 20.6184 2911.52 22.7774 2911.05 25.0554C2910.57 27.3334 2910.33 29.6624 2910.33 32.0424C2910.33 34.0144 2910.47 35.9864 2910.74 37.9584C2911.01 39.9304 2911.39 41.9024 2911.86 43.8744C2913.5 43.3984 2915.21 42.9904 2917.01 42.6504C2918.82 42.3104 2920.82 42.0384 2923.03 41.8344C2925.24 41.6304 2927.74 41.4604 2930.53 41.3244C2933.32 41.1884 2936.51 41.0524 2940.12 40.9164C2939.91 43.6364 2939.71 46.7644 2939.51 50.3004C2939.3 53.8364 2939.2 57.5764 2939.2 61.5204C2939.2 65.2604 2939.35 69.0174 2939.66 72.7914C2939.96 76.5654 2940.56 80.1864 2941.44 83.6544C2937.91 83.6544 2934.51 84.1984 2931.24 85.2864ZM2739.44 98.0364C2740.39 95.1804 2741.67 92.3074 2743.27 89.4174C2744.86 86.5274 2747.09 84.0624 2749.95 82.0224C2749.13 81.2064 2748.47 80.1184 2747.96 78.7584C2747.45 77.3984 2747.02 75.8854 2746.68 74.2194C2746.34 72.5534 2746.11 70.8194 2745.97 69.0174C2745.83 67.2154 2745.77 65.4304 2745.77 63.6624C2745.77 61.2824 2745.85 59.1744 2746.02 57.3384C2746.19 55.5024 2746.45 54.2104 2746.79 53.4624C2744.88 52.3064 2743.01 50.9464 2741.18 49.3824C2739.34 47.8184 2737.64 46.3224 2736.08 44.8944C2738.39 43.5344 2740.38 42.4294 2742.04 41.5794C2743.71 40.7294 2744.88 40.2024 2745.56 39.9984C2745.22 39.2504 2744.92 38.3324 2744.64 37.2444C2744.37 36.1564 2744.15 35.0004 2743.98 33.7764C2743.81 32.5524 2743.67 31.3284 2743.57 30.1044C2743.47 28.8804 2743.42 27.7244 2743.42 26.6364C2743.42 25.5484 2743.52 24.5284 2743.73 23.5764C2746.38 22.5564 2748.79 21.2134 2750.97 19.5474C2753.14 17.8814 2754.61 16.2664 2755.35 14.7024C2754.4 14.8384 2753.48 14.9404 2752.6 15.0084C2751.72 15.0764 2750.8 15.1104 2749.85 15.1104C2746.85 15.1104 2743.67 14.8044 2740.31 14.1924C2736.94 13.5804 2733.76 12.8324 2730.77 11.9484C2727.78 11.0644 2725.16 10.1464 2722.92 9.19443C2720.67 8.24243 2719.18 7.46043 2718.43 6.84843C2716.53 8.34443 2714.72 9.51743 2713.02 10.3674C2711.32 11.2174 2709.74 11.8464 2708.28 12.2544C2706.82 12.6624 2705.44 12.9174 2704.15 13.0194C2702.86 13.1214 2701.67 13.1724 2700.58 13.1724C2698.68 13.1724 2696.81 13.0534 2694.97 12.8154C2693.13 12.5774 2690.79 12.1524 2687.93 11.5404C2687.93 15.2124 2688.7 17.9154 2690.23 19.6494C2691.76 21.3834 2693.95 22.4544 2696.81 22.8624C2697.01 25.0384 2697.11 27.0444 2697.11 28.8804C2697.11 32.0084 2696.77 35.1534 2696.09 38.3154C2695.41 41.4774 2694.12 44.8264 2692.22 48.3624C2693.98 50.5384 2695.28 53.2754 2696.09 56.5734C2696.91 59.8714 2697.32 63.2544 2697.32 66.7224C2697.32 68.6264 2697.06 70.5644 2696.55 72.5364C2696.04 74.5084 2695.34 76.3784 2694.46 78.1464C2693.58 79.9144 2692.52 81.5294 2691.3 82.9914C2690.07 84.4534 2688.75 85.6264 2687.32 86.5104C2687.66 86.5784 2688.03 86.6124 2688.44 86.6124H2689.56C2691.13 86.6124 2692.56 86.5104 2693.85 86.3064C2695.14 86.1024 2696.38 85.8814 2697.57 85.6434C2698.76 85.4054 2699.92 85.1844 2701.04 84.9804C2702.16 84.7764 2703.3 84.6744 2704.46 84.6744C2705.75 84.6744 2707.09 84.8444 2708.48 85.1844C2709.88 85.5244 2711.46 86.1364 2713.23 87.0204C2712.34 83.2804 2711.65 79.1494 2711.14 74.6274C2710.63 70.1054 2710.24 65.2944 2709.96 60.1944C2711.87 59.0384 2713.96 57.7804 2716.24 56.4204C2718.51 55.0604 2720.84 53.6664 2723.22 52.2384C2724.99 53.6664 2726.64 54.9584 2728.17 56.1144C2729.7 57.2704 2730.6 57.9164 2730.87 58.0524C2730.74 62.2684 2730.64 65.7704 2730.57 68.5584C2730.5 71.3464 2730.38 73.6414 2730.21 75.4434C2730.04 77.2454 2729.8 78.6394 2729.5 79.6254C2729.19 80.6114 2728.73 81.4104 2728.12 82.0224C2729.62 82.7704 2730.99 83.7734 2732.25 85.0314C2733.51 86.2894 2734.61 87.6494 2735.57 89.1114C2736.52 90.5734 2737.32 92.0864 2737.96 93.6504C2738.61 95.2144 2739.1 96.6764 2739.44 98.0364ZM2539.38 89.5704C2536.66 91.0664 2534.18 92.9364 2531.93 95.1804C2529.76 93.2764 2527.39 91.6274 2524.84 90.2334C2522.29 88.8394 2519.64 87.6664 2516.89 86.7144C2514.13 85.7624 2511.33 84.9804 2508.47 84.3684C2505.62 83.7564 2502.83 83.3144 2500.11 83.0424L2499.9 82.6344C2501.47 82.1584 2502.83 81.2574 2503.98 79.9314C2505.14 78.6054 2506.11 77.0924 2506.89 75.3924C2507.67 73.6924 2508.25 71.9074 2508.62 70.0374C2509 68.1674 2509.19 66.4164 2509.19 64.7844C2509.19 63.6964 2509.12 62.4724 2508.98 61.1124C2508.85 59.7524 2508.64 58.4094 2508.37 57.0834C2508.1 55.7574 2507.81 54.5334 2507.5 53.4114C2507.2 52.2894 2506.87 51.3884 2506.53 50.7084C2507.69 48.6004 2508.49 46.3224 2508.93 43.8744C2509.37 41.4264 2509.59 38.9784 2509.59 36.5304C2509.59 34.1504 2509.42 31.8724 2509.08 29.6964C2508.74 27.5204 2508.3 25.5484 2507.76 23.7804C2505.38 23.0324 2503.46 21.8084 2501.99 20.1084C2500.53 18.4084 2499.63 15.8244 2499.29 12.3564C2501.47 12.6964 2503.59 13.0024 2505.67 13.2744C2507.74 13.5464 2509.8 13.6824 2511.84 13.6824C2514.9 13.6824 2517.77 13.2574 2520.46 12.4074C2523.14 11.5574 2525.91 10.0104 2528.77 7.76643C2529.38 8.37843 2530.59 9.16043 2532.39 10.1124C2534.19 11.0644 2536.3 11.9824 2538.71 12.8664C2541.13 13.7504 2543.71 14.5154 2546.47 15.1614C2549.22 15.8074 2551.82 16.1304 2554.27 16.1304C2555.22 16.1304 2556.14 16.0964 2557.02 16.0284C2557.91 15.9604 2558.83 15.8584 2559.78 15.7224C2559.57 16.3344 2559.35 17.0654 2559.11 17.9154C2558.88 18.7654 2558.57 19.6154 2558.2 20.4654C2557.82 21.3154 2557.41 22.0974 2556.97 22.8114C2556.53 23.5254 2556 24.0524 2555.39 24.3924C2555.32 25.0044 2555.27 25.6334 2555.24 26.2794C2555.2 26.9254 2555.19 27.5884 2555.19 28.2684C2555.19 30.1724 2555.32 32.1274 2555.6 34.1334C2555.87 36.1394 2556.34 38.2304 2557.02 40.4064C2555.19 41.1544 2552.96 42.3104 2550.34 43.8744C2547.72 45.4384 2544.89 46.7984 2541.83 47.9544C2544.21 48.4304 2546.52 48.8044 2548.76 49.0764C2551.01 49.3484 2553.28 49.4844 2555.6 49.4844C2557.16 49.4844 2558.62 49.3824 2559.98 49.1784L2560.29 49.6884C2558.59 53.7684 2557.74 58.3244 2557.74 63.3564C2557.74 64.9204 2557.82 66.5694 2557.99 68.3034C2558.16 70.0374 2558.43 71.7544 2558.81 73.4544C2559.18 75.1544 2559.64 76.7864 2560.19 78.3504C2560.73 79.9144 2561.38 81.3084 2562.12 82.5324C2560.22 82.8724 2558.01 83.2974 2555.49 83.8074C2552.98 84.3174 2550.34 85.0314 2547.59 85.9494C2544.83 86.8674 2542.1 88.0744 2539.38 89.5704ZM2523.36 41.7834C2523.36 43.0414 2523.43 44.3504 2523.57 45.7104C2527.72 44.7584 2531.37 43.5684 2534.53 42.1404C2537.69 40.7124 2540.6 38.8764 2543.25 36.6324C2543.19 35.8164 2543.13 34.6774 2543.1 33.2154C2543.07 31.7534 2543.05 30.7164 2543.05 30.1044C2543.05 29.3564 2543.08 28.6424 2543.15 27.9624C2543.22 27.2824 2543.32 26.4664 2543.46 25.5144C2539.38 25.4464 2535.76 25.1064 2532.59 24.4944C2529.43 23.8824 2526.42 22.8964 2523.57 21.5364C2523.43 24.3244 2523.36 27.0784 2523.36 29.7984V41.7834ZM2533.67 81.2064C2533.05 80.7984 2532.31 80.3564 2531.42 79.8804C2530.54 79.4044 2529.62 78.9624 2528.67 78.5544C2527.72 78.1464 2526.76 77.7554 2525.81 77.3814C2524.86 77.0074 2524.04 76.7184 2523.36 76.5144C2523.02 74.4744 2522.8 72.6384 2522.7 71.0064C2522.6 69.3744 2522.55 67.5384 2522.55 65.4984C2522.55 63.7304 2522.6 61.7924 2522.7 59.6844C2522.8 57.5764 2522.96 55.6044 2523.16 53.7684C2525.13 54.1084 2526.9 54.4314 2528.46 54.7374C2530.03 55.0434 2531.57 55.4004 2533.1 55.8084C2534.63 56.2164 2536.23 56.6754 2537.9 57.1854C2539.56 57.6954 2541.52 58.2904 2543.76 58.9704C2543.9 61.8264 2544.05 64.7164 2544.22 67.6404C2544.39 70.5644 2544.65 73.0804 2544.99 75.1884C2542.54 76.1404 2540.5 77.0414 2538.87 77.8914C2537.24 78.7414 2535.5 79.8464 2533.67 81.2064ZM2640.48 86.7144C2639.02 87.6664 2637.4 88.8904 2635.64 90.3864C2629.92 88.6864 2624.28 87.4114 2618.7 86.5614C2613.13 85.7114 2608.1 85.2864 2603.61 85.2864C2601.43 85.2864 2599.43 85.6264 2597.59 86.3064L2597.49 86.0004C2598.51 85.3884 2599.41 84.2324 2600.19 82.5324C2600.97 80.8324 2601.65 78.8944 2602.23 76.7184C2602.81 74.5424 2603.23 72.2814 2603.51 69.9354C2603.78 67.5894 2603.91 65.4304 2603.91 63.4584C2603.91 60.3984 2603.59 57.4744 2602.94 54.6864C2602.3 51.8984 2601.4 49.7904 2600.24 48.3624C2601.33 47.2744 2602.23 45.8294 2602.94 44.0274C2603.66 42.2254 2604.22 40.2874 2604.63 38.2134C2605.04 36.1394 2605.31 34.0144 2605.44 31.8384C2605.58 29.6624 2605.65 27.6224 2605.65 25.7184C2605.65 24.1544 2605.61 22.7944 2605.55 21.6384C2605.48 20.4824 2605.41 19.5984 2605.34 18.9864C2603.78 18.4424 2602.16 17.3204 2600.5 15.6204C2598.83 13.9204 2597.59 12.0844 2596.77 10.1124C2601.13 10.5884 2605.26 10.9114 2609.17 11.0814C2613.08 11.2514 2616.77 11.3364 2620.23 11.3364C2627.65 11.3364 2633.63 11.0984 2638.19 10.6224C2642.74 10.1464 2646.35 9.90843 2649 9.90843C2649.54 9.90843 2650.02 9.92543 2650.43 9.95943C2650.83 9.99343 2651.21 10.0444 2651.55 10.1124C2651.14 10.8604 2650.71 12.2204 2650.27 14.1924C2649.83 16.1644 2649.41 18.3234 2649 20.6694C2648.59 23.0154 2648.23 25.2934 2647.93 27.5034C2647.62 29.7134 2647.4 31.3624 2647.26 32.4504L2646.55 32.7564C2644.17 31.3964 2642.45 29.8664 2641.4 28.1664C2640.35 26.4664 2639.55 24.4264 2639 22.0464C2638.05 21.2984 2636.86 20.8224 2635.43 20.6184C2634 20.4144 2632.2 20.3124 2630.03 20.3124C2628.26 20.3124 2626.56 20.3464 2624.93 20.4144C2623.29 20.4824 2622 20.5164 2621.05 20.5164C2620.51 23.1684 2620.1 26.3984 2619.83 30.2064C2619.55 34.0144 2619.35 38.0604 2619.21 42.3444C2620.17 42.4804 2621.13 42.5654 2622.12 42.5994C2623.11 42.6334 2623.87 42.6504 2624.42 42.6504C2625.84 42.6504 2627.25 42.0894 2628.65 40.9674C2630.04 39.8454 2631.39 38.4004 2632.68 36.6324C2633.02 37.4484 2633.36 38.3834 2633.7 39.4374C2634.04 40.4914 2634.43 41.5454 2634.87 42.5994C2635.31 43.6534 2635.81 44.6564 2636.35 45.6084C2636.89 46.5604 2637.54 47.2744 2638.29 47.7504C2637.68 48.3624 2637.08 49.1444 2636.5 50.0964C2635.92 51.0484 2635.38 52.0684 2634.87 53.1564C2634.36 54.2444 2633.88 55.3324 2633.44 56.4204C2633 57.5084 2632.61 58.4944 2632.27 59.3784C2631.86 58.6304 2631.39 57.8144 2630.84 56.9304C2630.3 56.0464 2629.72 55.2304 2629.11 54.4824C2628.5 53.7344 2627.83 53.1054 2627.12 52.5954C2626.4 52.0854 2625.64 51.8304 2624.82 51.8304C2624.21 51.8304 2623.33 51.8644 2622.17 51.9324C2621.02 52.0004 2619.96 52.1364 2619.01 52.3404V54.1764C2619.01 58.4604 2619.06 62.5234 2619.16 66.3654C2619.26 70.2074 2619.45 73.5564 2619.72 76.4124L2636.96 78.1464C2637.91 73.9304 2639.6 70.1904 2642.01 66.9264C2644.42 63.6624 2647.03 60.5004 2649.81 57.4404L2650.43 57.6444C2650.22 59.2084 2650.09 60.7554 2650.02 62.2854C2649.95 63.8154 2649.92 65.2944 2649.92 66.7224C2649.92 70.2584 2650.09 73.4544 2650.43 76.3104C2650.77 79.1664 2651.17 81.3084 2651.65 82.7364C2650.49 82.8724 2649.35 83.0594 2648.23 83.2974C2647.11 83.5354 2645.9 83.9264 2644.61 84.4704C2643.32 85.0144 2641.94 85.7624 2640.48 86.7144ZM2709.45 25.2084V47.2404C2711.63 45.9484 2713.87 44.6394 2716.19 43.3134C2718.5 41.9874 2720.64 40.7634 2722.61 39.6414C2724.58 38.5194 2726.22 37.5674 2727.51 36.7854C2728.8 36.0034 2729.51 35.5444 2729.65 35.4084L2729.14 22.8624C2725.47 22.3184 2722.07 21.8424 2718.94 21.4344C2715.81 21.0264 2712.72 20.4484 2709.66 19.7004C2709.52 21.4004 2709.45 23.2364 2709.45 25.2084ZM2874.05 107.318C2878.74 107.318 2883.72 106.791 2888.99 105.737C2894.26 104.683 2899.89 102.966 2905.88 100.586C2903.43 100.926 2901.1 101.164 2898.89 101.3C2896.68 101.436 2894.55 101.504 2892.51 101.504C2889.45 101.504 2886.58 101.249 2883.89 100.739C2881.21 100.229 2878.64 99.5324 2876.19 98.6484C2873.75 97.7644 2871.37 96.7444 2869.05 95.5884C2866.74 94.4324 2864.43 93.2084 2862.12 91.9164L2864.77 98.6484C2863.68 98.5124 2862.58 98.3424 2861.45 98.1384C2860.33 97.9344 2859.13 97.5264 2857.83 96.9144C2856.54 96.3024 2855.1 95.3844 2853.5 94.1604C2851.9 92.9364 2850.08 91.2364 2848.04 89.0604C2847.57 86.6124 2847.24 84.1134 2847.07 81.5634C2846.9 79.0134 2846.82 76.7524 2846.82 74.7804C2846.82 70.2244 2847.31 65.6684 2848.3 61.1124C2849.28 56.5564 2850.56 52.3064 2852.12 48.3624C2848.79 41.9704 2847.12 36.2584 2847.12 31.2264C2847.12 26.9424 2848.23 23.0834 2850.44 19.6494C2852.65 16.2154 2855.79 13.0364 2859.87 10.1124C2859.13 9.90843 2858.34 9.80643 2857.53 9.80643C2856.03 9.80643 2854.42 9.95943 2852.68 10.2654C2850.95 10.5714 2849.03 10.8944 2846.92 11.2344C2844.81 11.5744 2842.48 11.8974 2839.93 12.2034C2837.38 12.5094 2834.58 12.6624 2831.52 12.6624H2829.53C2828.88 12.6624 2828.22 12.6284 2827.54 12.5604C2831.48 14.1244 2833.63 16.9804 2833.97 21.1284C2833.97 21.1964 2833.98 22.6584 2834.02 25.5144C2834.05 28.3704 2834.12 32.1784 2834.22 36.9384C2834.32 41.6984 2834.46 47.1724 2834.63 53.3604C2834.8 59.5484 2835.05 66.0084 2835.39 72.7404L2833.35 69.6804C2830.63 65.6004 2828.02 61.2994 2825.5 56.7774C2822.98 52.2554 2820.65 47.7844 2818.51 43.3644C2816.37 38.9444 2814.43 34.7284 2812.7 30.7164C2810.96 26.7044 2809.49 23.1684 2808.26 20.1084C2808.81 16.5044 2810.91 13.9884 2814.59 12.5604C2813.91 12.6284 2813.24 12.6624 2812.6 12.6624H2810.61C2807.82 12.6624 2805.22 12.5094 2802.8 12.2034C2800.39 11.8974 2798.15 11.5744 2796.07 11.2344C2794 10.8944 2792.09 10.5714 2790.36 10.2654C2788.63 9.95943 2787.08 9.80643 2785.72 9.80643C2784.84 9.80643 2784.05 9.90843 2783.37 10.1124C2787.45 13.0364 2790.6 16.2154 2792.81 19.6494C2795.02 23.0834 2796.12 26.9424 2796.12 31.2264C2796.12 36.2584 2794.46 41.9704 2791.13 48.3624C2792.76 50.8104 2793.93 53.3604 2794.64 56.0124C2795.36 58.6644 2795.72 61.4184 2795.72 64.2744C2795.72 67.3344 2795.32 70.3604 2794.54 73.3524C2793.76 76.3444 2792.71 79.2514 2791.38 82.0734C2790.05 84.8954 2788.51 87.5474 2786.74 90.0294C2784.97 92.5114 2783.07 94.7384 2781.03 96.7104C2786.2 95.0104 2790.31 92.9704 2793.37 90.5904C2796.43 88.2104 2798.88 85.3884 2800.71 82.1244C2802.21 83.3484 2803.52 84.3684 2804.64 85.1844C2805.76 86.0004 2806.85 86.6804 2807.9 87.2244C2808.96 87.7684 2810.05 88.2444 2811.17 88.6524C2812.29 89.0604 2813.6 89.4684 2815.1 89.8764C2813.74 88.2444 2812.58 86.6294 2811.63 85.0314C2810.68 83.4334 2809.89 81.5804 2809.28 79.4724C2808.67 77.3644 2808.23 74.8824 2807.96 72.0264C2807.68 69.1704 2807.55 65.6344 2807.55 61.4184V51.0144C2809.38 54.8904 2811.47 58.9704 2813.82 63.2544C2816.17 67.5384 2818.82 71.7714 2821.78 75.9534C2824.73 80.1354 2828 84.1134 2831.57 87.8874C2835.14 91.6614 2839.08 94.9934 2843.4 97.8834C2847.72 100.773 2852.41 103.068 2857.48 104.768C2862.54 106.468 2868.07 107.318 2874.05 107.318Z" fill="white"/>
<path fill-rule="evenodd" clip-rule="evenodd" d="M2240.85 86.6367C2243.56 85.2331 2246.34 84.1484 2249.18 83.3828C2252.02 82.6172 2254.62 82.0589 2256.98 81.708C2259.72 81.2933 2262.42 81.0381 2265.06 80.9424C2263.72 76.6038 2262.74 72.4009 2262.1 68.3335C2261.46 64.2661 2261.14 60.3024 2261.14 56.4424C2261.14 48.9456 2262.33 41.9434 2264.71 35.4355C2267.08 28.9277 2270.57 22.8027 2275.16 17.0605C2265.78 16.3587 2257.28 13.3122 2249.66 7.9209C2247.1 12.9932 2245.25 18.2728 2244.08 23.7598C2242.92 29.2467 2242.33 34.9411 2242.33 40.8428C2242.33 43.5544 2242.45 46.2819 2242.67 49.0254C2242.89 51.7689 2243.23 54.5602 2243.67 57.3994L2218.12 11.4619C2215.12 12.9613 2212.25 14.2214 2209.51 15.2422C2206.77 16.263 2204.05 17.0526 2201.37 17.6108C2198.69 18.1691 2195.99 18.4801 2193.26 18.5439C2190.54 18.6077 2187.69 18.4323 2184.72 18.0176C2187.47 19.8997 2190.03 21.734 2192.43 23.5205C2194.82 25.307 2197.05 27.0615 2199.12 28.7842C2199.67 31.5915 2200.07 34.335 2200.35 37.0146C2200.62 39.6943 2200.75 42.3102 2200.75 44.8623C2200.75 52.5186 2199.56 59.6006 2197.19 66.1084C2194.81 72.6162 2191.34 78.7093 2186.78 84.3877C2188.73 83.973 2190.66 83.6699 2192.59 83.4785C2194.52 83.2871 2196.43 83.1914 2198.31 83.1914C2204.21 83.1914 2209.94 84.1803 2215.49 86.1582C2218.01 76.6836 2219.27 67.0654 2219.27 57.3037C2219.27 54.6559 2219.17 51.9443 2218.98 49.1689C2219.05 49.2966 2219.11 49.4002 2219.17 49.48C2219.24 49.5597 2219.3 49.6315 2219.37 49.6953C2219.43 49.791 2219.48 49.8548 2219.51 49.8867C2222.16 52.8854 2224.77 56.2829 2227.36 60.0791C2228.44 61.7061 2229.58 63.4925 2230.78 65.4385C2231.98 67.3844 2233.16 69.474 2234.34 71.707C2235.52 73.9401 2236.67 76.3088 2237.79 78.813C2238.91 81.3172 2239.93 83.9251 2240.85 86.6367ZM1921.39 91.5894C1918.24 91.9243 1915.08 92.0918 1911.89 92.0918C1909.4 92.0918 1906.91 91.9961 1904.42 91.8047C1901.94 91.6133 1899.52 91.3501 1897.17 91.0151C1894.83 90.6802 1892.57 90.2655 1890.4 89.771C1888.23 89.2765 1886.22 88.7103 1884.37 88.0723L1885.52 85.9189C1884.44 86.238 1883.34 86.5809 1882.22 86.9478C1881.1 87.3146 1879.99 87.6895 1878.87 88.0723C1880.79 82.3301 1882.44 76.5799 1883.82 70.8218C1885.21 65.0636 1886.27 59.2178 1887.01 53.2842C1884.71 51.8167 1882.65 50.3014 1880.83 48.7383C1879.01 47.1751 1877.52 45.6279 1876.33 44.0967C1878.09 44.639 1879.92 45.1414 1881.81 45.604C1883.71 46.0666 1885.67 46.4733 1887.68 46.8242C1887.84 44.8464 1887.95 42.9004 1888.03 40.9863C1888.11 39.0723 1888.15 37.1423 1888.15 35.1963V33.6172C1886.21 34.2552 1884.28 34.9411 1882.36 35.6748C1880.45 36.4085 1878.6 37.222 1876.81 38.1152C1877.29 36.3288 1877.66 34.5902 1877.91 32.8994C1878.17 31.2087 1878.3 29.5498 1878.3 27.9229C1878.3 25.1475 1877.95 22.4837 1877.24 19.9316C1876.54 17.3796 1875.55 14.9072 1874.28 12.5146C1877.98 11.9404 1881.34 11.4699 1884.37 11.103C1887.4 10.7362 1890.22 10.4411 1892.82 10.2178C1895.42 9.99447 1897.89 9.83496 1900.24 9.73926C1902.58 9.64355 1904.9 9.5957 1907.2 9.5957C1909.15 9.5957 1911.36 9.64355 1913.85 9.73926C1916.34 9.83496 1918.91 10.0423 1921.58 10.3613C1924.24 10.6803 1926.91 11.1429 1929.57 11.749C1932.23 12.3551 1934.75 13.1846 1937.11 14.2373C1939.47 15.29 1941.59 16.59 1943.47 18.1372C1945.35 19.6844 1946.82 21.5426 1947.87 23.7119C1948.54 23.3291 1949.24 22.8825 1949.95 22.3721C1950.67 21.8617 1951.38 21.3353 1952.08 20.793C1952.24 21.6543 1952.35 22.5156 1952.4 23.377C1952.44 24.2383 1952.47 25.0677 1952.47 25.8652C1952.47 28.3535 1952.17 30.7939 1951.58 33.1865C1950.99 35.5791 1950.16 37.876 1949.09 40.0771C1948.02 42.2783 1946.74 44.3758 1945.24 46.3696C1943.74 48.3634 1942.07 50.1898 1940.22 51.8486C1941.97 52.8695 1943.44 54.0259 1944.62 55.3179C1945.8 56.6099 1946.78 57.9417 1947.56 59.3135C1948.34 60.6852 1948.94 62.0251 1949.36 63.333C1949.77 64.6409 1950.07 65.8213 1950.24 66.874C1950.42 67.9268 1950.52 68.7881 1950.55 69.458C1950.58 70.1279 1950.6 70.4948 1950.6 70.5586C1950.54 73.2064 1949.99 75.575 1948.95 77.6646C1947.91 79.7541 1946.49 81.5964 1944.69 83.1914C1942.89 84.7865 1940.77 86.1502 1938.33 87.2827C1935.89 88.4152 1933.24 89.3324 1930.38 90.0342C1927.53 90.736 1924.53 91.2544 1921.39 91.5894ZM1908.42 38.3306C1908.37 41.4409 1908.32 44.5752 1908.25 47.7334C1910.55 47.3825 1912.61 46.8162 1914.45 46.0347C1916.28 45.2531 1917.89 44.1924 1919.26 42.8525C1920.63 41.5127 1921.74 39.8698 1922.58 37.9238C1923.43 35.9779 1924.01 33.665 1924.33 30.9854L1928.64 30.2676C1927.26 29.4701 1925.73 28.8799 1924.04 28.4971C1922.35 28.1143 1920.52 27.9229 1918.54 27.9229C1917.71 27.9229 1916.98 27.9388 1916.36 27.9707C1915.74 28.0026 1915.09 28.0584 1914.4 28.1382C1913.72 28.2179 1912.93 28.3216 1912.06 28.4492C1911.18 28.5768 1910.09 28.7363 1908.78 28.9277H1908.63C1908.54 32.0859 1908.47 35.2202 1908.42 38.3306ZM1917.3 72.7119C1915.96 72.7119 1914.55 72.6242 1913.08 72.4487C1911.62 72.2733 1910.07 71.9303 1908.44 71.4199C1908.38 69.7611 1908.33 68.1182 1908.3 66.4912C1908.27 64.8643 1908.25 63.2054 1908.25 61.5146C1910.42 61.9294 1912.69 62.1367 1915.05 62.1367C1918.05 62.1367 1921 61.738 1923.92 60.9404C1926.84 60.1429 1929.66 59.0104 1932.37 57.543C1932.56 58.181 1932.7 58.8031 1932.8 59.4092C1932.9 60.0153 1932.94 60.5895 1932.94 61.1318C1932.94 63.3011 1932.44 65.1195 1931.44 66.5869C1930.43 68.0544 1929.16 69.2427 1927.61 70.1519C1926.06 71.061 1924.37 71.715 1922.54 72.1138C1920.7 72.5125 1918.95 72.7119 1917.3 72.7119ZM2047.53 81.6123C2047.72 83.7497 2048.04 85.903 2048.48 88.0723C2042.45 86.541 2036.42 85.2251 2030.4 84.1245C2024.37 83.0239 2018.24 82.1546 2012.02 81.5166C2012.02 81.708 2012.04 81.9233 2012.07 82.1626C2012.1 82.4019 2012.15 82.6172 2012.21 82.8086C2009.6 82.8405 2007 82.8485 2004.44 82.8325C2001.87 82.8166 1999.32 82.8564 1996.78 82.9521C1994.24 83.0479 1991.73 83.2552 1989.24 83.5742C1986.75 83.8932 1984.28 84.3877 1981.83 85.0576C1984.03 77.6566 1985.69 70.3114 1986.83 63.022C1987.96 55.7326 1988.53 48.4033 1988.53 41.0342C1988.53 37.6846 1988.41 34.3429 1988.17 31.0093C1987.93 27.6756 1987.55 24.334 1987.04 20.9844L1979.67 20.0752C1980.82 19.7243 1981.98 19.3893 1983.14 19.0703C1984.31 18.7513 1985.45 18.4323 1986.56 18.1133C1986.4 17.2201 1986.25 16.3348 1986.11 15.4575C1985.97 14.5802 1985.78 13.679 1985.56 12.7539C1987.47 13.3281 1989.37 13.8704 1991.25 14.3809C1993.14 14.8913 1995.07 15.3219 1997.04 15.6729C2003.2 14.3968 2009.35 13.4238 2015.49 12.7539C2021.63 12.084 2027.86 11.749 2034.18 11.749C2036.89 11.749 2039.6 11.8128 2042.31 11.9404C2045.02 12.068 2047.77 12.2594 2050.54 12.5146C2048.98 18.3525 2048.2 24.3978 2048.2 30.6504C2048.2 32.9473 2048.29 35.2122 2048.48 37.4453C2036.42 32.3411 2023.98 28.3216 2011.16 25.3867C2010.87 28.194 2010.63 31.0173 2010.44 33.8564C2010.25 36.6956 2010.12 39.5189 2010.06 42.3262C2013.31 41.5924 2016.55 41.0342 2019.77 40.6514C2022.99 40.2686 2026.23 40.0452 2029.49 39.9814C2028.75 42.9801 2028.39 45.9469 2028.39 48.8818C2028.39 50.0622 2028.44 51.2425 2028.55 52.4229C2028.66 53.6032 2028.85 54.7835 2029.1 55.9639C2026.01 54.4645 2022.87 53.1247 2019.68 51.9443C2016.49 50.764 2013.25 49.7113 2009.96 48.7861C2009.96 52.1676 2010.03 55.6608 2010.18 59.2656C2010.32 62.8704 2010.55 66.5072 2010.87 70.1758C2023.15 68.5169 2035.69 65.4704 2048.48 61.0361C2048.1 63.4287 2047.8 65.7894 2047.57 68.1182C2047.35 70.4469 2047.24 72.7917 2047.24 75.1523C2047.24 77.3216 2047.33 79.4749 2047.53 81.6123ZM2082.48 89.46C2086.95 87.8968 2091.22 86.6925 2095.28 85.8472C2099.35 85.0018 2103.22 84.5791 2106.89 84.5791C2107.88 84.5791 2108.83 84.619 2109.76 84.6987C2110.68 84.7785 2111.59 84.8662 2112.49 84.9619C2112.33 81.8675 2112.2 78.7811 2112.1 75.7026C2112.01 72.6242 2111.93 69.5378 2111.87 66.4434C2113.43 66.6348 2115.04 66.7305 2116.7 66.7305C2120.05 66.7305 2123.3 66.2679 2126.46 65.3428C2128.06 69.0433 2129.35 72.8156 2130.34 76.6597C2131.32 80.5037 2131.99 84.4515 2132.35 88.5029C2136.94 86.0146 2141.62 84.0527 2146.39 82.6172C2151.16 81.1816 2156.08 80.2565 2161.15 79.8418C2154.1 72.6003 2148.14 64.6729 2143.26 56.0596C2145.55 54.0498 2147.67 51.8327 2149.6 49.4082C2151.53 46.9837 2153.23 44.4316 2154.72 41.752C2156.2 39.0723 2157.44 36.2969 2158.42 33.4258C2159.41 30.5547 2160.13 27.6676 2160.58 24.7646C2159.78 25.4027 2158.99 25.9849 2158.21 26.5112C2157.43 27.0376 2156.62 27.54 2155.79 28.0186V27.8271C2155.22 24.988 2154.08 22.5715 2152.37 20.5776C2150.66 18.5838 2148.62 16.909 2146.22 15.5532C2143.83 14.1974 2141.2 13.1367 2138.33 12.3711C2135.46 11.6055 2132.56 11.0233 2129.64 10.6245C2126.72 10.2257 2123.88 9.97054 2121.12 9.85889C2118.37 9.74723 2115.9 9.69141 2113.73 9.69141C2109.11 9.69141 2103.83 9.89876 2097.92 10.3135C2092 10.7282 2085.32 11.5098 2077.89 12.6582C2079.17 15.0189 2080.16 17.4753 2080.86 20.0273C2081.56 22.5794 2081.91 25.2432 2081.91 28.0186C2081.91 29.6455 2081.78 31.3044 2081.53 32.9951C2081.27 34.6859 2080.91 36.4245 2080.43 38.2109C2082.21 37.3177 2084.06 36.5042 2085.98 35.7705C2087.89 35.0368 2089.82 34.3509 2091.77 33.7129V36.5361C2091.77 38.9606 2091.7 41.3532 2091.58 43.7139C2091.45 46.0745 2091.26 48.4512 2091 50.8438C2089.09 50.4609 2087.2 50.0462 2085.33 49.5996C2083.47 49.153 2081.67 48.6585 2079.95 48.1162C2080.81 49.2327 2082.11 50.6523 2083.85 52.375C2085.59 54.0977 2087.72 55.8203 2090.24 57.543C2089.44 62.9661 2088.39 68.3255 2087.1 73.6211C2085.81 78.9167 2084.27 84.1963 2082.48 89.46ZM2112.01 40.46C2111.91 44.2562 2111.87 48.0524 2111.87 51.8486C2114.35 51.5296 2116.68 50.9873 2118.85 50.2217C2121.02 49.4561 2122.94 48.4033 2124.62 47.0635C2126.29 45.7236 2127.68 44.0728 2128.78 42.1108C2129.88 40.1489 2130.59 37.8122 2130.91 35.1006C2132.28 34.8454 2133.65 34.6061 2135 34.3828C2136.36 34.1595 2137.74 33.9043 2139.14 33.6172V33.5215C2138.41 32.6283 2137.64 31.8387 2136.84 31.1528C2136.05 30.467 2135.12 29.8927 2134.07 29.4302C2133.02 28.9676 2131.77 28.6167 2130.34 28.3774C2128.9 28.1382 2127.16 28.0186 2125.12 28.0186C2123.43 28.0186 2121.55 28.0983 2119.47 28.2578C2117.4 28.4173 2115.04 28.6725 2112.39 29.0234C2112.23 32.8516 2112.1 36.6637 2112.01 40.46ZM2319.79 86.7324C2317.87 86.7324 2316.07 86.868 2314.38 87.1392C2312.69 87.4103 2311.12 87.9606 2309.69 88.79C2308.51 84.4196 2307.26 80.4559 2305.93 76.8989C2304.61 73.342 2303.39 70.3034 2302.27 67.7832C2300.96 64.8483 2299.66 62.2165 2298.35 59.8877C2302.14 61.8656 2305.95 63.4287 2309.76 64.5771C2313.57 65.7256 2317.2 66.6108 2320.65 67.2329C2324.09 67.855 2327.23 68.2537 2330.07 68.4292C2332.91 68.6047 2335.27 68.6924 2337.16 68.6924C2339.26 68.6924 2341.38 68.5648 2343.52 68.3096C2345.66 68.0544 2347.81 67.6556 2349.98 67.1133C2349.44 66.3796 2348.88 65.7256 2348.3 65.1514C2347.73 64.5771 2347.2 64.1146 2346.73 63.7637C2346.15 63.349 2345.59 62.998 2345.05 62.7109C2344.13 62.2643 2342.87 61.8257 2341.29 61.395C2339.72 60.9644 2337.96 60.4938 2336.03 59.9834C2334.1 59.473 2332.04 58.9147 2329.86 58.3086C2327.67 57.7025 2325.5 57.0007 2323.35 56.2031C2321.2 55.4056 2319.14 54.4964 2317.18 53.4756C2315.22 52.4548 2313.47 51.2904 2311.94 49.9824C2310.73 48.9297 2309.72 47.7892 2308.92 46.561C2308.13 45.3328 2307.5 44.0728 2307.03 42.7808C2306.57 41.4888 2306.24 40.1968 2306.03 38.9048C2305.82 37.6128 2305.7 36.3766 2305.67 35.1963C2304.55 35.6429 2303.55 36.0736 2302.65 36.4883C2301.76 36.903 2301 37.2539 2300.36 37.541L2298.44 38.498C2299.59 35.0527 2301.19 32.0062 2303.25 29.3584C2305.31 26.7106 2307.62 24.4137 2310.19 22.4678C2312.76 20.5218 2315.5 18.8789 2318.42 17.5391C2321.34 16.1992 2324.24 15.0986 2327.11 14.2373C2333.81 12.2275 2341.06 11.0791 2348.88 10.792C2351.3 10.792 2353.89 10.6963 2356.63 10.5049C2358.99 10.3454 2361.69 10.0981 2364.72 9.76318C2367.75 9.42822 2370.94 8.94173 2374.29 8.30371C2373.27 9.83496 2372.45 11.4938 2371.82 13.2803C2371.2 15.0667 2370.72 16.8691 2370.36 18.6875C2370.01 20.5059 2369.77 22.3003 2369.65 24.0708C2369.52 25.8413 2369.46 27.4603 2369.46 28.9277C2369.46 29.9167 2369.47 30.8099 2369.5 31.6074C2369.53 32.4049 2369.58 33.0908 2369.65 33.665C2369.71 34.335 2369.79 34.9411 2369.89 35.4834C2364.3 32.9632 2358.86 31.2007 2353.57 30.1958C2348.27 29.1909 2343.15 28.6885 2338.21 28.6885C2336.52 28.6885 2334.91 28.7443 2333.38 28.856C2331.84 28.9676 2330.31 29.1191 2328.78 29.3105C2329.13 30.8418 2329.76 32.1178 2330.67 33.1387C2331.58 34.1595 2332.5 34.9889 2333.42 35.627C2334.51 36.3607 2335.67 36.9349 2336.92 37.3496C2339.34 38.1152 2341.97 39.0483 2344.81 40.1489C2347.65 41.2495 2350.49 42.6133 2353.33 44.2402C2356.17 45.8672 2358.9 47.7812 2361.51 49.9824C2364.13 52.1836 2366.42 54.7357 2368.4 57.6387C2369.61 56.6178 2370.79 55.4933 2371.94 54.2651C2373.09 53.0369 2374.16 51.7051 2375.15 50.2695C2375.25 50.9714 2375.3 51.6572 2375.32 52.3271C2375.33 52.9971 2375.34 53.651 2375.34 54.2891C2375.34 57.6387 2374.82 60.7809 2373.79 63.7158C2372.75 66.6507 2371.32 69.3464 2369.5 71.8027C2367.68 74.2591 2365.54 76.4603 2363.07 78.4062C2360.59 80.3522 2357.91 81.9951 2355 83.335C2352.1 84.6748 2349.06 85.7036 2345.89 86.4214C2342.71 87.1392 2339.53 87.498 2336.34 87.498C2333.34 87.498 2330.46 87.3704 2327.68 87.1152C2324.91 86.86 2322.27 86.7324 2319.79 86.7324Z" fill="white"/>
</svg>
