<svg xmlns="http://www.w3.org/2000/svg" viewBox="0 0 200 150" width="200" height="150">
<style>
    .line{
        stroke-dashoffset: 2277;
        stroke-dasharray: 2277;
        animation: line 2s infinite ease-in;
        transform: translateX(-50%);
    }
    @keyframes line {
        0% {
            stroke-dashoffset: 2277;
            stroke-dasharray: 2277;
            opacity:1;
        }
        95% {
            stroke-dasharray: 2277;
            stroke-dashoffset: 0;
            opacity:1;
        }
        100%{
            stroke-dasharray: 2277;
            stroke-dashoffset: 0;
            opacity: 0;
        }
    }
</style><path class='line' fill-opacity="0" stroke="#c32018" stroke-opacity="1" stroke-width="1" d=" M180.35000610351562,18.635000228881836 C187.52200317382812,27.829999923706055 196.48500061035156,35.87300109863281 201.86300659179688,46.21900177001953 C218.71299743652344,78.62799835205078 186.02499389648438,73.84600067138672 162.79800415039062,76.81199645996094 C158.02999877929688,77.4209976196289 153.15699768066406,78.23600006103516 148.3979949951172,77.56400299072266 C147.46099853515625,77.43199920654297 147.2519989013672,75.13899993896484 148.11000061035156,74.73799896240234 C173.5800018310547,62.82400131225586 199.4409942626953,51.709999084472656 225.61900329589844,41.44300079345703 C228.48300170898438,40.31999969482422 233.5399932861328,43.527000427246094 234.822998046875,40.72999954223633 C236.06100463867188,38.029998779296875 231.4600067138672,35.68600082397461 229.0679931640625,33.92499923706055 C224.22799682617188,30.363000869750977 218.84800720214844,27.54800033569336 213.41700744628906,24.975000381469727 C210.31900024414062,23.506999969482422 164.36900329589844,-0.9909999966621399 162.4010009765625,19.26799964904785 C158.63099670410156,58.09199905395508 203.57400512695312,87.77799987792969 227.42300415039062,111.52799987792969 C231.66400146484375,115.75199890136719 235.822998046875,120.11399841308594 239.36199951171875,124.94100189208984 C240.0489959716797,125.87799835205078 240.75100708007812,127.73899841308594 239.7949981689453,128.3990020751953 C232.8939971923828,133.16099548339844 212.20599365234375,126.91500091552734 210.08399963378906,126.23400115966797 C183.51600646972656,117.70600128173828 169.26199340820312,107.12100219726562 146.5919952392578,89.26399993896484 C145.13999938964844,88.12000274658203 108.9990005493164,55.5880012512207 124.38099670410156,46.68199920654297 C137.78900146484375,38.91899871826172 157.08799743652344,43.145999908447266 171.32200622558594,45.98099899291992 C201.5050048828125,51.99399948120117 231.14700317382812,61.3390007019043 261.74700927734375,64.63099670410156 C274.4989929199219,66.00299835205078 237.8730010986328,55.066001892089844 225.4669952392578,51.805999755859375 C209.08299255371094,47.5 192.32699584960938,44.67900085449219 175.6009979248047,41.99300003051758 C170.2239990234375,41.12900161743164 164.72900390625,41.12699890136719 159.2830047607422,41.176998138427734 C155.98500061035156,41.207000732421875 151.4929962158203,39.64799880981445 149.44200134277344,42.233001708984375 C147.84800720214844,44.24399948120117 151.08099365234375,47.38999938964844 153.0489959716797,49.0369987487793 C163.0469970703125,57.402000427246094 173.41900634765625,65.51899719238281 184.822998046875,71.83499908447266 C216.52000427246094,89.38999938964844 251.03500366210938,101.71299743652344 282.0329895019531,120.4749984741211 C289.1499938964844,124.78199768066406 265.5039978027344,118.14399719238281 257.51300048828125,115.83200073242188 C236.68099975585938,109.80500030517578 216.08599853515625,102.92900085449219 195.71299743652344,95.49700164794922 C189.9219970703125,93.38400268554688 184.4949951171875,90.33799743652344 179.16200256347656,87.24800109863281 C177.86099243164062,86.49400329589844 176.781005859375,85.3270034790039 175.9720001220703,84.05899810791016 C175.49000549316406,83.302001953125 175.1649932861328,82.27200317382812 175.44400024414062,81.41899871826172 C178.01199340820312,73.60399627685547 199.10400390625,68.77100372314453 202.33999633789062,68.13200378417969 C224.531005859375,63.750999450683594 247.76199340820312,64.14800262451172 269.33599853515625,57.35300064086914 C277.2030029296875,54.875 252.96600341796875,55.138999938964844 244.72500610351562,54.78099822998047 C230.58099365234375,54.16699981689453 215.8990020751953,50.66600036621094 202.2530059814453,54.43899917602539 C198.48899841308594,55.479000091552734 204.51400756835938,62.007999420166016 206.55799865722656,65.33599853515625 C217.11000061035156,82.5199966430664 234.16200256347656,97.06700134277344 251.77699279785156,106.69200134277344 C256.1260070800781,109.06800079345703 261.9020080566406,112.43000030517578 264.9320068359375,106.86199951171875 C276.8819885253906,84.9010009765625 259.7850036621094,28.226999282836914 226.77000427246094,45.319000244140625 C210.5290069580078,53.72700119018555 207.23500061035156,57.94900131225586 199.3679962158203,74.42900085449219 C192.69000244140625,88.41899871826172 192.32200622558594,94.41899871826172 192.61500549316406,109.6760025024414 C192.62399291992188,110.1719970703125 193.3090057373047,110.96299743652344 193.71499633789062,110.67900085449219 C193.71499633789062,110.67900085449219 209.29800415039062,101.50199890136719 209.29800415039062,101.50199890136719 C214.93299865722656,97.5530014038086 220.2310028076172,93.12100219726562 225.33999633789062,88.51300048828125 C233.27000427246094,81.36000061035156 240.86900329589844,73.84200286865234 248.37899780273438,66.25 C249.5229949951172,65.09400177001953 251.12399291992188,63.93299865722656 251.25999450683594,62.3120002746582 C251.33900451660156,61.36800003051758 249.41600036621094,62.85499954223633 248.61900329589844,63.36899948120117 C229.9810028076172,75.39900207519531 212,88.46399688720703 193,99.91500091552734 C183.62600708007812,105.56600189208984 173.67799377441406,110.26100158691406 163.6269989013672,114.59600067138672 C156.91200256347656,117.49299621582031 146.25399780273438,128.01800537109375 142.82000732421875,121.56099700927734 C135.55799865722656,107.90499877929688 141.82699584960938,90.60600280761719 142.6540069580078,75.16100311279297 C143.906005859375,51.77000045776367 151.57699584960938,33.38999938964844 170.29800415039062,18.798999786376953 C175.70799255371094,14.581999778747559 181.58799743652344,10.842000007629395 187.87600708007812,8.098999977111816 C193.61399841308594,5.5960001945495605 203.02099609375,-2.2809998989105225 206.01300048828125,3.2190001010894775 C213.86300659179688,17.650999069213867 198.8979949951172,56.349998474121094 180.9600067138672,60.24800109863281 C153.90499877929688,66.12699890136719 109.51499938964844,56.737998962402344 89.71700286865234,35.22800064086914 C88.88400268554688,34.321998596191406 88.4739990234375,33 88.41899871826172,31.770000457763672 C88.11599731445312,24.68400001525879 123.875,35.512001037597656 125.60399627685547,36.12099838256836 C158.61700439453125,47.74300003051758 191.3300018310547,63.470001220703125 220.9320068359375,82.13600158691406 C227.34100341796875,86.177001953125 232.08999633789062,92.69499969482422 238.84300231933594,96.12899780273438 C242.6179962158203,98.04900360107422 251.25999450683594,96.12899780273438 253.68800354003906,87.24800109863281"></path></svg>