<svg width="865" height="110" viewBox="0 0 865 110" fill="none" xmlns="http://www.w3.org/2000/svg">
<path fill-rule="evenodd" clip-rule="evenodd" d="M64.9737 41.8001C61.7206 43.9985 56.9505 45.1014 50.6562 45.1014H25.3262V19.1732H50.6562C56.9505 19.1732 61.7206 20.2464 64.9737 22.3929C68.2231 24.5431 69.8516 27.7627 69.8516 32.0556C69.8516 36.356 68.2231 39.6016 64.9737 41.8001ZM95.65 62.7781C92.0845 58.1175 87.1546 54.7939 80.8639 52.7997C85.4778 50.3896 89.0693 47.0919 91.6384 42.8993C94.2074 38.7104 95.4938 33.9421 95.4938 28.602C95.4938 19.8008 91.8986 12.8341 84.7194 7.70197C77.5327 2.5698 67.2268 0 53.8052 0H0V63.6434H55.0618C68.5912 63.6434 75.3578 68.1999 75.3578 77.3131C75.3578 81.9253 73.6513 85.327 70.242 87.5254C66.8327 89.7276 61.7726 90.8268 55.0618 90.8268H0V110H56.9505C71.3201 110 82.2507 107.408 89.7534 102.22C97.2487 97.0359 101 89.6236 101 79.9868C101 73.1761 99.2154 67.4424 95.65 62.7781ZM199 110H285V91H199V110ZM199 64V0H283V20.5429H224.566V44.5625H276.17V64H199ZM386 91V110H411.606V91H386ZM411.606 64H386V0H433.891C443.692 0 452.197 1.62655 459.418 4.87222C466.634 8.1216 472.193 12.7302 476.096 18.7016C479.992 24.673 481.942 31.7437 481.942 39.9136C481.942 48.0872 479.962 55.1355 476.018 61.0513C475.333 62.0758 474.599 63.0587 473.815 64H433.891V59.0051C440.853 58.7971 446.269 57.1929 450.016 54.0586C454.02 50.7052 456.019 45.9927 456.019 39.9136C456.019 33.7342 454.02 28.9956 450.016 25.6943C446.008 22.3929 440.158 20.7441 432.467 20.7441H411.606V64ZM442.478 91L456.493 110H484L470.662 91H442.478ZM581 91V110H606V91H581ZM645.227 91L661.077 110H682V91H645.227ZM813.153 64H845H864.902C860.268 51.9939 848.601 43.4571 834.907 43.4571H813.153C806.796 43.4571 801.643 38.3261 801.643 32C801.643 25.6739 806.796 20.5429 813.153 20.5429H862.246H865V0H813.153C795.395 0 781 14.3251 781 32C781 49.6711 795.395 64 813.153 64ZM845 91H782V110H835.642C848.794 110 860.075 102.176 865 91H863.398H845ZM682 64H656.827V0H682V64ZM654.544 64L602.08 0H581V14.0039L622.705 64H654.544Z" fill="white"/>
<path d="M233.528 70C235.314 70 236.714 70.4267 237.728 71.28C238.741 72.1333 239.248 73.3067 239.248 74.8C239.248 76.2933 238.741 77.4667 237.728 78.32C236.714 79.16 235.314 79.58 233.528 79.58H229.768V84H228.288V70H233.528ZM233.488 78.28C234.874 78.28 235.934 77.98 236.668 77.38C237.401 76.7667 237.768 75.9067 237.768 74.8C237.768 73.6667 237.401 72.8 236.668 72.2C235.934 71.5867 234.874 71.28 233.488 71.28H229.768V78.28H233.488ZM273.703 73.4C275.023 73.4 276.07 73.7867 276.843 74.56C277.63 75.32 278.023 76.4333 278.023 77.9V84H276.603V78.04C276.603 76.9467 276.33 76.1133 275.783 75.54C275.237 74.9667 274.457 74.68 273.443 74.68C272.31 74.68 271.41 75.02 270.743 75.7C270.09 76.3667 269.763 77.2933 269.763 78.48V84H268.343V69.16H269.763V75.32C270.15 74.7067 270.683 74.2333 271.363 73.9C272.043 73.5667 272.823 73.4 273.703 73.4ZM312.218 84.1C311.204 84.1 310.291 83.8733 309.478 83.42C308.664 82.9533 308.024 82.3133 307.558 81.5C307.091 80.6867 306.858 79.7667 306.858 78.74C306.858 77.7133 307.091 76.7933 307.558 75.98C308.024 75.1667 308.664 74.5333 309.478 74.08C310.291 73.6267 311.204 73.4 312.218 73.4C313.231 73.4 314.144 73.6267 314.958 74.08C315.771 74.5333 316.404 75.1667 316.858 75.98C317.324 76.7933 317.558 77.7133 317.558 78.74C317.558 79.7667 317.324 80.6867 316.858 81.5C316.404 82.3133 315.771 82.9533 314.958 83.42C314.144 83.8733 313.231 84.1 312.218 84.1ZM312.218 82.84C312.964 82.84 313.631 82.6733 314.218 82.34C314.818 81.9933 315.284 81.5067 315.618 80.88C315.951 80.2533 316.118 79.54 316.118 78.74C316.118 77.94 315.951 77.2267 315.618 76.6C315.284 75.9733 314.818 75.4933 314.218 75.16C313.631 74.8133 312.964 74.64 312.218 74.64C311.471 74.64 310.798 74.8133 310.198 75.16C309.611 75.4933 309.144 75.9733 308.798 76.6C308.464 77.2267 308.298 77.94 308.298 78.74C308.298 79.54 308.464 80.2533 308.798 80.88C309.144 81.5067 309.611 81.9933 310.198 82.34C310.798 82.6733 311.471 82.84 312.218 82.84ZM351.997 83.36C351.73 83.6 351.397 83.7867 350.997 83.92C350.61 84.04 350.203 84.1 349.777 84.1C348.79 84.1 348.03 83.8333 347.497 83.3C346.963 82.7667 346.697 82.0133 346.697 81.04V74.68H344.817V73.48H346.697V71.18H348.117V73.48H351.317V74.68H348.117V80.96C348.117 81.5867 348.27 82.0667 348.577 82.4C348.897 82.72 349.35 82.88 349.937 82.88C350.23 82.88 350.51 82.8333 350.777 82.74C351.057 82.6467 351.297 82.5133 351.497 82.34L351.997 83.36ZM384.51 84.1C383.497 84.1 382.584 83.8733 381.77 83.42C380.957 82.9533 380.317 82.3133 379.85 81.5C379.384 80.6867 379.15 79.7667 379.15 78.74C379.15 77.7133 379.384 76.7933 379.85 75.98C380.317 75.1667 380.957 74.5333 381.77 74.08C382.584 73.6267 383.497 73.4 384.51 73.4C385.524 73.4 386.437 73.6267 387.25 74.08C388.064 74.5333 388.697 75.1667 389.15 75.98C389.617 76.7933 389.85 77.7133 389.85 78.74C389.85 79.7667 389.617 80.6867 389.15 81.5C388.697 82.3133 388.064 82.9533 387.25 83.42C386.437 83.8733 385.524 84.1 384.51 84.1ZM384.51 82.84C385.257 82.84 385.924 82.6733 386.51 82.34C387.11 81.9933 387.577 81.5067 387.91 80.88C388.244 80.2533 388.41 79.54 388.41 78.74C388.41 77.94 388.244 77.2267 387.91 76.6C387.577 75.9733 387.11 75.4933 386.51 75.16C385.924 74.8133 385.257 74.64 384.51 74.64C383.764 74.64 383.09 74.8133 382.49 75.16C381.904 75.4933 381.437 75.9733 381.09 76.6C380.757 77.2267 380.59 77.94 380.59 78.74C380.59 79.54 380.757 80.2533 381.09 80.88C381.437 81.5067 381.904 81.9933 382.49 82.34C383.09 82.6733 383.764 82.84 384.51 82.84ZM460.304 84.22L458.364 82.22C457.177 83.4867 455.617 84.12 453.684 84.12C452.777 84.12 451.964 83.9733 451.244 83.68C450.537 83.3733 449.984 82.9533 449.584 82.42C449.184 81.8733 448.984 81.2533 448.984 80.56C448.984 79.72 449.251 78.9667 449.784 78.3C450.317 77.6333 451.224 76.9333 452.504 76.2C451.837 75.5067 451.377 74.92 451.124 74.44C450.871 73.9467 450.744 73.4267 450.744 72.88C450.744 71.9867 451.064 71.2667 451.704 70.72C452.344 70.1733 453.204 69.9 454.284 69.9C455.284 69.9 456.077 70.1467 456.664 70.64C457.251 71.1333 457.544 71.8133 457.544 72.68C457.544 73.3733 457.311 74 456.844 74.56C456.377 75.1067 455.571 75.7133 454.424 76.38L458.264 80.34C458.691 79.58 459.004 78.68 459.204 77.64L460.364 78C460.111 79.2533 459.697 80.3267 459.124 81.22L461.124 83.28L460.304 84.22ZM454.284 70.96C453.591 70.96 453.044 71.1333 452.644 71.48C452.257 71.8267 452.064 72.2867 452.064 72.86C452.064 73.2733 452.171 73.6667 452.384 74.04C452.597 74.4133 453.017 74.92 453.644 75.56C454.657 74.9733 455.357 74.4733 455.744 74.06C456.131 73.6467 456.324 73.1933 456.324 72.7C456.324 72.1667 456.144 71.7467 455.784 71.44C455.424 71.12 454.924 70.96 454.284 70.96ZM453.764 82.94C455.311 82.94 456.564 82.4133 457.524 81.36L453.304 77.02C452.197 77.6467 451.431 78.2133 451.004 78.72C450.591 79.2267 450.384 79.7933 450.384 80.42C450.384 81.18 450.691 81.7933 451.304 82.26C451.931 82.7133 452.751 82.94 453.764 82.94ZM529.437 73.48L524.757 84H523.297L518.637 73.48H520.117L524.057 82.44L528.037 73.48H529.437ZM557.437 73.48H558.857V84H557.437V73.48ZM558.157 71.18C557.864 71.18 557.617 71.08 557.417 70.88C557.217 70.68 557.117 70.44 557.117 70.16C557.117 69.8933 557.217 69.66 557.417 69.46C557.617 69.26 557.864 69.16 558.157 69.16C558.45 69.16 558.697 69.26 558.897 69.46C559.097 69.6467 559.197 69.8733 559.197 70.14C559.197 70.4333 559.097 70.68 558.897 70.88C558.697 71.08 558.45 71.18 558.157 71.18ZM598.408 69.16V84H597.048V81.92C596.621 82.6267 596.055 83.1667 595.348 83.54C594.655 83.9133 593.868 84.1 592.988 84.1C592.001 84.1 591.108 83.8733 590.308 83.42C589.508 82.9667 588.881 82.3333 588.428 81.52C587.975 80.7067 587.748 79.78 587.748 78.74C587.748 77.7 587.975 76.7733 588.428 75.96C588.881 75.1467 589.508 74.52 590.308 74.08C591.108 73.6267 592.001 73.4 592.988 73.4C593.841 73.4 594.608 73.58 595.288 73.94C595.981 74.2867 596.548 74.8 596.988 75.48V69.16H598.408ZM593.108 82.84C593.841 82.84 594.501 82.6733 595.088 82.34C595.688 81.9933 596.155 81.5067 596.488 80.88C596.835 80.2533 597.008 79.54 597.008 78.74C597.008 77.94 596.835 77.2267 596.488 76.6C596.155 75.9733 595.688 75.4933 595.088 75.16C594.501 74.8133 593.841 74.64 593.108 74.64C592.361 74.64 591.688 74.8133 591.088 75.16C590.501 75.4933 590.035 75.9733 589.688 76.6C589.355 77.2267 589.188 77.94 589.188 78.74C589.188 79.54 589.355 80.2533 589.688 80.88C590.035 81.5067 590.501 81.9933 591.088 82.34C591.688 82.6733 592.361 82.84 593.108 82.84ZM637.523 79.18H628.723C628.803 80.2733 629.223 81.16 629.983 81.84C630.743 82.5067 631.703 82.84 632.863 82.84C633.516 82.84 634.116 82.7267 634.663 82.5C635.209 82.26 635.683 81.9133 636.083 81.46L636.883 82.38C636.416 82.94 635.829 83.3667 635.123 83.66C634.429 83.9533 633.663 84.1 632.823 84.1C631.743 84.1 630.783 83.8733 629.943 83.42C629.116 82.9533 628.469 82.3133 628.003 81.5C627.536 80.6867 627.303 79.7667 627.303 78.74C627.303 77.7133 627.523 76.7933 627.963 75.98C628.416 75.1667 629.029 74.5333 629.803 74.08C630.589 73.6267 631.469 73.4 632.443 73.4C633.416 73.4 634.289 73.6267 635.063 74.08C635.836 74.5333 636.443 75.1667 636.883 75.98C637.323 76.78 637.543 77.7 637.543 78.74L637.523 79.18ZM632.443 74.62C631.429 74.62 630.576 74.9467 629.883 75.6C629.203 76.24 628.816 77.08 628.723 78.12H636.183C636.089 77.08 635.696 76.24 635.003 75.6C634.323 74.9467 633.469 74.62 632.443 74.62ZM670.733 84.1C669.72 84.1 668.806 83.8733 667.993 83.42C667.18 82.9533 666.54 82.3133 666.073 81.5C665.606 80.6867 665.373 79.7667 665.373 78.74C665.373 77.7133 665.606 76.7933 666.073 75.98C666.54 75.1667 667.18 74.5333 667.993 74.08C668.806 73.6267 669.72 73.4 670.733 73.4C671.746 73.4 672.66 73.6267 673.473 74.08C674.286 74.5333 674.92 75.1667 675.373 75.98C675.84 76.7933 676.073 77.7133 676.073 78.74C676.073 79.7667 675.84 80.6867 675.373 81.5C674.92 82.3133 674.286 82.9533 673.473 83.42C672.66 83.8733 671.746 84.1 670.733 84.1ZM670.733 82.84C671.48 82.84 672.146 82.6733 672.733 82.34C673.333 81.9933 673.8 81.5067 674.133 80.88C674.466 80.2533 674.633 79.54 674.633 78.74C674.633 77.94 674.466 77.2267 674.133 76.6C673.8 75.9733 673.333 75.4933 672.733 75.16C672.146 74.8133 671.48 74.64 670.733 74.64C669.986 74.64 669.313 74.8133 668.713 75.16C668.126 75.4933 667.66 75.9733 667.313 76.6C666.98 77.2267 666.813 77.94 666.813 78.74C666.813 79.54 666.98 80.2533 667.313 80.88C667.66 81.5067 668.126 81.9933 668.713 82.34C669.313 82.6733 669.986 82.84 670.733 82.84Z" fill="white"/>
</svg>
