<svg width="1313" height="119" viewBox="0 0 1313 119" fill="none" xmlns="http://www.w3.org/2000/svg">
<path opacity="0.29056" d="M230.487 45.2765C367.225 31.2567 509.228 40.259 639.16 70.6016C675.993 79.2184 711.772 89.5465 746.206 101.502L746.71 98.9975C696.757 108.475 644.582 111.381 592.609 111.847C540.016 112.341 487.337 111.089 434.758 109.298C326.979 105.633 219.596 98.2471 113.087 87.1712C86.5233 84.4111 60.0225 81.4165 33.5843 78.1872C25.1769 77.1636 8.7083 75.939 6.45865 69.2764C3.57447 60.9596 25.9268 57.2764 34.637 55.0738C80.8847 43.3663 128.877 34.6108 177.533 27.9483C275.783 14.5043 376.541 9.27659 476.608 5.09991C561.893 1.54471 655.859 -0.109512 732.477 27.7655C742.046 31.2455 751.203 35.1613 759.877 39.4821L761.405 37.1424C676.567 42.2513 591.859 47.3145 506.834 50.0472C422.198 52.789 337.23 53.1911 252.68 48.9048C204.185 46.5 155.946 42.344 108.198 36.457V39.0983C208.538 12.9689 318.742 9.89807 425.745 14.1204C540.752 18.6901 655.498 29.4106 768.198 44.4813C828.26 52.524 888.54 62.2756 942.603 81.2763V78.9458C891.438 96.9503 831.476 100.761 774.312 104.673C711.783 108.95 649.009 111.582 586.177 113.264C460.831 116.615 335.399 116.801 209.879 113.822C174.404 112.999 138.948 111.93 103.511 110.614C69.6653 109.352 35.3148 108.292 3.21395 100.78V103.421C151.749 79.5216 304.826 70.3731 457.572 66.6717C613.015 62.8971 769.063 62.824 924.448 67.7135C1012.1 70.4553 1099.62 75.025 1186.72 81.8612L1185.62 79.3022C1127.06 97.1788 1062.43 104.509 998.153 107.981C932.35 111.546 866.014 112.259 800.01 111.363C666.355 109.524 533.279 99.6455 402.571 81.8612C329.096 71.8626 256.517 59.3787 185.148 44.4631V47.1043C259.112 39.3085 334.778 40.6337 409.507 40.3047L635.122 39.2993L1086.35 37.2887C1160.83 36.9597 1241.35 33.8614 1309.15 56.9291L1310.25 54.3701C1189.47 63.0159 1067.81 62.1842 946.468 62.7417C885.583 63.0251 824.684 63.6557 763.915 66.0776C704.255 68.4447 645.274 73.2063 586.264 79.1834C518.702 86.0196 449.626 92.6091 381.488 84.9138C378.777 84.6031 377.608 87.2443 380.348 87.5551C439.085 94.1902 498.672 90.3974 557.206 84.8133C617.586 79.0646 677.534 72.8773 738.476 69.9344C860.448 64.0487 982.867 66.0685 1105.07 64.6701C1173.58 63.8842 1242.07 61.9923 1310.25 57.1119C1312.21 56.9748 1313.42 55.284 1311.34 54.562C1253.07 34.7388 1185.36 34.1447 1120.86 34.3915C1044.59 34.6961 968.316 35.0374 892.029 35.4151L435.58 37.444C351.939 37.8188 266.856 35.735 183.994 44.4631C181.744 44.7007 182.148 46.7205 183.994 47.1043C312.083 73.8414 443.913 92.7545 577.683 103.585C711.278 114.406 847.137 117.55 981.468 111.509C1052.13 108.329 1123.34 101.273 1187.69 81.6328C1189.85 80.9747 1188.46 79.2291 1186.59 79.0829C1030.25 66.8087 872.691 61.9832 715.23 61.4165C561.633 60.859 407.171 62.4401 254.339 72.8133C169.342 78.5894 84.8216 87.4362 1.97376 100.743C1.05586 100.92 0.428223 101.456 0.428223 102.064C0.428223 102.672 1.05586 103.208 1.97376 103.384C29.6186 109.855 59.0083 111.61 88.2105 112.734C120.061 114.007 151.936 115.055 183.835 115.878C247.854 117.578 311.907 118.473 375.993 118.565C503.632 118.748 631.747 116.554 758.795 108.402C821.555 104.381 888.496 101.09 944.695 81.2763C945.351 81.027 945.752 80.5777 945.752 80.0928C945.752 79.6079 945.351 79.1586 944.695 78.9092C896.976 62.1294 844.311 52.4051 791.314 44.8835C734.409 36.7677 676.899 30.1965 619.216 24.7769C562.08 19.3847 504.613 15.0984 447.002 12.3383C392.563 9.72442 337.792 8.68253 283.31 11.3604C222.959 14.2941 163.084 21.8523 106.958 36.4753C105.213 36.9231 104.621 38.8241 106.958 39.1165C190.224 49.4806 275.004 54.0137 359.799 54.754C445.242 55.5034 530.671 52.524 615.812 48.201C664.338 45.7334 712.807 42.8271 761.261 39.9117C762.891 39.8111 764.434 38.3854 762.79 37.572C690.974 1.74577 595.508 -1.27935 507.843 1.25225C457.255 2.72368 406.623 5.37409 356.208 8.46319C304.581 11.6345 253.055 15.7747 202.092 21.9894C150.48 28.2773 99.43 36.722 50.1539 48.3564C38.8046 51.0251 27.167 53.639 16.2648 56.9931C9.24187 59.1591 1.64208 62.7052 1.84397 68.1979C2.03144 73.2063 8.89577 76.3685 15.5726 78.1233C25.9268 80.8651 37.7808 81.5231 48.7406 82.8209C159.058 95.859 270.449 104.94 382.382 110.02C438.498 112.566 494.687 114.09 550.947 114.589C604.131 115.055 657.748 114.288 710.053 107.634C722.829 106.007 735.457 104.009 747.936 101.639C748.755 101.479 749.352 101.031 749.464 100.492C749.575 99.9537 749.181 99.4233 748.455 99.1346C624.935 56.4636 486.114 34.7412 345.45 36.0731C306.575 36.4676 267.797 38.6485 229.42 42.5986C226.68 42.882 227.833 45.5232 230.559 45.2399L230.487 45.2765Z" fill="#C32018"/>
</svg>
