<svg width="120" height="120" viewBox="0 0 120 120" fill="none" xmlns="http://www.w3.org/2000/svg">
<path fill-rule="evenodd" clip-rule="evenodd" d="M102.742 55.9722C102.742 77.3072 85.4455 94.6042 64.1095 94.6042C42.7735 94.6042 25.4775 77.3072 25.4775 55.9722C25.4775 34.6362 42.7735 17.3392 64.1095 17.3392C85.4455 17.3392 102.742 34.6362 102.742 55.9722" fill="#0F1114"/>
<path fill-rule="evenodd" clip-rule="evenodd" d="M102.742 55.9722C102.742 77.3072 85.4455 94.6042 64.1095 94.6042C42.7735 94.6042 25.4775 77.3072 25.4775 55.9722C25.4775 34.6362 42.7735 17.3392 64.1095 17.3392C85.4455 17.3392 102.742 34.6362 102.742 55.9722" fill="#0F1114"/>
<path fill-rule="evenodd" clip-rule="evenodd" d="M119.339 59.8995C119.339 59.8995 119.343 60.2015 119.349 60.7865C119.346 61.3725 119.387 62.2375 119.357 63.3725C119.286 65.6495 119.062 68.9905 118.238 73.1745C117.406 77.3485 115.914 82.3725 113.206 87.6975C111.849 90.3525 110.235 93.1025 108.254 95.8105C106.263 98.5085 103.95 101.192 101.282 103.734C98.606 106.267 95.583 108.663 92.23 110.801C88.877 112.94 85.176 114.787 81.211 116.251C80.221 116.616 79.2 116.921 78.186 117.262C77.156 117.555 76.117 117.838 75.071 118.115C74.011 118.338 72.949 118.587 71.871 118.775C71.331 118.862 70.789 118.949 70.245 119.035C69.702 119.126 69.157 119.213 68.606 119.262C64.215 119.795 59.674 119.851 55.13 119.388C52.84 119.172 50.573 118.771 48.301 118.298C47.174 118.023 46.042 117.752 44.917 117.445C43.803 117.099 42.665 116.817 41.567 116.402C37.139 114.859 32.789 112.889 28.748 110.325L27.234 109.36C26.727 109.041 26.25 108.676 25.756 108.336C25.272 107.982 24.764 107.657 24.296 107.28L22.872 106.171C22.387 105.813 21.936 105.414 21.476 105.023L20.101 103.845L18.776 102.605L18.114 101.984L17.482 101.333C14.063 97.9005 11.005 94.0565 8.511 89.8575C3.405 81.5225 0.507 71.8235 0.081 62.1545L0.015 60.3425L0 59.8605L0.008 59.4175L0.025 58.5295L0.061 56.7555L0.186 54.9405C0.344 52.5205 0.707 50.1715 1.131 47.8285C2.059 43.1655 3.533 38.6705 5.45 34.4625C7.347 30.2395 9.777 26.3535 12.513 22.8405C12.856 22.4025 13.199 21.9665 13.54 21.5305C13.902 21.1105 14.263 20.6925 14.622 20.2755C15.328 19.4295 16.086 18.6395 16.843 17.8575C18.358 16.2935 19.962 14.8595 21.585 13.4965C28.124 8.07651 35.454 4.46151 42.521 2.37051C46.059 1.31651 49.551 0.689512 52.884 0.331512C53.3 0.285512 53.714 0.240512 54.126 0.194512C54.539 0.169512 54.949 0.143512 55.356 0.118512C56.172 0.0785117 56.974 0.000511718 57.768 0.0145117C58.561 0.00951172 59.342 0.00451172 60.112 -0.000488281C60.88 0.0385117 61.636 0.0765117 62.38 0.114512C63.116 0.164512 63.831 0.165512 64.553 0.253512C65.274 0.338512 65.982 0.422512 66.678 0.504512C68.076 0.632512 69.386 0.916512 70.652 1.14751C71.924 1.34951 73.113 1.68851 74.256 1.97551C74.825 2.12551 75.387 2.25351 75.922 2.42051C76.454 2.59851 76.974 2.77251 77.479 2.94151C79.519 3.56351 81.25 4.35751 82.784 4.96351C84.274 5.67651 85.543 6.27351 86.548 6.80251C88.516 7.93351 89.567 8.53751 89.567 8.53751L89.441 8.75551C89.441 8.75551 88.36 8.22651 86.334 7.23251C85.305 6.77351 84.021 6.23951 82.514 5.61851C80.967 5.10051 79.224 4.40851 77.188 3.90351C76.683 3.76451 76.165 3.62151 75.634 3.47551C75.1 3.34051 74.543 3.24251 73.98 3.11451C72.85 2.87651 71.675 2.58951 70.422 2.44151C69.177 2.26351 67.883 2.03451 66.537 1.96551C65.866 1.91151 65.183 1.85651 64.487 1.80051C63.794 1.74151 63.057 1.76751 62.325 1.74651C61.6 1.73751 60.862 1.72851 60.114 1.71951C59.367 1.75351 58.609 1.78751 57.839 1.82151C57.069 1.83651 56.294 1.94751 55.507 2.01051C55.113 2.04651 54.717 2.08251 54.318 2.11851C53.921 2.17251 53.522 2.22851 53.12 2.28351C49.906 2.71751 46.558 3.42351 43.18 4.52251C36.422 6.67851 29.483 10.2905 23.269 15.5185C21.731 16.8395 20.211 18.2275 18.779 19.7365C18.421 20.1125 18.062 20.4905 17.701 20.8695C17.334 21.2435 17.008 21.6555 16.658 22.0475C16.314 22.4455 15.969 22.8445 15.622 23.2455C15.295 23.6605 14.967 24.0785 14.639 24.4965C12.019 27.8495 9.705 31.5625 7.82 35.5655C5.934 39.5665 4.463 43.8515 3.514 48.3125C3.079 50.5455 2.695 52.8285 2.518 55.1075L2.374 56.8185L2.315 58.5875L2.286 59.4745L2.272 59.9195L2.278 60.3255L2.303 62.0725C2.393 66.7365 3.105 71.4225 4.355 75.9835C4.946 78.2755 5.74 80.5155 6.606 82.7295L7.312 84.3675L7.667 85.1875L8.06 85.9885L8.846 87.5945L9.704 89.1625C12.016 93.3375 14.893 97.2005 18.156 100.678C21.422 104.158 25.168 107.152 29.155 109.672C37.155 114.689 46.312 117.533 55.232 118.033C59.706 118.315 64.112 118.096 68.348 117.424C68.879 117.358 69.403 117.254 69.926 117.147C70.448 117.044 70.969 116.941 71.488 116.838C72.525 116.62 73.538 116.331 74.556 116.094C75.56 115.806 76.557 115.513 77.543 115.211C78.514 114.862 79.49 114.549 80.438 114.179C88.046 111.273 94.613 107.01 99.816 102.171C102.428 99.7605 104.722 97.2215 106.7 94.6485C108.656 92.0575 110.326 89.4595 111.718 86.9155C113.132 84.3815 114.196 81.8755 115.123 79.5385C115.546 78.3545 115.985 77.2265 116.298 76.1155C116.47 75.5635 116.637 75.0245 116.801 74.4985C116.94 73.9655 117.075 73.4455 117.206 72.9405C118.246 68.8815 118.638 65.5885 118.851 63.3545C118.965 62.2325 118.986 61.3605 119.032 60.7785C119.068 60.1945 119.087 59.8935 119.087 59.8935L119.339 59.8995Z" fill="#C32018"/>
<path fill-rule="evenodd" clip-rule="evenodd" d="M66.1156 113.39C66.1156 113.39 65.8426 113.425 65.3146 113.491C64.7856 113.549 64.0086 113.676 62.9776 113.765C60.9116 113.937 57.8676 114.078 53.9986 113.765C50.1376 113.441 45.4376 112.606 40.3436 110.698C37.8026 109.739 35.1466 108.56 32.4946 107.041C29.8496 105.512 27.1856 103.691 24.6136 101.532C22.0516 99.3652 19.5756 96.8692 17.3006 94.0492C15.0246 91.2292 12.9806 88.0622 11.2576 84.6192C10.8286 83.7572 10.4496 82.8632 10.0406 81.9792C9.67262 81.0762 9.31162 80.1632 8.95762 79.2432C8.64962 78.3052 8.31962 77.3692 8.04162 76.4112C7.90962 75.9302 7.77762 75.4472 7.64462 74.9632C7.50962 74.4812 7.37762 73.9962 7.27762 73.5012C6.36162 69.5782 5.85962 65.4732 5.83062 61.3142C5.78962 57.1342 6.25362 52.9132 7.18862 48.7432C8.14462 44.5832 9.48962 40.4522 11.4036 36.5392L12.1236 35.0722C12.3606 34.5812 12.6426 34.1132 12.9006 33.6322C13.4096 32.6642 13.9966 31.7402 14.5676 30.8052C14.8436 30.3312 15.1586 29.8822 15.4656 29.4262L16.3906 28.0632L17.3786 26.7402L17.8736 26.0782L18.3986 25.4392C21.1546 21.9972 24.3206 18.8402 27.8656 16.1542C34.8856 10.6822 43.3716 7.06922 52.0836 5.70322L53.7176 5.45922L54.1546 5.39622L54.5566 5.35922L55.3596 5.28422L56.9686 5.13822L58.6256 5.06722C60.8346 4.96622 62.9986 5.05722 65.1636 5.20322C69.4806 5.57222 73.7016 6.45222 77.7076 7.76322C81.7236 9.05222 85.4906 10.8632 88.9476 12.9872C89.3796 13.2542 89.8096 13.5212 90.2386 13.7872C90.6546 14.0722 91.0706 14.3562 91.4846 14.6402C92.3216 15.1952 93.1136 15.8022 93.8986 16.4092C95.4666 17.6242 96.9276 18.9342 98.3246 20.2682C103.891 25.6492 107.897 31.9292 110.496 38.1202C111.802 41.2202 112.718 44.3212 113.373 47.3032C113.456 47.6762 113.538 48.0462 113.62 48.4142C113.684 48.7862 113.749 49.1552 113.812 49.5212C113.929 50.2552 114.078 50.9742 114.145 51.6952C114.227 52.4122 114.309 53.1192 114.389 53.8162C114.43 54.5152 114.47 55.2022 114.511 55.8802C114.538 56.5522 114.607 57.1972 114.599 57.8592C114.594 58.5212 114.588 59.1712 114.582 59.8092C114.604 61.0892 114.477 62.3022 114.393 63.4712C114.335 64.6422 114.147 65.7522 113.999 66.8152C113.921 67.3452 113.858 67.8662 113.761 68.3672C113.652 68.8662 113.546 69.3532 113.443 69.8272C113.08 71.7332 112.53 73.3792 112.133 74.8262C111.634 76.2442 111.22 77.4512 110.839 78.4112C110.007 80.3032 109.564 81.3112 109.564 81.3112L109.333 81.2112C109.333 81.2112 109.7 80.1802 110.388 78.2462C110.696 77.2692 111.046 76.0542 111.453 74.6302C111.762 73.1792 112.207 71.5342 112.454 69.6432C112.527 69.1732 112.603 68.6912 112.681 68.1972C112.747 67.7012 112.779 67.1872 112.837 66.6662C112.936 65.6212 113.076 64.5322 113.082 63.3862C113.115 62.2442 113.189 61.0522 113.114 59.8312C113.095 59.2202 113.075 58.5982 113.054 57.9652C113.036 57.3332 112.937 56.6692 112.883 56.0062C112.816 55.3502 112.749 54.6842 112.68 54.0072C112.574 53.3372 112.466 52.6562 112.356 51.9652C112.264 51.2722 112.085 50.5842 111.947 49.8802C111.876 49.5282 111.804 49.1742 111.73 48.8182C111.64 48.4662 111.55 48.1112 111.459 47.7542C110.741 44.8982 109.764 41.9492 108.43 39.0142C105.802 33.1352 101.841 27.2422 96.5016 22.1642C95.1536 20.9102 93.7506 19.6802 92.2446 18.5412C91.4926 17.9712 90.7446 17.3862 89.9476 16.8592C89.5536 16.5892 89.1606 16.3182 88.7636 16.0452C88.3566 15.7922 87.9476 15.5382 87.5376 15.2832C84.2506 13.2562 80.6706 11.5422 76.8726 10.2402C73.0766 8.93722 69.0646 8.03722 64.9456 7.62422C62.8886 7.45522 60.7886 7.33722 58.7166 7.40322L57.1616 7.44422L55.5546 7.56622L54.7516 7.62922L54.3476 7.66122L53.9836 7.70722L52.4106 7.90222C48.2106 8.44522 44.0526 9.55322 40.0586 11.1342C38.0496 11.8932 36.1056 12.8312 34.1916 13.8322L32.7816 14.6312L32.0766 15.0322L31.3916 15.4662L30.0196 16.3342L28.6876 17.2652C25.1456 19.7652 21.9416 22.7452 19.1236 26.0372C16.3046 29.3342 13.9736 33.0162 12.0966 36.8712C8.36662 44.6012 6.72662 53.1632 7.18762 61.2652C7.38962 65.3342 8.03862 69.2882 9.07562 73.0412C9.18962 73.5152 9.33662 73.9772 9.48662 74.4372C9.63362 74.8982 9.77962 75.3582 9.92562 75.8162C10.2266 76.7292 10.5916 77.6142 10.9086 78.5072C11.2706 79.3842 11.6356 80.2542 12.0086 81.1132C12.4216 81.9532 12.8026 82.8032 13.2316 83.6202C16.6216 90.1902 21.1206 95.6912 26.0066 99.9022C28.4396 102.02 30.9596 103.839 33.4786 105.368C36.0116 106.875 38.5216 108.127 40.9556 109.132C43.3836 110.158 45.7516 110.872 47.9536 111.48C49.0646 111.745 50.1256 112.03 51.1606 112.204C51.6766 112.304 52.1786 112.403 52.6696 112.498C53.1656 112.572 53.6476 112.643 54.1176 112.713C57.8866 113.256 60.9006 113.287 62.9396 113.262C63.9666 113.255 64.7576 113.19 65.2876 113.175C65.8196 113.151 66.0936 113.139 66.0936 113.139L66.1156 113.39Z" fill="#C32018"/>
<path fill-rule="evenodd" clip-rule="evenodd" d="M69.0791 98.7764C69.0791 98.7764 68.8511 98.8064 68.4101 98.8654C67.9671 98.9174 67.3181 99.0284 66.4571 99.1114C64.7261 99.2664 62.1791 99.3984 58.9331 99.1544C55.6971 98.9024 51.7531 98.2204 47.4751 96.6324C45.3411 95.8344 43.1081 94.8544 40.8811 93.5834C38.6591 92.3044 36.4191 90.7814 34.2571 88.9724C32.1031 87.1554 30.0231 85.0624 28.1101 82.6954C26.1971 80.3304 24.4821 77.6694 23.0391 74.7764C22.6811 74.0524 22.3641 73.3014 22.0211 72.5584C21.7141 71.7994 21.4141 71.0324 21.1171 70.2594C20.8601 69.4714 20.5881 68.6844 20.3571 67.8794C20.1501 67.0674 19.8931 66.2654 19.7251 65.4354C18.9691 62.1404 18.5611 58.6944 18.5511 55.2104C18.5301 51.7024 18.9361 48.1694 19.7251 44.6774C20.5371 41.1954 21.6631 37.7364 23.2661 34.4594C23.6641 33.6394 24.0611 32.8174 24.5191 32.0244C24.9441 31.2134 25.4341 30.4404 25.9131 29.6554C26.3871 28.8694 26.9231 28.1214 27.4351 27.3564L28.2611 26.2464C28.5311 25.8724 28.8131 25.5074 29.1131 25.1554C31.4131 22.2644 34.0581 19.6094 37.0221 17.3484C42.8951 12.7554 49.9941 9.64841 57.3151 8.51541L58.6871 8.31041L59.0581 8.25741L59.3941 8.22541L60.0671 8.16241L61.4111 8.03841L62.8071 7.97641C64.6651 7.88841 66.4791 7.96241 68.2991 8.08341C71.9261 8.38741 75.4731 9.12241 78.8401 10.2194C82.2171 11.2964 85.3821 12.8184 88.2871 14.6024C88.6491 14.8274 89.0111 15.0514 89.3711 15.2754C89.7221 15.5144 90.0701 15.7534 90.4181 15.9914C91.1221 16.4574 91.7881 16.9664 92.4471 17.4774C93.7641 18.5004 94.9891 19.6024 96.1621 20.7244C100.836 25.2494 104.19 30.5324 106.36 35.7354C107.451 38.3414 108.211 40.9464 108.755 43.4514C108.823 43.7644 108.892 44.0754 108.959 44.3844C109.012 44.6964 109.064 45.0064 109.117 45.3144C109.213 45.9304 109.336 46.5334 109.39 47.1384C109.456 47.7404 109.522 48.3344 109.588 48.9194C109.619 49.5054 109.651 50.0824 109.682 50.6514C109.703 51.2134 109.758 51.7514 109.75 52.3084C109.742 52.8634 109.735 53.4084 109.728 53.9454C109.743 55.0204 109.632 56.0364 109.558 57.0164C109.506 57.9974 109.344 58.9274 109.217 59.8184C109.148 60.2614 109.095 60.6974 109.01 61.1174C108.916 61.5354 108.825 61.9434 108.736 62.3394C108.424 63.9354 107.956 65.3124 107.616 66.5214C107.191 67.7064 106.839 68.7154 106.515 69.5174C105.808 71.0954 105.431 71.9374 105.431 71.9374L105.199 71.8364C105.199 71.8364 105.5 70.9724 106.064 69.3524C106.316 68.5334 106.603 67.5164 106.935 66.3254C107.187 65.1114 107.552 63.7354 107.747 62.1554C107.808 61.7634 107.868 61.3604 107.931 60.9474C107.983 60.5324 108.007 60.1044 108.054 59.6694C108.134 58.7964 108.246 57.8874 108.247 56.9314C108.27 55.9774 108.328 54.9834 108.261 53.9664C108.242 53.4584 108.223 52.9404 108.204 52.4134C108.187 51.8874 108.102 51.3304 108.054 50.7764C107.891 48.5794 107.419 46.2854 106.84 43.9024C106.235 41.5244 105.412 39.0704 104.295 36.6294C102.094 31.7384 98.7861 26.8424 94.3391 22.6204C93.2171 21.5784 92.0471 20.5564 90.7931 19.6094C90.1671 19.1364 89.5461 18.6484 88.8821 18.2104C88.5551 17.9854 88.2261 17.7594 87.8961 17.5334C87.5581 17.3224 87.2181 17.1104 86.8771 16.8994C84.1421 15.2114 81.1631 13.7854 78.0051 12.6954C74.8481 11.6074 71.5101 10.8534 68.0811 10.5044C66.3691 10.3604 64.6181 10.2594 62.8971 10.3124L61.6041 10.3444L60.2621 10.4444L59.5901 10.4964L59.2521 10.5224L58.9541 10.5604L57.6431 10.7224C54.1471 11.1824 50.6831 12.0904 47.3461 13.3844C45.6671 14.0104 44.0451 14.7864 42.4461 15.6144C41.6691 16.0664 40.8581 16.4684 40.1061 16.9674L38.9591 17.6874L37.8451 18.4594C34.8831 20.5344 32.2011 23.0124 29.8391 25.7544C27.4781 28.5004 25.5271 31.5724 23.9591 34.7924C20.8421 41.2464 19.4901 48.4044 19.9091 55.1614C20.0931 58.5564 20.6451 61.8514 21.5231 64.9754C21.7221 65.7624 22.0071 66.5194 22.2401 67.2844C22.4951 68.0444 22.8031 68.7794 23.0691 69.5234C23.3721 70.2544 23.6781 70.9774 23.9891 71.6924C24.3351 72.3924 24.6541 73.0984 25.0141 73.7784C27.8441 79.2444 31.5831 83.8304 35.6481 87.3424C37.6731 89.1104 39.7671 90.6314 41.8641 91.9104C43.9731 93.1694 46.0591 94.2234 48.0861 95.0674C50.1081 95.9284 52.0801 96.5324 53.9151 97.0474C54.8411 97.2734 55.7251 97.5154 56.5881 97.6644C57.0171 97.7504 57.4361 97.8354 57.8471 97.9174C58.2591 97.9814 58.6611 98.0434 59.0541 98.1034C62.1961 98.5764 64.7151 98.6164 66.4201 98.6074C67.2761 98.6084 67.9381 98.5594 68.3831 98.5494C68.8271 98.5334 69.0581 98.5254 69.0581 98.5254L69.0791 98.7764Z" fill="#C32018"/>
<path fill-rule="evenodd" clip-rule="evenodd" d="M30.175 36.0508C30.175 36.0508 30.274 35.8768 30.465 35.5398C30.662 35.2058 30.927 34.6978 31.323 34.0568C32.127 32.7748 33.367 30.9268 35.264 28.8178C37.157 26.7158 39.714 24.3398 43.086 22.2208C44.771 21.1678 46.633 20.1398 48.697 19.2748C50.764 18.4168 53.009 17.6758 55.411 17.1408C57.815 16.6178 60.37 16.2938 63.027 16.2308C65.682 16.1668 68.437 16.4018 71.205 16.9478C76.751 18.0298 82.282 20.6088 87.094 24.3188C89.522 26.1808 91.733 28.3508 93.719 30.7568C95.684 33.1738 97.47 35.7898 98.878 38.6388C99.233 39.3488 99.588 40.0598 99.892 40.7968C100.227 41.5218 100.499 42.2718 100.786 43.0178C101.078 43.7628 101.31 44.5308 101.567 45.2908C101.774 46.0658 102.032 46.8288 102.196 47.6168C102.977 50.7398 103.412 53.9768 103.404 57.2288C103.471 63.7288 101.861 70.2998 98.748 75.9698L98.159 77.0288L97.997 77.3168L97.841 77.5658L97.528 78.0628L96.901 79.0558L96.199 80.0558C95.27 81.3918 94.254 82.6068 93.2 83.8028C91.059 86.1518 88.661 88.2158 86.11 89.9648C83.565 91.7308 80.822 93.1078 78.038 94.1668C77.69 94.2978 77.342 94.4278 76.994 94.5588C76.643 94.6738 76.291 94.7878 75.941 94.9018C75.242 95.1388 74.535 95.3288 73.83 95.5128C72.42 95.8758 71.003 96.1348 69.601 96.3458C63.977 97.1628 58.533 96.6538 53.781 95.3708C51.399 94.7308 49.195 93.8618 47.177 92.8968C46.924 92.7768 46.673 92.6568 46.424 92.5388C46.181 92.4088 45.939 92.2798 45.698 92.1518C45.222 91.8878 44.739 91.6508 44.293 91.3648C43.842 91.0908 43.397 90.8188 42.959 90.5518C42.537 90.2618 42.122 89.9748 41.713 89.6938C41.315 89.4088 40.916 89.1608 40.535 88.8578C40.155 88.5558 39.781 88.2588 39.415 87.9678C38.668 87.3988 38.029 86.7778 37.396 86.1998C36.749 85.6368 36.197 85.0258 35.654 84.4608C35.386 84.1758 35.115 83.9048 34.872 83.6218C34.635 83.3328 34.403 83.0518 34.178 82.7788C33.248 81.7088 32.553 80.6498 31.904 79.7698C31.317 78.8428 30.812 78.0608 30.436 77.4088C29.732 76.0778 29.356 75.3678 29.356 75.3678L29.577 75.2458C29.577 75.2458 30.017 75.9088 30.841 77.1528C31.275 77.7578 31.826 78.4928 32.474 79.3508C33.181 80.1638 33.939 81.1398 34.927 82.1078C35.167 82.3558 35.413 82.6098 35.666 82.8708C35.924 83.1248 36.208 83.3678 36.484 83.6288C37.046 84.1418 37.614 84.6968 38.276 85.1998C38.921 85.7168 39.579 86.2788 40.315 86.7648C40.674 87.0198 41.039 87.2798 41.412 87.5448C41.781 87.8108 42.212 88.0488 42.619 88.3078C44.218 89.3578 46.043 90.2478 47.988 91.1058C49.945 91.9438 52.066 92.6708 54.335 93.1898C58.859 94.2568 63.966 94.5658 69.213 93.7438C70.52 93.5248 71.84 93.2608 73.151 92.8998C73.807 92.7208 74.47 92.5528 75.121 92.3288C75.448 92.2238 75.777 92.1178 76.106 92.0118C76.431 91.8908 76.756 91.7698 77.081 91.6478C79.684 90.6648 82.237 89.3758 84.657 87.7908C87.075 86.2048 89.361 84.3168 91.416 82.1518C92.421 81.0558 93.419 79.9068 94.294 78.7018L94.956 77.8008L95.602 76.8238L95.924 76.3328L96.085 76.0878L96.215 75.8668L96.799 74.8828C98.338 72.2418 99.556 69.3858 100.444 66.4128C100.907 64.9298 101.239 63.4058 101.524 61.8698C101.762 60.3268 101.973 58.7708 102.023 57.2018C102.176 54.0668 101.904 50.9068 101.28 47.8268C100.649 44.7458 99.573 41.7718 98.191 38.9848C95.406 33.4148 91.183 28.6948 86.303 25.4238C81.426 22.0878 76.034 20.0548 70.79 19.1208C65.54 18.1788 60.416 18.3108 55.853 19.2388C53.566 19.6878 51.412 20.3168 49.422 21.0748C47.44 21.8528 45.608 22.7208 43.951 23.6618C42.286 24.5898 40.822 25.6188 39.491 26.6008C38.844 27.1148 38.206 27.5918 37.645 28.1038C37.357 28.3528 37.075 28.5958 36.801 28.8328C36.538 29.0818 36.281 29.3248 36.031 29.5618C34.041 31.4728 32.654 33.1648 31.746 34.3358C31.285 34.9218 30.964 35.4028 30.733 35.7118C30.504 36.0258 30.388 36.1868 30.388 36.1868L30.175 36.0508Z" fill="#C32018"/>
<path fill-rule="evenodd" clip-rule="evenodd" d="M50.9671 31.5318C51.8371 31.9668 52.7011 32.4078 53.5591 32.8628L56.1211 34.2398L58.6611 35.6538C59.5101 36.1208 60.3421 36.6158 61.1831 37.0948C62.8671 38.0508 64.5221 39.0548 66.1881 40.0398C67.0231 40.5288 67.8401 41.0468 68.6671 41.5488L71.1411 43.0668C71.9621 43.5778 72.7821 44.0918 73.5931 44.6198C74.4091 45.1378 75.2061 45.6878 76.0141 46.2218C76.8211 46.7538 77.6121 47.3158 78.4081 47.8648C79.2071 48.4118 79.9921 48.9798 80.7851 49.5368C82.3641 50.6588 83.9461 51.7778 85.5381 52.8798C87.1401 53.9678 88.7421 55.0538 90.3791 56.0858L90.8981 56.4128L90.3791 56.7318C89.5551 57.2398 88.7481 57.7728 87.9311 58.2918C87.1131 58.8088 86.3091 59.3458 85.5031 59.8808C83.8881 60.9478 82.2941 62.0478 80.7041 63.1538L75.9381 66.4748L73.5421 68.1168C72.7441 68.6658 71.9331 69.1938 71.1291 69.7328L66.2831 72.9288L61.4241 76.1048C58.1821 78.2178 54.8991 80.2658 51.5861 82.2678L49.5791 83.4808L49.6131 81.1788C49.6451 79.1008 49.7171 77.0218 49.7671 74.9438L49.8741 71.8248L49.9981 68.7068C50.0871 66.6278 50.1951 64.5498 50.3191 62.4708C50.4511 60.3918 50.5811 58.3138 50.7741 56.2348H51.0261C51.2191 58.3138 51.3491 60.3918 51.4831 62.4708C51.6061 64.5498 51.7121 66.6278 51.8021 68.7068L51.9251 71.8248L52.0331 74.9438C52.0831 77.0218 52.1541 79.1008 52.1871 81.1788L50.2141 80.0918C53.4471 77.9648 56.7101 75.8848 60.0141 73.8688L64.9731 70.8518L69.9461 67.8558C70.7791 67.3628 71.6051 66.8588 72.4431 66.3748L74.9571 64.9208L80.0091 62.0498C81.6921 61.0918 83.3711 60.1278 85.0291 59.1298C85.8591 58.6328 86.6911 58.1378 87.5101 57.6228C88.3301 57.1098 89.1581 56.6108 89.9711 56.0858V56.7318C88.3351 55.6998 86.6641 54.7218 84.9921 53.7448C83.3131 52.7828 81.6211 51.8378 79.9281 50.8958C79.0831 50.4208 78.2331 49.9568 77.3951 49.4718C76.5561 48.9888 75.7081 48.5188 74.8811 48.0178C74.0511 47.5198 73.2111 47.0368 72.3921 46.5248C71.5661 46.0198 70.7491 45.5018 69.9341 44.9808L67.4981 43.4018C66.6891 42.8718 65.8691 42.3578 65.0691 41.8148C63.4611 40.7358 61.8431 39.6758 60.2541 38.5668C59.4591 38.0138 58.6541 37.4768 57.8671 36.9118L55.4971 35.2288L53.1511 33.5108C52.3711 32.9328 51.6001 32.3428 50.8321 31.7448L50.9671 31.5318Z" fill="#C32018"/>
</svg>
