<svg width="797" height="53" viewBox="0 0 797 53" fill="none" xmlns="http://www.w3.org/2000/svg">
<path fill-rule="evenodd" clip-rule="evenodd" d="M417.391 25.2774C407.281 25.1009 397.125 24.2878 387.072 24.8728C361.306 26.3704 335.603 28.7193 309.843 30.2804C291.846 31.3718 273.801 32.0509 255.766 32.3459C199.447 33.266 143.167 31.2125 86.8757 29.7901C63.905 29.2101 40.9357 29.6751 18.045 31.7137C13.7632 32.0958 9.50496 32.6811 5.22967 33.1154C4.20282 33.2188 3.14912 33.0961 2.10715 33.0779C2.00852 32.7294 1.90865 32.3808 1.8088 32.0311C2.75412 31.6576 3.66648 31.0547 4.64666 30.9426C33.9077 27.5927 63.2945 26.9902 92.7575 27.5963C142.489 28.6185 192.222 29.8188 241.959 30.2596C276.419 30.5653 310.803 28.5663 345.082 25.1056C368.426 22.7474 391.865 21.3418 415.371 23.3379C417.526 23.5206 419.585 24.7036 421.689 25.4216C420.197 26.7104 418.865 28.2196 417.183 29.2489C411.381 32.7986 410.716 36.973 416.503 40.5878C420.699 43.2103 425.816 45.2662 430.795 46.0083C441.691 47.6323 452.772 49.1905 463.757 49.1068C489.172 48.9134 514.597 48.0831 539.974 46.8156C555.444 46.0429 570.648 43.258 585.08 37.6985C604.736 30.1276 625.331 25.6414 646.273 22.3515C676.243 17.6412 706.188 12.7969 736.208 8.37431C754.708 5.64813 773.324 3.58708 791.898 1.29974C792.693 1.2014 793.598 1.83607 794.451 2.12981C793.682 2.59131 792.964 3.35862 792.139 3.47004C781.095 4.95936 770.015 6.23497 758.987 7.80052C735.314 11.163 711.634 14.4947 688.016 18.1562C666.923 21.4254 645.798 24.643 624.91 28.8078C612.462 31.2905 600.191 34.9608 588.289 39.1601C570.769 45.3424 552.716 48.7428 534.102 49.5344C511.065 50.5129 488 51.1055 464.938 51.4635C451.703 51.6689 438.446 50.8379 425.696 47.1332C421.674 45.9658 417.599 44.1933 414.312 41.8066C409.427 38.2597 407.538 31.793 415.503 27.4797C416.197 27.1041 416.849 26.6633 417.522 26.2533C417.478 25.9273 417.434 25.6023 417.391 25.2774" fill="#C32018"/>
<path d="M417.391 25.2774C407.281 25.1009 397.125 24.2878 387.072 24.8728C361.306 26.3704 335.603 28.7193 309.843 30.2804C291.846 31.3718 273.801 32.0509 255.766 32.3459C199.447 33.266 143.167 31.2125 86.8757 29.7901C63.905 29.2101 40.9357 29.6751 18.045 31.7137C13.7632 32.0958 9.50496 32.6811 5.22967 33.1154C4.20282 33.2188 3.14912 33.0961 2.10715 33.0779C2.00852 32.7294 1.90865 32.3808 1.8088 32.0311C2.75412 31.6576 3.66648 31.0547 4.64666 30.9426C33.9077 27.5927 63.2945 26.9902 92.7575 27.5963C142.489 28.6185 192.222 29.8188 241.959 30.2596C276.419 30.5653 310.803 28.5663 345.082 25.1056C368.426 22.7474 391.865 21.3418 415.371 23.3379C417.526 23.5206 419.585 24.7036 421.689 25.4216C420.197 26.7104 418.865 28.2196 417.183 29.2489C411.381 32.7986 410.716 36.973 416.503 40.5878C420.699 43.2103 425.816 45.2662 430.795 46.0083C441.691 47.6323 452.772 49.1905 463.757 49.1068C489.172 48.9134 514.597 48.0831 539.974 46.8156C555.444 46.0429 570.648 43.258 585.08 37.6985C604.736 30.1276 625.331 25.6414 646.273 22.3515C676.243 17.6412 706.188 12.7969 736.208 8.37431C754.708 5.64813 773.324 3.58708 791.898 1.29974C792.693 1.2014 793.598 1.83607 794.451 2.12981C793.682 2.59131 792.964 3.35862 792.139 3.47004C781.095 4.95936 770.015 6.23497 758.987 7.80052C735.314 11.163 711.634 14.4947 688.016 18.1562C666.923 21.4254 645.798 24.643 624.91 28.8078C612.462 31.2905 600.191 34.9608 588.289 39.1601C570.769 45.3424 552.716 48.7428 534.102 49.5344C511.065 50.5129 488 51.1055 464.938 51.4635C451.703 51.6689 438.446 50.8379 425.696 47.1332C421.674 45.9658 417.599 44.1933 414.312 41.8066C409.427 38.2597 407.538 31.793 415.503 27.4797C416.197 27.1041 416.849 26.6633 417.522 26.2533C417.478 25.9273 417.434 25.6023 417.391 25.2774" stroke="#C32018" stroke-width="2"/>
</svg>
