<svg width="642" height="37" viewBox="0 0 642 37" fill="none" xmlns="http://www.w3.org/2000/svg">
<path d="M45.4256 20.113H276.178H506.931H637.141C642.514 20.113 644.097 14.6022 638.46 14.0222C557.165 5.73339 475.022 1.15673 392.675 0.328112C310 -0.769897 227.325 1.01178 144.781 3.82931C98.1361 5.42454 51.4911 7.35123 4.87906 9.27793V15.4931C78.0606 10.7903 151.803 12.3234 224.984 16.2596C298.66 20.2373 371.908 26.6182 445.452 31.2588C486.822 33.9106 528.292 36.0445 569.827 36.9975C576.222 37.1425 576.19 30.9274 569.827 30.7824C495.954 29.1043 422.475 23.6349 348.964 18.352C275.453 13.0692 202.403 7.76558 128.694 6.64685C87.3289 5.90339 45.93 6.80985 4.7472 9.3608C-1.48312 9.75442 -1.68091 15.8453 4.7472 15.5759C87.1588 12.1783 169.34 8.78072 251.751 7.28908C333.969 5.42022 416.286 6.27772 498.36 9.85801C544.51 12.0333 590.2 15.3895 635.691 20.2166L637.009 14.0014H406.257H175.504H45.2937C42.5628 14.0014 40.349 15.3928 40.349 17.109C40.349 18.8253 42.5628 20.2166 45.2937 20.2166L45.4256 20.113Z" fill="#C32018"/>
</svg>
