<svg width="973" height="69" viewBox="0 0 973 69" fill="none" xmlns="http://www.w3.org/2000/svg">
<path d="M122.38 20.664C233 19.6847 343.604 20.664 454.193 23.6019C564.442 26.5398 674.483 31.353 784.315 38.0416C846.206 41.8412 907.989 46.248 969.664 51.262C973.529 51.5705 974.293 47.3987 970.59 46.8552C857.177 32.7681 742.677 22.8527 627.714 16.0075C512.75 9.16222 397.695 5.22546 282.431 3.06612C217.624 1.8469 152.631 1.17119 87.7085 0.818646V5.22546C182.905 1.8469 277.987 8.42775 372.096 17.1092C465.395 25.7319 558.324 36.367 652.34 41.4936C705.215 44.5825 758.375 45.2207 811.396 43.4032C813.313 43.4032 814.867 42.4167 814.867 41.1998C814.867 39.9829 813.313 38.9964 811.396 38.9964C704.757 36.9595 598.088 36.8517 491.387 38.6732C385.381 40.5143 279.507 44.2552 173.763 49.8959C143.859 51.4922 113.963 53.2451 84.0746 55.1547C56.5085 56.9174 28.6646 58.6949 2.39453 64.6294C-1.77164 65.5695 -0.0820251 69.7266 4.24616 68.8893C118.145 46.8552 236.487 35.3681 355.223 30.9172C477.153 26.3341 599.453 29.081 721.175 34.7071C790.796 37.9387 860.325 42.0518 929.807 46.4586C934.251 46.723 934.205 42.3162 929.807 42.0518C806.257 34.3398 682.499 27.0833 558.231 24.8358C438.037 22.6912 317.357 25.3499 198.343 36.7489C132.064 43.0036 66.5955 52.3318 2.46397 64.6588L4.3156 68.9187C28.2248 63.513 53.4301 61.574 78.566 59.9435C104.566 58.2689 130.597 56.7118 156.659 55.2722C209.476 52.3344 262.356 49.8861 315.297 47.9275C421.164 44.0104 527.155 41.9783 633.269 41.8314C692.675 41.7727 752.082 42.3113 811.488 43.4473V39.0405C716.337 42.6834 621.233 36.2642 527.147 27.6268C433.825 19.0629 340.896 8.38369 246.879 3.12488C194.008 -0.0517001 140.844 -0.807711 87.801 0.862715C85.8836 0.862715 84.3292 1.84921 84.3292 3.06612C84.3292 4.28303 85.8836 5.26953 87.801 5.26953C203.135 5.90118 318.491 7.5317 433.686 11.4538C548.117 15.3465 662.409 21.4866 776.006 31.1229C840.582 36.6069 904.857 43.2955 968.831 51.1886L969.756 46.8699C860.032 37.9192 749.952 30.9074 639.518 25.8347C529.516 20.7815 419.328 17.6527 308.955 16.4482C246.787 15.7724 184.618 15.7088 122.45 16.2572C117.983 16.2572 117.959 20.664 122.45 20.664H122.38Z" fill="#C32018"/>
</svg>
