<svg width="685" height="47" viewBox="0 0 685 47" fill="none" xmlns="http://www.w3.org/2000/svg">
<path d="M3.19677 18.5518C87.7256 16.0423 172.409 16.5834 256.842 20.1725C341.012 23.7549 424.468 31.2609 508.191 37.587C555.014 41.1268 601.837 44.169 648.927 45.6617C652.762 45.7896 653.386 42.1361 649.819 41.4822C570.176 26.8398 487.678 20.0587 405.248 15.7939C320.387 11.4012 235.237 8.78547 150.242 5.54423L4.2893 0V4.26479C66.519 6.29768 128.704 9.09822 190.644 13.3772C252.584 17.6562 314.657 23.4279 375.906 31.3462C410.287 35.7911 444.416 40.9467 478.292 46.8132L480.053 42.6906C422.506 33.5639 364.824 24.4515 306.14 18.4381C248.503 12.5101 189.863 9.58157 131.558 12.7517C98.1132 14.5998 64.8021 18.168 31.3573 15.3533V19.618C138.983 14.8415 247.032 16.8886 354.657 22.0348C462.283 27.1809 568.972 35.3551 675.995 42.7901C694.282 44.1507 681.51 41.3827 664.219 37.7005C620.719 34.6584 577.232 31.5195 533.721 28.5315C426.92 21.2102 319.808 14.7846 212.361 13.0787C152.16 12.1262 91.6695 12.6806 31.4688 15.3533C29.6217 15.3533 28.1243 16.308 28.1243 17.4856C28.1243 18.6633 29.6217 19.618 31.4688 19.618C60.7219 22.0774 90.0864 19.618 119.228 17.7842C148.304 15.8731 177.556 15.2746 206.764 15.993C265.605 17.4146 323.799 23.8828 381.212 31.9575C413.698 36.5208 446.006 41.6244 478.314 46.7563C479.469 46.957 480.704 46.7494 481.554 46.212C482.404 45.6745 482.74 44.8887 482.435 44.1507C482.13 43.4126 481.23 42.8343 480.075 42.6337C419.485 32.2029 358.03 23.9353 295.995 17.8695C234.412 11.7282 172.428 7.42074 110.309 4.27901C75.0065 2.50675 39.6739 1.08515 4.3116 0.014216C-0.0139298 -0.127944 0.0306635 4.10842 4.3116 4.27901L262.283 14.1449C345.404 17.3293 428.815 19.9166 511.313 27.4226C557.5 31.4761 603.191 37.5656 648.057 45.6475L648.949 41.3827C564.847 38.7101 481.458 31.0619 397.935 24.6221C314.102 17.9392 229.782 14.034 145.315 12.9223C97.9422 12.4105 50.5769 12.8607 3.21907 14.2728C-1.06187 14.4008 -1.08416 18.6656 3.21907 18.5376L3.19677 18.5518Z" fill="#C32018"/>
</svg>
