<svg
    width="504"
    height="488"
    viewBox="0 0 504 488"
    fill="none"
    xmlns="http://www.w3.org/2000/svg"
>
    <path
    fill-rule="evenodd"
    clip-rule="evenodd"
    d="M349.853 261.133C342.286 265.597 334.99 271.009 327.368 275.288C326.961 275.757 327.286 276.014 327.644 276.262C335.18 276.007 342.692 275.686 350.577 276.685C352.809 270.82 348.215 266 349.853 261.133M357.605 277.762C357.367 275.774 356.312 274.074 354.783 272.539C354.413 274.077 354.694 275.39 354.406 276.903C355.541 277.493 356.514 277.359 357.605 277.762M353.559 258.671C353.127 264.333 358.283 268.58 361.441 273.329C361.675 267.719 358.496 262.973 353.559 258.671M344.15 250.667C343.767 248.999 345.992 249.45 345.669 248.658C341.283 241.282 335.289 231.349 327.57 224.364C316.404 214.261 300.925 211.961 289.315 207.232C279.41 215.394 268.39 229.315 270 241.351C270.504 245.094 272.87 249.801 274.52 253.633C276.263 257.686 278.246 262.315 281.146 265.045C291.774 275.06 305.976 272.157 317.518 274.616C327.402 267.417 337.804 262.065 347.343 253.663C345.405 253.798 345.248 252.115 344.15 250.667M348.547 236.37C346.129 233.009 342.675 229.821 338.803 227.294C340.898 234.572 350.528 239.598 353.197 246.706C353.339 243.438 350.848 239.57 348.547 236.37M363.848 214.544C360.01 202.924 353.054 186.649 336.518 185.504C331.839 185.173 323.058 187.198 318.382 188.935C311.519 191.481 305.411 196.456 300.053 200.028C304.118 202.432 309.143 203.399 313.094 207.257C322.171 207.483 339.932 215.213 340.307 224.794C349.259 229.888 354.146 237.56 357.126 243.515C361.455 232.948 363.233 224.301 363.848 214.544M317.109 211.279C323.737 213.869 329.989 219.479 337.095 221.911C333.644 215.344 323.527 211.996 317.178 210.429C316.909 210.794 316.91 211.069 317.109 211.279M295.413 203.444L294.908 204.356C299.402 204.786 304.971 208.93 309.009 207.794C305.046 204.758 299.416 203.652 295.413 203.444M270.431 199.747C271.759 201.366 276.882 200.344 279.857 201.585C281.703 200.558 283.519 199.429 285.575 199.242C280.533 195.361 275.212 199.213 270.431 199.747M231.555 204.489C232.417 205.373 235.28 204.094 237.337 203.573C239.593 203.003 241.907 202.443 243.778 202.203C244.902 200.592 246.36 200.164 247.462 198.481C241.775 199.101 236.831 202.39 231.555 204.489M216.323 215.56C217.238 222.02 220.823 227.712 222.902 233.836C222.403 235.027 222.151 236.144 221.803 237.289C225.81 247.802 229.668 258.125 232.288 269.11C234.828 279.762 235.773 291.552 244.225 300.512C262.308 299.897 278.448 294.393 294.845 287.125C300.115 284.793 306.192 283.092 310.503 278.736C300.194 277.583 288.413 277.425 279.34 268.779C276.027 265.619 273.478 260.602 271.425 255.855C269.633 251.725 267.289 246.522 266.721 242.277C265.04 229.678 274.255 216.927 284.009 205.943C270.802 202.233 259.252 204.266 247.368 205.139C245.702 206.63 243.509 206.292 241.976 208.247C240.78 208.697 240.509 206.719 239.31 207.174C231.268 208.654 223.876 212.386 216.323 215.56M217.132 211.224C219.971 209.116 223.493 209.779 225.868 205.776C222.7 206.543 219.882 208.746 217.132 211.224M209.244 214.089C209.384 212.908 208.842 211.93 210.087 210.403C205.674 205.688 200.992 201.061 194.756 196.911C195.879 203.779 202.903 208.831 209.244 214.089M206.031 218.364C206.204 216.858 204.402 216.086 203.286 215.066C203.671 216.195 204.225 219.483 206.031 218.364M209.447 226.476C212.557 229.56 215.166 232.786 218.183 235.892C218.542 231.441 213.204 226.352 209.817 222.108C209.949 223.492 211.235 224.53 209.447 226.476M222.838 253.096C223.771 244.894 216.802 238.359 211.163 232.904C211.32 240.742 217.901 246.674 222.838 253.096M225.763 258.71C226.691 257.616 224.6 255.328 224.85 253.63C221.827 254.035 225.235 257.13 225.763 258.71M215.865 250.491C215.599 255.693 219.776 261.824 224.136 266.509C222.887 260.719 219.084 255.69 215.865 250.491M230.878 286.072C230.834 280.186 225.454 275.855 222.122 270.928C221.635 276.967 225.234 281.816 230.878 286.072M204.63 238.223C204.033 244.439 202.724 251.507 203.604 258.316C205.592 273.659 207.23 294.631 229.874 299.208C229.263 295.735 225.091 293.292 227.467 288.962C219.484 282.487 218.919 273.88 218.352 265.273C213.262 259.923 210.832 252.56 212.365 246.158C210.046 242.05 209.829 237.336 206.895 233.404C206.165 235.336 205.966 236.714 204.63 238.223M196.812 241.118C198.456 239.525 197.272 236.445 198.504 234.055C196.858 235.589 194.174 239.77 196.812 241.118M197.075 261.312C197.468 257.848 197.048 252.358 194.926 248.688C194.129 253.285 194.638 257.544 197.075 261.312M200.387 279.54C200.94 276.914 197.748 273.012 198.421 269.47C197.073 268.244 197.072 266.653 195.614 265.46C196.515 270.341 197.64 275.163 200.387 279.54M204.092 286.626C205.388 288.665 206.908 290.619 208.893 292.402C207.699 290.327 207.175 287.999 204.092 286.626M241.979 306.618C242.05 307.94 244.515 308.367 244.899 309.571C245.475 309.057 243.276 306.521 241.979 306.618M232.034 293.569C233.386 296.305 234.29 301.365 238.371 300.702C237.226 298.021 234.853 295.725 232.034 293.569M291.26 333.777C299.415 337.184 311.042 334.225 318.123 331.6C322.987 329.797 334.091 322.154 336.355 318.545C342.47 308.8 347.47 292.241 349.872 280.937C339.949 279.803 330.37 279.888 320.757 279.832C298.699 294.446 275.135 303.83 249.546 306.184C249.342 306.416 249.504 306.543 249.685 306.665C265.289 315.064 275.862 327.341 291.26 333.777M312.864 342.792C315.117 341.684 318.487 340.372 320.048 338.081C316.187 339.323 313.022 340.751 310.11 343.634C310.298 345.168 312.204 343.118 312.864 342.792M341.255 319.061C336.028 327.798 329.352 331.557 323.379 337.736C330 334.32 337.548 329.426 341.255 319.061M349.447 298.031C347.233 300.143 347.395 303.888 346.397 306.548C347.79 307.223 348.91 307.973 348.748 309.077C350.791 305.956 349.645 301.42 349.447 298.031M357.139 282.085C355.956 281.448 355.04 281.808 353.954 281.525C353.42 286.131 348.679 290.273 352.021 294.112C354.625 290.17 358.507 285.821 357.139 282.085M202.613 195.291C201.882 196.549 203.306 197.191 204.242 197.971C204.056 196.996 204.154 194.993 202.613 195.291M199.604 194.28C197.946 188.771 190.541 184.485 185.403 180.708C186.875 186.154 192.389 190.456 199.604 194.28M195.659 178.524C194.723 178.549 194.052 179.616 193.18 179.899C193.977 181.558 197.19 182.439 197.654 184.204C198.304 183.032 195.844 180.387 195.659 178.524M192.048 178.848C189.833 170.253 179.385 164.94 170.952 159.151C176.16 166.242 182.899 173.672 192.048 178.848M183.274 161.457C182.833 159.823 181.222 158.622 179.843 157.332L178.901 159.033C180.792 159.601 181.955 161.539 183.274 161.457M160.834 142.043C164.011 148.061 170.344 153.93 177.167 157.957C174.241 151.857 168.339 146.696 160.834 142.043M152.723 130.242C154.575 133.793 158.479 135.247 162.277 137.758C160.282 134.827 155.869 132.758 152.723 130.242M151.5 120.45C149.992 119.539 150.819 121.525 149.56 121.092C146.235 118.363 144.584 117.947 141.61 115.398C143.97 120.088 150.067 122.666 155.207 125.933C154.587 123.905 152.637 122.312 151.5 120.45M136.568 98.0229C135.967 97.7361 135.79 98.9229 135.134 98.4324C133.904 96.2859 132.087 94.3067 132.423 91.7128C131.443 90.7486 130.285 92.2676 130.577 90.6892C128.777 97.7078 133.151 106.141 141.407 110.34C139.5 106.32 137.722 102.26 136.568 98.0229M143.697 56.0888C138.361 63.9136 133.823 71.8973 133.752 79.1599C136.955 71.7717 140.854 64.1393 143.697 56.0888M163.489 44.2961C165.443 43.1899 167.451 42.2803 169.083 40.0471C162.596 40.8589 156.227 43.7328 152.642 52.1672C149.386 52.5043 146.659 57.0731 145.241 61.1321C152.089 56.0128 158.671 52.3174 163.489 44.2961M170.25 47.0416C175.627 45.6056 182.36 44.3499 188.592 45.2887C199.514 40.0124 212.546 42.363 226.149 46.7714C223.407 40.956 213.078 39.3393 205.46 38.1845C195.576 36.6874 187.397 35.5203 179.442 37.745C178.231 39.3454 176.593 39.4113 174.919 39.3497C171.682 42.143 168.254 44.2442 165.144 47.5048C165.497 48.6333 168.549 47.5012 170.25 47.0416M243.587 75.973C244.364 75.0113 243.121 74.5759 243.639 73.6799C243.344 72.6644 242.511 73.5507 241.61 72.9437C233.81 64.4775 222.487 53.6734 208.626 50.3984C220.627 56.961 234.498 66.0843 243.587 75.973M260.045 88.8114C261.313 88.463 261.068 86.2154 261.638 85.1517C260.675 84.4237 260.089 84.8826 259.295 84.6781C258.868 86.2347 259.918 87.403 260.045 88.8114M269.17 101.078C269.756 99.0284 269.737 97.169 270.621 95.0226C268.861 95.317 267.176 95.9053 265.291 95.7003C265.757 97.7549 267.5 99.4059 269.17 101.078M279.424 108.707C280.861 108.243 281.237 109.794 282.557 109.218C282.959 107.638 282.375 106.379 282.719 104.817C281.557 105.175 280.619 106.452 279.419 106.662C278.738 107.568 279.742 107.923 279.424 108.707M287.98 116.47C289.436 119.188 290.761 121.941 293.997 124.18C294.957 122.368 294.78 121.942 296.044 119.749C295.183 118.253 293.396 117.005 294.096 115.088C292.092 115.656 290.123 116.35 287.98 116.47M297.8 127.315C297.224 129.598 295.439 127.642 294.813 129.755C295.016 130.048 295.223 130.339 295.092 130.728C296.333 132.051 298.802 130.415 300.124 129.013C301.622 128.742 303.262 128.959 304.775 128.724C317.785 135.566 325.541 144.116 336.797 153.435C343.608 159.07 350.434 164.799 358.586 170.834C361.183 172.76 363.542 175.776 365.523 176.725C371.195 179.456 380.603 176.056 386.171 176.299C386.062 172.383 385.089 168.717 383.779 165.145C379.698 165.287 376.052 166.951 371.874 166.739C371.633 168.367 370.652 171.386 369.063 172.548C367.621 171.298 369.482 169.095 369.445 167.439C366.955 166.933 363.626 167.087 360.527 166.588C357.698 166.135 353.524 166.354 352.999 163.234C358.385 163.38 363.732 163.378 368.856 162.612C368.585 158.476 367.939 154.455 366.015 150.802C361.636 151.425 357.119 151.558 352.55 151.524C351.618 152.988 351.847 154.416 350.467 155.28C349.055 154.459 350.405 152.842 349.982 151.736C347.42 151.494 344.368 151.132 341.375 151.061C339.056 151.008 334.921 152.11 334.128 148.677C339.498 148.773 344.625 148.015 349.982 148.054C350.882 144.637 348.924 142.045 348.46 139.024C344.922 138.908 341.56 139.406 338.049 139.389C337.363 140.819 337.203 142.091 336.104 143.636C334.198 142.87 335.663 141.131 335.793 139.778C330.892 138.063 326.002 140.948 321.357 137.098C325.814 136.442 330.588 136.896 335.133 136.548C334.952 133.182 334.203 129.978 332.675 126.996C324.386 127.129 316.533 128.78 307.86 127.573C307.276 127.126 307.72 126.387 307.134 125.939C314.948 124.759 323.119 124.829 331.043 124.049C330.841 118.931 325.42 115.316 325.738 110.055C332.036 111.509 331.878 119.31 335.069 123.41C336.945 123.23 338.873 123.234 340.554 122.354C339.596 120.702 337.711 119.319 338.539 117.15C340.92 116.723 342.077 120.504 343.605 122.002C345.66 121.83 347.608 121.286 349.576 120.808C339.417 114.248 330.113 106.697 320.605 103.113C319.415 100.091 323.727 96.6454 323.764 92.9895C315.541 94.053 307.279 106.259 301.723 114.346C300.778 115.721 299.635 117.43 300.231 119.248C298.258 120.75 297.484 123.135 296.273 125.65C297.099 126.114 298.206 126.497 297.8 127.315M391.37 196.658C395.118 195.981 398.95 195.596 402.537 194.371C402.813 189.849 402.076 185.604 401.043 181.44C397.11 181.199 393.515 182.098 389.614 181.965C389.445 184.652 389.952 188.463 387.057 191.039C386.026 188.444 387.93 185.042 386.866 182.456L385.286 181.58C381.34 181.952 375.411 180.77 370.385 180.182C376.06 186.036 383.271 191.468 391.37 196.658M406.926 208.827C411.183 210.18 414.88 207.068 418.741 206.117C418.723 203.068 418.858 199.983 418.397 197.062C411.219 197.983 404.503 200.437 396.939 200.069C400.136 203.065 403.132 207.622 406.926 208.827M413.291 212.911C414.007 212.193 414.832 212.016 415.485 211.013C414.075 210.43 413.072 211.826 411.731 211.597C411.352 212.371 412.887 212.43 413.291 212.911M415.377 219.194L415.029 219.822C426.541 231.187 440.785 229.452 448.126 213.54C451.767 205.656 454.252 194.424 451.88 190.17C449.991 186.783 446.819 186.317 443.836 187.349C442.081 197.817 425.607 217.882 415.377 219.194M451.676 224.505C448.17 224.863 445.417 227.759 442.747 230.921C444.241 233.071 446.245 239.058 449.76 242.118C454.191 245.98 461.11 248.055 463.516 244.876C468.18 238.727 460.388 227.533 451.676 224.505M438.057 235.49C438.662 241.024 441.388 249.159 447.461 252.463C452.358 255.127 457.937 253.169 462.706 252.397C464.482 249.628 466.731 247.922 467.922 245.154C472.225 235.169 462.428 217.263 451.222 219.68C464.611 224.137 472.59 239.948 461.29 249.181C450.795 250.31 443.421 239.68 441.34 232.449C440.421 233.504 438.041 234.171 438.057 235.49M417.665 174.986C418.57 179.777 420.751 184.214 420.792 189.252C423.466 189.459 425.545 187.614 427.908 186.728C428.104 183.196 431.328 180.975 434.743 183.239C434.316 190.959 426.484 193.59 421.827 195.487C420.847 198.722 422.003 201.356 420.354 204.78C425.755 203.448 429.163 198.447 432.79 192.665C433.216 192.939 433.642 193.209 433.896 192.876C435.142 193.922 435.617 195.18 435.026 196.74C438.877 194.205 440.331 189.206 441.82 185.952C435.19 180.745 427.926 176.154 420.974 171.967C420.529 173.479 419.33 175.257 417.665 174.986M416.362 168.661C414.645 166.667 411.479 165.329 408.602 163.564C404.624 161.119 400.929 157.349 398.332 157.872C398.154 163.443 401.774 167.96 402.871 173.18C407.647 172.632 412.071 170.87 416.362 168.661M383.273 145.074C382.333 146.028 381.485 147.289 380.326 147.477C381.64 151.773 384.511 155.624 385.478 160.017C389.391 159.169 393.172 157.869 396.582 155.277C391.692 151.43 388.421 148.637 383.273 145.074M381.271 143.469C377.93 139.727 371.275 135.96 367.705 133.108C366.55 134.223 365.023 134.021 363.967 135.495C365.804 139.039 366.743 142.842 368.836 146.312C373.049 145.608 377.209 144.71 381.271 143.469M342.755 126.407C340.521 125.964 338.692 126.9 336.496 126.588C336.289 130.143 338.111 133.128 338.364 136.55C341.49 137.062 344.187 136.086 347.193 136.168C346.442 132.709 343.835 129.77 342.755 126.407M365.826 147.187C364.785 143.547 362.465 140.251 361.757 136.525C358.606 137.143 355.552 138.077 352.342 138.511C352.325 141.734 353.889 144.536 353.38 147.888C357.598 147.886 361.708 147.525 365.826 147.187M382.877 160.998C382.224 156.712 380.08 152.855 378.862 148.734C375.99 149.013 373.358 150.126 370.478 150.363C371.023 154.408 372.356 158.231 372.544 162.382C376.114 162.37 379.558 161.91 382.877 160.998M404.459 179.397C404.634 183.817 405.604 188.003 404.807 192.706C409.071 192.945 412.7 190.931 416.715 190.289C416.395 185.475 415.309 180.883 414.327 176.26C411.049 177.342 407.9 178.888 404.459 179.397M398.92 174.192C398.804 169.244 396.573 164.935 395.944 160.136C393.161 161.391 390.512 163.151 387.554 163.757C387.647 167.93 388.985 171.725 389.23 175.851C392.579 175.749 395.622 174.485 398.92 174.192M352.935 123.549C350.327 124.261 347.486 124.203 345.253 126.153C347.567 129.201 348.91 132.511 350.296 135.807C353.843 134.703 358.072 135.852 360.91 132.409C362.474 132.996 363.585 133.444 364.97 131.836C360.394 129.225 357.016 126.294 352.935 123.549M306.947 87.6068C301.218 85.3772 294.995 89.7891 290.325 94.9057C289.863 95.7066 290.334 95.4139 290.753 95.5504C295.766 91.4231 301.137 88.685 306.947 87.6068M269.233 90.9999C278.172 89.3075 286.492 81.007 294.767 80C286.13 77.1836 276.712 85.3165 269.233 90.9999M275.988 68.811C276.233 67.3554 275.102 66.2994 274.681 65.0363C274.01 65.6469 275.359 67.7651 274.188 69.3365C274.917 69.6198 275.333 68.7948 275.988 68.811M262.997 60.0417C264.848 64.0312 267.255 67.8787 264.52 73.0395C266.885 72.2368 269.998 72.393 270.995 70.3571C272.143 68.0086 269.058 64.5567 269.383 62.0152C267.283 61.4555 265.112 60.6514 262.997 60.0417M261.46 66.2435C259.157 69.9195 257.905 73.544 256.717 76.1915C262.175 77.0576 264.347 69.9364 261.46 66.2435M258.187 82.3903C260.205 84.2299 263.072 82.1543 264.107 79.9574C264.646 79.7839 265.638 80.6552 265.842 81.3287C272.17 79.3741 278.335 76.8569 284.852 75.5392C274.375 72.4738 266.936 79.6335 258.187 82.3903M275.892 80.8169C271.587 80.5898 263.887 81.8301 262.674 89.4965C267.495 87.9839 271.425 83.5042 275.892 80.8169M290.934 105.167C291.283 103.026 288.986 101.658 289.813 99.3773C286.395 100.317 286.681 104.009 286.539 106.709C288.304 107.261 289.383 105.375 290.934 105.167M294.731 101.931C298.517 97.0921 302.758 93.6799 307.509 91.8644C304.397 91.6131 297.341 93.3846 293.522 96.4709C293.541 98.3888 293.793 100.245 294.731 101.931M290.841 88.0626C294.099 86.2829 297.11 83.3804 300.743 83.261C297.151 81.7729 291.591 81.5948 290.841 88.0626M287.55 85.9643C283.508 85.9203 280.223 94.5077 281.079 98.3844C285.449 95.7374 286.793 90.8313 287.55 85.9643M299.685 111.382C300.451 111.399 301.023 110.731 301.496 109.718C300.606 109.54 299.481 110.686 299.685 111.382M298.795 114.378L300.249 111.755C299.341 112.18 298.33 112.259 297.295 112.264C297.482 113.052 298.004 113.751 298.795 114.378M315.347 93.8914C303.743 90.2137 298.204 106.977 288.826 110.796C288.674 111.193 289.263 111.383 289.613 111.641C299.408 109.829 306.95 100.43 315.347 93.8914M275.473 100.719C275.936 99.9689 276.657 99.9987 277.291 99.7618C277.113 96.8434 276.855 93.1681 279.493 90.3707C275.163 90.4989 272.625 94.1163 272.192 98.9005C273.789 99.3007 274.019 99.7703 275.473 100.719M251.729 57.9174L251.222 58.8314C255.336 64.5549 254.333 71.7103 251.063 79.5028C252.318 79.6691 253.155 78.4056 254.268 78.089C255.228 71.763 263.973 62.0743 258.331 58.3832C256.757 57.3537 254.769 59.6148 251.729 57.9174M230.048 51.9627C219.229 46.4474 206.431 46.431 196.564 45.8887C200.938 49.2121 209.038 46.4733 216.466 49.432C226.672 53.4877 236.048 61.3972 242.405 68.3845C241.877 64.4804 240.721 60.7613 239.341 57.1139C235.633 56.2687 233.695 53.8241 230.048 51.9627M241.011 52.7304C242.986 61.1231 246.424 69.0993 247.766 77.6721C251.461 69.6584 251.552 62.6665 247.632 56.8012C244.484 57.0674 244.889 52.8996 241.011 52.7304M284.166 339.793C288.299 341.897 294.31 342.093 298.835 342.207C294.935 340.995 288.717 340.006 284.166 339.793M254.13 319.794C256.198 322.649 264.465 326.12 268.777 326.374C264.738 321.496 259.179 321.416 254.13 319.794M269.13 330.843C271.815 333.062 276.627 334.429 279.695 334.473C275.943 331.481 272.783 329.362 269.13 330.843M102.628 357.258C71.2297 332.892 53.4086 300.695 59.2899 278.962C61.5012 270.756 68.1093 260.465 86.9378 258.003C87.6897 257.903 88.3786 258.432 88.4774 259.182C88.5749 259.934 88.0526 260.622 87.2983 260.72C73.5761 262.512 64.8082 269.069 61.9377 279.681C56.3368 300.376 73.7604 331.388 104.308 355.094C130.756 375.621 329.269 443.17 382.408 347.304C396.017 322.753 388.806 294.771 362.157 283.31C361.258 289.998 359.53 298.488 352.626 301.977C352.275 305.565 352.406 310.507 349.4 314.396C348.293 315.827 346.116 316.455 344.952 318.018C342.474 321.345 341.77 326.175 339.375 329.545C333.69 337.548 325.699 342.269 318.717 344.07C317.469 344.753 317.394 342.46 316.849 343.035C313.472 344.616 310.498 347.984 306.43 348.626C304.449 348.94 302.366 347.451 299.966 347.076C297.642 346.712 295.168 347.281 292.506 346.592C285.451 344.767 279.242 340.285 274.045 335.141C267.243 333.572 259.218 329.173 254.896 324.93C250.842 320.951 244.64 318.187 241.337 314.167C240.491 313.141 240.427 311.727 239.57 310.754C237.828 308.774 235.396 308.012 234.209 305.75C232.257 306.316 230.792 304.849 228.507 305.026C227.57 305.104 226.645 306.223 225.437 306.167C214.523 305.632 196.261 288.41 196.931 279.813C192.385 273.372 191.363 264.63 191.226 256.353C191.171 252.858 190.203 249.228 190.517 246.624C190.693 245.184 192.078 243.597 192.306 241.929C192.569 240.017 191.647 238.075 192.057 236.515C193.748 230.046 198.098 225.611 202.392 221.538C199.506 218.356 199.303 214.408 198.225 210.71C193.108 205.898 190.972 200.236 190.322 194.147C182.551 188.616 179.874 181.626 178.578 174.244C172.224 168.132 166.792 161.755 165.731 154.131C160.096 148.946 155.815 143.373 154.027 137.09C149.303 132.949 143.861 129.018 142.64 123.879C138.013 120.465 135.422 114.526 133.049 109.631C126.647 102.751 124.782 94.5678 127.551 85.0671C125.312 75.8156 131.556 62.5357 139.684 53.6349C142.245 50.8329 146.356 49.8739 149.484 47.6999C153.836 44.6725 157.824 39.9281 162.452 38.2471C166.149 36.8986 170.286 37.5573 173.812 36.8281C176.208 36.3333 178.2 34.895 180.438 34.413C196.113 31.0234 215.267 37.6418 233.329 44.6568C233.622 46.1376 236.091 46.9988 236.515 48.4461C239.32 48.657 242.259 47.9442 244.597 49.2743C246.408 50.3033 246.545 52.8689 248.231 53.7219C251.717 55.4881 258.84 50.7594 261.779 57.1699C269.067 55.382 278.727 60.2451 279.618 68.2768C284.408 64.6219 294.946 71.44 296.624 76.4848C301.031 79.8707 303.919 82.223 308.69 84.8016C310.318 85.294 309.034 86.6207 310.662 87.1131C312.126 86.9692 314.717 88.2368 315.813 89.561C316.947 90.9727 314.641 91.9301 316.13 93.3916C320.168 88.6371 329.15 89.8613 330.156 96.7008C330.002 98.0494 328.747 99.7183 329.024 100.946C343.385 109.044 354.527 120.315 368.1 129.508C369.039 129.737 369.38 127.9 370.381 128.33C370.903 128.967 369.164 130.248 369.796 130.852C378.709 137.906 388.917 145.866 398.295 153.548C399.082 153.561 399.881 153.613 400.677 153.65C400.532 154.653 400.812 155.529 401.682 156.24C408.151 159.891 415.139 166.921 420.972 166.932C421.113 171.222 428.329 173.375 432.835 176.351C436.378 178.688 438.717 181.588 441.929 183.418C444.792 181.736 450.354 184.6 452.746 187.388C458.077 193.587 453.537 207.177 452.901 214.261C454.631 214.243 455.636 214.105 457.182 214.605C475.978 220.699 477.645 247.612 459.845 257.489C454.843 255.086 449.897 258.2 444.853 254.456C439.91 250.779 435.911 240.571 434.975 235.587C423.878 236.09 406.686 229.016 408.076 216.615C400.683 211.073 394.16 202.754 384.942 198.915C381.906 194.158 376.855 190.807 372.381 187.087C358.901 175.875 343.837 164.437 330.326 153.626C323.3 145.256 314.42 138.449 305.939 131.584C302.693 131.807 299.429 131.984 297.318 136.137C291.636 137.325 289.32 131.791 291.325 127.138C287.794 125.074 287.464 121.067 283.506 119.96C283.129 118.762 284.572 117.041 284.153 115.856C282.109 115.7 280.016 115.417 277.834 114.787C276.039 112.336 276.659 109.197 274.505 106.851C272.041 106.938 270.771 106.823 269.252 106.783C265.659 103.942 261.184 99.1846 260.046 94.7776C259.093 95.054 258.158 93.9906 257.555 93.3967C256.025 90.5254 255.516 87.3624 253.951 84.497C251.112 84.1447 245.105 86.7803 245.483 81.4284C242.191 85.9919 236.906 77.6792 234.004 74.2543C230.447 70.0627 226.263 67.3207 222.486 64.2184C221.228 63.1828 220.809 61.9173 219.754 61.0756C216.504 58.4819 212.6 56.6032 209.518 54.5907C203.025 50.3529 195.899 49.6752 188.786 47.9715C187.374 47.9091 186.547 49.8872 184.918 49.0746C183.822 49.7827 184.551 47.8164 183.224 47.7319C173.976 48.6058 163.782 48.98 157.374 56.9458C156.305 57.985 155.821 55.7907 154.992 56.8402C147.751 60.7152 142.092 66.1709 138.444 75.6826C135.72 82.7936 135.49 87.5044 136.923 93.1053C137.955 97.141 139.611 102.468 142.404 106.697C145.237 110.982 150.002 114.012 153.513 118.942C158.074 125.351 160.599 130.843 166.491 135.881C167.92 140.945 172.627 145.856 176.395 150.3C179.635 154.118 183.448 157.535 186.603 161.234C192.063 167.646 197.124 176.379 200.802 183.313C204.886 191.013 206.587 200.016 213.378 206.117C219.235 200.413 226.096 198.213 233.881 199.213C243.033 191.941 255.537 196.32 266.092 193.931C267.387 194.606 268.678 195.283 269.344 196.141C274.802 194.513 279.776 193.425 285.887 196.377C288.753 197.765 290.358 199.297 292.627 198.895C301.114 192.022 311.834 184.135 323.297 180.985C331.429 178.751 341.904 178.419 350.133 182.467C361.398 188.007 369.035 205.605 368.219 214.413C368.162 215.03 368.461 215.652 368.464 216.168C368.479 221.155 366.807 226.723 365.728 232.106C364.262 239.41 361.521 245.905 356.752 252.709C359.683 261.017 367.122 268.043 361.874 278.687C389.495 290.782 401.669 319.156 387.615 344.51C328.305 451.51 129.414 378.049 102.628 357.258"
    fill="#F41B1B"
    />
</svg>